<svg xmlns="http://www.w3.org/2000/svg" viewBox="0 0 16 16"><style>.st0{opacity:0}.st0,.st1{fill:#f6f6f6}.st2{fill:#388a34}.st3{fill:#3c8a3f}</style><g id="outline"><path class="st0" d="M0 0h16v16H0z"/><path class="st1" d="M9 2v1l-9 .011V14h12v-3h4V2H9z"/><path class="st1" d="M9 2v1l-9 .011V14h12v-3h4V2H9z"/></g><g id="icon_x5F_bg"><path class="st2" d="M10 3v4.289L7 9.814 5.007 7.603 2 8.49V5h7V4l-8 .01V13h10V4h3v1.603l-.916-1.041L12 6.072v1.443l1.063-1.537.937.794V9h-2v1h3V3h-5zm0 9H2V9.836l3-.814 2 2.313 3-2.425V12z"/><path class="st3" d="M10 3v4.289L7 9.814 5.007 7.603 2 8.49V5h7V4l-8 .01V13h10V4h3v1.603l-.916-1.041L12 6.072v1.443l1.063-1.537.937.794V9h-2v1h3V3h-5zm0 9H2V9.836l3-.814 2 2.313 3-2.425V12z"/></g></svg>