<svg xmlns="http://www.w3.org/2000/svg" viewBox="0 0 16 16"><style>.st0{fill:#f6f6f6}.st1{fill:#424242}.st2,.st3{fill-rule:evenodd;clip-rule:evenodd;fill:#2372c6}.st3{fill:#fff}</style><path class="st0" d="M15 3V0h-3v3h-1V0H8v1.984l-8 .903v12.1l9 1.015V8h1v3h3V8h2V6h1V3z" id="outline"/><g id="icon_x5F_bg"><path class="st1" d="M9 1h1v2H9zM13 1h1v2h-1zM8 4v1h1v2h2v3h1V7h2V5h1V4z"/></g><g id="color_x5F_decoration"><path class="st2" d="M8.175 3v-.011L8.069 3zM8 8V6H7V3.119l-5.963.663v10.31l7.138.793V8H8zm-1.691 2.888c-.02.133-.051.26-.091.379s-.091.231-.149.333a1.648 1.648 0 0 1-.936.756c-.145.048-.302.08-.469.099a3.237 3.237 0 0 1-.533.007 2.833 2.833 0 0 1-.768-.144 2.259 2.259 0 0 1-.326-.137A2.25 2.25 0 0 1 2.75 12v-1.498c.103.115.211.221.321.311a1.959 1.959 0 0 0 .704.371c.126.033.255.054.386.059a1.119 1.119 0 0 0 .364-.04.684.684 0 0 0 .265-.161.586.586 0 0 0 .135-.212.766.766 0 0 0 .029-.429.818.818 0 0 0-.133-.308 1.281 1.281 0 0 0-.244-.261 3.288 3.288 0 0 0-.382-.273 8.583 8.583 0 0 0-.251-.157 3.192 3.192 0 0 1-.54-.404 2.26 2.26 0 0 1-.378-.462 2.045 2.045 0 0 1-.298-1.109c0-.151.01-.294.032-.431.022-.136.054-.266.098-.389a1.96 1.96 0 0 1 .678-.915 2.023 2.023 0 0 1 .721-.32 2.68 2.68 0 0 1 .435-.063c.136-.009.266-.012.392-.009.127.003.247.012.363.027.117.016.227.037.333.065.104.027.204.061.3.101v1.485a1.943 1.943 0 0 0-.627-.348 1.747 1.747 0 0 0-.338-.078 2.056 2.056 0 0 0-.352-.016 1.243 1.243 0 0 0-.17.019.881.881 0 0 0-.283.109.797.797 0 0 0-.115.088.75.75 0 0 0-.154.228.65.65 0 0 0-.04.134.898.898 0 0 0-.013.149c0 .056.005.108.011.159.009.049.021.098.035.142a.756.756 0 0 0 .139.246 1.619 1.619 0 0 0 .252.225 6.2 6.2 0 0 0 .418.268 5.273 5.273 0 0 1 .648.439 2.497 2.497 0 0 1 .442.436 1.834 1.834 0 0 1 .302.586c.036.107.061.22.078.336.018.118.026.239.026.366 0 .149-.011.289-.03.422z"/></g><path class="st3" d="M6.309 10.888c-.02.133-.051.26-.091.379s-.091.231-.149.333a1.648 1.648 0 0 1-.936.756c-.145.048-.302.08-.469.099a3.237 3.237 0 0 1-.533.007 2.833 2.833 0 0 1-.768-.144 2.259 2.259 0 0 1-.326-.137A2.25 2.25 0 0 1 2.75 12v-1.498c.103.115.211.221.321.311a1.959 1.959 0 0 0 .704.371c.126.033.255.054.386.059a1.119 1.119 0 0 0 .364-.04.684.684 0 0 0 .265-.161.586.586 0 0 0 .135-.212.766.766 0 0 0 .029-.429.818.818 0 0 0-.133-.308 1.281 1.281 0 0 0-.244-.261 3.288 3.288 0 0 0-.382-.273 8.583 8.583 0 0 0-.251-.157 3.192 3.192 0 0 1-.54-.404 2.26 2.26 0 0 1-.378-.462 2.045 2.045 0 0 1-.298-1.109c0-.151.01-.294.032-.431.022-.136.054-.266.098-.389a1.96 1.96 0 0 1 .678-.915 2.023 2.023 0 0 1 .721-.32 2.68 2.68 0 0 1 .435-.063c.136-.009.266-.012.392-.009.127.003.247.012.363.027.117.016.227.037.333.065.104.027.204.061.3.101v1.485a1.943 1.943 0 0 0-.627-.348 1.747 1.747 0 0 0-.338-.078 2.056 2.056 0 0 0-.352-.016 1.243 1.243 0 0 0-.17.019.881.881 0 0 0-.283.109.797.797 0 0 0-.115.088.75.75 0 0 0-.154.228.65.65 0 0 0-.04.134.898.898 0 0 0-.013.149c0 .056.005.108.011.159.009.049.021.098.035.142a.756.756 0 0 0 .139.246 1.619 1.619 0 0 0 .252.225 6.2 6.2 0 0 0 .418.268 5.273 5.273 0 0 1 .648.439 2.497 2.497 0 0 1 .442.436 1.834 1.834 0 0 1 .302.586c.036.107.061.22.078.336.018.118.026.239.026.366 0 .149-.011.289-.03.422z" id="not_x5F_fg"/></svg>