<svg xmlns="http://www.w3.org/2000/svg" viewBox="0 0 16 16"><style>.icon-canvas-transparent{opacity:0;fill:#f6f6f6}.icon-vs-out{fill:#f6f6f6}.icon-vs-bg{fill:#424242}.icon-white{fill:#fff}.icon-git-orange{fill:#ef5945}</style><path class="icon-canvas-transparent" d="M16 16H0V0h16v16z" id="canvas"/><path class="icon-vs-out" d="M10.721 12.5a1.72 1.72 0 0 1-.463.322c.468.621.742 1.375.742 2.178v1H8v-1a.655.655 0 0 0-1.308 0v1h-3v-1c0-.898.327-1.743.904-2.399a3.02 3.02 0 0 1-.289-1.294.654.654 0 0 0-1.307 0v1H0v-1c0-.896.327-1.742.904-2.398a3.043 3.043 0 0 1 2.75-4.333c.171 0 .336.023.499.05L8.28.501C8.604.177 9.033 0 9.489 0s.886.178 1.208.5L15.5 5.302c.323.322.501.753.5 1.211 0 .457-.178.886-.501 1.208L10.721 12.5z" id="outline"/><g id="iconBg"><path class="icon-git-orange" d="M14.792 7.014l-4.422 4.422c.002-.044.014-.086.014-.13a3.041 3.041 0 0 0-3.785-2.945 3.028 3.028 0 0 0-1.413-3.355l3.799-3.799c.138-.135.312-.207.504-.207s.366.072.501.208l4.803 4.802a.71.71 0 0 1-.001 1.004z"/><path class="icon-vs-bg" d="M1 11.307h1c0-.912.742-1.654 1.654-1.654.912 0 1.653.742 1.653 1.654 0 .572.238 1.088.619 1.458A2.652 2.652 0 0 0 4.692 15h1c0-.912.742-1.654 1.654-1.654S9 14.088 9 15h1c0-.94-.495-1.763-1.234-2.235.38-.37.619-.886.619-1.458a2.04 2.04 0 0 0-2.039-2.038 2.03 2.03 0 0 0-1.458.618 2.667 2.667 0 0 0-.814-.814c.38-.37.618-.886.618-1.458a2.04 2.04 0 0 0-2.038-2.039 2.042 2.042 0 0 0-2.039 2.039c0 .572.238 1.087.619 1.458A2.65 2.65 0 0 0 1 11.307zm5.308 0a1.04 1.04 0 0 1 2.078 0 1.04 1.04 0 0 1-2.078 0zM3.654 8.653a1.04 1.04 0 0 1-1.039-1.038 1.04 1.04 0 0 1 1.039-1.039 1.038 1.038 0 1 1 0 2.077z"/></g><g id="iconFg"><path class="icon-white" d="M12.944 6.562a1.08 1.08 0 1 1-2.065-.439l-.97-.981-.016.005v2.83c.402.157.688.546.688 1.004 0 .402-.229.738-.555.924a3.041 3.041 0 0 0-1.487-1.39c.119-.242.315-.439.568-.538v-2.83a1.077 1.077 0 0 1-.602-1.425L7.495 2.7l.555-.555 1.005 1.016a1.08 1.08 0 0 1 1.525.982c0 .164-.039.317-.104.456l.96.971a1.081 1.081 0 0 1 1.508.992z"/></g></svg>