<svg xmlns="http://www.w3.org/2000/svg" viewBox="0 0 16 16"><style>.st0{fill:#f0eff1}.st0,.st1{opacity:0}.st1,.st2{fill:#f6f6f6}.st3{fill:#424242}.st4{fill:#f0eff1}</style><g id="outline"><path class="st0" d="M0 0h16v16H0z"/><path class="st1" d="M0 0h16v16H0z"/><path class="st2" d="M4 0v9h-.583l-.013-.004a3.4 3.4 0 0 0-.805-.085c-.342 0-.664.06-.952.176A2.265 2.265 0 0 0 .35 10.412c-.11.291-.166.609-.166.947 0 .145.011.285.034.421V15.186l.445.297c.114.076.248.144.396.2.119.045.248.085.378.117.136.034.275.061.409.077.149.02.288.029.417.029.24 0 .453-.037.655-.084h.989L4 16h12V0H4z"/><path class="st3" d="M3.731 13.492c0 .103-.01.21-.029.32a1.389 1.389 0 0 1-.277.62 1.081 1.081 0 0 1-.273.246c-.109.07-.237.125-.384.167a1.852 1.852 0 0 1-.507.062 2.58 2.58 0 0 1-.847-.159.923.923 0 0 1-.197-.098v-.967a2.286 2.286 0 0 0 .46.274c.089.039.179.071.271.096.092.025.182.037.27.037a.576.576 0 0 0 .251-.049.489.489 0 0 0 .26-.298.642.642 0 0 0-.015-.426c-.029-.071-.072-.136-.128-.197s-.124-.12-.204-.177a4.286 4.286 0 0 0-.271-.177c-.321-.186-.556-.395-.704-.625a1.415 1.415 0 0 1-.222-.783c0-.218.034-.416.101-.593s.163-.33.286-.457c.124-.127.272-.225.446-.295.174-.07.368-.104.581-.104.222 0 .412.019.568.057s.28.079.372.121v.896a1.655 1.655 0 0 0-.613-.241c-.079-.015-.157-.022-.236-.022a.544.544 0 0 0-.384.155.478.478 0 0 0-.109.168.67.67 0 0 0 .096.622c.09.12.238.241.445.362.148.083.284.171.406.264s.227.198.313.313c.086.116.154.245.202.389.048.148.072.313.072.499zM6.689 14.823l-.27-1.186H5.214l-.276 1.186h-.974l1.341-4.831h1.081l1.284 4.831h-.981zm-.764-3.45a6.2 6.2 0 0 1-.076-.51.998.998 0 0 0-.015-.096h-.02l-.013.093a18.715 18.715 0 0 1-.054.327c-.011.06-.024.113-.037.16l-.357 1.56h.91l-.338-1.534zM10.982 11.531c0 .231-.035.447-.106.647s-.172.374-.303.522-.292.264-.482.349c-.19.084-.404.126-.642.126h-.388v1.647h-.93v-4.83h1.395c.22 0 .42.031.6.094a1.2 1.2 0 0 1 .46.285c.127.127.225.287.293.48.068.193.103.42.103.68zm-.967.041c0-.261-.06-.455-.179-.585a.604.604 0 0 0-.465-.194h-.31v1.573h.32a.64.64 0 0 0 .293-.062.53.53 0 0 0 .197-.172.72.72 0 0 0 .109-.254c.024-.096.035-.198.035-.306z"/></g><path class="st3" d="M5 1v7.992h1V8h2v.992h1V8h2v1.431c.102.072.204.144.293.233.232.232.41.519.528.852.106.302.16.643.16 1.016 0 .344-.055.673-.162.979a2.534 2.534 0 0 1-.502.856 2.274 2.274 0 0 1-.351.32v1.276L15 15V1H5zm3 6H6V5h2v2zm0-3H6V2h2v2zm3 3H9V5h2v2zm0-3H9V2h2v2zm3 6h-2V8h2v2zm0-3h-2V5h2v2zm0-3h-2V2h2v2z" id="icon_x5F_bg"/><g id="icon_x5F_fg"><path class="st4" d="M9 8h2v1H9zM6 8h2v1H6zM6 5h2v2H6zM6 2h2v2H6zM12 2h2v2h-2zM9 5h2v2H9zM12 5h2v2h-2zM9 2h2v2H9zM12 8v2.016L13 10h1V8z"/></g></svg>