<svg xmlns="http://www.w3.org/2000/svg" viewBox="0 0 16 16"><style>.st0{opacity:0;fill:#424242}.st1{fill:#f0eff1}.st2{fill:#f6f6f6}.st3{fill:#424242}</style><g id="outline"><path class="st0" d="M0 0h16v16H0z"/><path class="st1" d="M9 8h2v1H9zM6.356 9.079c.397 0 .735.055 1.034.166.232.086.43.213.61.358V8H6v1l.158.079h.198zM6 5h2v2H6zM6 2h2v2H6zM12 2h2v2h-2zM9 5h2v2H9zM12 5h2v2h-2zM9 2h2v2H9zM12 8h2v1h-2z"/><path class="st2" d="M3.987 0v9.305A2.521 2.521 0 0 0 2.737 9c-.467 0-.89.106-1.258.315a2.542 2.542 0 0 0-.884.845 3.464 3.464 0 0 0-.45 1.11 5.646 5.646 0 0 0-.128 1.234c0 .434.044.84.131 1.208.097.408.25.771.455 1.078.229.344.526.615.88.807.357.192.763.29 1.208.29.455 0 .868-.099 1.227-.293.025-.014.047-.032.069-.05V16H16V0H3.987z"/></g><g id="icon_x5F_bg"><path class="st3" d="M5 1v8h1V8h2v1.603c.069.055.143.105.203.168.008.009.013.02.021.029.221-.222.464-.415.751-.545.008-.004.017-.005.025-.008V8h2v1.109c.156.045.299.091.404.137L12 9.51V8h2v2h-2v5h3V1H5zm3 6H6V5h2v2zm0-3H6V2h2v2zm3 3H9V5h2v2zm0-3H9V2h2v2zm3 3h-2V5h2v2zm0-3h-2V2h2v2zM4.398 12.429c0 .376-.035.715-.105 1.017s-.176.56-.318.775-.319.379-.532.494-.464.173-.751.173c-.279 0-.523-.057-.733-.17s-.385-.274-.524-.483-.244-.46-.313-.753-.104-.619-.104-.977c0-.369.035-.707.104-1.013s.175-.57.316-.791.321-.393.537-.516.47-.185.762-.185c.299 0 .553.059.763.178s.381.285.514.498.23.469.292.766.092.627.092.987zm-.946.046c0-.25-.014-.479-.041-.686s-.07-.383-.129-.531-.133-.261-.224-.343-.201-.122-.328-.122c-.141 0-.26.043-.359.129s-.179.203-.239.353-.104.325-.131.526-.041.417-.041.648c0 .259.015.491.044.694s.076.375.138.516.141.248.236.321.205.11.333.11.238-.038.331-.115.17-.186.231-.326.105-.31.135-.509.044-.421.044-.665z"/><path class="st3" d="M6.956 14.805l-.336-1.153c-.068-.235-.149-.404-.242-.508s-.195-.155-.305-.155h-.122v1.816h-.91v-4.726h1.315c.272 0 .5.034.682.102s.328.16.438.277.188.252.234.405.069.315.069.484c0 .18-.021.339-.063.478s-.101.26-.176.364-.165.192-.267.262-.215.127-.338.171v.016c.152.059.274.159.366.298s.174.319.244.539l.425 1.328H6.956zm-.119-3.286c0-.204-.051-.365-.153-.481s-.252-.175-.45-.175h-.283v1.358h.283a.547.547 0 0 0 .447-.213c.052-.065.091-.14.117-.224s.039-.172.039-.265zM10.848 14.74c-.059.026-.127.051-.203.073a1.98 1.98 0 0 1-.549.075c-.288 0-.545-.055-.771-.165s-.418-.266-.575-.47-.277-.449-.359-.737-.124-.61-.124-.966c0-.417.044-.785.132-1.102s.215-.583.381-.798.369-.376.61-.486.512-.164.816-.164a1.853 1.853 0 0 1 .794.162v.883c-.081-.064-.185-.121-.31-.173s-.269-.077-.432-.077c-.169 0-.319.04-.448.12s-.239.193-.328.339-.157.322-.203.529-.069.435-.069.686c0 .257.023.486.069.687s.113.371.199.509.192.244.316.316.265.109.424.109c.165 0 .314-.028.447-.084s.245-.118.335-.186v.844a1.784 1.784 0 0 1-.152.076z"/></g><path class="st1" d="M13 8h1v2h-1z" id="icon_x5F_fg"/></svg>