<svg xmlns="http://www.w3.org/2000/svg" width="16" height="16"><style type="text/css">.icon-canvas-transparent{opacity:0;fill:#F6F6F6;} .icon-vs-out{fill:#F6F6F6;} .icon-vs-bg{fill:#424242;} .icon-vs-fg{fill:#F0EFF1;}</style><path class="icon-canvas-transparent" d="M16 16h-16v-16h16v16z" id="canvas"/><path class="icon-vs-out" d="M16 0v16h-13.49l-.419-.03-.401-.074-.401-.124c-.148-.058-.276-.122-.39-.197l-.449-.297v-3.452c-.023-.138-.034-.28-.034-.426 0-.341.056-.662.167-.955.117-.31.289-.58.509-.807.224-.229.492-.408.799-.53.291-.118.615-.178.96-.178.309 0 .576.029.815.088l.334.096v-9.114h12z" id="outline"/><path class="icon-vs-bg" d="M9 12v3h-2v-1s2-.235 2-2zm-5.278.667c-.088-.117-.194-.224-.318-.318s-.261-.184-.412-.268c-.209-.123-.36-.246-.451-.368-.091-.121-.137-.261-.137-.418l.04-.212.111-.171.171-.115.219-.042.239.021.232.061.212.085.178.1v-.909c-.093-.044-.219-.085-.377-.123-.16-.04-.352-.059-.577-.059-.216 0-.413.035-.59.106-.176.07-.327.17-.453.299s-.222.283-.291.463c-.068.18-.102.381-.102.601 0 .297.075.562.226.795s.389.445.714.634l.275.18.207.179.13.2c.03.072.044.153.044.245l-.029.188-.094.174-.169.129c-.069.033-.154.049-.254.049l-.273-.037-.275-.098-.255-.133-.212-.146v.981l.2.099.271.084.301.056.287.021c.194 0 .365-.021.515-.063.149-.042.279-.099.39-.169.11-.071.203-.154.276-.25.074-.096.135-.196.182-.303.046-.105.08-.215.099-.326l.028-.325c0-.189-.024-.357-.073-.503-.05-.145-.118-.277-.205-.394zm11.278-11.667v14h-4v-3h-2v-2h2v-2h-2v1h-1v-1h-2v1h-1v-8h10zm-7 4h-2v2h2v-2zm0-3h-2v2h2v-2zm3 3h-2v2h2v-2zm0-3h-2v2h2v-2zm3 6h-2v2h2v-2zm0-3h-2v2h2v-2zm0-3h-2v2h2v-2zm-6.212 8.872c.069.195.104.426.104.69 0 .234-.036.453-.108.656-.071.202-.174.379-.308.529-.133.15-.296.269-.488.354-.193.086-.41.128-.651.128h-.394v1.672h-.943v-4.901h1.415c.223 0 .426.032.608.096s.338.16.466.289c.13.129.229.291.299.487zm-.877.732c0-.265-.061-.462-.181-.594-.121-.131-.278-.196-.472-.196h-.315v1.597h.325c.116 0 .215-.021.297-.063s.149-.101.2-.175c.052-.073.088-.159.111-.258l.035-.311z" id="iconBg"/><path class="icon-vs-fg" d="M8 4h-2v-2h2v2zm3-2h-2v2h2v-2zm3 0h-2v2h2v-2zm-6 3h-2v2h2v-2zm3 0h-2v2h2v-2zm3 0h-2v2h2v-2zm0 3h-2v2h2v-2zm-3 0h-2v2h2v-2zm-3 0h-2v1h2v-1zm3 4h-2v3h2v-3z" id="iconFg"/></svg>