<svg xmlns="http://www.w3.org/2000/svg" width="16" height="16"><style type="text/css">.icon-canvas-transparent{opacity:0;fill:#F6F6F6;} .icon-vs-out{fill:#F6F6F6;} .icon-vs-fg{fill:#F0EFF1;} .icon-vs-action-green{fill:#388A34;}</style><path class="icon-canvas-transparent" d="M16 16h-16v-16h16v16z" id="canvas"/><path class="icon-vs-out" d="M16 3.556v8.444c0 .97-.701 2-2 2h-2v2h-12v-8c0-2.206 1.794-4 4-4v-2c0-1.299 1.03-2 2-2h6.06l3.94 3.556z" id="outline"/><path class="icon-vs-action-green" d="M15 4v8s-.035 1-1.035 1h-1.965v-1h2v-7h-2v-1h-1v-2h-5v2h-1v-2c0-1 .964-1 .964-1h5.677l3.359 3zm-12 3h2l1 1.5 1-1.5h2l-2 3 2 3h-2l-1-1.5-1 1.5h-2l2-3-2-3zm8-2v10h-10v-7c0-1.657 1.343-3 3-3h7zm-1 1h-6c-1.103 0-2 .897-2 2v6h8v-8z" id="iconBg"/><g id="iconFg"><path class="icon-vs-fg" d="M6 4v-2h5v2h-5zm6 1v7h2v-7h-2zm-2 1v8h-8v-6c0-1.103.897-2 2-2h6zm-3 4l2-3h-2l-1 1.5-1-1.5h-2l2 3-2 3h2l1-1.5 1 1.5h2l-2-3z"/></g></svg>