<svg xmlns="http://www.w3.org/2000/svg" viewBox="0 0 16 16"><style>.st0{fill:#f6f6f6}.st1{fill:#424242}.st2{fill:#00539c}.st3{fill:#f0eff1}</style><path class="st0" d="M16 0H3.586L0 3.585v.829l3 3v2.626c-.067-.009-.132-.019-.204-.024A4.053 4.053 0 0 0 2.428 10a2.94 2.94 0 0 0-.879.127 2.356 2.356 0 0 0-.785.415 2.06 2.06 0 0 0-.683 1.059l-.04-.038v.228a2.247 2.247 0 0 0 0 .694v2.762l.4.3c.117.088.251.158.423.223a3.62 3.62 0 0 0 .762.178 3.346 3.346 0 0 0 1.144-.043l.02-.007h2.602l.226-.71.228.71H9.735v-1.376c.137-.025.268-.06.393-.104.316-.11.592-.269.813-.468a2.1 2.1 0 0 0 .554-.762c.122-.281.184-.588.184-.911 0-.572-.169-.977-.374-1.278H16V0z" id="outline"/><g id="icon_x5F_bg"><path class="st1" d="M7 1v.414L6.414 2H8v4h1v3H5V8H4v2h11V1H7zm7 8h-4V6h4v3zm0-4h-4V2h4v3zM3.546 13.836c0 .084-.011.171-.031.261a.926.926 0 0 1-.102.262 1.075 1.075 0 0 1-.466.435 1.645 1.645 0 0 1-.393.135 2.388 2.388 0 0 1-.794.028 2.412 2.412 0 0 1-.548-.125.701.701 0 0 1-.172-.085v-.857c.057.054.127.104.209.154.082.049.17.093.266.13.095.037.191.066.291.089.099.023.192.034.28.034a.75.75 0 0 0 .248-.035.447.447 0 0 0 .157-.09.326.326 0 0 0 .082-.127.46.46 0 0 0 .022-.14.375.375 0 0 0-.044-.18.56.56 0 0 0-.132-.154 1.246 1.246 0 0 0-.216-.146 6.173 6.173 0 0 0-.301-.155 2.534 2.534 0 0 1-.42-.246 1.4 1.4 0 0 1-.275-.266.984.984 0 0 1-.147-.293 1.134 1.134 0 0 1-.046-.322 1.042 1.042 0 0 1 .387-.829c.123-.1.271-.178.446-.232.174-.056.368-.082.581-.082a3.318 3.318 0 0 1 .546.043 2.236 2.236 0 0 1 .388.094v.84a1.146 1.146 0 0 0-.186-.116 1.585 1.585 0 0 0-.229-.092 1.707 1.707 0 0 0-.248-.066 1.576 1.576 0 0 0-.25-.022.847.847 0 0 0-.191.022.508.508 0 0 0-.164.07.332.332 0 0 0-.157.292.427.427 0 0 0 .148.329c.05.046.112.089.187.132.075.041.162.086.261.132.181.086.335.174.462.261.129.088.232.179.314.276.081.097.141.197.18.303.037.104.057.218.057.338zM6.574 14.898l-.274-.854H4.932l-.272.854h-.938l1.4-3.846h1.026l1.368 3.846h-.942zm-.891-2.812a1.407 1.407 0 0 1-.024-.093l-.018-.095-.011-.08c-.002-.025-.005-.043-.007-.055h-.02c-.003.026-.01.069-.02.129-.009.061-.023.12-.042.183l-.412 1.258h.962l-.408-1.247zM10.31 11.36c-.246-.205-.607-.308-1.085-.308H7.886v3.846h.848v-1.324h.414c.243 0 .459-.033.649-.1.19-.066.352-.157.481-.273.131-.115.23-.251.298-.41.068-.157.102-.328.102-.513 0-.406-.122-.711-.368-.918zm-.715 1.396c-.114.106-.288.161-.521.161h-.341v-1.2h.341c.222 0 .393.051.512.148.12.098.181.247.181.445 0 .192-.058.339-.172.446z"/></g><path class="st2" d="M6 7L4 5h3V3H4l2-2H4L1 4l3 3z" id="color_x5F_action"/><g id="icon_x5F_fg"><path class="st3" d="M10 2h4v3h-4zM10 6h4v3h-4zM6.414 6L7 6.586V8H5v1h4V6H8z"/></g></svg>