<svg xmlns="http://www.w3.org/2000/svg" viewBox="0 0 16 16"><style>.st0,.st1{fill:#f6f6f6}.st0{opacity:0}.st1{fill-rule:evenodd;clip-rule:evenodd}.st2{fill:#0072c6}.st3{fill:#fff}</style><g id="outline"><path class="st0" d="M0 0h16v16H0z"/><path class="st1" d="M3 14.316V1.682L14.079.034v15.933z"/></g><g id="color_x5F_decoration"><path class="st2" d="M9.42 6.94a2.751 2.751 0 0 0-.135-.444 2.217 2.217 0 0 0-.191-.37 1.54 1.54 0 0 0-.225-.282c-.082-.08-.168-.146-.262-.197a1.172 1.172 0 0 0-.628-.14c-.124.005-.24.025-.349.059-.11.034-.212.082-.308.145a1.4 1.4 0 0 0-.266.231 1.86 1.86 0 0 0-.224.315 2.452 2.452 0 0 0-.173.365c-.049.129-.09.268-.122.414-.033.146-.057.3-.073.463a5.272 5.272 0 0 0 .002 1.059c.018.173.045.334.081.485.036.152.081.295.135.426.054.133.118.256.19.367.068.104.141.195.22.275a1.227 1.227 0 0 0 .853.381c.114.004.223-.004.328-.025a1.215 1.215 0 0 0 .564-.287c.082-.074.16-.162.232-.262a2.19 2.19 0 0 0 .201-.361c.059-.133.105-.277.145-.434.038-.156.067-.324.087-.503a5.73 5.73 0 0 0 0-1.163 4.027 4.027 0 0 0-.082-.517z"/><path class="st2" d="M4 2.549v10.9l9 1.363V1.187L4 2.549zm7.033 6.307c-.039.289-.096.56-.174.814a3.986 3.986 0 0 1-.287.711 3.541 3.541 0 0 1-.396.607c-.15.184-.311.342-.482.476a2.448 2.448 0 0 1-1.131.498 2.905 2.905 0 0 1-1.258-.077 2.498 2.498 0 0 1-1.024-.582 3.21 3.21 0 0 1-.416-.475 3.711 3.711 0 0 1-.341-.574 4.15 4.15 0 0 1-.242-.647 4.581 4.581 0 0 1-.144-.716 6.992 6.992 0 0 1-.001-1.617c.031-.262.078-.51.141-.746.063-.236.142-.459.236-.67.095-.212.206-.411.334-.598.131-.191.273-.361.428-.51a2.621 2.621 0 0 1 1.081-.629 3.014 3.014 0 0 1 1.288-.086 2.36 2.36 0 0 1 1.097.484c.166.13.32.284.465.462.147.18.274.376.385.589.109.214.203.444.275.691.074.248.131.512.168.792.037.28.057.577.057.889 0 .322-.02.627-.059.914z"/></g><path class="st3" d="M7.957 10.492a1.246 1.246 0 0 1-.853-.381 1.867 1.867 0 0 1-.22-.275 2.185 2.185 0 0 1-.19-.367 2.835 2.835 0 0 1-.135-.426 3.77 3.77 0 0 1-.081-.485 5.258 5.258 0 0 1-.027-.547c0-.179.008-.35.024-.513a3.97 3.97 0 0 1 .073-.463c.033-.145.074-.284.123-.413.049-.13.106-.251.172-.365.068-.119.144-.224.225-.315a1.37 1.37 0 0 1 .266-.231c.096-.063.198-.111.308-.145a1.4 1.4 0 0 1 .68-.031 1.161 1.161 0 0 1 .559.309c.082.08.156.174.226.282.072.111.137.235.19.37.055.136.1.284.136.444.037.16.064.332.082.517.02.184.028.38.028.588 0 .203-.01.396-.029.575a3.78 3.78 0 0 1-.087.503 2.76 2.76 0 0 1-.145.434 2.055 2.055 0 0 1-.202.361c-.072.1-.149.188-.232.262a1.161 1.161 0 0 1-.563.287 1.409 1.409 0 0 1-.328.025m.072-6.484a3.014 3.014 0 0 0-.66.114 2.621 2.621 0 0 0-1.081.628 3.319 3.319 0 0 0-.428.51 3.857 3.857 0 0 0-.334.597 4.389 4.389 0 0 0-.236.671c-.063.236-.11.484-.141.746a7.004 7.004 0 0 0 .001 1.617c.032.251.08.492.144.718.064.227.145.443.242.647.097.203.211.394.341.574.129.178.268.336.417.475.15.137.31.256.479.352.171.098.353.176.545.23a2.908 2.908 0 0 0 1.258.077 2.44 2.44 0 0 0 1.131-.498c.172-.135.332-.293.482-.476.15-.186.283-.389.396-.607.115-.219.211-.457.287-.711.077-.254.135-.525.174-.814.039-.287.059-.592.059-.912 0-.312-.019-.608-.057-.889a5.106 5.106 0 0 0-.168-.792 4.013 4.013 0 0 0-.275-.691 3.395 3.395 0 0 0-.385-.589 2.857 2.857 0 0 0-.465-.462 2.334 2.334 0 0 0-1.099-.487 2.877 2.877 0 0 0-.627-.028" id="not_x5F_fg"/></svg>