<svg xmlns="http://www.w3.org/2000/svg" viewBox="0 0 16 16"><defs><style>.icon-canvas-transparent,.icon-vs-out{fill:#f6f6f6;}.icon-canvas-transparent{opacity:0;}.icon-vs-bg{fill:#424242;}</style></defs><title>CloakHide_16x</title><g id="canvas"><path class="icon-canvas-transparent" d="M16,0V16H0V0Z"/></g><g id="outline"><path class="icon-vs-out" d="M16,9.014v2.515a4.5,4.5,0,0,1-8.984.344l-.262-.087A4,4,0,0,1,4.553,10H0V9a8,8,0,0,1,15.983-.357Z"/></g><g id="iconBg"><path class="icon-vs-bg" d="M7.316,9.872a4.484,4.484,0,0,0-.249.965,2.992,2.992,0,1,1,3.77-3.77,4.484,4.484,0,0,0-.965.249A2,2,0,1,0,7.316,9.872ZM13.849,7.68a4.492,4.492,0,0,1,1.135,1.007A7,7,0,0,0,1,9H2A6,6,0,0,1,13.849,7.68ZM15,11.5A3.5,3.5,0,1,1,11.5,8,3.5,3.5,0,0,1,15,11.5Zm-2.123,2.084L9.416,10.123a2.5,2.5,0,0,0,3.461,3.461ZM14,11.5a2.5,2.5,0,0,0-3.877-2.084l3.461,3.461A2.486,2.486,0,0,0,14,11.5Z"/></g></svg>