<svg xmlns="http://www.w3.org/2000/svg" viewBox="0 0 16 16"><style>.st0{opacity:0}.st0,.st1{fill:#f6f6f6}.st2{fill:#424242}.st3{fill:#f0eff1}</style><g id="outline"><path class="st0" d="M0 0h16v16H0z"/><path class="st1" d="M12.061 0H6c-.97 0-2 .701-2 2v2C1.794 4 0 5.794 0 8v8h12v-2h2c1.299 0 2-1.03 2-2V3.556L12.061 0z"/></g><g id="icon_x5F_bg"><path class="st2" d="M11.641 1H5.964S5 1 5 2v2h1V2h5v2h1v1h2v7h-2v1h1.965c1 0 1.035-1 1.035-1V4l-3.359-3z"/><path class="st2" d="M5.671 10.575c.688.243.827.431.827.653 0 .436-.516.482-.737.482a2.941 2.941 0 0 1-1.305-.331l-.143-.077L4 12.589l.085.048c.31.176.943.363 1.603.363 1.707 0 2.313-.999 2.313-1.854 0-.836-.473-1.404-1.484-1.786-.698-.275-.928-.411-.928-.672 0-.202.205-.406.664-.406.511 0 .891.157 1.072.249l.138.071.344-1.262-.095-.048C7.313 7.099 6.827 7 6.27 7c-1.287 0-2.185.737-2.185 1.795 0 .798.533 1.396 1.586 1.78z"/><path class="st2" d="M1 8v7h10V5H4a3 3 0 0 0-3 3zm9 6H2V8c0-1.104.897-2 2-2h6v8z"/></g><g id="icon_x5F_fg"><path class="st3" d="M2 8v6h8V6H4c-1.103 0-2 .896-2 2zm4.27-1c.558 0 1.043.099 1.442.292l.095.048-.344 1.262-.138-.072a2.388 2.388 0 0 0-1.072-.249c-.459 0-.664.204-.664.406 0 .262.23.397.928.673 1.012.382 1.484.95 1.484 1.786 0 .855-.605 1.854-2.313 1.854-.66 0-1.294-.188-1.604-.363L4 12.589l.313-1.286.143.077c.299.16.797.331 1.305.331.222 0 .737-.047.737-.482 0-.223-.139-.41-.827-.653-1.053-.384-1.586-.982-1.586-1.78C4.085 7.737 4.983 7 6.27 7zM6 2h5v2H6zM12 5h2v7h-2z"/></g></svg>