<svg xmlns="http://www.w3.org/2000/svg" viewBox="0 0 16 16"><style>.st0{fill:#f6f6f6}.st1{fill:#424242}.st2{fill:#f0eff1}</style><path class="st0" d="M0 16V5c0-2.757 2.243-5 5-5h11v16H0z" id="outline"/><path class="st1" d="M5 1a4 4 0 0 0-4 4v10h14V1H5zm9 13H2V5c0-1.654 1.346-3 3-3h9v12zm-8.963-1.539v-2.158a3.68 3.68 0 0 0 1.152.738 3.39 3.39 0 0 0 1.256.246c.248 0 .465-.024.65-.074.186-.049.339-.117.463-.205a.828.828 0 0 0 .369-.699.914.914 0 0 0-.146-.507 1.644 1.644 0 0 0-.4-.41 3.96 3.96 0 0 0-.6-.363c-.231-.117-.48-.236-.75-.359-.682-.313-1.191-.697-1.527-1.152C5.168 7.063 5 6.516 5 5.873c0-.504.093-.937.275-1.299.182-.361.432-.66.746-.894a3.204 3.204 0 0 1 1.096-.515C7.531 3.055 7.971 3 8.434 3c.455 0 .859.03 1.211.092.352.06.676.153.973.279v2.016a3.036 3.036 0 0 0-.479-.297 3.762 3.762 0 0 0-1.596-.377c-.223 0-.426.023-.609.07a1.515 1.515 0 0 0-.463.199.96.96 0 0 0-.293.307.778.778 0 0 0-.104.4c0 .162.039.309.115.436.077.129.188.25.329.365.144.113.315.227.519.336.205.112.434.224.69.341.35.163.664.334.941.517.279.182.519.388.718.616.198.229.351.491.457.786.106.294.157.637.157 1.028 0 .539-.092.991-.276 1.358a2.433 2.433 0 0 1-.753.89 3.079 3.079 0 0 1-1.107.489A5.812 5.812 0 0 1 7.531 13a6.72 6.72 0 0 1-1.369-.135 3.858 3.858 0 0 1-1.125-.404" id="icon_x5F_bg"/><path class="st2" d="M5 2C3.346 2 2 3.346 2 5v9h12V2H5zm5.724 9.473a2.433 2.433 0 0 1-.753.89 3.079 3.079 0 0 1-1.107.489A5.868 5.868 0 0 1 7.531 13a6.72 6.72 0 0 1-1.369-.135 3.887 3.887 0 0 1-1.125-.404v-2.158a3.68 3.68 0 0 0 1.152.738 3.39 3.39 0 0 0 1.256.246c.248 0 .465-.024.65-.074.186-.049.339-.117.463-.205a.828.828 0 0 0 .369-.699.914.914 0 0 0-.146-.507 1.644 1.644 0 0 0-.4-.41 3.96 3.96 0 0 0-.6-.363c-.231-.117-.48-.236-.75-.359-.682-.313-1.191-.697-1.527-1.152C5.168 7.063 5 6.516 5 5.873c0-.504.093-.937.275-1.299.182-.361.432-.66.746-.894a3.204 3.204 0 0 1 1.096-.515C7.531 3.055 7.971 3 8.434 3c.455 0 .859.03 1.211.092.352.06.676.153.973.279v2.016a3.036 3.036 0 0 0-.479-.297 3.762 3.762 0 0 0-1.596-.377c-.223 0-.426.023-.609.07a1.515 1.515 0 0 0-.463.199.96.96 0 0 0-.293.307.778.778 0 0 0-.104.4c0 .162.039.309.115.436.077.129.188.25.329.365.144.113.315.227.519.336.205.112.434.224.69.341.35.163.664.334.941.517.279.182.519.388.718.616.198.229.351.491.457.786.106.294.157.637.157 1.028 0 .539-.092.992-.276 1.359z" id="icon_x5F_fg"/></svg>