<svg xmlns="http://www.w3.org/2000/svg" width="16" height="16"><style type="text/css">.icon-canvas-transparent{opacity:0;fill:#F6F6F6;} .icon-vs-out{fill:#F6F6F6;} .icon-vs-fg{fill:#F0EFF1;} .icon-white{fill:#FFFFFF;} .icon-vs-action-green{fill:#388A34;}</style><path class="icon-canvas-transparent" d="M16 16h-16v-16h16v16z" id="canvas"/><polygon class="icon-vs-out" points="1,0 1,4.964 0,5.107 0,15.052 5.921,16 9,16 9,14 16,14 16,0" id="outline"/><path class="icon-vs-action-green" d="M15 1v12h-6v-1h5v-8h-5v-.181l-1.262.181h-4.738v.678l-1 .143v-3.821h13zm-7 3.973l-7 1.002v8.022l7 1.003v-10.027z" id="iconBg"/><g id="iconFg"><polygon class="icon-vs-fg" points="7.738,4 3,4 3,4.678"/><rect x="9" y="4" class="icon-vs-fg" width="5" height="8"/></g><g id="notificationFg"><path class="icon-white" d="M6.422 7.278l-1.196.07-.88 2.067c-.008-.042-.762-1.972-.762-1.972l-1.153.067 1.23 2.514-1.341 2.507 1.123.064.871-2.01c.009.044.878 2.107.878 2.107l1.27.074-1.462-2.766 1.422-2.722"/></g></svg>