<svg xmlns="http://www.w3.org/2000/svg" width="16" height="16"><style type="text/css">.icon-canvas-transparent{opacity:0;fill:#F6F6F6;} .icon-vs-out{fill:#F6F6F6;} .icon-vs-fg{fill:#F0EFF1;} .icon-vs-action-green{fill:#388A34;}</style><path class="icon-canvas-transparent" d="M16 16h-16v-16h16v16z" id="canvas"/><path class="icon-vs-out" d="M16 5.34l-3 4.66h3v2.056s-2.041 3.944-5.866 3.944c-.325 0-1.492-.029-1.492-.029-1.004-.105-1.923-.36-2.753-.964-.198-.144-3.104-1.722-3.104-5.832 0-3.373 2.215-6.269 6.215-6.759v-2.416h1.31l4.464 3.922-1.483 1.078h2.709v.34z" id="outline"/><path class="icon-vs-action-green" d="M8.908 14.976c-.88-.092-1.698-.384-2.418-.822l.757-.904c.504.281 1.064.47 1.661.549v1.177zm3.924-2.568l.682.921c1.158-.704 1.486-2.32 1.486-2.32h-1.1c-.212.632-.65 1.179-1.068 1.399zm-6.699-.03c-.79-.836-1.278-2.127-1.278-3.369 0-2.576 2.154-4.5 4.73-4.5v2.334l3.437-2.917-3.437-2.917v2.334c-3.221 0-6.006 2.611-6.006 5.832 0 1.602.755 3.051 1.799 4.104l.755-.901zm5.574.887c-.025.014-1.226.465-1.385.494v1.195c.78-.106 1.473-.395 2.072-.762l-.687-.927zm-1.73-1.256l4.316-6h-1.715l-3.185 4.334-.584-1.324h-1.75l1.75 2.99h1.168z" id="iconBg"/><g id="notificationBg"><path class="icon-vs-out" d="M0 16v-6.714c0-1.812 1.474-3.286 3.286-3.286h6.714v10h-10z"/><path class="icon-vs-action-green" d="M3.286 7c-1.263 0-2.286 1.023-2.286 2.286v5.714h8v-8h-5.714zm4.714 7h-6v-4.714c0-.946.34-1.286 1.286-1.286h4.714v6z"/></g><g id="notificationFg"><path class="icon-vs-fg" d="M8 14h-6v-4.714c0-.946.34-1.286 1.286-1.286h4.714v6z"/><path class="icon-vs-action-green" d="M3.664 12.938v-.938c.17.143.354.25.554.321.199.071.4.107.604.107.119 0 .223-.011.312-.032l.223-.089.133-.135.044-.168c0-.082-.023-.155-.07-.22-.047-.064-.111-.124-.192-.179l-.289-.158-.36-.155c-.328-.137-.573-.304-.734-.501-.161-.197-.242-.436-.242-.715 0-.219.044-.407.132-.564.088-.157.208-.287.359-.388.151-.102.327-.176.526-.224.199-.048.41-.072.633-.072.219 0 .413.013.582.04.169.026.325.067.467.122v.876l-.23-.129-.258-.093-.262-.055-.248-.017-.293.031-.222.086-.141.133-.05.174c0 .07.019.133.056.189l.158.158.249.146.331.148c.168.07.319.145.453.224s.249.168.344.268c.096.1.169.213.22.341.051.128.076.277.076.447 0 .234-.044.431-.133.59-.089.159-.209.288-.362.387-.152.098-.33.169-.532.212-.202.043-.416.065-.64.065-.23 0-.45-.02-.658-.059-.208-.037-.388-.096-.54-.174z"/></g></svg>