<svg xmlns="http://www.w3.org/2000/svg" viewBox="0 0 16 16"><style>.st0{fill:#f6f6f6}.st1{fill:#424242}.st2{fill:#2174ba}.st3{fill:#f0eff1}</style><path class="st0" d="M14 0H5C3.897 0 3 .897 3 2v8h-.562l-.024-.001L2.4 10H2v.028a2.737 2.737 0 0 0-.465.099 2.356 2.356 0 0 0-.785.415 2.06 2.06 0 0 0-.549.695 1.913 1.913 0 0 0-.147.364L0 11.564v3.683l.414.3c.117.088.258.158.43.223a3.494 3.494 0 0 0 .766.178c.149.02.289.03.416.03.269 0 .508.026.729-.022.008-.002.014.044.021.044h2.602l.226-.71.228.71H10v-1.477c0-.025.127-.06.252-.104.316-.11.522-.269.744-.468.245-.215.398-.475.518-.762.122-.281.167-.602.167-.924 0-.099-.021-.176-.03-.266H14c1.102 0 2-.898 2-2V2c0-1.103-.898-2-2-2z" id="outline"/><path class="st1" d="M14 1H5a1 1 0 0 0-1 1v8h5.211c.715 0 1.296.208 1.726.565.124.104.253.256.373.435H14a1 1 0 0 0 1-1V2a1 1 0 0 0-1-1zM6.5 9a1.5 1.5 0 1 1 .001-3.001A1.5 1.5 0 0 1 6.5 9zM9 5H5V4h4v1zm0-2H5V2h4v1zm5 4h-4V6h4v1zm0-2h-4V4h4v1zm0-2h-4V2h4v1z" id="icon_x5F_bg"/><g id="color_x5F_importance"><path class="st2" d="M3.532 13.836c0 .084-.011.171-.031.261a.926.926 0 0 1-.102.262 1.075 1.075 0 0 1-.466.435 1.645 1.645 0 0 1-.393.135 2.388 2.388 0 0 1-.794.028 2.412 2.412 0 0 1-.548-.125.701.701 0 0 1-.172-.085v-.857c.057.054.127.104.209.154.082.049.17.093.266.13.095.037.191.066.291.089.099.023.192.034.28.034a.75.75 0 0 0 .248-.035.447.447 0 0 0 .157-.09.326.326 0 0 0 .082-.127.46.46 0 0 0 .022-.14.375.375 0 0 0-.044-.18.56.56 0 0 0-.132-.154 1.246 1.246 0 0 0-.216-.146 6.173 6.173 0 0 0-.301-.155 2.534 2.534 0 0 1-.42-.246 1.4 1.4 0 0 1-.275-.266.934.934 0 0 1-.149-.293A1.215 1.215 0 0 1 1 12.143a1.042 1.042 0 0 1 .387-.829c.123-.1.271-.178.446-.232.175-.056.368-.082.581-.082a3.318 3.318 0 0 1 .546.043 2.236 2.236 0 0 1 .388.094v.84a1.146 1.146 0 0 0-.186-.116 1.585 1.585 0 0 0-.229-.092 1.707 1.707 0 0 0-.248-.066 1.576 1.576 0 0 0-.25-.022.847.847 0 0 0-.191.022.508.508 0 0 0-.164.07.332.332 0 0 0-.157.292.427.427 0 0 0 .148.329c.05.046.112.089.187.132.075.041.162.086.261.132.181.086.335.174.462.261.129.088.232.179.314.276.081.097.141.197.18.303a.983.983 0 0 1 .057.338zM6.561 14.898l-.274-.855H4.918l-.271.855h-.939l1.4-3.846h1.026l1.368 3.846h-.941zm-.892-2.812a1.407 1.407 0 0 1-.024-.093l-.018-.095-.011-.08c-.002-.025-.005-.043-.007-.055h-.02c-.003.026-.01.069-.02.129-.009.061-.023.12-.042.183l-.412 1.258h.962l-.408-1.247zM10.296 11.36c-.246-.205-.607-.308-1.085-.308H7.872v3.846h.848v-1.324h.414c.243 0 .459-.033.649-.1.19-.066.352-.157.481-.273.131-.115.231-.251.298-.41.068-.157.102-.328.102-.513 0-.406-.122-.711-.368-.918zm-.715 1.396c-.114.106-.288.161-.521.161h-.34v-1.2h.341c.222 0 .393.051.512.148.12.098.181.247.181.445-.001.192-.059.339-.173.446z"/></g><g id="icon_x5F_fg"><path class="st3" d="M10 2h4v1h-4zM10 4h4v1h-4zM10 6h4v1h-4zM5 2h4v1H5zM5 4h4v1H5z"/><circle class="st3" cx="6.5" cy="7.5" r="1.5"/></g></svg>