<svg xmlns="http://www.w3.org/2000/svg" viewBox="0 0 16 16"><defs><style>.icon-canvas-transparent,.icon-vs-out{fill:#f6f6f6;}.icon-canvas-transparent{opacity:0;}.icon-vs-bg{fill:#424242;}.vs-control-hyperlink-blue{fill:#0e70c0;}.icon-white{fill:#fff;}</style></defs><title>PowerShellTest_16x</title><g id="canvas"><path class="icon-canvas-transparent" d="M16,0V16H0V0Z"/></g><g id="outline"><path class="icon-vs-out" d="M15.3,14.134A3.493,3.493,0,0,1,12.208,16H1.35A1.35,1.35,0,0,1,.041,14.323l.307-1.23A3.488,3.488,0,0,1,.9,10.523l.137-.2.575-2.3A1.35,1.35,0,0,1,2.925,7h.389L5,4.536V3H4V0h8V3H11V4.536l4.1,5.987A3.5,3.5,0,0,1,15.3,14.134Z"/></g><g id="iconBg"><path class="icon-vs-bg" d="M14.419,13.667A2.494,2.494,0,0,1,12.208,15H9.278c0-.008.008-.015.01-.023L10.783,9h.848L9,5.154V2H7V5.154L5.737,7H4.526L6,4.846V2H5V1h6V2H10V4.846l4.271,6.242A2.491,2.491,0,0,1,14.419,13.667Z"/></g><g id="colorImportance"><path class="vs-control-hyperlink-blue" d="M9.893,8.435l-1.575,6.3A.35.35,0,0,1,7.979,15H1.35a.349.349,0,0,1-.339-.435l1.575-6.3A.35.35,0,0,1,2.925,8H9.554A.35.35,0,0,1,9.893,8.435Z"/><path class="icon-white" d="M5.248,11l-2,2a.35.35,0,0,1-.5,0,.35.35,0,0,1,0-.494L4.505,10.75,3.752,10a.35.35,0,0,1,.5-.494l1,1A.35.35,0,0,1,5.248,11ZM6.5,13.15h-2a.35.35,0,0,0,0,.7h2a.35.35,0,1,0,0-.7Z"/></g></svg>