<svg xmlns="http://www.w3.org/2000/svg" viewBox="0 0 16 16"><style>.icon-canvas-transparent{opacity:0;fill:#f6f6f6}.icon-vs-out{fill:#f6f6f6}.icon-vs-bg{fill:#424242}</style><path class="icon-canvas-transparent" d="M16 16H0V0h16v16z" id="canvas"/><path class="icon-vs-out" d="M14.001.4a9.884 9.884 0 0 1 0 11.921l-.754 1.007-1.407-1.669-.231.298-1.213-1.343-.189.292L9 9.49V16H0V9h2.053A3.487 3.487 0 0 1 1 6.5C1 4.57 2.57 3 4.5 3S8 4.57 8 6.5c0 .979-.403 1.864-1.053 2.5h1.635l-.245-.289.376-.618c.356-.583.537-1.167.537-1.733s-.181-1.149-.537-1.733l-.376-.617 1.868-2.198.191.294L11.609.764l.23.297L12.736 0h.965l.3.4z" id="outline"/><path class="icon-vs-bg" d="M2 6.5a2.5 2.5 0 1 1 5 0 2.5 2.5 0 0 1-5 0M6 10l-1.5 2L3 10H1v5h7V10H6zm5.551-7.68L11 2.93c.751 1.009 1.211 2.179 1.211 3.431 0 1.252-.46 2.423-1.211 3.431l.551.609c.167-.215.308-.445.449-.674.627-1.018 1-2.154 1-3.367 0-1.223-.364-2.374-1-3.398a7.55 7.55 0 0 0-.449-.642zm-1.452 1.161l-.532.625c.427.7.683 1.458.683 2.254s-.256 1.554-.683 2.254l.531.624c.573-.879.902-1.849.902-2.878 0-1.027-.329-1.999-.901-2.879zm3.234 6.578a7.827 7.827 0 0 1-.653 1.045l.521.617A8.917 8.917 0 0 0 15 6.36 8.906 8.906 0 0 0 13.2 1l-.52.616a7.976 7.976 0 0 1 1.071 1.967l.005.016c.078.211.148.425.208.644.011.04.017.081.028.121.048.186.094.372.128.563.017.088.024.18.037.27.022.145.046.289.06.437.022.239.033.482.033.728 0 .419-.039.827-.102 1.228-.006.038-.009.076-.016.114a7.808 7.808 0 0 1-.287 1.146l-.03.092a7.92 7.92 0 0 1-.475 1.106c-.002.001-.004.007-.007.011z" id="iconBg"/></svg>