<svg xmlns="http://www.w3.org/2000/svg" viewBox="0 0 16 16"><style>.st0{fill:#f6f6f6}.st1{fill:#424242}.st2{fill:#f0eff1}</style><g id="icon_x5F_bg"><path class="st0" d="M16 14H0V0h16v14z"/><path class="st1" d="M1 1v12h14V1H1zm12.635 11h-12L2 4h12l-.365 8z"/><path class="st2" d="M13.635 12h-12L2 4h12l-.365 8z"/><path class="st0" d="M1.346 16L-.017 7.849 2.918 4h6.363l3.514 3.428L11.948 16H1.346z"/><path class="st1" d="M9 5.029H3.469L1 8l1.187 7h1.805L4 12.993 5.001 13v2h3v-2h1v2h1.623l.358-6.998L9 5.029zm.012 6.948L3.059 12l-.924-4.034L3.724 6H5v2h2.001V6h1.548l1.394 1.966-.931 4.011z"/></g><g id="icon_x5F_fg"><path class="st2" d="M8.549 6H7v2H5V6H3.724L2.135 7.966 3.066 12l6.053-.023.823-4.012L8.549 6zm-4.294 5.488c-.219 0-.397-.563-.397-1.258 0-.697.178-1.26.397-1.26.22 0 .397.563.397 1.26 0 .696-.177 1.258-.397 1.258zm3.632 0c-.221 0-.399-.563-.399-1.258 0-.697.178-1.26.399-1.26.218 0 .395.563.395 1.26 0 .696-.176 1.258-.395 1.258z"/><path class="st1" d="M4 9h1v2H4zM7 9h1v2H7z"/></g></svg>