<svg xmlns="http://www.w3.org/2000/svg" width="16" height="16" viewBox="0 0 16 16"><style>.icon-canvas-transparent{opacity:0;fill:#f6f6f6}.icon-white{fill:#fff}.icon-visualstudio-online{fill:#007acc}</style><path class="icon-canvas-transparent" d="M16 16H0V0h16v16z" id="canvas"/><path class="icon-white" d="M5.969 10.828l-2.831 2.358L0 11.618V4.382l3.138-1.569 2.831 2.359L11.758.015 16 1.279V14.72l-4.242 1.264-5.789-5.156z" id="outline"/><path class="icon-visualstudio-online" d="M12 1L6 6.5 3 4 1 5v6l2 1 3-2.5 6 5.5 3-1V2l-3-1zm-9 9V6l2 2-2 2zm5-2l4-3v6L8 8z" id="iconBg"/></svg>