<svg xmlns="http://www.w3.org/2000/svg" viewBox="0 0 16 16"><style>.icon-canvas-transparent{opacity:0;fill:#f6f6f6}.icon-vs-out{fill:#f6f6f6}.icon-vs-bg{fill:#424242}.icon-vs-fg{fill:#f0eff1}</style><path class="icon-canvas-transparent" d="M16 16H0V0h16v16z" id="canvas"/><path class="icon-vs-out" d="M16 3.556V12c0 .97-.701 2-2 2h-4v2H0V9.286A3.29 3.29 0 0 1 3.286 6H4V2C4 .701 5.03 0 6 0h6.061L16 3.556z" id="outline"/><g id="iconBg"><path class="icon-vs-bg" d="M11.641 1H5.964S5 1 5 2v4h1V2h5v3h3v7h-4v1h3.965c1 0 1.035-1 1.035-1V4l-3.359-3z"/><path class="icon-vs-bg" d="M3.286 7A2.285 2.285 0 0 0 1 9.286V15h8V7H3.286zM8 14H2V9.286C2 8.34 2.34 8 3.286 8H8v6z"/><path class="icon-vs-fg" d="M8 14H2V9.286C2 8.34 2.34 8 3.286 8H8v6z"/><path class="icon-vs-bg" d="M4.655 11.737v1.489h-.926V9.5H3.2v-.7h2.43c.389 0 .689.107.901.373.212.267.318.63.318 1.089 0 .5-.124.901-.371 1.204-.247.303-.615.534-1.025.534-.361 0-.274 0-.798-.263zm-.015-1.469v.24c0 .207.055.376.164.507a.533.533 0 0 0 .431.196.568.568 0 0 0 .491-.245c.116-.163.174-.394.174-.693 0-.527-.205-.791-.615-.791a.576.576 0 0 0-.464.215c-.121.144-.181.334-.181.571z"/></g><path class="icon-vs-fg" d="M11 5V2H6v4h4v6h4V5z" id="iconFg"/></svg>