<svg xmlns="http://www.w3.org/2000/svg" width="16" height="16"><style type="text/css">.icon-canvas-transparent{opacity:0;fill:#F6F6F6;} .icon-vs-out{fill:#F6F6F6;} .icon-vs-bg{fill:#424242;} .icon-vs-fg{fill:#F0EFF1;}</style><path class="icon-canvas-transparent" d="M16 16h-16v-16h16v16z" id="canvas"/><path class="icon-vs-out" d="M16 12.065v.367l-2.728 2.732-4.618-4.617c-.53.231-1.088.373-1.654.427v5.026h-7v-6.065l.008-.064c.125-.962.653-1.749 1.416-2.257-.272-.651-.424-1.365-.424-2.114 0-3.033 2.467-5.5 5.5-5.5s5.5 2.467 5.5 5.5c0 .725-.151 1.448-.441 2.125l4.441 4.44z" id="outline"/><path class="icon-vs-bg" d="M1 11v4h5v-4h-5zm3 3h-1v-2h1v2zm2-4h-1c-.147-.529-.68-1-1.5-1-.845 0-1.36.473-1.5 1h-1c.149-1.146 1.127-2 2.5-2s2.36.854 2.5 2zm8.769 2.25l-1.498 1.5-4.427-4.425c-.549.337-1.174.56-1.844.638v-.024l-.007-.06c-.04-.324-.136-.621-.26-.902 1.822-.123 3.267-1.624 3.267-3.477 0-1.933-1.567-3.5-3.5-3.5s-3.5 1.567-3.5 3.5c0 .544.135 1.052.356 1.512-.36.012-.704.069-1.024.168-.21-.52-.332-1.085-.332-1.68 0-2.485 2.015-4.5 4.5-4.5s4.5 2.015 4.5 4.5c0 .852-.25 1.64-.662 2.319l4.431 4.431z" id="iconBg"/><path class="icon-vs-fg" d="M3 12h1v2h-1v-2zm3.5-10c-1.933 0-3.5 1.567-3.5 3.5 0 .544.135 1.052.356 1.512l.144-.012c1.497 0 2.71.783 3.233 1.977 1.822-.123 3.267-1.624 3.267-3.477 0-1.933-1.567-3.5-3.5-3.5z" id="iconFg"/></svg>