<svg xmlns="http://www.w3.org/2000/svg" width="16" height="16"><style type="text/css">.icon-canvas-transparent{opacity:0;fill:#F6F6F6;} .icon-vs-out{fill:#F6F6F6;} .icon-vs-fg{fill:#F0EFF1;} .icon-vs-action-green{fill:#388A34;}</style><path class="icon-canvas-transparent" d="M16 16h-16v-16h16v16z" id="canvas"/><path class="icon-vs-out" d="M16 14h-7v1.231l-2.708.769h-1.779l-4.013-2h-.5v-13h16v13z" id="outline"/><path class="icon-vs-action-green" d="M15 2v11h-6v-1h5v-7h-12v1.363l-1 .448v-4.811h14zm-7 12.477l-2.711.771-4.24-1.929 4.297.772v-6.549l-2.754.771v4.441l-1.542.565v-5.413l4.24-1.909 2.71.797v7.683z" id="iconBg"/><g id="iconFg"><path class="icon-vs-fg" d="M2 6.363v-1.363h3.042l-3.042 1.363zm3.42-1.363l3.58 1.045v5.955h5v-7h-8.58z"/></g></svg>