<svg xmlns="http://www.w3.org/2000/svg" viewBox="0 0 16 16"><defs><style>.icon-canvas-transparent,.icon-vs-out{fill:#f6f6f6}.icon-canvas-transparent{opacity:0}.icon-vs-fg{fill:#f0eff1}.icon-vs-bg{fill:#424242}</style></defs><title>Phone_16x</title><path class="icon-canvas-transparent" d="M16 0v16H0V0z"/><path class="icon-vs-out" d="M14 2v12a2 2 0 0 1-2 2H5a2 2 0 0 1-2-2V2a2 2 0 0 1 2-2h7a2 2 0 0 1 2 2z"/><path class="icon-vs-fg" d="M12 2v12H5V2z"/><path class="icon-vs-bg" d="M12 1H5a1 1 0 0 0-1 1v12a1 1 0 0 0 1 1h7a1 1 0 0 0 1-1V2a1 1 0 0 0-1-1zm0 13H5V2h7v12zm-4-2h1v1H8z"/></svg>