<svg xmlns="http://www.w3.org/2000/svg" viewBox="0 0 16 16"><defs><style>.icon-canvas-transparent,.icon-vs-out{fill:#f6f6f6;}.icon-canvas-transparent{opacity:0;}.icon-vs-bg{fill:#424242;}</style></defs><title>Fork_16x</title><path class="icon-canvas-transparent" d="M16,0V16H0V0Z"/><path class="icon-vs-out" d="M7.5,16A3.249,3.249,0,0,1,6,9.869V9.8L5,9.139A4.49,4.49,0,0,1,3.072,6.168,3.249,3.249,0,1,1,7.5,2a3.25,3.25,0,1,1,4.428,4.168A4.491,4.491,0,0,1,10,9.139L9,9.8v.066A3.249,3.249,0,0,1,7.5,16ZM6.152,6.046a1.482,1.482,0,0,0,.516.6L7.5,7.2l.832-.555a1.489,1.489,0,0,0,.516-.6A3.227,3.227,0,0,1,7.5,4.505,3.225,3.225,0,0,1,6.152,6.046Z"/><path class="icon-vs-bg" d="M12.75,3.25A2.25,2.25,0,1,0,9.995,5.438,2.491,2.491,0,0,1,8.887,7.475L7.5,8.4,6.113,7.475A2.492,2.492,0,0,1,5.005,5.438a2.248,2.248,0,1,0-1,0A3.49,3.49,0,0,0,5.559,8.307L7,9.267V10.56a2.25,2.25,0,1,0,1,0V9.267l1.441-.961a3.49,3.49,0,0,0,1.553-2.865A2.251,2.251,0,0,0,12.75,3.25Zm-9.5,0A1.25,1.25,0,1,1,4.5,4.5,1.251,1.251,0,0,1,3.25,3.25Zm5.5,9.5A1.25,1.25,0,1,1,7.5,11.5,1.251,1.251,0,0,1,8.75,12.75ZM10.5,4.5a1.25,1.25,0,1,1,1.25-1.25A1.251,1.251,0,0,1,10.5,4.5Z"/></svg>