<svg xmlns="http://www.w3.org/2000/svg" viewBox="0 0 16 16" enable-background="new 0 0 16 16"><style type="text/css">.icon-canvas-transparent{opacity:0;fill:#F6F6F6;} .icon-vs-out{fill:#F6F6F6;} .icon-vs-bg{fill:#424242;} .icon-asp-html-wpf-blue{fill:#0095D7;}</style><path class="icon-canvas-transparent" d="M16 16h-16v-16h16v16z" id="canvas"/><path class="icon-vs-out" d="M9.014 1c-2.055 0-3.997.903-5.329 2.479l-.575.68c-1.774.375-3.11 1.954-3.11 3.841 0 1.887 1.336 3.466 3.109 3.841l.576.68c1.332 1.576 3.274 2.479 5.329 2.479 3.852 0 6.986-3.141 6.986-7 0-3.86-3.134-7-6.986-7zm-7.205 7c0-1.168.945-2.115 2.111-2.115 1.166 0 2.111.947 2.111 2.115 0 1.168-.945 2.115-2.111 2.115-1.166 0-2.111-.947-2.111-2.115z" id="outline"/><path class="icon-vs-bg" d="M15.002 8c0 3.314-2.681 6-5.988 6-1.832 0-3.47-.827-4.568-2.125.933-.127 1.76-.584 2.366-1.245.599.504 1.36.82 2.202.82 1.898 0 3.443-1.548 3.443-3.45s-1.544-3.45-3.443-3.45c-.841 0-1.603.316-2.202.82-.606-.661-1.433-1.118-2.366-1.245 1.098-1.298 2.736-2.125 4.568-2.125 3.307 0 5.988 2.686 5.988 6z" id="iconBg"/><path class="icon-asp-html-wpf-blue" d="M6 8c0 1.24-1.003 2.245-2.24 2.245s-2.24-1.005-2.24-2.245c0-1.24 1.003-2.245 2.24-2.245s2.24 1.005 2.24 2.245z" id="colorImportance"/></svg>