<svg id="Layer_1" xmlns="http://www.w3.org/2000/svg" viewBox="0 0 16 16"><style>.st0{fill:#68217a}.st1{fill:#fff}</style><path class="st0" d="M12.782 16.214c-.314 0-.621-.11-.863-.311L5.83 10.896l-2.391 1.888a1.35 1.35 0 0 1-1.5.127L.73 12.342l-.052-.032a1.354 1.354 0 0 1-.635-1.15V5.134c0-.43.2-.829.54-1.084l.983-.852.054-.036a1.36 1.36 0 0 1 1.6.074l2.599 1.896L11.823.28c.242-.195.545-.302.854-.302h.124l.208.041 2.003.492a1.361 1.361 0 0 1 1.031 1.318v11.882c0 .533-.312 1.013-.787 1.232l-1.931 1.16-.098.034a1.322 1.322 0 0 1-.445.077z"/><path class="st1" d="M12.451 1.058L6.063 6.22a.358.358 0 0 1-.449.001l-3.02-2.206a.359.359 0 0 0-.422-.019l-.968.84a.358.358 0 0 0-.161.299v6.026c0 .123.063.238.168.303l1.192.562c.13.081.297.071.416-.026l2.792-2.204a.357.357 0 0 1 .453.001l6.49 5.337a.36.36 0 0 0 .344.062l1.903-1.144a.359.359 0 0 0 .241-.338V1.83a.357.357 0 0 0-.27-.347L12.763.989a.356.356 0 0 0-.312.069zm.663 2.079l-.034 9.722a.175.175 0 0 1-.277.141L7.239 8.465c-.225-.185-.236-.614-.014-.793l5.59-4.689c.125-.09.3 0 .299.154zM2.206 6.509c0-.105.116-.168.204-.111l1.936 1.271c.221.177.212.603-.011.785L2.439 9.606a.148.148 0 0 1-.225-.126l-.008-2.971z"/></svg>