<svg xmlns="http://www.w3.org/2000/svg" viewBox="0 0 16 16"><defs><style>.icon-canvas-transparent,.icon-vs-out{fill:#f6f6f6;}.icon-canvas-transparent{opacity:0;}.brand-vsts{fill:#0078d7;}.icon-white{fill:#fff;}</style></defs><title>PowerShell_16x</title><g id="canvas"><path class="icon-canvas-transparent" d="M16,0V16H0V0Z"/></g><g id="outline"><path class="icon-vs-out" d="M15.315,3.864l-2.25,9A1.5,1.5,0,0,1,11.609,14H2.141A1.5,1.5,0,0,1,.685,12.137l2.25-9A1.5,1.5,0,0,1,4.391,2h9.468a1.5,1.5,0,0,1,1.456,1.864Z"/></g><g id="iconBg"><path class="brand-vsts" d="M13.86,3H4.39a.5.5,0,0,0-.485.379l-2.25,9A.5.5,0,0,0,2.14,13h9.47a.5.5,0,0,0,.485-.379l2.25-9A.5.5,0,0,0,13.86,3ZM4.25,11.125a.5.5,0,0,1-.354-.853L6.568,7.6,4.934,5.7a.5.5,0,1,1,.757-.652l2.241,2.6L4.6,10.978A.5.5,0,0,1,4.25,11.125ZM10.5,11h-3a.5.5,0,0,1,0-1h3a.5.5,0,0,1,0,1Z"/></g><g id="iconFg"><path class="icon-white" d="M7.932,7.65,4.6,10.978a.5.5,0,0,1-.708-.706L6.568,7.6,4.934,5.7a.5.5,0,1,1,.757-.652ZM10.5,10h-3a.5.5,0,0,0,0,1h3a.5.5,0,0,0,0-1Z"/></g></svg>