<svg xmlns="http://www.w3.org/2000/svg" viewBox="0 0 16 16"><style>.st0{opacity:0;fill:#5cd254}.st1{fill:#d00e0d}.st2{fill:none}.st3{fill:#e57978}</style><path class="st0" d="M0 0h16v16H0z" id="outline"/><g id="icon_x5F_bg"><path class="st1" d="M2 2h12v12H2z"/><path class="st2" d="M12 2L2 12M14 14v-1.293L12.707 14zM15.354 3.354l-.708-.708-.646.647v1.414zM11.293 14L14 11.293V8.707L8.707 14zM7.293 14L14 7.293V4.707L4.707 14z"/><path class="st3" d="M14 4.707V3.293L3.293 14h1.414zM12.707 14L14 12.707v-1.414L11.293 14zM8.707 14L14 8.707V7.293L7.293 14z"/><g><path class="st3" d="M8.696 2H8L3 7l5-5h-.731L2 7.178v1.401zM4.707 2H3.293L2 3.293v1.414zM12.707 2h-1.414L2 11.293v1.414z"/></g></g></svg>