<svg xmlns="http://www.w3.org/2000/svg" viewBox="0 0 16 16"><style>.icon-canvas-transparent{opacity:0;fill:#f6f6f6}.icon-vs-out{fill:#f6f6f6}.icon-vs-fg{fill:#f0eff1}.icon-vs-action-blue{fill:#00539c}.icon-vs-bg_x0020_,.st0{fill:#424242}</style><path class="icon-canvas-transparent" d="M16 16H0V0h16v16z" id="canvas"/><path class="icon-vs-out" d="M10.621 0H2v8.991h-.51v2.512L.013 13.051v.886L2 15.981V16h13V4.379z" id="outline"/><g id="iconBg"><path class="st0" d="M4 7h1v1H4zm2 0h1v1H6zm2 0h1v1H8zm2 0h1v1h-1zm0 2h1v1h-1zm0 2h1v1h-1zm0 2h1v1h-1z"/><path class="icon-vs-bg_x0020_" d="M10.207 1H3v7.991h1v-.077l-.011-.011L4 8.894V2h5v4h4v8H7.491v.991H4.904l.005.005-.004.004H14V4.793L10.207 1zM10 5V2.207L12.793 5H10zM5 8H4V7h1v1zm2 0H6V7h1v1zm2 0H8V7h1v1zm2 0h-1V7h1v1zm0 2h-1V9h1v1zm0 2h-1v-1h1v1zm0 2h-1v-1h1v1z"/></g><path class="icon-vs-fg" d="M12.793 5H10V2.207L12.793 5zM4 8.991h.077L4 8.914v.077zM13 6v8h-2v-1h-1v1H7.491v-1.516l1.841-1.989L7 7.947V7H6v.313L4 8.894V8h1V7H4V2h5v4h4zM9 7H8v1h1V7zm2 4h-1v1h1v-1zm0-2h-1v1h1V9zm0-2h-1v1h1V7z" id="iconFg"/><g id="colorAction"><path class="icon-vs-action-blue" d="M2.985 11.384l.505.607-1 1h4.001v1H2.49l1 1-.54.533-1.976-2.033zm3.114 1.132l1.874-2.025-1.839-2.009-.643.509 1 1H2.49v1h4.001l-1 1z"/><path class="icon-vs-action-blue" d="M2.985 11.384l.505.607-1 1h4.001v1H2.49l1 1-.54.533-1.976-2.033zm3.114 1.132l1.874-2.025-1.839-2.009-.643.509 1 1H2.49v1h4.001l-1 1z"/></g></svg>