<svg xmlns="http://www.w3.org/2000/svg" viewBox="0 0 16 16"><style>.icon-canvas-transparent{opacity:0;fill:#f6f6f6}.icon-vs-out{fill:#f6f6f6}.icon-vs-bg{fill:#424242}.icon-vs-fg{fill:#f0eff1}.icon-white{fill:#fff}.icon-office-excel{fill:#217346}.st0{fill:#424242}</style><path class="icon-canvas-transparent" d="M16 16H0V0h16v16z" id="canvas"/><path class="icon-vs-out" d="M16 0H1v6.787l-1 .16v8.105L5.921 16H7v-2h9z" id="outline"/><g id="iconBg"><path class="icon-vs-bg" d="M9 7H8V6h1v1zM11 7h-1V6h1v1zM13 7h-1V6h1v1zM13 9h-1V8h1v1z"/><path class="st0" d="M12 10h1v1h-1z"/><path class="icon-vs-bg" d="M11 11h-1v-1h1v1zM9 11H8v-1h1v1z"/><path class="icon-vs-bg" d="M15 1v12H7v-1h7V4h-3v1h-1V4H7v1.827l-1 .16V4H3v2h2.92L2 6.627V1h13z"/></g><g id="iconFg"><path class="icon-vs-fg" d="M3 6V4h3v1.987L3 6zM11 4v1h-1V4H7v8h7V4h-3zm-2 7H8v-1h1v1zm0-4H8V6h1v1zm2 4h-1v-1h1v1zm0-4h-1V6h1v1zm2 4h-1v-1h1v1zm0-2h-1V8h1v1zm0-2h-1V6h1v1z"/></g><path class="icon-office-excel" d="M1 7.8v6.4l5 .8V7l-5 .8zm3.063 5.368s-.656-1.483-.661-1.507c-.008-.023-.735 1.445-.735 1.445l-.896-.06 1.07-2.005-.981-2.008.92-.054.642 1.677c.005 0 .668-1.74.668-1.74l.955-.063-1.134 2.169 1.166 2.207-1.014-.061z" id="colorImportance"/><path class="icon-white" d="M1.86 9.033l.842-.049.719 1.672.668-1.74.955-.063-1.134 2.169 1.166 2.207-1.047-.139-.69-1.353-.743 1.415-.824-.107 1.107-1.875L1.86 9.033z" id="notificationFg"/></svg>