<svg xmlns="http://www.w3.org/2000/svg" viewBox="0 0 16 16"><style>.icon-canvas-transparent{opacity:0;fill:#f6f6f6}.icon-vs-out{fill:#f6f6f6}.icon-vs-bg{fill:#424242}.icon-vs-fg{fill:#f0eff1}</style><path class="icon-canvas-transparent" d="M16 16H0V0h16v16z" id="canvas"/><path class="icon-vs-out" d="M15.99 8.574c-.097.791-.809 1.005-1.234 1.133-.108.032-.233.07-.37.118-.647.223-1.539 1.099-2.326 1.872-.721.708-1.403 1.374-2.06 1.733V16H0V9.286c0-.09.019-.174.026-.262a4.953 4.953 0 0 1 .099-1.529C.02 5.84.703 3.695 2.266 2.64 3.172 1.865 5.67.015 8.554.015c.818 0 1.611.149 2.355.445 2.708 1.077 3.453 2.619 3.644 3.56.613.403.955 1.063 1.104 1.564a1 1 0 0 1-.211 1.157c.377.568.607 1.3.544 1.833z" id="outline"/><g id="iconBg"><path class="icon-vs-bg" d="M14.997 8.458c-.023.191-.4.232-.943.424-1.315.452-2.856 2.416-4.054 3.35V9.741l.017-.021c.291-.369 1.178-1.477 2.334-1.9.728-.273 1.853-.1 1.213-.803-.322-.354-1.463-.395-1.672-.422-.037.05-.91.58-1.892 1.523V6.066c1.465-1.395 2.751-1.355 2.751-1.393.018-.738-.734-2.766-4.621-2.322-1.471.15-4.105.561-5.148 1.613-.647.711-.569 1.668-.387 2.037.453-.266.922-.453 1.765-.547 1.477-.164 2.598.278 3.332.546H3.286a3.26 3.26 0 0 0-2.15.821c.084-1.173.588-2.609 1.689-3.353.086-.055 3.916-3.589 7.715-2.078 3.149 1.252 3.088 3.08 3.07 3.299.906.203 1.125 1.328 1.125 1.328s-.435-.887-1.078-.875c-.234.844-.906 1.016-1.375 1.143.348.014 1.24-.037 2.078.701.375.341.682 1.089.637 1.472z"/><path class="icon-vs-bg" d="M3.286 7A2.285 2.285 0 0 0 1 9.286V15h8V7H3.286zM8 14H2V9.286C2 8.34 2.34 8 3.286 8H8v6z"/></g><path class="icon-vs-fg" d="M8 14H2V9.286C2 8.34 2.34 8 3.286 8H8v6z" id="iconFg"/><path class="icon-vs-bg" d="M3.664 12.938V12a1.781 1.781 0 0 0 1.158.428c.119 0 .223-.011.312-.032s.163-.051.223-.089a.38.38 0 0 0 .133-.135.365.365 0 0 0-.026-.388.775.775 0 0 0-.192-.179 1.964 1.964 0 0 0-.289-.158 8.252 8.252 0 0 0-.36-.155c-.328-.137-.573-.304-.734-.501a1.095 1.095 0 0 1-.242-.715c0-.219.044-.407.132-.564.088-.157.208-.287.359-.388.151-.102.327-.176.526-.224.199-.048.41-.072.633-.072.219 0 .413.013.582.04.169.026.325.067.467.122v.876a1.38 1.38 0 0 0-.23-.129 1.91 1.91 0 0 0-.768-.165c-.107 0-.205.01-.293.031a.73.73 0 0 0-.222.086.43.43 0 0 0-.141.133.336.336 0 0 0 .006.363c.037.056.09.108.158.158s.151.099.249.146c.098.048.208.097.331.148.168.07.319.145.453.224s.249.168.344.268c.096.1.169.213.22.341.051.128.076.277.076.447 0 .234-.044.431-.133.59a1.083 1.083 0 0 1-.362.387c-.152.098-.33.169-.532.212a3.072 3.072 0 0 1-.64.065c-.23 0-.45-.02-.658-.059a1.914 1.914 0 0 1-.54-.174z" id="colorImportance"/></svg>