<svg xmlns="http://www.w3.org/2000/svg" viewBox="0 0 16 16"><style>.icon-canvas-transparent{opacity:0;fill:#f6f6f6}.icon-vs-out{fill:#f6f6f6}.icon-vs-bg{fill:#424242}.icon-vs-fg{fill:#f0eff1}</style><path class="icon-canvas-transparent" d="M16 16H0V0h16v16z" id="canvas"/><path class="icon-vs-out" d="M16 15h-6v1H0V9.286c0-.923.385-1.755 1-2.353V0h15v15z" id="outline"/><g id="iconBg"><path class="icon-vs-bg" d="M10 5v3h3V5h-3zm2 2h-1V6h1v1zM10 9v3h3V9h-3zm2 2h-1v-1h1v1zM13 4H4V3h9v1zM4 6V5h3v1H4z"/><path class="icon-vs-bg" d="M15 1v13h-5v-1h4V2H3v4.029c-.351.031-.69.101-1 .234V1h13z"/></g><g id="iconFg"><path class="icon-vs-fg" d="M8 14H2V9.286C2 8.34 2.34 8 3.286 8H8v6z"/><path class="icon-vs-fg" d="M3 2v4.029C3.096 6.02 3.188 6 3.286 6H4V5h3v1h3V5h3v3h-3v1h3v3h-3v1h4V2H3zm10 2H4V3h9v1z"/><path class="icon-vs-fg" d="M12 11h-1v-1h1v1zM12 7h-1V6h1v1z"/></g><g id="colorImportance"><path class="icon-vs-bg" d="M3.286 7A2.285 2.285 0 0 0 1 9.286V15h8V7H3.286zM8 14H2V9.286C2 8.34 2.34 8 3.286 8H8v6z"/><path class="icon-vs-bg" d="M5.87 13l-.823-1.711-.688 1.148.641.016V13H3.293l1.26-2-1.26-2h.977L5 10.203l.784-1.179L6.67 9h.177l-1.26 2 1.26 2H5.87z"/></g></svg>