<svg xmlns="http://www.w3.org/2000/svg" viewBox="0 0 16 16"><style>.icon-canvas-transparent{opacity:0;fill:#f6f6f6}.icon-vs-bg{fill:#424242}.icon-vs-fg{fill:#f0eff1}.icon-vs-out{fill:#f6f6f6}</style><path class="icon-canvas-transparent" d="M16 16H0V0h16v16z" id="canvas"/><path class="icon-vs-out" d="M4 16H2.01c-.023.021 0-13 0-13H4V2h1.01C5.423.836 6.717 0 8.02 0c1.305 0 2.578.836 2.99 2h1v1H14v7h2v3h-2v3H4z" id="outline"/><path class="icon-vs-fg" d="M7.01 3a1 1 0 0 1 2 0c0 .553-.438 1-.99 1-.551 0-1.01-.447-1.01-1zm2.091 11H4V5h8v2.378l-.646-.646L10.081 8H5v1h4.078l-1.003 1H5v1h2.071l-.486.484L7.1 12H5v1h3.101l1 1zM5 7h6V6H5v1z" id="iconFg"/><path class="icon-vs-bg" d="M9.937 12H15v-1H9.919l2.14-2.148-.707-.707L8 11.485l3.352 3.352.707-.707L9.937 12zM5 8h5.081L9.078 9H5V8zm0 4h2.1l1 1H5v-1zm1-2h2.074l-1.003 1H5v-1h1zm3.101 4H4V5h8v2.378l1 1V4h-2V3h-.99a2 2 0 0 0-4 0H5v1H3v11h7.101l-1-1zM8.01 2c.553 0 1 .447 1 1s-.438 1-.99 1c-.551 0-1.01-.447-1.01-1s.449-1 1-1zM11 7H5V6h6v1z" id="iconBg"/></svg>