<svg id="icon_x5F_bg" xmlns="http://www.w3.org/2000/svg" viewBox="0 0 16 16"><style>.st0{opacity:0}.st0,.st1{fill-rule:evenodd;clip-rule:evenodd;fill:#00bcf2}</style><path class="st0" d="M0 0h16v16H0z"/><path class="st1" d="M14.294 5.225c.691-1.576.738-2.904-.053-3.695-.868-.879-2.997-.616-5.209.428a6.406 6.406 0 0 0-4.526 1.583 6.443 6.443 0 0 0-1.961 3.301c.221-.268 1.457-1.724 2.853-2.506.028-.016.381-.199.409-.206-.023.021-.713.66-.837.785-3.097 3.127-4.903 7.91-3.512 9.336.914.913 2.59.684 4.529-.357.83.384 1.765.584 2.766.584 1.313 0 2.553-.365 3.587-1.054 1.084-.723 1.903-1.786 2.371-3.081h-3.415c-.44.839-1.466 1.419-2.512 1.419-1.484 0-2.739-1.214-2.741-2.651l-.006-.056-.007-.068h8.929l.014-.141c.021-.221.044-.469.044-.662a6.278 6.278 0 0 0-.723-2.959zM2.43 13.987c-.687-.688-.498-2.054.366-3.694.401 1.113 1.047 2.064 1.893 2.776.272.229.563.431.871.606-1.411.729-2.549.893-3.13.312zm3.305-.218zm5.701-6.449H6.035l.003-.065c.071-1.37 1.368-2.528 2.834-2.528a2.64 2.64 0 0 1 2.627 2.529l.003.064h-.066zm1.655-3.662a6.325 6.325 0 0 0-2.104-1.297c1.411-.642 2.569-.728 3.185-.113.511.51.445 1.453-.075 2.634l.001.002a6.04 6.04 0 0 0-1.007-1.226zm1.113 1.404l-.011-.017a.1.1 0 0 1 .011.017z"/></svg>