<svg xmlns="http://www.w3.org/2000/svg" width="16" height="16"><style type="text/css">.icon-visualstudio{fill:#68217A;} .icon-white{fill:#FFFFFF;} .icon-vs-out{fill:#F6F6F6;} .icon-canvas-transparent{opacity:0;fill:#F6F6F6;}</style><path class="icon-canvas-transparent" d="M16 16h-16v-16h16v16z" id="canvas"/><path class="icon-vs-out" d="M4 16v-3h-1.939l-2.061-2.183v-8.754l2.063-2.063h11.702l2.235 2.036v8.81l-2.233 2.154h-5.299l-1.982 3h-2.486z" id="outline"/><path class="icon-visualstudio" d="M7.5 6.5l2.25-2.25v4.5l-2.25-2.25zm-3.375 1.125l1.125-1.125-1.125-1.125v2.25zm10.875-5.147v7.928l-1.622 1.594h-5.459l-1.982 3h-.937v-3h-2.523l-1.477-1.595v-7.927l1.477-1.478h10.901l1.622 1.478zm-3 .647l-2.25-1.125-3.375 3.375-2.25-2.25-1.125 1.125v4.5l1.125 1.125 2.25-2.25 3.375 3.375 2.25-1.125v-6.75z" id="iconBg"/><path class="icon-white" d="M6.375 5.375l-2.25-2.25-1.125 1.125v4.5l1.125 1.125 2.25-2.25 3.375 3.375 2.25-1.125v-6.75l-2.25-1.125-3.375 3.375zm-2.25 2.25v-2.25l1.125 1.125-1.125 1.125zm5.625 1.125l-2.25-2.25 2.25-2.25v4.5z" id="iconFg"/></svg>