<svg xmlns="http://www.w3.org/2000/svg" viewBox="0 0 16 16"><style>.st0{fill:#f6f6f6}.st1{fill:#424242}.st2{fill:#00539c}.st3{fill:#f0eff1}</style><path class="st0" d="M10 4L6 0H0l2 2H0v4h2L0 8h4v8h12V4z" id="outline"/><path class="st1" d="M13 7l-2 3 2 3h-2l-1-1.5L9 13H7l2-3-2-3h2l1 1.5L11 7h2zM9 5L8 6h6v8H6V8H5v7h10V5H9z" id="icon_x5F_bg"/><path class="st2" d="M3 1h2l3 3-3 3H3l2-2H1V3h4L3 1z" id="color_x5F_importance"/><path class="st3" d="M14 6v8H6V8l1-1 2 3-2 3h2l1-1.5 1 1.5h2l-2-3 2-3h-2l-1 1.5L9 7H7l1-1h6z" id="icon_x5F_fg"/></svg>