<svg xmlns="http://www.w3.org/2000/svg" viewBox="0 0 16 16"><style>.st0{opacity:0}.st0,.st1{fill:#f6f6f6}.st2{fill:#848484}</style><g id="outline"><path class="st0" d="M0 0h16v16H0z"/><path class="st1" d="M12.5 0h-1L10 2.5 8.5 0h-1L4 2.5v3.305L0 8.126l.01 5.201L4 15.621V16h12V2.5z"/></g><path class="st2" d="M11.167 5l1.146-.75 1.888-1.2L11.85 1 10 4.5 8.171 1.049 5.879 3.125l1.902 1.094L8.899 5H5v.803l1 .574V6h3v2.1l.012.007.009 5.203-.021.013V14H7.832l-1.725 1H15V5h-3.833zM14 14h-3v-3h3v3zm0-5h-3V6h3v3z" id="icon_x5F_bg"/><path class="st2" d="M4.509 14.731l-3.47-1.995-.008-4 3.461-2.007 3.47 1.993.007 4.002-3.46 2.007zm-2.674-2.457l2.672 1.536 2.665-1.545-.006-3.082-2.672-1.534-2.665 1.545.006 3.08z" id="not_x5F_fg"/></svg>