<svg xmlns="http://www.w3.org/2000/svg" viewBox="0 0 16 16"><style>.st0{opacity:0}.st0,.st1{fill:#f6f6f6}.st2{fill:#424242}.st3{fill:#00539c}.st4{fill:#f0eff1}</style><g id="outline"><path class="st0" d="M0 0h16v16H0z"/><path class="st1" d="M16 3v3h-1v2h-2v4h-1v4H0V8c0-2.205 1.794-4 4-4h3V3h1V0h3v3h1V0h3v3h1z"/></g><path class="st2" d="M6.27 7c.558 0 1.043.099 1.442.292l.095.048-.344 1.262-.138-.072a2.388 2.388 0 0 0-1.072-.249c-.459 0-.664.204-.664.406 0 .262.23.397.928.673 1.012.382 1.484.95 1.484 1.786 0 .855-.605 1.854-2.313 1.854-.66 0-1.294-.188-1.604-.363L4 12.589l.313-1.286.143.077c.299.16.797.331 1.305.331.222 0 .737-.047.737-.482 0-.223-.139-.41-.827-.653-1.053-.384-1.586-.982-1.586-1.78C4.085 7.737 4.983 7 6.27 7zM10 14H2V8c0-1.104.897-2 2-2h3V5H4a3 3 0 0 0-3 3v7h10v-3h-1v2z" id="icon_x5F_bg"/><g id="color_x5F_importance"><path class="st3" d="M13 1h1v2h-1zM9 1h1v2H9zM8 4v1h1v2h2v4h1V7h2V5h1V4z"/></g><path class="st4" d="M8 8V6H4c-1.103 0-2 .896-2 2v6h8V8H8zm-2.312 5c-.66 0-1.294-.188-1.604-.363L4 12.589l.313-1.286.143.077c.299.16.797.331 1.305.331.222 0 .737-.047.737-.482 0-.223-.139-.41-.827-.653-1.053-.384-1.586-.982-1.586-1.78C4.085 7.737 4.983 7 6.27 7c.558 0 1.043.099 1.442.292l.095.048-.344 1.262-.138-.072a2.388 2.388 0 0 0-1.072-.249c-.459 0-.664.204-.664.406 0 .262.23.397.928.673 1.012.382 1.484.95 1.484 1.786 0 .855-.605 1.854-2.313 1.854z" id="icon_x5F_fg"/></svg>