<svg xmlns="http://www.w3.org/2000/svg" viewBox="0 0 16 16"><style>.st0{opacity:0}.st0,.st1{fill:#f6f6f6}.st2{fill:#424242}.st3{fill:#2372c6}.st4{fill:#f0eff1}</style><g id="outline"><path class="st0" d="M0 0h16v16H0z"/><path class="st1" d="M3 0v11l-.637.026C1.207 11.541.406 13.28.042 14.734l.051.652.259.614h1.25c.535 0 1.016-.189 1.398-.503V16h1.917c.023.001.055.007.076.007.077 0 .147-.007.207-.007H14V0H3z"/></g><path class="st2" d="M4 1v10h.955c.016 0 .029.004.045.005V2h7v10H9.777l-.41.573A9.032 9.032 0 0 0 9 13.14V14h-.501c-.215.379-.416.72-.626 1H13V1H4zm8 13h-1v-1h1v1z" id="icon_x5F_bg"/><path class="st3" d="M5.839 14.067c.08.295.246.933.445.933H5.113s-.778.232-1.172-1.219C3.805 12.947 3.607 12 3.383 12h1.572c.486 0 .649 1.102.829 1.857.015.068.03.143.05.143h-.002c.002 0 .005.061.007.067zM2.77 11.939c-.656.292-1.38 1.526-1.758 3.036L1 14.966l.012.034H1.598c.013 0-.006 0 0 0 .629 0 1.026-.398 1.172-.876.158-.521.332-.89.483-1.155a2.912 2.912 0 0 0-.483-1.03zM6.953 12c-.263 0-.416.352-.508.659-.049.163-.119.37-.161.509.06.728.257 1.179.45 1.557.009-.007.016-.015.023-.018.037-.027.073-.024.105-.055.46-.421.978-1.652 1.691-2.652h-1.6z" id="color_x5F_importance"/><g id="icon_x5F_fg"><path class="st4" d="M11 13h1v1h-1zM5 2v9.005c.417.013.728.186.96.452.317-.36.688-.457.993-.457h3.541l-.717 1H12V2H5zM8.568 13.879L8.499 14H9v-.86c-.148.244-.292.492-.432.739z"/></g></svg>