<svg xmlns="http://www.w3.org/2000/svg" width="16" height="16"><style type="text/css">.icon-canvas-transparent{opacity:0;fill:#F6F6F6;} .icon-vs-out{fill:#F6F6F6;} .icon-vs-bg{fill:#424242;}</style><path class="icon-canvas-transparent" d="M16 16h-16v-16h16v16z" id="canvas"/><path class="icon-vs-out" d="M16 1.249c-.043-.155-.102-.304-.19-.44-.241-.369-.749-.809-1.807-.809h-12.229c-.872 0-1.309.462-1.492.737-.194.292-.273.615-.282.916v.021c-.006.296.055.572.141.777.163.401 5.999 11.83 6.439 12.612.441.775 1.025.937 1.44.937.853 0 1.364-.735 1.458-.883l.026-.041.021-.043c1.889-3.715 6.29-12.377 6.376-12.568l.099-.315v-.901zm-7.253 5.19l-.765 1.451c-.545-1-1.001-1.89-1.509-2.89h3.032c-.253.5-.49.935-.758 1.439z" id="outline"/><path class="icon-vs-bg" d="M14.003 1h-12.229c-.858 0-.838.763-.707 1.073.073.18 5.802 11.466 6.382 12.495.196.344.393.432.571.432.347 0 .614-.42.614-.42s6.27-12.335 6.353-12.52c.138-.311.238-1.06-.984-1.06zm-5.995 9.008c-1.3-2.354-2.001-3.619-3.125-6.011h6.255c-1.086 2.162-1.514 2.883-3.13 6.011z" id="iconBg"/></svg>