<svg xmlns="http://www.w3.org/2000/svg" viewBox="0 0 16 16"><style>.icon-vs-out{fill:#f6f6f6}.icon-vs-fg{fill:#f0eff1}.icon-white{fill:#fff}.icon-office-project{fill:#31752f}.st0{opacity:0;fill:#f6f6f6}.st1{fill:#424242}.st2{fill-rule:evenodd;clip-rule:evenodd;fill:#31752f}</style><path class="st0" d="M16 16H0V0h16v16z" id="canvas"/><path class="icon-vs-out" d="M16 3.556V12c0 .97-.701 2-2 2H8v2H6.966L0 14.967V6.033l4-.593V2C4 .701 5.03 0 6 0h6.061L16 3.556z" id="outline"/><path class="st1" d="M15 4v8s-.035 1-1.035 1H8v-1h6V5h-3V2H6v3.144l-1 .148V2c0-1 .964-1 .964-1h5.677L15 4z" id="iconBg"/><path class="icon-vs-fg" d="M14 5v7H8V4.847l-2 .297V2h5v3h3z" id="iconFg"/><g id="colorImportance"><path class="st2" d="M4.947 9.161a.675.675 0 0 0-.278-.152 1.235 1.235 0 0 0-.385-.04l-.427.016v1.707h.427c.146 0 .275-.019.385-.056a.68.68 0 0 0 .447-.444 1.17 1.17 0 0 0 .057-.388c0-.144-.018-.27-.057-.378a.627.627 0 0 0-.169-.265z"/><path class="icon-vs-out" d="M8 16V4.847L0 6.033v8.934L6.966 16z"/><path class="icon-office-project" d="M1 6.9v7.2l6.3.9V6L1 6.9zm5.36 3.236c-.023.128-.057.25-.103.366a1.703 1.703 0 0 1-.406.608 1.776 1.776 0 0 1-.653.405 2.05 2.05 0 0 1-.391.096c-.137.02-.282.029-.433.026l-.518-.009v1.886l-1.052-.058v-5.36l1.669-.093c.31-.018.584.005.823.066.239.062.441.165.604.308.163.144.287.329.37.555.083.226.124.493.124.798.001.143-.011.278-.034.406z"/><path class="icon-office-project" d="M3.857 10.692V8.985l.427-.016c.146-.005.275.008.385.04a.627.627 0 0 1 .447.417c.039.107.057.233.057.378 0 .148-.018.277-.057.388a.68.68 0 0 1-.447.444 1.244 1.244 0 0 1-.385.056h-.427"/></g><path class="icon-white" d="M3.857 10.692V8.985l.427-.016c.146-.005.275.008.385.04a.627.627 0 0 1 .447.417c.039.107.057.233.057.378 0 .148-.018.277-.057.388a.68.68 0 0 1-.447.444 1.244 1.244 0 0 1-.385.056h-.427m.617-2.689l-1.668.094v5.36l1.052.058v-1.886l.518.009c.151.003.296-.006.433-.026a2.05 2.05 0 0 0 .391-.096 1.776 1.776 0 0 0 .889-.688 1.863 1.863 0 0 0 .273-.691c.023-.128.034-.263.034-.405 0-.306-.041-.572-.124-.798a1.357 1.357 0 0 0-.37-.555 1.454 1.454 0 0 0-.605-.309 2.69 2.69 0 0 0-.823-.067" id="notificationFg"/></svg>