<svg xmlns="http://www.w3.org/2000/svg" viewBox="0 0 16 16"><style>.icon-canvas-transparent{opacity:0;fill:#f6f6f6}.icon-vs-out{fill:#f6f6f6}.icon-vs-bg{fill:#424242}.icon-white{fill:#fff}.icon-office-sharepoint{fill:#2372c6}</style><path class="icon-canvas-transparent" d="M16 16H0V0h16v16z" id="canvas"/><path class="icon-vs-out" d="M15.446 6.74a1.002 1.002 0 0 0 .211-1.157c-.149-.501-.491-1.161-1.104-1.564-.19-.94-.936-2.482-3.644-3.56A6.343 6.343 0 0 0 8.554.014c-2.884 0-5.382 1.851-6.288 2.625C1.078 3.441.401 4.872.19 6.239L0 6.261v9.073L5.953 16H7v-.027c.155-.012.313-.018.453-.053.51-.13.903-.476 1.106-.974.087-.213.138-.507.163-.779l.135-.101c.224-.17.442-.279 1.101-.609.669-.353 1.365-1.037 2.102-1.76.787-.773 1.679-1.649 2.326-1.872.137-.048.262-.086.37-.118.426-.128 1.138-.342 1.234-1.133.063-.533-.167-1.265-.544-1.834z" id="outline"/><g id="iconBg"><path class="icon-vs-bg" d="M14.36 6.985c-.838-.738-1.731-.688-2.078-.701.469-.127 1.141-.299 1.375-1.143.643-.012 1.078.875 1.078.875s-.219-1.125-1.125-1.328c.017-.219.078-2.047-3.07-3.299-3.799-1.51-7.629 2.024-7.715 2.079-.889.601-1.387 1.654-1.593 2.655l1.352-.151c-.173-.386-.235-1.313.397-2.008C4.024 2.911 6.659 2.501 8.13 2.351c3.887-.443 4.639 1.584 4.621 2.322 0 .041-1.531-.031-3.156 1.797-.031 0-.859-.188-1.234-.281-.282-.015-.743-.231-1.361-.431v1.45c.645-.014 1.311-.017 1.876-.035-.226.27-1.39 1.213-1.876 2.76v5.04c.068-.008.146-.007.206-.022a.605.605 0 0 0 .428-.383c.051-.096.129-.615.105-.93.021 0 .127-.082.514-.369.307-.232.584-.369 1.238-.697 1.244-.656 3.053-3.171 4.562-3.69.543-.191.92-.232.943-.424.046-.383-.261-1.131-.636-1.473zm-2.009.834c-1.156.424-2.043 1.531-2.334 1.9-.643.833-1.758 2.142-2.383 2.47a1.27 1.27 0 0 0-.008-.123 4.466 4.466 0 0 1 .068-.943c.381-.519.906-1.407 1.238-1.831 1.314-1.682 2.908-2.629 2.959-2.697.209.027 1.35.068 1.672.422.641.703-.484.529-1.212.802z"/><path class="icon-vs-bg" d="M4.36 5.454c-.8.089-1.262.265-1.694.509l3.599-.402a5.84 5.84 0 0 0-1.905-.107z"/></g><path class="icon-office-sharepoint" d="M1 7.156v7.284l5.043.56V6.596L1 7.156zm3.724 5.02a1.59 1.59 0 0 1-.064.268 1.255 1.255 0 0 1-.254.439 1.18 1.18 0 0 1-.231.198c-.086.055-.18.099-.283.132a1.603 1.603 0 0 1-.331.07 2.49 2.49 0 0 1-.663-.029 1.954 1.954 0 0 1-.256-.067 1.57 1.57 0 0 1-.433-.225v-1.058c.073.081.149.156.227.219a1.322 1.322 0 0 0 .497.262 1.193 1.193 0 0 0 .41.038.621.621 0 0 0 .12-.025.476.476 0 0 0 .187-.114.472.472 0 0 0 .095-.15.512.512 0 0 0 .032-.186.51.51 0 0 0-.048-.228.696.696 0 0 0-.14-.209 1.254 1.254 0 0 0-.089-.081c-.035-.028-.075-.06-.119-.092-.045-.032-.096-.065-.15-.101a5.916 5.916 0 0 0-.177-.111 2.234 2.234 0 0 1-.382-.285 1.47 1.47 0 0 1-.478-1.11c0-.107.007-.208.022-.304.016-.096.038-.188.069-.275a1.312 1.312 0 0 1 .276-.464 1.33 1.33 0 0 1 .202-.182 1.486 1.486 0 0 1 .511-.227c.097-.022.199-.038.307-.045.097-.005.189-.007.278-.005.09.002.175.009.257.019a1.88 1.88 0 0 1 .447.117v1.049a1.6 1.6 0 0 0-.216-.145 1.306 1.306 0 0 0-.466-.156c-.081-.011-.165-.014-.249-.011a.687.687 0 0 0-.226.043.59.59 0 0 0-.175.11.565.565 0 0 0-.109.161.487.487 0 0 0-.037.199c0 .039.003.076.008.112a.595.595 0 0 0 .122.275.882.882 0 0 0 .179.159 4.019 4.019 0 0 0 .295.189 3.89 3.89 0 0 1 .457.31c.064.052.122.103.176.155a1.388 1.388 0 0 1 .405.806 1.803 1.803 0 0 1-.003.555z" id="colorImportance"/><path class="icon-white" d="M3.559 8.243a1.952 1.952 0 0 0-.308.044 1.55 1.55 0 0 0-.272.091 1.294 1.294 0 0 0-.439.318 1.312 1.312 0 0 0-.277.465 1.57 1.57 0 0 0-.069.274 1.974 1.974 0 0 0-.023.304c0 .146.017.285.052.415.035.13.088.253.158.369.071.116.16.225.267.327.108.102.235.197.381.285a7.72 7.72 0 0 1 .328.212 2.054 2.054 0 0 1 .209.173.94.94 0 0 1 .082.102.62.62 0 0 1 .106.335.608.608 0 0 1-.008.098.423.423 0 0 1-.064.167.426.426 0 0 1-.141.138.5.5 0 0 1-.222.072 1.186 1.186 0 0 1-.41-.039 1.239 1.239 0 0 1-.256-.101 1.406 1.406 0 0 1-.241-.161 2.021 2.021 0 0 1-.227-.219v1.058a1.5 1.5 0 0 0 .431.225 1.97 1.97 0 0 0 .543.102c.133.008.259.007.377-.006.118-.013.229-.036.331-.069.102-.033.196-.077.282-.132a1.1 1.1 0 0 0 .232-.198 1.234 1.234 0 0 0 .254-.44c.028-.083.05-.172.064-.267a2.024 2.024 0 0 0 .003-.557 1.446 1.446 0 0 0-.269-.652 1.573 1.573 0 0 0-.137-.153 2.31 2.31 0 0 0-.175-.154 3.314 3.314 0 0 0-.211-.155 5.121 5.121 0 0 0-.247-.155 4.088 4.088 0 0 1-.296-.189 1.512 1.512 0 0 1-.104-.083.592.592 0 0 1-.132-.157c-.012-.03-.026-.06-.037-.093a.784.784 0 0 1-.024-.101.809.809 0 0 1 .001-.217.496.496 0 0 1 .074-.18.573.573 0 0 1 .064-.076.503.503 0 0 1 .173-.109.758.758 0 0 1 .226-.044 1.373 1.373 0 0 1 .932.312V8.373a1.612 1.612 0 0 0-.213-.071 2.107 2.107 0 0 0-.49-.065c-.09-.002-.182 0-.278.006" id="notificationFg"/></svg>