<svg xmlns="http://www.w3.org/2000/svg" viewBox="0 0 16 16"><style>.st0,.st1{fill:#f6f6f6}.st0{opacity:0}.st1{fill-rule:evenodd;clip-rule:evenodd}.st2{fill:#424242}.st3{fill:#f0eff1}.st4{fill-rule:evenodd;clip-rule:evenodd;fill:#2372c6}.st5{fill:#fff}</style><g id="outline"><path class="st0" d="M0 0h16v16H0z"/><path class="st1" d="M12.061 0H6c-.97 0-2 .701-2 2v.436l-4 .451v12.101L8.982 16H9v-2h5c1.299 0 2-1.03 2-2V3.556L12.061 0z"/></g><g id="icon_x5F_bg"><path class="st2" d="M11.641 1H5.964S5 1 5 2v.323l1-.113V2h1.861L9 1.872V2h2v3h3v7H9v1h4.965c1 0 1.035-1 1.035-1V4l-3.359-3z"/><path class="st3" d="M7.861 2H6v.21zM11 5V2H9v10h5V5z"/></g><path class="st4" d="M1.037 3.782v10.31l7.138.793V2.989l-7.138.793zm5.272 7.106c-.02.133-.051.26-.091.379s-.091.231-.149.333a1.648 1.648 0 0 1-.936.756c-.146.048-.302.08-.469.099a3.238 3.238 0 0 1-.533.007 2.775 2.775 0 0 1-.767-.144A2.247 2.247 0 0 1 2.75 12v-1.498c.103.115.211.221.32.311a1.95 1.95 0 0 0 .703.371c.127.033.256.054.387.059a1.119 1.119 0 0 0 .365-.04.606.606 0 0 0 .399-.373.661.661 0 0 0 .047-.264.758.758 0 0 0-.069-.322.792.792 0 0 0-.082-.151 1.18 1.18 0 0 0-.243-.261 3.79 3.79 0 0 0-.382-.273c-.076-.049-.16-.102-.251-.157a3.192 3.192 0 0 1-.54-.404 2.26 2.26 0 0 1-.378-.462 2.045 2.045 0 0 1-.225-.522 2.337 2.337 0 0 1-.072-.587c0-.151.01-.294.031-.431a2.17 2.17 0 0 1 .097-.389c.043-.123.097-.238.163-.347.066-.11.143-.213.229-.309a1.869 1.869 0 0 1 1.007-.58 2.68 2.68 0 0 1 .435-.062 4.039 4.039 0 0 1 .756.019 2.423 2.423 0 0 1 .633.166v1.485c-.1-.08-.201-.148-.306-.207a1.863 1.863 0 0 0-.659-.219 1.955 1.955 0 0 0-.352-.017.936.936 0 0 0-.322.062.765.765 0 0 0-.246.154.802.802 0 0 0-.089.107.524.524 0 0 0-.065.121.801.801 0 0 0-.053.283c0 .056.005.108.012.159.008.049.02.098.033.142a.825.825 0 0 0 .245.352c.042.039.091.078.148.119a7.16 7.16 0 0 0 .418.268 5.548 5.548 0 0 1 .649.439 2.497 2.497 0 0 1 .44.436 1.834 1.834 0 0 1 .302.586c.036.107.061.22.078.336.018.118.026.239.026.366 0 .149-.011.289-.03.422z" id="color_x5F_decoration"/><path class="st5" d="M4.659 5.32c-.153.01-.298.032-.436.063a2.002 2.002 0 0 0-.719.322 1.914 1.914 0 0 0-.68.914 2.258 2.258 0 0 0-.096.389 2.71 2.71 0 0 0-.032.43c0 .207.024.403.074.588.05.185.125.358.225.522.1.165.226.318.378.462.153.145.333.279.539.404l.251.156c.077.051.149.098.212.144s.12.089.17.13a1.17 1.17 0 0 1 .242.26.935.935 0 0 1 .134.308.832.832 0 0 1 .005.304.655.655 0 0 1-.168.338.627.627 0 0 1-.266.161.882.882 0 0 1-.17.035 1.67 1.67 0 0 1-.581-.055 1.718 1.718 0 0 1-.362-.144 2.134 2.134 0 0 1-.341-.228 2.748 2.748 0 0 1-.321-.311v1.498c.09.068.186.127.287.182.102.052.211.099.324.137a3.024 3.024 0 0 0 .769.144c.188.012.366.01.533-.008.166-.019.324-.051.469-.098a1.653 1.653 0 0 0 .726-.467 1.746 1.746 0 0 0 .358-.623c.04-.118.07-.244.091-.378a2.717 2.717 0 0 0 .005-.788 2.045 2.045 0 0 0-.203-.644 1.972 1.972 0 0 0-.369-.495 4.39 4.39 0 0 0-.547-.439 6.527 6.527 0 0 0-.35-.219 6.566 6.566 0 0 1-.23-.14 3.527 3.527 0 0 1-.187-.127 2.128 2.128 0 0 1-.148-.118 1.06 1.06 0 0 1-.106-.107.696.696 0 0 1-.138-.246 1.05 1.05 0 0 1-.046-.301.855.855 0 0 1 .053-.283.734.734 0 0 1 .064-.121.681.681 0 0 1 .205-.195.663.663 0 0 1 .133-.067 1.056 1.056 0 0 1 .321-.062c.119-.004.237.002.352.017.115.016.228.041.337.079.11.037.217.083.322.14.104.059.206.128.306.207V5.505a2.595 2.595 0 0 0-.301-.102 3.078 3.078 0 0 0-.694-.09 4.038 4.038 0 0 0-.394.007" id="not_x5F_fg"/></svg>