<svg xmlns="http://www.w3.org/2000/svg" viewBox="0 0 16 16"><style>.st0,.st1{fill:#f6f6f6}.st0{opacity:0}.st1{fill-rule:evenodd;clip-rule:evenodd}.st2{fill:#3955a3}.st3{fill:#fff}</style><g id="outline"><path class="st0" d="M0 0h16v16H0z"/><path class="st1" d="M3 14.316V1.682L14.079.034v15.933z"/></g><path class="st2" d="M4 2.549v10.9l9 1.363V1.187L4 2.549zm5.317 9.449l-1.633-.059-2.151-7.937 1.531.018 1.328 5.534c.073.301.117.565.129.795l.027.001c.021-.254.066-.523.138-.81l1.331-5.486 1.528.018-2.228 7.926z" id="color_x5F_decoration"/><path class="st3" d="M11.546 4.072l-2.229 7.926-1.633-.059-2.151-7.937 1.531.018 1.328 5.534c.073.301.117.565.129.795l.027.001c.021-.254.066-.523.138-.81l1.331-5.486 1.529.018z" id="not_x5F_fg"/></svg>