<svg xmlns="http://www.w3.org/2000/svg" width="16" height="16"><style type="text/css">.icon-canvas-transparent{opacity:0;fill:#F6F6F6;} .icon-vs-out{fill:#F6F6F6;} .icon-vs-bg{fill:#424242;} .icon-vs-fg{fill:#F0EFF1;} .icon-git-orange{fill:#F05133;}</style><path class="icon-canvas-transparent" d="M16 16h-16v-16h16v16z" id="canvas"/><path class="icon-vs-out" d="M16 13h-6.412l-2.584 2.583c-.27.269-.627.417-1.007.417-.38 0-.737-.148-1.006-.416l-4.574-4.573c-.556-.556-.556-1.46 0-2.015l1.583-1.583v-7.413h14v13z" id="outline"/><path class="icon-vs-bg" d="M15 1v2h-12v-2h12zm-10.032 3.445c.27-.269.627-.417 1.008-.417s.739.149 1.007.418l.017.017v-.463h-4v2.413l1.968-1.968zm6.032-.445v2h-2.463l3.018 3.018c.555.555.555 1.459 0 2.015l-.967.967h4.412v-8h-4z" id="iconBg"/><path class="icon-vs-fg" d="M15 3v1h-4v2h-2.463l-1.537-1.537v-.463h-4v-1h12z" id="iconFg"/><g id="notificationBg"><path class="icon-git-orange" d="M11.027 10.513l-4.543 4.543c-.263.262-.689.262-.952 0l-4.564-4.563c-.263-.263-.263-.69 0-.953l3.129-3.13 1.185 1.185c-.121.291-.064.639.173.876l.151.081v2.893c-.087.035-.132.094-.197.161-.172.153-.282.373-.282.622 0 .462.375.836.836.836l.174-.018c.165-.024.324-.097.45-.224.279-.278.307-.711.089-1.024-.073-.121-.176-.222-.3-.292v-2.81l1.08 1.08c-.12.29-.061.636.174.871.313.313.82.313 1.134 0 .313-.313.313-.82 0-1.133-.225-.224-.548-.286-.828-.19l-1.159-1.158c.098-.28.035-.604-.19-.828-.222-.223-.543-.286-.822-.191l-1.202-1.203.947-.947c.263-.263.69-.263.952 0l4.565 4.563c.263.263.263.69 0 .953z"/></g></svg>