<svg xmlns="http://www.w3.org/2000/svg" viewBox="0 0 16 16"><style>.st0{fill:#f6f6f6}.st1{fill:#424242}.st2{fill:#f0eff1}</style><path class="st0" d="M0 16V5c0-2.758 2.243-5 5-5h11v16H0z" id="outline"/><path class="st1" d="M5 1a4 4 0 0 0-4 4v10h14V1H5zm9 13H2V5c0-1.654 1.346-3 3-3h9v12zM8 5c1.065 0 2 1.401 2 3 0 1.597-.935 3-2 3S6 9.598 6 8s.935-3 2-3m0-2C5.791 3 4 5.239 4 8s1.791 5 4 5 4-2.238 4-5c0-2.761-1.791-5-4-5" id="icon_x5F_bg"/><path class="st2" d="M10 8c0 1.597-.935 3-2 3S6 9.598 6 8c0-1.599.935-3 2-3s2 1.402 2 3zm4-6v12H2V5c0-1.654 1.346-3 3-3h9zm-2 6c0-2.762-1.791-5-4-5S4 5.239 4 8s1.791 5 4 5 4-2.238 4-5z" id="icon_x5F_fg"/></svg>