<svg xmlns="http://www.w3.org/2000/svg" viewBox="0 0 16 16"><style>.st0{opacity:0}.st0,.st1{fill:#f6f6f6}.st2{fill:#424242}</style><g id="outline"><path class="st0" d="M0 0h16v16H0z"/><path class="st1" d="M15.311 5.244c-1.312 2.342-2.167 3.816-2.994 4.545a1.378 1.378 0 0 1-.205.158.622.622 0 0 1-.332.102.407.407 0 0 1-.099-.012.767.767 0 0 1-.187-.074.496.496 0 0 1-.044.256.501.501 0 0 1-.45.281H9.048c-.055.01-.135.019-.231.019-.486 0-1.684-.235-2.298-2.42-.073-.43-.161-.811-.257-1.17-.003.004-.003.01-.006.016a8.043 8.043 0 0 0-.778 1.783c-.33 1.053-1.237 1.714-2.43 1.77-.013.002-.027.002-.04.002H2a.5.5 0 0 1-.188-.037s-.002.002-.002 0l-.002-.001-.003-.001-.001-.001-.001-.001h-.002l-.001-.001-.002-.001h-.002l-.001-.001-.001-.001h-.002s0 .006-.002-.002c0 0-.003.003-.002 0h-.001l-.001-.002h-.003l-.001-.001-.001-.001h-.002l-.003-.002h-.001v-.001a.494.494 0 0 1-.208-.195l-.016-.03-.019-.036.002-.001a.57.57 0 0 1 .026-.473c.695-2.563 1.987-4.63 3.243-5.17a.499.499 0 0 1 .596.157c.059.078.11.161.165.241.008-.064.016-.129.049-.188a.501.501 0 0 1 .434-.251h2.686a.5.5 0 0 1 .212.047c.96.449 1.28 1.798 1.591 3.102l.097.401c.025.116.052.222.082.33l.01.046c.031.102.087.204.129.307a6.812 6.812 0 0 1-.351-1.692.467.467 0 0 1 .021-.189l.275-.868c.213-.684.578-1.151 1.116-1.429a.495.495 0 0 1 .23-.056h2.73a.5.5 0 0 1 .436.745z"/></g><path class="st2" d="M10.24 8.547A4.43 4.43 0 0 0 11 10H9s-1.328.354-2-2.037C6.769 6.59 6.43 5.654 6.047 5h2.686c.829.388 1.107 1.926 1.414 3.17.024.111.053.226.085.343l-.002.005c.002.01.007.02.01.029zM5 5c-1.118.481-2.355 2.514-3 5l-.02-.039h.001L2 10h1.001c.021 0-.012 0 0 0 1.072-.043 1.753-.633 2-1.422.269-.862.566-1.458.826-1.89C5.701 6.142 5.393 5.516 5 5zm7.144 0c-.449.232-.711.629-.868 1.134-.085.268-.205.634-.276.866a6.199 6.199 0 0 0 .769 2.572l.039-.023c.063-.043.125-.082.178-.136.785-.691 1.668-2.234 2.888-4.413h-2.73z" id="icon_x5F_bg"/></svg>