<svg xmlns="http://www.w3.org/2000/svg" width="16" height="16"><style type="text/css">.icon-canvas-transparent{opacity:0;fill:#F6F6F6;} .icon-white{fill:#FFFFFF;} .icon-visualstudio{fill:#68217A;}</style><path class="icon-canvas-transparent" d="M16 16h-16v-16h16v16z" id="canvas"/><path class="icon-visualstudio" d="M16 1.619v12.04l-.013.044c-.197.492-.494.925-.881 1.282-.372.342-.809.601-1.306.774-.448.16-.946.241-1.475.241h-4.325v-3.028l-1.553-1.292-2.31 1.767-4.137-1.803v-7.46l4.086-1.812 2.319 1.749 4.703-4.121h.026l4.866 1.619z" id="outline"/><path class="icon-white" d="M9 11.202l-2.5-2.08-2.643 2.02-1.857-.808v-4.848l1.821-.808 2.679 2.02 5.072-4.444 2.428.808v4.85l-.145-.148c-.239-.192-.53-.339-.867-.439-.261-.077-.619-.182-1.056-.182h-.218v-1.657l-3.428 2.424.714.404v2.888zm-3.572-3.292l-1.714-1.616v3.233l1.714-1.617zm8.752 3.802c-.057-.16-.138-.303-.243-.428-.106-.125-.235-.229-.389-.314-.154-.084-.328-.141-.522-.168v-.017c.12-.036.242-.091.365-.166s.234-.168.332-.28c.098-.112.178-.244.24-.394.061-.151.092-.319.092-.504 0-.208-.037-.397-.112-.569-.075-.172-.188-.318-.339-.44-.151-.122-.342-.217-.571-.284s-.502-.148-.814-.148h-2.219v6h2.325c.302 0 .573-.042.813-.127.24-.084.443-.203.61-.357.167-.154.295-.34.383-.561.089-.22.133-.464.133-.733.001-.179-.027-.349-.084-.51zm-1.876-1.468c-.141.134-.335.201-.581.201h-.621v-1.411h.543c.278 0 .492.055.644.164.151.109.227.273.227.492 0 .235-.071.42-.212.554zm.193 2.548c-.152.147-.37.22-.653.22h-.742v-1.569h.75c.135 0 .257.018.365.054.108.036.2.087.275.154.075.066.133.147.173.241.041.094.061.199.061.316 0 .242-.077.437-.229.584z" id="iconBg"/></svg>