<svg xmlns="http://www.w3.org/2000/svg" viewBox="0 0 16 16"><style>.icon-canvas-transparent{opacity:0;fill:#f6f6f6}.icon-white{fill:#fff}.icon-visualstudio{fill:#68217a}</style><path class="icon-canvas-transparent" d="M16 16H0V0h16v16z" id="canvas"/><path class="icon-visualstudio" d="M16 1.619v12.04c-.005.014-.007.03-.013.044a3.505 3.505 0 0 1-.881 1.282 3.713 3.713 0 0 1-1.306.774c-.448.16-.946.241-1.475.241H8v-3.028L6.447 11.68l-2.31 1.767L0 11.644v-7.46l4.086-1.812 2.319 1.749L11.108 0h.026L16 1.619z" id="outline"/><path class="icon-white" d="M9 11.202l-2.5-2.08-2.643 2.02L2 10.334V5.486l1.821-.808L6.5 6.698l5.072-4.444L14 3.062v4.85c-.049-.049-.09-.104-.145-.148a2.512 2.512 0 0 0-.867-.439c-.261-.077-.619-.182-1.056-.182h-.218V5.486L8.286 7.91 9 8.314v2.888zM5.428 7.91L3.714 6.294v3.233L5.428 7.91zm8.752 3.802a1.379 1.379 0 0 0-.243-.428 1.37 1.37 0 0 0-.389-.314 1.518 1.518 0 0 0-.522-.168v-.017c.12-.036.242-.091.365-.166s.234-.168.332-.28a1.334 1.334 0 0 0 .332-.898c0-.208-.037-.397-.112-.569a1.15 1.15 0 0 0-.339-.44c-.151-.122-.342-.217-.571-.284S12.531 8 12.219 8H10v6h2.325c.302 0 .573-.042.813-.127.24-.084.443-.203.61-.357.167-.154.295-.34.383-.561.089-.22.133-.464.133-.733a1.491 1.491 0 0 0-.084-.51zm-1.876-1.468c-.141.134-.335.201-.581.201h-.621V9.034h.543c.278 0 .492.055.644.164.151.109.227.273.227.492 0 .235-.071.42-.212.554zm.193 2.548c-.152.147-.37.22-.653.22h-.742v-1.569h.75c.135 0 .257.018.365.054.108.036.2.087.275.154a.664.664 0 0 1 .173.241.781.781 0 0 1 .061.316.776.776 0 0 1-.229.584z" id="iconBg"/></svg>