<svg xmlns="http://www.w3.org/2000/svg" viewBox="0 0 16 16"><defs><style>.icon-canvas-transparent,.icon-vs-out{fill:#f6f6f6;}.icon-canvas-transparent{opacity:0;}.icon-vs-yellow{fill:#fc0;}.icon-vs-bg{fill:#424242;}</style></defs><title>FeedbackSmile_16x</title><g id="canvas"><path class="icon-canvas-transparent" d="M16,0V16H0V0Z"/></g><g id="outline"><path class="icon-vs-out" d="M16,8A8,8,0,1,1,8,0,8.009,8.009,0,0,1,16,8Z"/></g><g id="iconFg"><path class="icon-vs-yellow" d="M14,8A6,6,0,1,1,8,2,6,6,0,0,1,14,8Z"/></g><g id="iconBg"><path class="icon-vs-bg" d="M8,11A3.514,3.514,0,0,1,4.968,9.25l-.865.5a4.5,4.5,0,0,0,7.794,0l-.865-.5A3.515,3.515,0,0,1,8,11Zm7-3A7,7,0,1,1,8,1,7.009,7.009,0,0,1,15,8ZM14,8a6,6,0,1,0-6,6A6.006,6.006,0,0,0,14,8ZM6,6A1,1,0,1,1,5,5,1,1,0,0,1,6,6Zm6,0a1,1,0,1,1-1-1A1,1,0,0,1,12,6Z"/></g></svg>