<?xml version="1.0" encoding="iso-8859-1"?>
<!-- Generator: Adobe Illustrator 21.0.0, SVG Export Plug-In . SVG Version: 6.00 Build 0)  -->
<svg version="1.1" xmlns="http://www.w3.org/2000/svg" xmlns:xlink="http://www.w3.org/1999/xlink" x="0px" y="0px"
	 viewBox="0 0 16 16" style="enable-background:new 0 0 16 16;" xml:space="preserve">
<style type="text/css">
	.icon_x002D_canvas_x002D_transparent{opacity:0;fill:#F6F6F6;}
	.icon_x002D_vs_x002D_out{fill:#F6F6F6;}
	.icon_x002D_vs_x002D_fg{fill:#F0EFF1;}
	.icon_x002D_vs_x002D_blue{fill:#1BA1E2;}
	.icon_x002D_white{fill:#FFFFFF;}
	.icon_x002D_office_x002D_access{fill:#A4373A;}
</style>
<g id="canvas">
	<path class="icon_x002D_canvas_x002D_transparent" d="M16,16H0V0h16V16z"/>
</g>
<g id="outline">
	<path class="icon_x002D_vs_x002D_out" d="M9,0C5.186,0,2.274,1.573,2.024,3.703L0,3.984V14.75l5.595,0.777
		C6.592,15.83,7.748,16,9,16c3.99,0,7-1.72,7-4V4C16,1.72,12.99,0,9,0z"/>
</g>
<g id="iconBg">
	<path class="icon_x002D_vs_x002D_blue" d="M9,1C5.988,1,3.501,2.111,3.072,3.558l1.245-0.173C4.981,2.693,6.662,2,8.997,2
		c3.052,0,5,1.185,5,2S12.05,5.999,9,6v9c3.314,0,6-1.343,6-3V4C15,2.343,12.314,1,9,1z"/>
</g>
<g id="iconFg">
	<path class="icon_x002D_vs_x002D_fg" d="M8.997,2c-2.335,0-4.016,0.693-4.68,1.385L9,2.734V6c3.05-0.001,4.997-1.185,4.997-2
		S12.049,2,8.997,2z"/>
</g>
<g id="notificationBg">
	<path class="icon_x002D_office_x002D_access" d="M1,4.867v9l7,1v-11L1,4.867z M5.594,11.922l-0.346-1.341l-1.654-0.056L3.279,11.78
		l-1.057-0.065l1.595-5.655l1.243-0.077l1.764,6.014L5.594,11.922z M4.494,7.586L5,9.553L3.811,9.539L4.31,7.574
		c0.011-0.041,0.02-0.081,0.028-0.122S4.354,7.369,4.36,7.326s0.013-0.085,0.019-0.129c0.005-0.044,0.008-0.088,0.012-0.133
		l0.026-0.001C4.42,7.112,4.424,7.159,4.43,7.205C4.434,7.252,4.438,7.297,4.445,7.34c0.008,0.043,0.014,0.086,0.022,0.127
		C4.477,7.507,4.484,7.547,4.494,7.586z"/>
</g>
<g id="notificationFg">
	<path class="icon_x002D_white" d="M3.817,6.061l-1.595,5.655l1.057,0.065l0.314-1.255l1.654,0.056l0.346,1.341l1.23,0.075
		L5.061,5.983L3.817,6.061z M3.811,9.539L4.31,7.574c0.011-0.041,0.02-0.081,0.028-0.122S4.354,7.369,4.36,7.326
		s0.013-0.085,0.019-0.129c0.005-0.044,0.008-0.088,0.012-0.133l0.026-0.001C4.42,7.112,4.424,7.159,4.43,7.205
		C4.434,7.252,4.438,7.297,4.445,7.34c0.008,0.043,0.014,0.086,0.022,0.127c0.009,0.04,0.017,0.08,0.026,0.119L5,9.553L3.811,9.539z
		"/>
</g>
</svg>
