<svg xmlns="http://www.w3.org/2000/svg" width="16" height="16" viewBox="0 0 16 16"><style type="text/css">.icon-canvas-transparent{opacity:0;fill:#F6F6F6;} .icon-white{fill:#FFFFFF;} .icon-visualstudio-express-win8{fill:#00ADEF;}</style><path class="icon-canvas-transparent" d="M16 16h-16v-16h16v16z" id="canvas"/><path class="icon-white" d="M5.969 10.828l-2.831 2.358-3.138-1.568v-7.236l3.138-1.569 2.831 2.359 5.789-5.157 4.242 1.264v13.441l-4.242 1.264-5.789-5.156z" id="outline"/><path class="icon-visualstudio-express-win8" d="M12 1l-6 5.5-3-2.5-2 1v6l2 1 3-2.5 6 5.5 3-1v-12l-3-1zm-9 9v-4l2 2-2 2zm5-2l4-3v6l-4-3z" id="iconBg"/></svg>