<svg xmlns="http://www.w3.org/2000/svg" viewBox="0 0 16 16"><style>.icon-canvas-transparent{opacity:0;fill:#f6f6f6}.icon-vs-out{fill:#f6f6f6}.icon-git-orange{fill:#ef5945}.icon-white{fill:#fff}</style><path class="icon-canvas-transparent" d="M16 16H0V0h16v16z" id="canvas"/><g id="outline"><path class="icon-vs-out" d="M8.015 16c-.508 0-.985-.197-1.345-.556L.557 9.333a1.905 1.905 0 0 1 0-2.693L6.64.558C7 .198 7.478 0 7.986 0c.509 0 .987.199 1.346.559l6.111 6.11c.742.742.742 1.95 0 2.693l-6.082 6.082A1.899 1.899 0 0 1 8.015 16z"/><path class="icon-git-orange" d="M8.015 15a.885.885 0 0 1-.639-.264l-6.112-6.11A.898.898 0 0 1 1 7.986c0-.242.094-.469.264-.639l6.083-6.083C7.52 1.092 7.742 1 7.986 1s.465.091.637.264l6.113 6.111a.905.905 0 0 1-.001 1.279l-6.081 6.082a.891.891 0 0 1-.639.264z"/></g><g id="iconBg"><path class="icon-white" d="M12.383 8.079a1.376 1.376 0 0 1-2.75 0c0-.199.045-.388.121-.559L8.52 6.272c-.007.002-.014.003-.02.006v3.601a1.373 1.373 0 0 1-.5 2.653 1.374 1.374 0 1 1-.5-2.653V6.278a1.373 1.373 0 0 1-.767-1.814l-1.285-1.3.707-.707L7.433 3.75A1.36 1.36 0 0 1 8 3.625c.759 0 1.375.616 1.375 1.375 0 .208-.05.404-.133.58l1.222 1.236a1.376 1.376 0 0 1 1.919 1.263z"/></g></svg>