<svg xmlns="http://www.w3.org/2000/svg" width="16" height="16"><style type="text/css">.icon-canvas-transparent{opacity:0;fill:#F6F6F6;} .icon-vs-out{fill:#F6F6F6;} .icon-vs-bg{fill:#424242;} .icon-vs-fg{fill:#F0EFF1;}</style><path class="icon-canvas-transparent" d="M16 16h-16v-16h16v16z" id="canvas"/><path class="icon-vs-out" d="M14 0v15h-11v-5h-.25c-.965 0-1.75-.785-1.75-1.75v-6.5c0-.965.785-1.75 1.75-1.75h11.25z" id="outline"/><path class="icon-vs-bg" d="M10.824 1c.11.228.176.48.176.75v.25h1v9h-7v-1h-1v4h9v-13h-2.176zm-4.824 12h-1v-1h1v1zm3 0h-1v-1h1v1zm3 0h-1v-1h1v1zm-2.75-12h-6.5c-.414 0-.75.336-.75.75v6.5c0 .414.336.75.75.75h6.5c.414 0 .75-.336.75-.75v-6.5c0-.414-.336-.75-.75-.75zm-4.067 1c.217.035.408.089.543.187.208.151.313.365.313.642 0 .342-.108.605-.325.791-.217.186-.523.278-.916.278h-.747v-1.898h1.132zm-1.183 5v-2h.93c.476 0 .834.025 1.076.216.243.19.364.417.364.749 0 .156-.027.284-.083.419-.056.136-.139.244-.249.343-.11.099-.25.154-.417.211-.168.057-.364.062-.589.062h-1.032zm5-4.437v5.437h-3.821c.332 0 .646-.045.94-.137.294-.091.551-.223.772-.398.219-.174.393-.387.52-.64.127-.252.19-.541.19-.867 0-.238-.036-.454-.11-.649-.073-.195-.179-.366-.317-.512-.139-.147-.311-.266-.508-.359-.197-.093-.666-.155-.666-.188v-.02c0-.059.36-.14.515-.244.154-.104.29-.226.4-.364s.198-.293.26-.464c.062-.171.093-.354.093-.549 0-.214-.041-.417-.125-.609h1.857v.563z" id="iconBg"/><path class="icon-vs-fg" d="M5.032 7h-1.032v-2h.93c.476 0 .834.025 1.076.216.243.19.364.417.364.749 0 .156-.027.284-.083.419s-.139.244-.249.343-.25.154-.417.211c-.168.057-.364.062-.589.062zm.681-3.38c.217-.185.325-.449.325-.791 0-.277-.104-.491-.313-.642-.134-.098-.325-.152-.542-.187h-1.132v1.898h.747c.393 0 .699-.092.915-.278zm-.713 9.38h1v-1h-1v1zm1-8.75c0 .033.469.095.666.188.197.093.37.212.508.359.138.146.244.317.316.513.074.195.11.412.11.649 0 .326-.063.614-.19.867s-.301.465-.52.64c-.22.174-.477.306-.771.397-.295.092-.608.137-.94.137h3.821v-6h-1.857c.084.192.125.395.125.609 0 .195-.031.378-.093.549s-.149.326-.26.464-.246.26-.4.364c-.155.104-.515.186-.515.244v.02zm5-2.25v6.25c0 .965-.785 1.75-1.75 1.75h-4.25v1h7v-9h-1zm-3 11h1v-1h-1v1zm3 0h1v-1h-1v1z" id="iconFg"/></svg>