<svg xmlns="http://www.w3.org/2000/svg" viewBox="0 0 16 16"><style>.st0{fill-rule:evenodd;clip-rule:evenodd;fill:#f6f6f6}.st1{fill:#424242}.st2{fill-rule:evenodd;clip-rule:evenodd;fill:#2372c6}.st3{fill:#f0eff1}.st4{fill:#fff}</style><path class="st0" d="M0 0v14.987L8.982 16H9v-2h7V0z" id="outline"/><g id="icon_x5F_bg"><path class="st1" d="M1 1v1.774l8-.902V4h5v8H9v1h6V1z"/><path class="st2" d="M1.037 3.782v10.31l7.138.793V2.989l-7.138.793zm5.272 7.106c-.02.133-.051.26-.091.379s-.091.231-.149.333a1.648 1.648 0 0 1-.936.756c-.145.048-.302.08-.469.099a3.237 3.237 0 0 1-.533.007 2.833 2.833 0 0 1-.768-.144 2.259 2.259 0 0 1-.326-.137A2.25 2.25 0 0 1 2.75 12v-1.498c.103.115.211.221.321.311a1.959 1.959 0 0 0 .704.371c.126.033.255.054.386.059a1.119 1.119 0 0 0 .364-.04.684.684 0 0 0 .265-.161.586.586 0 0 0 .135-.212.766.766 0 0 0 .029-.429.818.818 0 0 0-.133-.308 1.281 1.281 0 0 0-.244-.261 3.288 3.288 0 0 0-.382-.273 8.583 8.583 0 0 0-.251-.157 3.192 3.192 0 0 1-.54-.404 2.26 2.26 0 0 1-.378-.462 2.045 2.045 0 0 1-.298-1.109c0-.151.01-.294.032-.431.022-.136.054-.266.098-.389a1.96 1.96 0 0 1 .678-.915 2.023 2.023 0 0 1 .721-.32 2.68 2.68 0 0 1 .435-.063c.136-.009.266-.012.392-.009.127.003.247.012.363.027.117.016.227.037.333.065.104.027.204.061.3.101v1.485a1.943 1.943 0 0 0-.627-.348 1.747 1.747 0 0 0-.338-.078 2.056 2.056 0 0 0-.352-.016 1.243 1.243 0 0 0-.17.019.881.881 0 0 0-.283.109.797.797 0 0 0-.115.088.75.75 0 0 0-.154.228.65.65 0 0 0-.04.134.898.898 0 0 0-.013.149c0 .056.005.108.011.159.009.049.021.098.035.142a.756.756 0 0 0 .139.246 1.619 1.619 0 0 0 .252.225 6.2 6.2 0 0 0 .418.268 5.273 5.273 0 0 1 .648.439 2.497 2.497 0 0 1 .442.436 1.834 1.834 0 0 1 .302.586c.036.107.061.22.078.336.018.118.026.239.026.366 0 .149-.011.289-.03.422z"/></g><path class="st3" d="M9 4h5v8H9z" id="icon_x5F_fg"/><path class="st4" d="M4.659 5.32c-.154.01-.298.031-.436.063a1.922 1.922 0 0 0-1.006.579 1.951 1.951 0 0 0-.393.657 2.28 2.28 0 0 0-.096.389 2.71 2.71 0 0 0-.032.43c0 .207.024.403.074.588.05.185.125.358.224.522.1.165.226.318.378.462.153.145.333.279.539.404a5.86 5.86 0 0 1 .464.3c.064.046.12.089.169.13a1.281 1.281 0 0 1 .243.26.935.935 0 0 1 .134.308.832.832 0 0 1 .005.304.64.64 0 0 1-.289.433.737.737 0 0 1-.315.101 1.67 1.67 0 0 1-.581-.055 1.718 1.718 0 0 1-.362-.144 2.09 2.09 0 0 1-.341-.228 2.671 2.671 0 0 1-.321-.311v1.498c.089.068.186.127.287.182.102.052.211.099.325.137a3.024 3.024 0 0 0 .769.144c.188.012.367.01.533-.008.167-.019.324-.051.469-.098a1.66 1.66 0 0 0 .727-.467 1.746 1.746 0 0 0 .358-.623c.04-.118.07-.244.091-.378a2.717 2.717 0 0 0 .005-.788 2.018 2.018 0 0 0-.574-1.139 4.623 4.623 0 0 0-.896-.658 5.117 5.117 0 0 1-.418-.267 2.128 2.128 0 0 1-.148-.118.963.963 0 0 1-.106-.107.696.696 0 0 1-.138-.246 1.05 1.05 0 0 1-.045-.301.75.75 0 0 1 .052-.283.558.558 0 0 1 .065-.12.761.761 0 0 1 .09-.107.875.875 0 0 1 .114-.089.87.87 0 0 1 .283-.108 1.13 1.13 0 0 1 .17-.02 1.967 1.967 0 0 1 .69.094 1.986 1.986 0 0 1 .628.348V5.505a2.419 2.419 0 0 0-.632-.166 3.518 3.518 0 0 0-.363-.027 4.39 4.39 0 0 0-.394.008" id="not_x5F_fg"/></svg>