<svg xmlns="http://www.w3.org/2000/svg" width="16" height="16"><style type="text/css">.icon-canvas-transparent{opacity:0;fill:#F6F6F6;} .icon-vs-out{fill:#F6F6F6;} .icon-vs-bg{fill:#424242;} .icon-vs-fg{fill:#F0EFF1;} .icon-visualstudio-online{fill:#007ACC;}</style><path class="icon-canvas-transparent" d="M16 16h-16v-16h16v16z" id="canvas"/><path class="icon-vs-out" d="M15.9 7.1l-.1-.6-2.2-.8 1-2.1-.3-.6c-.4-.5-.8-.9-1.3-1.3l-.5-.4-2.1 1-.9-2.2h-.6c-.3-.1-.6-.1-.9-.1-.3 0-.6 0-.9.1h-.6l-.8 2.3-2.1-1-.6.3-1.3 1.3-.4.5 1 2.1-2.2.9v.6c-.1.3-.1.6-.1.9 0 .2 0 1 .7 1.4l.2.1-.9.4v4.2l2.1 1.1 1.3-1.1 2.2 1.9h2.6l.8-.3v-1.1l.9.2.4-1.1 2.1 1 .5-.4c.5-.4.9-.8 1.3-1.3l.4-.5-1-2.1 2.2-.8.1-.6c.1-.4.1-.7.1-1 0-.3 0-.6-.1-.9z" id="outline"/><path class="icon-vs-bg" d="M9.5 8c0 .4-.2.8-.5 1.1v-.8l-2.4-.8c.2-.6.8-1 1.4-1 .8 0 1.5.7 1.5 1.5zm5.5.8v-1.6l-2.2-.8c-.1-.2-.2-.4-.2-.6l1-2.1c-.3-.4-.7-.8-1.1-1.1l-2.1 1c-.4-.2-.6-.2-.8-.3l-.8-2.2c-.3-.1-.5-.1-.8-.1h-.8l-.8 2.3-.6.2-2.1-1c-.5.4-.8.7-1.2 1.2l1 2.1-.2.6-2.3.8v.8c0 .3 0 .4.2.5l2.3 1.4 1.5-1.4v-.5c0-1.7 1.3-3 3-3s3 1.3 3 3c0 1.3-.8 2.4-2 2.8v3.6l.6-1.7c.2-.1.4-.2.6-.2l2.1 1c.4-.3.8-.7 1.1-1.1l-1-2.1c.1-.2.2-.4.2-.6l2.4-.9z" id="iconBg"/><path class="icon-vs-fg" d="M9 10.8v-1.7c.3-.3.5-.7.5-1.1 0-.8-.7-1.5-1.5-1.5-.6 0-1.2.4-1.4 1l-.3-.1-1.3 1.1v-.5c0-1.7 1.3-3 3-3s3 1.3 3 3c0 1.3-.8 2.4-2 2.8z" id="iconFg"/><path class="icon-visualstudio-online" d="M6.5 8.5l-3 2.8-1.5-1.3-1 .5v3l1 .5 1.5-1.3 3 2.8 1.5-.5v-6l-1.5-.5zm-4.5 4.5v-2l1 1-1 1zm2.5-1l2-1.5v3l-2-1.5z" id="colorImportance"/></svg>