<svg xmlns="http://www.w3.org/2000/svg" viewBox="0 0 16 16"><style>.st0{opacity:0}.st0,.st1{fill:#f6f6f6}.st2{fill:#68217a}.st3{fill:#f0eff1}</style><g id="outline"><path class="st0" d="M0 0h16v16H0z"/><path class="st1" d="M3.138 13.172l2.831-2.359.727.648 2.439 4.148 2.45.205.173.155.366-.11 1.679.141h.733l.36-.967L16 14.705V1.264L11.758 0 5.969 5.157l-2.831-2.36L0 4.366v7.238z"/></g><g id="color_x5F_importance"><path class="st2" d="M14.219 8.016l-4.317.399-2.122 2.916 1.954 3.325 4.108.344 1.127-3.016-.75-3.968zm-1.189.969l-.984 2.076-2.897-.038 1.185-1.788 2.696-.25zm-1.146 2.931l1.031 2.148-2.64-.222-1.246-1.964 2.855.038zm.812-.272l.973-2.053.414 2.337-.557 1.354-.83-1.638z"/><path class="st2" d="M8.634 8.459L8 7.984l4-3v2.232l3-.277V1.984l-3-1-6 5.5-3-2.5-2 1v6l2 1 3-2.5 1.132 1.038 1.502-2.063zM3 9.984v-4l2 2-2 2z"/></g><g id="icon_x5F_fg"><path class="st3" d="M9.029 11.879l1.246 1.964 2.64.221-1.031-2.148zM13.03 8.985l-2.696.25-1.185 1.788 2.897.038zM12.696 11.644l.83 1.638.557-1.354-.414-2.337z"/></g></svg>