<svg xmlns="http://www.w3.org/2000/svg" width="16" height="16"><style type="text/css">.icon-canvas-transparent{opacity:0;fill:#F6F6F6;} .icon-white{fill:#FFFFFF;} .icon-visualstudio{fill:#68217A;}</style><path class="icon-canvas-transparent" d="M16 16h-16v-16h16v16z" id="canvas"/><path class="icon-visualstudio" d="M16 1.416v13.168l-4.246 1.416h-1.102l-4.428-4.059-2.234 1.862-3.99-1.995v-7.615l3.99-1.996 2.233 1.861 4.427-4.058h1.103l4.247 1.416z" id="outline"/><path class="icon-white" d="M11.429 5.429v.859l2.571-.238v-3.193l-2.571-.857-5.143 4.714-2.572-2.143-1.714.858v5.143l1.714.857 2.571-2.143.636.583 4.508-4.44zm-7.715 4.285v-3.428l1.715 1.714-1.715 1.714zm10.536-2.683l-4.316.4-2.122 2.916 1.954 3.325 4.107.344 1.127-3.016-.75-3.969zm-1.189.97l-.984 2.076-2.896-.038 1.185-1.788 2.695-.25zm-1.146 2.931l1.031 2.149-2.64-.222-1.246-1.964 2.855.037zm.812-.273l.973-2.053.414 2.337-.557 1.354-.83-1.638z" id="iconBg"/></svg>