<svg xmlns="http://www.w3.org/2000/svg" viewBox="0 0 16 16"><defs><style>.icon-canvas-transparent,.icon-vs-out{fill:#f6f6f6}.icon-canvas-transparent{opacity:0}.brand-azure-blue{fill:#0072c6}.icon-vs-red{fill:#e51400}</style></defs><title>AzureOffline_16x</title><path class="icon-canvas-transparent" d="M16 0v16H0V0z"/><path class="icon-vs-out" d="M16 9.586l-2-2-.622.622-3.329-5.741L9.022.786l-.45 1.064-.514-.385-.1.073-3.63 3.031a3.181 3.181 0 0 0-.8.881Q2.511 7.228 1.477 9L.7 10.339l-.7 1.21v1.268h3.262L3.43 14H7.6l2 2h.828L12 14.414 13.586 16h.828L16 14.414V12.73l-.853-1.471.853-.841zM5.356 11.777q.724-1.554 1.452-3.109l.967 1.143-.194.189 1.189 1.178z"/><path class="brand-azure-blue" d="M12.646 8.94L12 9.586l-2-2L8.484 9.1l-.95-1.124a.27.27 0 0 1-.082-.309c.566-1.524 1.122-3.051 1.681-4.578.01-.027.022-.053.051-.123zM4.3 13h4.282l.923-.936-5.21.915zm3.71-9.253l.715-1.529c-.088.064-.122.086-.154.112L5.05 5.269a2.6 2.6 0 0 0-.655.677c-.936 1.637-1.888 3.264-2.834 4.895-.183.316-.364.633-.561.977h.254c.9 0 1.806-.007 2.709.005a.349.349 0 0 0 .379-.238q1.826-3.922 3.666-7.838z"/><path class="icon-vs-red" d="M13 11.973L15 14l-1 1-2-2-2 2-1-1 2-2.027L9 10l1-1 2 2 2-2 1 1z"/></svg>