<?xml version="1.0" encoding="iso-8859-1"?>
<!-- Generator: Adobe Illustrator 21.0.0, SVG Export Plug-In . SVG Version: 6.00 Build 0)  -->
<svg version="1.1" xmlns="http://www.w3.org/2000/svg" xmlns:xlink="http://www.w3.org/1999/xlink" x="0px" y="0px"
	 viewBox="0 0 16 16" style="enable-background:new 0 0 16 16;" xml:space="preserve">
<style type="text/css">
	.icon_x002D_canvas_x002D_transparent{opacity:0;fill:#F6F6F6;}
	.icon_x002D_vs_x002D_out{fill:#F6F6F6;}
	.icon_x002D_vs_x002D_fg{fill:#F0EFF1;}
	.icon_x002D_vs_x002D_blue{fill:#1BA1E2;}
	.icon_x002D_white{fill:#FFFFFF;}
	.icon_x002D_office_x002D_sharepoint{fill:#2372C6;}
</style>
<g id="canvas">
	<path class="icon_x002D_canvas_x002D_transparent" d="M16,16H0V0h16V16z"/>
</g>
<g id="outline">
	<path class="icon_x002D_vs_x002D_out" d="M16,4v8c0,2.28-3.01,4-7,4c-1.252,0-2.408-0.17-3.405-0.473L0,14.75V3.984l2.024-0.281
		C2.274,1.573,5.186,0,9,0C12.99,0,16,1.72,16,4z"/>
</g>
<g id="iconBg">
	<path class="icon_x002D_vs_x002D_blue" d="M15,4v8c0,1.657-2.686,3-6,3V6c3.05-0.001,4.997-1.185,4.997-2s-1.948-2-5-2
		c-2.335,0-4.016,0.693-4.68,1.385L3.072,3.558C3.501,2.111,5.988,1,9,1C12.314,1,15,2.343,15,4z"/>
</g>
<g id="iconFg">
	<path class="icon_x002D_vs_x002D_fg" d="M13.997,4c0,0.815-1.947,1.999-4.997,2V2.734l-4.683,0.65C4.981,2.693,6.662,2,8.997,2
		C12.049,2,13.997,3.185,13.997,4z"/>
</g>
<g id="notificationBg">
	<path class="icon_x002D_office_x002D_sharepoint" d="M1,4.867v9l7,1v-11L1,4.867z M6.038,11.072
		c-0.018,0.115-0.044,0.224-0.078,0.325c-0.034,0.103-0.077,0.199-0.129,0.287c-0.052,0.089-0.111,0.171-0.18,0.249
		c-0.082,0.093-0.176,0.173-0.282,0.241c-0.104,0.067-0.218,0.12-0.343,0.161c-0.124,0.04-0.26,0.068-0.403,0.084
		c-0.144,0.015-0.297,0.017-0.459,0.007c-0.123-0.008-0.239-0.023-0.349-0.042c-0.109-0.021-0.214-0.049-0.313-0.081
		c-0.097-0.033-0.192-0.073-0.279-0.118c-0.087-0.047-0.17-0.098-0.247-0.156V10.74c0.089,0.1,0.182,0.19,0.276,0.267
		c0.094,0.077,0.192,0.142,0.293,0.196c0.101,0.053,0.205,0.095,0.312,0.123c0.108,0.029,0.219,0.047,0.333,0.051
		c0.06,0.003,0.115,0.002,0.167-0.004c0.052-0.006,0.101-0.016,0.146-0.03c0.045-0.015,0.087-0.034,0.124-0.057
		c0.039-0.023,0.073-0.05,0.104-0.081c0.025-0.028,0.047-0.055,0.067-0.087c0.019-0.031,0.035-0.062,0.049-0.097
		c0.013-0.034,0.023-0.07,0.029-0.108c0.007-0.038,0.01-0.076,0.01-0.119c0-0.047-0.005-0.096-0.014-0.142
		c-0.011-0.045-0.024-0.091-0.044-0.135c-0.019-0.045-0.043-0.088-0.071-0.13s-0.062-0.084-0.1-0.124
		c-0.031-0.031-0.066-0.064-0.108-0.099c-0.043-0.035-0.092-0.072-0.146-0.112S4.287,9.972,4.22,9.928
		C4.154,9.886,4.081,9.841,4.003,9.793C3.826,9.686,3.671,9.57,3.539,9.446C3.408,9.322,3.3,9.19,3.214,9.048
		c-0.086-0.141-0.15-0.291-0.193-0.45C2.978,8.44,2.957,8.271,2.957,8.093c0-0.129,0.008-0.252,0.028-0.37
		c0.019-0.118,0.046-0.229,0.083-0.334c0.037-0.106,0.084-0.206,0.139-0.299C3.265,6.994,3.33,6.906,3.406,6.823
		s0.158-0.156,0.247-0.221C3.742,6.536,3.839,6.481,3.94,6.436c0.104-0.047,0.214-0.084,0.331-0.111
		c0.119-0.027,0.244-0.045,0.376-0.054c0.118-0.008,0.229-0.01,0.339-0.007c0.108,0.003,0.212,0.01,0.313,0.023
		C5.397,6.301,5.492,6.32,5.583,6.342c0.09,0.024,0.176,0.053,0.259,0.087v1.278C5.756,7.64,5.668,7.58,5.579,7.53
		C5.488,7.48,5.397,7.441,5.302,7.409c-0.094-0.032-0.191-0.054-0.29-0.067C4.913,7.328,4.811,7.323,4.708,7.327
		C4.656,7.33,4.608,7.335,4.561,7.344C4.515,7.353,4.473,7.365,4.433,7.38C4.392,7.395,4.354,7.415,4.318,7.437
		C4.283,7.459,4.251,7.484,4.22,7.513c-0.029,0.029-0.055,0.06-0.078,0.092C4.12,7.638,4.102,7.673,4.087,7.709
		C4.072,7.746,4.06,7.785,4.053,7.825c-0.007,0.04-0.012,0.082-0.012,0.128c0,0.047,0.004,0.092,0.011,0.136
		C4.06,8.132,4.068,8.173,4.081,8.212c0.014,0.04,0.031,0.077,0.05,0.113C4.15,8.36,4.172,8.393,4.199,8.424
		c0.025,0.029,0.055,0.06,0.092,0.092C4.327,8.547,4.37,8.582,4.418,8.617c0.049,0.035,0.102,0.071,0.161,0.109
		c0.06,0.039,0.127,0.079,0.198,0.121C4.885,8.91,4.986,8.973,5.078,9.036c0.094,0.064,0.179,0.127,0.257,0.19
		c0.079,0.062,0.15,0.125,0.213,0.187C5.611,9.476,5.668,9.538,5.715,9.6C5.772,9.676,5.823,9.756,5.866,9.84
		c0.043,0.085,0.08,0.172,0.109,0.266c0.03,0.092,0.052,0.188,0.066,0.289c0.014,0.102,0.022,0.206,0.022,0.314
		C6.064,10.837,6.055,10.957,6.038,11.072z"/>
</g>
<g id="notificationFg">
	<path class="icon_x002D_white" d="M6.042,10.394c0.014,0.102,0.022,0.206,0.022,0.314c0,0.129-0.008,0.249-0.026,0.364
		c-0.018,0.115-0.044,0.224-0.078,0.325c-0.034,0.103-0.077,0.199-0.129,0.287c-0.052,0.089-0.111,0.171-0.18,0.249
		c-0.082,0.093-0.176,0.173-0.282,0.241c-0.104,0.067-0.218,0.12-0.343,0.161c-0.124,0.04-0.26,0.068-0.403,0.084
		c-0.144,0.015-0.297,0.017-0.459,0.007c-0.123-0.008-0.239-0.023-0.349-0.042c-0.109-0.021-0.214-0.049-0.313-0.081
		c-0.097-0.033-0.192-0.073-0.279-0.118c-0.087-0.047-0.17-0.098-0.247-0.156V10.74c0.089,0.1,0.182,0.19,0.276,0.267
		c0.094,0.077,0.192,0.142,0.293,0.196c0.101,0.053,0.205,0.095,0.312,0.123c0.108,0.029,0.219,0.047,0.333,0.051
		c0.06,0.003,0.115,0.002,0.167-0.004c0.052-0.006,0.101-0.016,0.146-0.03c0.045-0.015,0.087-0.034,0.124-0.057
		c0.039-0.023,0.073-0.05,0.104-0.081c0.025-0.028,0.047-0.055,0.067-0.087c0.019-0.031,0.035-0.062,0.049-0.097
		c0.013-0.034,0.023-0.07,0.029-0.108c0.007-0.038,0.01-0.076,0.01-0.119c0-0.047-0.005-0.096-0.014-0.142
		c-0.011-0.045-0.024-0.091-0.044-0.135c-0.019-0.045-0.043-0.088-0.071-0.13s-0.062-0.084-0.1-0.124
		c-0.031-0.031-0.066-0.064-0.108-0.099c-0.043-0.035-0.092-0.072-0.146-0.112S4.287,9.972,4.22,9.928
		C4.154,9.886,4.081,9.841,4.003,9.793C3.826,9.686,3.671,9.57,3.539,9.446C3.408,9.322,3.3,9.19,3.214,9.048
		c-0.086-0.141-0.15-0.291-0.193-0.45C2.978,8.44,2.957,8.271,2.957,8.093c0-0.129,0.008-0.252,0.028-0.37
		c0.019-0.118,0.046-0.229,0.083-0.334c0.037-0.106,0.084-0.206,0.139-0.299C3.265,6.994,3.33,6.906,3.406,6.823
		s0.158-0.156,0.247-0.221C3.742,6.536,3.839,6.481,3.94,6.436c0.104-0.047,0.214-0.084,0.331-0.111
		c0.119-0.027,0.244-0.045,0.376-0.054c0.118-0.008,0.229-0.01,0.339-0.007c0.108,0.003,0.212,0.01,0.313,0.023
		C5.397,6.301,5.492,6.32,5.583,6.342c0.09,0.024,0.176,0.053,0.259,0.087v1.278C5.756,7.64,5.668,7.58,5.579,7.53
		C5.488,7.48,5.397,7.441,5.302,7.409c-0.094-0.032-0.191-0.054-0.29-0.067C4.913,7.328,4.811,7.323,4.708,7.327
		C4.656,7.33,4.608,7.335,4.561,7.344C4.515,7.353,4.473,7.365,4.433,7.38C4.392,7.395,4.354,7.415,4.318,7.437
		C4.283,7.459,4.251,7.484,4.22,7.513c-0.029,0.029-0.055,0.06-0.078,0.092C4.12,7.638,4.102,7.673,4.087,7.709
		C4.072,7.746,4.06,7.785,4.053,7.825c-0.007,0.04-0.012,0.082-0.012,0.128c0,0.047,0.004,0.092,0.011,0.136
		C4.06,8.132,4.068,8.173,4.081,8.212c0.014,0.04,0.031,0.077,0.05,0.113C4.15,8.36,4.172,8.393,4.199,8.424
		c0.025,0.029,0.055,0.06,0.092,0.092C4.327,8.547,4.37,8.582,4.418,8.617c0.049,0.035,0.102,0.071,0.161,0.109
		c0.06,0.039,0.127,0.079,0.198,0.121C4.885,8.91,4.986,8.973,5.078,9.036c0.094,0.064,0.179,0.127,0.257,0.19
		c0.079,0.062,0.15,0.125,0.213,0.187C5.611,9.476,5.668,9.538,5.715,9.6C5.772,9.676,5.823,9.756,5.866,9.84
		c0.043,0.085,0.08,0.172,0.109,0.266C6.006,10.197,6.028,10.293,6.042,10.394z"/>
</g>
</svg>
