<svg xmlns="http://www.w3.org/2000/svg" viewBox="0 0 16 16"><style>.st0{fill:#f6f6f6}.st1{fill:#424242}.st2{fill:#f0eff1}</style><path class="st0" d="M16 0H4v4C1.794 4 0 5.794 0 8v8h12v-5h4V0z" id="outline"/><g id="icon_x5F_bg"><path class="st1" d="M5 1v3h9v1h-2v1h2v1h-2v1h2v1h-2v1h3V1z"/><path class="st1" d="M5 10l-2 3h2l1-1.5L7 13h2l-2-3 2-3H7L6 8.5 5 7H3z"/><path class="st1" d="M1 8v7h10V5H4a3 3 0 0 0-3 3zm9 6H2V8c0-1.103.897-2 2-2h6v8z"/></g><g id="icon_x5F_fg"><path class="st2" d="M12 4h2v1h-2zM2 8v6h8V6H4c-1.103 0-2 .897-2 2zm4 .5L7 7h2l-2 3 2 3H7l-1-1.5L5 13H3l2-3-2-3h2l1 1.5zM12 8h2v1h-2zM12 6h2v1h-2z"/></g></svg>