<svg xmlns="http://www.w3.org/2000/svg" width="16" height="16"><style type="text/css">.icon-canvas-transparent{opacity:0;fill:#F6F6F6;} .icon-vs-out{fill:#F6F6F6;} .icon-vs-bg{fill:#424242;}</style><path class="icon-canvas-transparent" d="M16 16h-16v-16h16v16z" id="canvas"/><path class="icon-vs-out" d="M16 16h-5.659s-.888-1.954-1.266-2.66l-2.661 2.66h-4.828l5.677-5.678c-.151-.229-6.956-8.601-6.971-8.616l1.263-1.538c1.427.952 8.457 7.119 8.598 7.266l4.847-4.849v4.829l-2.556 2.556c1.358 1.599 2.723 3.554 3.556 4.796v1.234z" id="outline"/><path class="icon-vs-bg" d="M10.839 8.162l3.161-3.162v2l-2.211 2.211c-.3-.34-.619-.691-.95-1.049zm-3.015 3.014l-3.824 3.824h2l2.573-2.573c-.237-.411-.482-.826-.749-1.251zm.487-4.194c-.26-.256-.537-.515-.811-.774l-1.114 1.113c.223.299.446.607.668.918l1.257-1.257zm-3.234-1.352l.699.887.991-.991c-.273-.248-.554-.497-.84-.746l-.85.85zm.085-1.499c-1.276-1.068-2.658-2.128-4.162-3.131 0 0 1.52 1.525 3.442 3.851l.72-.72zm3.853 3.562l-1.379 1.377c1.279 1.865 2.492 3.895 3.364 5.93h4s-2.092-3.333-5.985-7.307z" id="iconBg"/></svg>