<svg xmlns="http://www.w3.org/2000/svg" viewBox="0 0 16 16"><style>.icon-canvas-transparent{opacity:0;fill:#f6f6f6}.icon-white{fill:#fff}.icon-visualstudio-express-win8{fill:#00adef}</style><path class="icon-canvas-transparent" d="M16 16H0V0h16v16z" id="canvas"/><path class="icon-visualstudio-express-win8" d="M16 1.416v13.168L11.754 16h-1.102l-4.428-4.059-2.234 1.862L0 11.808V4.193l3.99-1.996 2.233 1.861L10.65 0h1.103L16 1.416z" id="outline"/><path class="icon-white" d="M11.429 2L6.286 6.714 3.714 4.571 2 5.429v5.143l1.714.857 2.571-2.143L11.429 14 14 13.143V2.857L11.429 2zM3.714 9.714V6.286L5.429 8 3.714 9.714zM8 8l3.429-2.571v5.143L8 8z" id="iconBg"/></svg>