<svg xmlns="http://www.w3.org/2000/svg" viewBox="0 0 16 16"><style>.icon-canvas-transparent{opacity:0;fill:#f6f6f6}.icon-white{fill:#fff}.icon-visualstudio{fill:#68217a}</style><path class="icon-canvas-transparent" d="M16 16H0V0h16v16z" id="canvas"/><path class="icon-visualstudio" d="M16 13.075c0 .428-.08.829-.238 1.192a2.645 2.645 0 0 1-.714.969 3.089 3.089 0 0 1-1.052.577 4.051 4.051 0 0 1-1.259.187H9.024v-2.509L5.702 10.76l-2.356 1.86a1.333 1.333 0 0 1-1.479.125l-1.191-.561-.051-.032A1.332 1.332 0 0 1 0 11.019V5.081c0-.423.197-.817.532-1.068l.969-.84.053-.036a1.335 1.335 0 0 1 1.576.072l2.561 1.869L11.608.296A1.35 1.35 0 0 1 12.45 0h.122l.205.04 1.974.485a1.341 1.341 0 0 1 1.016 1.299v10.202c.022.048.05.091.069.141.109.287.164.592.164.908z" id="outline"/><path class="icon-white" d="M9.024 9.92L7.239 8.465c-.225-.185-.236-.614-.014-.793l5.59-4.689c.125-.09.3 0 .299.154l-.015 4.41c.278.04.53.094.723.147.392.108.729.267 1.004.473.082.061.145.137.217.206V1.83a.357.357 0 0 0-.27-.347L12.764.989a.357.357 0 0 0-.313.069L6.063 6.22a.357.357 0 0 1-.449 0l-3.02-2.206a.36.36 0 0 0-.422-.018l-.968.84a.358.358 0 0 0-.161.299v6.026c0 .123.063.238.168.303l1.192.562c.13.082.297.071.416-.026l2.792-2.204a.357.357 0 0 1 .453.001l2.959 2.433V9.92zM4.335 8.454L2.439 9.606a.148.148 0 0 1-.225-.126l-.008-2.971c0-.105.116-.168.204-.111l1.936 1.271c.221.178.212.603-.011.785zM15 13.075c0 .291-.052.556-.155.794-.103.238-.252.441-.447.607s-.432.295-.712.387c-.28.091-.596.137-.949.137h-2.713V8.5h2.588c.364 0 .68.086.949.16.268.073.49.176.667.308.176.132.308.291.396.477.087.186.131.391.131.616 0 .201-.036.383-.108.547a1.484 1.484 0 0 1-.28.427c-.115.121-.244.223-.387.304s-.285.141-.426.18v.018c.227.03.429.091.609.182s.33.205.454.34c.123.135.218.289.284.463.066.173.099.358.099.553zm-1.708-2.744c0-.237-.088-.415-.265-.533-.176-.118-.427-.178-.751-.178h-.634v1.529h.724c.287 0 .513-.073.678-.218.166-.145.248-.345.248-.6zm.245 2.726a.808.808 0 0 0-.071-.342.736.736 0 0 0-.202-.261.926.926 0 0 0-.32-.167 1.438 1.438 0 0 0-.426-.059h-.874v1.7h.866c.33 0 .584-.08.761-.238a.807.807 0 0 0 .266-.633z" id="iconBg"/></svg>