<svg xmlns="http://www.w3.org/2000/svg" width="16" height="16"><style type="text/css">.icon-canvas-transparent{opacity:0;fill:#F6F6F6;} .icon-vs-out{fill:#F6F6F6;} .icon-vs-fg{fill:#F0EFF1;} .icon-vs-action-green{fill:#388A34;} .icon-white{fill:#FFFFFF;}</style><path class="icon-canvas-transparent" d="M16 16h-16v-16h16v16z" id="canvas"/><g id="outline"><polygon class="icon-vs-out" points="0,0 0,5.107 0,16 12,16 12,15 16,15 16,0"/><path class="icon-vs-action-green" d="M5 2v-1h1v1h-1zm-1 0v-1h-1v1h1zm4 0v-1h-1v1h1zm-6-1h-1v1h1v-1zm10 1v-1h-1v1h1zm-2 1h-1v1h1v-1zm-6 0h-1v1h1v-1zm6-1v-1h-1v1h1zm-2 1h-1v1h1v-1zm-2 0h-1v1h1v-1zm8 10h1v-1h-1v1zm-1-9h1v-1h-1v1zm1 3h1v-1h-1v1zm0-4h1v-1h-1v1zm-1-2v1h1v-1h-1zm2 4v-1h-1v1h1zm-1 4h1v-1h-1v1zm-2-6h-1v1h1v-1zm2 8h1v-1h-1v1zm-1 3h1v-1h-1v1zm-11-9.179v-1.821h-1v1.964l1-.143zm6 .152l-7 1.002v8.022l7 1.003v-10.027zm3 9.027h1v-1h-1v1zm-2 0h1v-1h-1v1z"/></g><g id="iconFg"><path class="icon-vs-fg" d="M14 4v9h-5v-9h5z"/><path class="icon-white" d="M6.422 7.278l-1.196.07-.88 2.067c-.008-.042-.762-1.972-.762-1.972l-1.153.067 1.23 2.514-1.341 2.507 1.123.064.871-2.01c.009.044.878 2.107.878 2.107l1.27.074-1.462-2.766 1.422-2.722"/></g></svg>