<svg xmlns="http://www.w3.org/2000/svg" viewBox="0 0 16 16"><style>.st0{opacity:0}.st0,.st1{fill:#f6f6f6}.st2{fill:#424242}.st3{fill:#fff}.st4{fill:#68217a}</style><g id="outline"><path class="st0" d="M0 0h16v16H0z"/><path class="st1" d="M12.162 0h-.552L5.969 5.172 3.138 2.813 0 4.382v7.236l3.138 1.568 2.831-2.358 1.781 1.633c.089-.072.174-.148.274-.205A2.976 2.976 0 0 1 7 10c0-1.654 1.346-3 3-3 .288 0 .561.053.827.129L11 7v.188c.483.171.92.449 1.257.836A2.002 2.002 0 0 1 14 7c.863 0 1.594.553 1.873 1.322L16 8.285V1.279L12.162 0z"/><path class="st2" d="M9 16c-1.103 0-2-.897-2-2 0-.746.414-1.401 1.024-1.744A2.976 2.976 0 0 1 7 10c0-1.654 1.346-3 3-3 .888 0 1.699.382 2.257 1.024A2.002 2.002 0 0 1 14 7c1.102 0 2 .897 2 2s-.898 2-2 2a1.98 1.98 0 0 1-1.079-.319 2.84 2.84 0 0 1-.111.361l.471.471a2.003 2.003 0 0 1 2.22 1.987c0 1.103-.898 2-2 2a2.002 2.002 0 0 1-1.987-2.22l-.471-.47a2.87 2.87 0 0 1-.36.11A2.001 2.001 0 0 1 9 16z"/></g><path class="st3" d="M14 10a1 1 0 1 0-.999-1.008l-1.141.285A1.996 1.996 0 0 0 8 10c0 .849.531 1.569 1.277 1.859l-.285 1.142A.998.998 0 0 0 9 15a1 1 0 0 0 1-1 .995.995 0 0 0-.523-.874l.287-1.15c.078.009.155.024.236.024.462 0 .882-.163 1.221-.426l1.421 1.421a.986.986 0 0 0-.142.505 1 1 0 1 0 2 0 1 1 0 0 0-1-1 .986.986 0 0 0-.505.142l-1.421-1.421c.263-.339.426-.759.426-1.221 0-.081-.015-.158-.023-.236l1.149-.288A.994.994 0 0 0 14 10zm-4 1a1 1 0 1 1 0-2 1 1 0 1 1 0 2z" id="icon_x5F_bg"/><path class="st4" d="M7 10c0-1.357.911-2.493 2.149-2.862L12 5v2.785c.087.078.18.15.257.238A2.004 2.004 0 0 1 14 7c.366 0 .705.106 1 .278V2l-3-1-6 5.5L3 4 1 5v6l2 1 3-2.5 1.05.963C7.026 10.311 7 10.158 7 10zm-4 0V6l2 2-2 2z" id="color_x5F_importance"/></svg>