<svg xmlns="http://www.w3.org/2000/svg" width="16" height="16"><style type="text/css">.icon-canvas-transparent{opacity:0;fill:#F6F6F6;} .icon-white{fill:#FFFFFF;} .icon-visualstudio{fill:#68217A;}</style><path class="icon-canvas-transparent" d="M16 16h-16v-16h16v16z" id="canvas"/><path class="icon-visualstudio" d="M16 1.416v13.168l-4.246 1.416h-1.102l-.755-.692c-.519.426-1.175.692-1.897.692-1.654 0-3-1.346-3-3l.004-.042-1.014.845-3.99-1.995v-7.615l3.99-1.996 2.233 1.861 4.427-4.058h1.103l4.247 1.416z" id="outline"/><path class="icon-white" d="M6 9c0-1.654 1.346-3 3-3 .456 0 .89.104 1.282.289l1.147-.86v1.366c.366-.477.928-.795 1.571-.795.366 0 .705.106 1 .278v-3.421l-2.571-.857-5.143 4.714-2.572-2.143-1.714.858v5.143l1.714.857 2.337-1.948c-.025-.158-.051-.317-.051-.481zm-2.286.714v-3.428l1.715 1.714-1.715 1.714zm9.286-.714c.553 0 1-.448 1-1 0-.553-.447-1-1-1-.55 0-.995.443-.999.992l-1.141.285c-.29-.746-1.011-1.277-1.86-1.277-1.104 0-2 .896-2 2 0 .849.531 1.569 1.277 1.859l-.285 1.142c-.549.004-.992.449-.992.999 0 .553.447 1 1 1s1-.447 1-1c0-.379-.213-.705-.523-.874l.287-1.15.236.024c.462 0 .882-.163 1.221-.426l1.421 1.421c-.088.149-.142.319-.142.505 0 .553.447 1 1 1s1-.447 1-1-.447-1-1-1c-.186 0-.356.054-.505.142l-1.421-1.421c.263-.339.426-.759.426-1.221l-.023-.236 1.149-.288c.169.311.495.524.874.524zm-4 1c-.553 0-1-.447-1-1 0-.553.447-1 1-1s1 .447 1 1c0 .553-.447 1-1 1z" id="iconBg"/></svg>