<svg xmlns="http://www.w3.org/2000/svg" width="16" height="16"><style type="text/css">.icon-canvas-transparent{opacity:0;fill:#F6F6F6;} .icon-vs-out{fill:#F6F6F6;} .icon-vs-action-blue{fill:#00539C;}</style><path class="icon-canvas-transparent" d="M16 16h-16v-16h16v16z" id="canvas"/><path class="icon-vs-out" d="M16 7.633l-5.551-7.633h-.898l-1.551 2.133-1.551-2.133h-.898l-5.551 7.634v.648l5.611 7.718h.777l1.612-2.216 1.611 2.216h.777l5.612-7.716v-.651z" id="outline"/><path class="icon-vs-action-blue" d="M15 7.958l-5-6.875-2 2.75-2-2.75-5 6.875 5 6.875 2-2.75 2 2.75 5-6.875zm-9 4.585l-3.292-4.585 3.292-4.583 1.159 1.615-2.159 2.968 2.159 2.969-1.159 1.616zm2-6.383l1.291 1.798-1.291 1.799-1.292-1.799 1.292-1.798zm3 1.798l-2.159-2.969 1.159-1.614 3.291 4.583-3.291 4.585-1.16-1.615 2.16-2.97z" id="colorImportance"/></svg>