<svg xmlns="http://www.w3.org/2000/svg" width="16" height="16"><style type="text/css">.icon-canvas-transparent{opacity:0;fill:#F6F6F6;} .icon-vs-out{fill:#F6F6F6;} .icon-vs-bg{fill:#424242;} .icon-vs-fg{fill:#F0EFF1;}</style><path class="icon-canvas-transparent" d="M16 16h-16v-16h16v16z" id="canvas"/><path class="icon-vs-out" d="M16 16h-16v-16h16v16z" id="outline"/><path class="icon-vs-bg" d="M1 1v14h14v-14h-14zm4.75 10.975l-.25.025h-1.5v-3h1.5l.25.025.25-.025c.829 0 1.5.672 1.5 1.5s-.671 1.5-1.5 1.5l-.25-.025zm-.25-4.975h-1.5v-3h1.5c.829 0 1.5.671 1.5 1.5s-.671 1.5-1.5 1.5zm8.5 7h-7c1.657 0 3-1.344 3-3s-1.343-3-3-3c1.657 0 3-1.343 3-3s-1.343-3-3-3h7v12z" id="iconBg"/><path class="icon-vs-fg" d="M7 5.5c0 .829-.671 1.5-1.5 1.5h-1.5v-3h1.5c.829 0 1.5.671 1.5 1.5zm.5 5c0-.828-.671-1.5-1.5-1.5l-.25.025-.25-.025h-1.5v3h1.5l.25-.025.25.025c.829 0 1.5-.672 1.5-1.5zm-.5-8.5c1.657 0 3 1.343 3 3s-1.343 3-3 3c1.657 0 3 1.344 3 3s-1.343 3-3 3h7v-12h-7z" id="iconFg"/></svg>