<svg xmlns="http://www.w3.org/2000/svg" viewBox="0 0 16 16"><style>.icon-canvas-transparent{opacity:0;fill:#f6f6f6}.icon-vs-out{fill:#f6f6f6}.icon-vs-fg{fill:#f0eff1}.icon-folder{fill:#dcb67a}.icon-vs-red{fill:#e51400}.icon-white{fill:#fff}</style><path class="icon-canvas-transparent" d="M16 16H0V0h16v16z" id="canvas"/><path class="icon-vs-out" d="M16 2.5v10c0 .827-.673 1.5-1.5 1.5H8.238a4.498 4.498 0 0 1-8.24-2.5C-.002 10.437 0 9.473 1 8.702V4.5C1 3.673 1.677 3 2.504 3H5.39l1-2h8.11c.827 0 1.5.673 1.5 1.5z" id="outline"/><path class="icon-folder" d="M14.5 2H7.008l-1 2H2.504A.503.503 0 0 0 2 4.5v3.26C3 7.281 3.575 7 4.498 7a4.506 4.506 0 0 1 4.501 4.5c0 .528-.107 1.028-.275 1.5H14.5a.5.5 0 0 0 .5-.5v-10a.5.5 0 0 0-.5-.5zM14 4H7.508l.5-1H14v1z" id="iconBg"/><path class="icon-vs-fg" d="M14 3v1H7.5L8 3z" id="iconFg"/><path class="icon-vs-red" d="M1 11.5C1 13.434 2.566 15 4.5 15S8 13.434 8 11.5 6.434 8 4.5 8A3.499 3.499 0 0 0 1 11.5zm4 1L6.5 11v1.5L5 14H4l-1.5-1.5V11L4 12.5V9h1v3.5z" id="notificationBg"/><path class="icon-white" d="M5 9v3.5L6.5 11v1.5L5 14H4l-1.5-1.5V11L4 12.5V9h1z" id="notificationFg"/></svg>