<svg xmlns="http://www.w3.org/2000/svg" viewBox="0 0 16 16"><defs><style>.icon-canvas-transparent,.icon-vs-out{fill:#f6f6f6;}.icon-canvas-transparent{opacity:0;}.cls-1{fill:#de5c26;}</style></defs><title>AzureServiceFabricMesh_16x</title><g id="canvas"><path class="icon-canvas-transparent" d="M16,0V16H0V0Z"/></g><g id="outline"><path class="icon-vs-out" d="M15.286,9.722a2.4,2.4,0,0,1-1.713.709l-.108,0L13.1,10.8c0,.044,0,.089,0,.133A2.175,2.175,0,0,1,10.929,13.1c-.044,0-.089,0-.133,0l-.367.367A2.428,2.428,0,0,1,8.01,16H7.99a2.428,2.428,0,0,1-2.419-2.536L5.2,13.1c-.044,0-.088,0-.132,0A2.175,2.175,0,0,1,2.9,10.929c0-.044,0-.088,0-.132l-.368-.369c-.036,0-.073,0-.109,0A2.408,2.408,0,0,1,.712,9.722a2.44,2.44,0,0,1,0-3.444A2.4,2.4,0,0,1,2.426,5.57c.036,0,.073,0,.109,0L2.9,5.2c0-.044,0-.088,0-.133A2.175,2.175,0,0,1,5.071,2.9c.044,0,.088,0,.132,0l.368-.367a2.431,2.431,0,1,1,4.858,0L10.8,2.9c.044,0,.088,0,.133,0A2.175,2.175,0,0,1,13.1,5.071c0,.045,0,.089,0,.133l.368.368c.036,0,.072,0,.108,0a2.4,2.4,0,0,1,1.714.709A2.439,2.439,0,0,1,15.286,9.722Z"/></g><g id="iconBg"><path class="cls-1" d="M14.579,6.985a1.429,1.429,0,0,0-1.459-.343L12.007,5.529A1.172,1.172,0,0,0,10.929,3.9a1.181,1.181,0,0,0-.458.092L9.358,2.879a1.431,1.431,0,1,0-2.717,0L5.528,3.992A1.172,1.172,0,0,0,3.992,5.529L2.879,6.642a1.431,1.431,0,1,0,0,2.716l1.113,1.113a1.173,1.173,0,0,0,1.536,1.537l1.113,1.113a1.431,1.431,0,1,0,2.717,0l1.113-1.113A1.174,1.174,0,0,0,12.1,10.929a1.168,1.168,0,0,0-.093-.458L13.12,9.358a1.431,1.431,0,0,0,1.459-2.373ZM7.166,12.4,6.15,11.386a1.184,1.184,0,0,0,0-.915L8,8.621l1.85,1.85a1.172,1.172,0,0,0,0,.915L8.834,12.4A1.43,1.43,0,0,0,7.166,12.4ZM3.6,7.166,4.613,6.15a1.172,1.172,0,0,0,.915,0L7.379,8,5.528,9.85a1.172,1.172,0,0,0-.915,0L3.6,8.834A1.43,1.43,0,0,0,3.6,7.166ZM8.834,3.6,9.85,4.614a1.172,1.172,0,0,0,0,.915L8,7.379,6.15,5.529a1.184,1.184,0,0,0,0-.915L7.166,3.6A1.43,1.43,0,0,0,8.834,3.6Zm2.1,6.159a1.164,1.164,0,0,0-.458.093L8.621,8l1.85-1.85a1.172,1.172,0,0,0,.915,0L12.4,7.166a1.43,1.43,0,0,0,0,1.668L11.386,9.85A1.163,1.163,0,0,0,10.929,9.757Z"/></g></svg>