<svg xmlns="http://www.w3.org/2000/svg" width="16" height="16"><style type="text/css">.icon-canvas-transparent{opacity:0;fill:#F6F6F6;} .icon-vs-out{fill:#F6F6F6;} .icon-vs-bg{fill:#424242;} .icon-vs-fg{fill:#F0EFF1;} .st0{fill:#A4C439;}</style><path class="icon-canvas-transparent" d="M16 16h-16v-16h16v16z" id="canvas"/><path class="icon-vs-out" d="M16 0v16h-16v-1c0-1.567.677-3.08 1.843-4.18l-.419-.996c-.321-.762.038-1.643.8-1.964.186-.078.38-.118.581-.118.606 0 1.149.36 1.384.918l.288.685c.171-.048.348-.074.523-.107v-9.238h11z" id="outline"/><path class="icon-vs-bg" d="M6 1v8.123l.254-.017c.252 0 .5.022.746.049v-7.155h7v10h-2.068c.638.901 1.068 1.937 1.068 3h2v-14h-9zm8 13h-1v-1h1v1z" id="iconBg"/><path class="icon-vs-fg" d="M13 13h1v1h-1v-1zm-6-11v7.156c.352.039.699.096 1.037.19l.289-.686c.234-.557.778-.918 1.383-.918.2 0 .396.04.58.117.37.156.656.446.808.818.151.372.148.779-.008 1.148l-.174.997c.373.353.716.751 1.017 1.177h2.068v-9.999h-7z" id="iconFg"/><path class="st0" d="M1 15h10.509c0-1.555-.804-2.986-2.049-3.882l.708-1.682c.107-.253-.013-.548-.267-.655-.253-.106-.548.014-.654.267l-.451 1.071-.256.468c-.692-.308-1.467-.481-2.286-.48-.817-.001-1.591.171-2.281.478l-.253-.462-.453-1.075c-.106-.253-.401-.373-.655-.267-.253.107-.373.402-.266.655l.707 1.68c-1.247.895-2.054 2.328-2.053 3.884zm8-2.5c.276 0 .5.224.5.5s-.224.5-.5.5-.5-.224-.5-.5.224-.5.5-.5zm-5 0c.276 0 .5.224.5.5s-.224.5-.5.5-.5-.224-.5-.5.224-.5.5-.5z" id="colorImportance"/></svg>