<svg xmlns="http://www.w3.org/2000/svg" viewBox="0 0 16 16"><defs><style>.icon-canvas-transparent,.icon-vs-out{fill:#f6f6f6;}.icon-canvas-transparent{opacity:0;}.icon-vs-bg{fill:#424242;}.icon-vs-blue{fill:#1ba1e2;}</style></defs><title>ShowStartPage_16x</title><path class="icon-canvas-transparent" d="M16,16H0V0H16Z"/><path class="icon-vs-out" d="M15,8A7,7,0,1,1,8,1,7,7,0,0,1,15,8Z"/><path class="icon-vs-bg" d="M7,6H9v4H8V7H7Z"/><path class="icon-vs-blue" d="M9,5.184V4.142A3.993,3.993,0,0,1,11.858,7H10.822A3,3,0,0,0,9,5.184Zm-2,0V4.142A3.992,3.992,0,1,0,11.858,9H10.816A2.993,2.993,0,1,1,7,5.184ZM12.891,7h1.018A6,6,0,0,0,9,2.09V3.1A5,5,0,0,1,12.891,7ZM12.9,9A5,5,0,1,1,7,3.1V2.09A6,6,0,1,0,13.91,9Z"/></svg>