<svg xmlns="http://www.w3.org/2000/svg" viewBox="0 0 16 16"><style>.icon-canvas-transparent{opacity:0;fill:#f6f6f6}.icon-vs-out{fill:#f6f6f6}.icon-vs-bg{fill:#424242}.icon-vs-fg{fill:#f0eff1}.icon-office15{fill:#dc3c00}</style><path class="icon-canvas-transparent" d="M16 16H0V0h16v16z" id="canvas"/><path class="icon-vs-out" d="M16 3.556V12c0 .97-.701 2-2 2H9v.983L5.429 16h-.35L0 13.571v-6.56l4-1.784V2C4 .701 5.03 0 6 0h6.061L16 3.556z" id="outline"/><path class="icon-vs-bg" d="M15 4v8s-.035 1-1.035 1H9v-1h5V5h-3V2H6v2.916l-.784-.23L5 4.781V2c0-1 .964-1 .964-1h5.677L15 4zm-2 5h-1V8h1v1zm0 2h-1v-1h1v1zm-2 0h-1v-1h1v1zm2-4h-1V6h1v1zm-2 0h-1V6h1v1z" id="iconBg"/><path class="icon-vs-fg" d="M11 5V2H6v2.916l3 .882V12h5V5h-3zm0 6h-1v-1h1v1zm0-4h-1V6h1v1zm2 4h-1v-1h1v1zm0-2h-1V8h1v1zm0-2h-1V6h1v1z" id="iconFg"/><path class="icon-office15" d="M8 14.229L5.289 15l-4.24-1.929 4.297.772V7.294l-2.754.771v4.441l-1.542.565V7.658l4.24-1.909L8 6.546v7.683z" id="colorImportance"/></svg>