<svg xmlns="http://www.w3.org/2000/svg" width="16" height="16"><style type="text/css">.icon-canvas-transparent{opacity:0;fill:#F6F6F6;} .icon-white{fill:#FFFFFF;} .icon-visualstudio-online{fill:#007ACC;}</style><path id="Outline" class="icon-canvas-transparent" d="M16 16h-16v-16h16v16z"/><path class="icon-white" d="M16 3.417v9.161l-3.066 1.176-3.682-3.375-1.756 1.463-.335-.16h-4.215l-.132-.037c-1.669-.468-2.834-2-2.834-3.728 0-1.553.943-2.955 2.32-3.56.484-1.954 2.216-3.357 4.265-3.357 1.12 0 2.168.416 2.97 1.163.288-.074.586-.112.886-.112.664 0 1.323.202 1.906.585l.212.139.364-.334 3.097.976z" id="outline"/><path class="icon-visualstudio-online" d="M13.153 3.568l-3.87 3.548-1.935-1.613-1.348.645v3.87l1.348.645 1.935-1.613 3.87 3.548 1.847-.708v-7.74l-1.847-.582zm-5.805 5.805v-2.58l1.29 1.29-1.29 1.29zm3.225-1.29l2.58-1.935v3.87l-2.58-1.935zm1.206-4.612l-.752.689c-.187-.082-.39-.133-.606-.133-.674 0-1.242.432-1.47 1.036-.184-1.179-1.178-2.083-2.385-2.083-1.336 0-2.419 1.104-2.419 2.468 0 .213.034.415.084.612-.133-.029-.269-.05-.412-.05-1.026 0-1.859.848-1.859 1.895 0 .78.463 1.447 1.123 1.737h1.917v1.039h-1.917c-1.21-.339-2.103-1.45-2.103-2.765 0-1.365.943-2.511 2.202-2.804.17-1.745 1.623-3.112 3.384-3.112 1.087 0 2.062.514 2.685 1.334.353-.184.751-.284 1.17-.284.504 0 .964.163 1.358.421z" id="colorImportance"/></svg>