<svg xmlns="http://www.w3.org/2000/svg" viewBox="0 0 16 16"><defs><style>.icon-canvas-transparent{fill:#f6f6f6;opacity:0;}.brand-keros-darkblue{fill:#004880;}.icon-white{fill:#fff;}</style></defs><title>BrandKerosDesktop_16x</title><g id="canvas"><path class="icon-canvas-transparent" d="M16,0V16H0V0Z"/></g><g id="iconBg"><path class="brand-keros-darkblue" d="M16,3V13a3,3,0,0,1-3,3H3a3,3,0,0,1-3-3V3A3,3,0,0,1,3,0H13A3,3,0,0,1,16,3Z"/></g><g id="iconFg"><polygon class="icon-white" points="4.45 13.034 2.279 5.074 3.62 3.733 5.867 3.359 7 5.088 7 8 6 8 6 5 3.585 5 5.486 11.634 7.351 11.812 10.443 5 8 5 8 2.958 11.28 2.271 13.691 5.026 8.386 13.724 4.45 13.034"/></g></svg>