<svg xmlns="http://www.w3.org/2000/svg" viewBox="0 0 16 16"><style>.st0{fill:#f6f6f6}.st1{fill:#424242}.st2{fill:#f0eff1}</style><path class="st0" d="M0 0v13c0 1.97 1.508 3 3 3h13V0H0z" id="outline"/><g id="icon_x5F_bg"><path class="st1" d="M1.016 1v9.869C1.58 10.339 2.333 10 3.139 10h3.078v.003h.89c.082 0 .157.021.236.028C6.577 8.676 5.14 8 3 8V6c2.014 0 3.801.458 5.178 1.823C9.56 9.191 10 10.315 10 13h-.044c0 .827-.32 1.497-.799 2H15V1H1.016zm10.862 12c0-5.273-3.603-8.8-8.877-8.8V2c3.165 0 5.973.718 8.138 2.863 2.17 2.151 2.862 3.918 2.862 8.137h-2.123z"/><path class="st1" d="M7.147 11h-.664l.536 1c.375 0 1 0 1 1 0 .375 0 1-.775 1H5.582s-.419-.666-.834-.938c-.288-.189-.749.287-.463.926.443.731.531 1.012.531 1.012h2.179c1.125 0 2.024-.5 2.024-2.002C9.02 11.498 8.272 11 7.147 11z"/><path class="st1" d="M2.897 15h.64l-.512-1c-.375 0-1 0-1-1 0-.375 0-1 .775-1h1.662s.419.666.834.938c.288.189.749-.287.463-.926-.442-.731-.53-1.012-.53-1.012H3.05c-1.125 0-2.024.5-2.024 2.002-.001 1.5.746 1.998 1.871 1.998z"/></g><g id="icon_x5F_fg"><path class="st2" d="M3.001 2v2.2c5.273 0 8.876 3.526 8.876 8.8H14c0-4.218-.691-5.985-2.861-8.137C8.974 2.718 6.166 2 3.001 2zM9.771 14h.002c.004-.01.005-.021.009-.031L9.771 14z"/><path class="st2" d="M8.178 7.823C6.801 6.458 5.014 6 3 6v2c2.14 0 3.577.677 4.342 2.032 1.509.145 2.614 1.624 2.614 2.968H10c0-2.684-.441-3.809-1.822-5.177zM9.948 13.073z"/></g></svg>