<svg xmlns="http://www.w3.org/2000/svg" viewBox="0 0 16 16"><style>.icon-canvas-transparent{opacity:0;fill:#f6f6f6}.icon-vs-out{fill:#f6f6f6}.icon-vs-bg{fill:#424242}.icon-white{fill:#fff}.icon-office-sharepoint{fill:#2372c6}</style><path class="icon-canvas-transparent" d="M16 16H0V0h16v16z" id="canvas"/><path class="icon-vs-out" d="M15.141 10l-.849 1.737c-.025.043-.611 1.309-1.675 2.299l-.387.361-.891.625a6.367 6.367 0 0 1-2.46.898l-.549.065-.586.015-.518-.054c-.076-.008-.15-.026-.226-.036V16H5.959L0 15.329V6.171l1.843-.208C2.886 4.094 5 2.716 7 2.392V0h1.374l4.616 3.849L12 5h3l-3.662 5h3.803z" id="outline"/><g id="iconBg"><path class="icon-vs-bg" d="M11.254 12.384l.682.921a8.574 8.574 0 0 0 1.486-1.819h-1.504a4.836 4.836 0 0 1-.664.898zM10.129 13.241c-.025.014-.049.029-.074.042a4.125 4.125 0 0 1-.248.126c-.121.055-.244.098-.367.141-.074.026-.147.057-.223.08a4.817 4.817 0 0 1-.473.106v1.195a5.354 5.354 0 0 0 2.072-.762l-.687-.928zM11 6l-3.185 4.329L7.231 9H7v2.591l.231.409h1.168l4.316-6zM11.437 3.902L8 .985v2.334c-2 0-3.793.991-4.898 2.502l1.758-.198C5.703 4.916 7 4.485 8 4.485v2.334l3.437-2.917zM7 13.699v1.2c.11.018.218.042.33.054v-1.178c-.114-.016-.219-.053-.33-.076z"/></g><path class="icon-office-sharepoint" d="M1 7.067v7.367L6.1 15V6.5L1 7.067zm3.767 5.077a1.626 1.626 0 0 1-.065.271 1.3 1.3 0 0 1-.256.444 1.117 1.117 0 0 1-.234.2 1.23 1.23 0 0 1-.286.134 1.656 1.656 0 0 1-.335.07 2.398 2.398 0 0 1-.929-.098 1.61 1.61 0 0 1-.438-.227v-1.07c.074.082.151.158.229.222.078.063.16.118.244.163.084.043.171.078.259.103a1.279 1.279 0 0 0 .415.039.516.516 0 0 0 .226-.072.43.43 0 0 0 .182-.22.523.523 0 0 0 .032-.188.514.514 0 0 0-.048-.23.634.634 0 0 0-.059-.108.969.969 0 0 0-.083-.104 1.304 1.304 0 0 0-.09-.082 2.65 2.65 0 0 0-.273-.195 4.509 4.509 0 0 0-.179-.112 2.242 2.242 0 0 1-.386-.288 1.456 1.456 0 0 1-.43-.704 1.567 1.567 0 0 1-.055-.421c0-.108.007-.21.023-.308.016-.097.039-.19.07-.278a1.343 1.343 0 0 1 .724-.791c.086-.038.178-.069.275-.092.098-.022.202-.038.311-.045.098-.006.191-.008.281-.006a2.365 2.365 0 0 1 .498.066c.075.019.146.044.214.072V9.35a1.746 1.746 0 0 0-.219-.147 1.339 1.339 0 0 0-.845-.155.735.735 0 0 0-.107.031.486.486 0 0 0-.176.11.452.452 0 0 0-.063.077.486.486 0 0 0-.075.182.522.522 0 0 0-.01.106c0 .039.003.077.008.113.006.036.015.07.024.102a.536.536 0 0 0 .175.252 1.746 1.746 0 0 0 .24.175c.05.032.105.066.164.1a4.511 4.511 0 0 1 .463.313c.065.053.124.104.178.156.052.052.098.104.138.156a1.372 1.372 0 0 1 .216.419 1.71 1.71 0 0 1 .074.502 2.21 2.21 0 0 1-.022.302z" id="colorImportance"/><path class="icon-white" d="M3.588 8.166c-.11.007-.213.022-.312.045a1.39 1.39 0 0 0-.719.413 1.347 1.347 0 0 0-.28.47c-.031.088-.053.18-.069.278-.016.097-.023.2-.023.307 0 .148.017.288.053.42s.089.256.16.373c.072.118.162.227.27.33.11.103.238.2.385.288a7.93 7.93 0 0 1 .331.214c.045.033.086.064.121.093.035.029.065.057.09.082a.969.969 0 0 1 .083.104.634.634 0 0 1 .107.338.61.61 0 0 1-.032.188.46.46 0 0 1-.096.152.492.492 0 0 1-.19.115.791.791 0 0 1-.261.028 1.212 1.212 0 0 1-.535-.145 1.482 1.482 0 0 1-.244-.163 1.906 1.906 0 0 1-.229-.222v1.07a1.545 1.545 0 0 0 .437.228 2.193 2.193 0 0 0 .93.098c.119-.013.232-.036.335-.07.104-.034.199-.077.285-.133.088-.056.166-.123.234-.2a1.264 1.264 0 0 0 .256-.446c.029-.084.05-.174.065-.27a1.941 1.941 0 0 0 .004-.563 1.4 1.4 0 0 0-.41-.814 2.338 2.338 0 0 0-.177-.156 3.41 3.41 0 0 0-.214-.157 4.785 4.785 0 0 0-.25-.157 4.734 4.734 0 0 1-.299-.191 1.54 1.54 0 0 1-.105-.084.905.905 0 0 1-.076-.076.557.557 0 0 1-.119-.277.699.699 0 0 1 0-.219.506.506 0 0 1 .075-.183.52.52 0 0 1 .147-.14.55.55 0 0 1 .201-.077.784.784 0 0 1 .122-.014 1.401 1.401 0 0 1 .493.068 1.46 1.46 0 0 1 .448.248V8.298a1.646 1.646 0 0 0-.452-.118 2.667 2.667 0 0 0-.54-.014" id="notificationFg"/></svg>