<svg xmlns="http://www.w3.org/2000/svg" viewBox="0 0 16 16"><style>.st0{opacity:0}.st0,.st1{fill:#f6f6f6}.st2{fill:#424242}.st3{fill:#f0eff1}</style><g id="outline"><path class="st0" d="M0 0h16v16H0z"/><path class="st1" d="M13.5.004h-11a2.503 2.503 0 0 0-2.5 2.5v10c0 1.379 1.122 2.5 2.5 2.5h11c1.379 0 2.5-1.121 2.5-2.5v-10c0-1.379-1.121-2.5-2.5-2.5z"/></g><path class="st2" d="M13.504 1.004h-11a1.5 1.5 0 0 0-1.5 1.5v10a1.5 1.5 0 0 0 1.5 1.5h11a1.5 1.5 0 0 0 1.5-1.5v-10a1.5 1.5 0 0 0-1.5-1.5zM3 3h4v1H3V3zm0 2h4v1H3V5zm0 2h4v1H3V7zm2.003 6a2.004 2.004 0 0 1 0-4.006 2.004 2.004 0 0 1 0 4.006zM13 10H9V9h4v1zm0-2H9V7h4v1zm0-2H9V5h4v1zm0-2H9V3h4v1z" id="icon_x5F_bg"/><g id="icon_x5F_fg"><path class="st3" d="M3 3h4v1H3zM9 3h4v1H9zM3 5h4v1H3zM9 5h4v1H9zM3 7h4v1H3zM9 7h4v1H9zM9 9h4v1H9z"/><circle class="st3" cx="5.003" cy="10.997" r="2.003"/></g></svg>