<svg xmlns="http://www.w3.org/2000/svg" width="16" height="16"><style type="text/css">.icon-canvas-transparent{opacity:0;fill:#F6F6F6;} .icon-vs-out{fill:#F6F6F6;} .icon-vs-fg{fill:#F0EFF1;} .icon-vs-action-green{fill:#388A34;}</style><path class="icon-canvas-transparent" d="M16 16h-16v-16h16v16z" id="canvas"/><path class="icon-vs-out" d="M16 15h-4v1h-12v-16h16v15z" id="outline"/><g id="iconBg"><path class="icon-vs-fg" d="M4 4h-2v.556c.591-.344 1.268-.556 2-.556z"/><path class="icon-vs-action-green" d="M15 1v13h-3v-1h2v-9h-12v.556c-.378.221-.714.499-1 .826v-4.382h14zm-10 9l-2 3h2l1-1.5 1 1.5h2l-2-3 2-3h-2l-1 1.5-1-1.5h-2l2 3zm-1-5h7v10h-10v-7c0-1.657 1.343-3 3-3zm6 1h-6c-1.103 0-2 .897-2 2v6h8v-8z"/></g><g id="iconFg"><path class="icon-vs-fg" d="M14 4v9h-2v-9h2zm-10 2h6v8h-8v-6c0-1.103.897-2 2-2zm1 1h-2l2 3-2 3h2l1-1.5 1 1.5h2l-2-3 2-3h-2l-1 1.5-1-1.5z"/></g></svg>