<svg xmlns="http://www.w3.org/2000/svg" viewBox="0 0 16 16"><style>.icon-canvas-transparent{opacity:0;fill:#f6f6f6}.icon-vs-out{fill:#f6f6f6}.icon-vs-bg{fill:#424242}.icon-vs-fg{fill:#f0eff1}.icon-vs-action-blue{fill:#00539c}</style><path class="icon-canvas-transparent" d="M16 16H0V0h16v16z" id="canvas"/><path class="icon-vs-out" d="M16 8.4v3.1c-.4.3-.8.5-1.3.5H10c-.2.2-.4.4-.5.7-.6.7-1.1 1.4-1.8 1.7 0 0-.1 0-.1.1-.2.1-.5.2-.7.3 0 .1-.1.2-.1.4-.2.4-.5.7-.9.8h-.7c-1.1 0-2.8-.7-4.1-2.6-.9-1.3-1.2-2.7-.9-3.9C0 7.2 1 6 1.9 5.4c.6-.5 2.4-1.7 4.5-1.7.5 0 1 .1 1.4.2l.2-.2V3H7V0h7v3h-1v.7l3 4.7z" id="outline"/><path class="icon-vs-bg" d="M14.7 11H12c.2-.2.3-.5.3-.7v-.1L12.1 8c0-.1-.2-.6-.7-1h1.3L11 4.3V2h-1v2.3l-.3.5c-.3-.2-.6-.4-.9-.5L9 4V2H8V1h5v1h-1v2l3.5 5.5c.4.6 0 1.5-.8 1.5z" id="iconBg"/><path class="icon-vs-fg" d="M9.7 4.8l.3-.5V2h1v2.3L12.7 7h-1.3c-.1-.1-.2-.2-.3-.2-.1-.6-.4-1.3-1.4-2z" id="iconFg"/><path class="icon-vs-action-blue" d="M10.8 9.1c-.6-.5-1.3-.5-1.5-.5.3-.1.8 0 1-.7.1-.2.9.4.9.4s-.3-.7-.9-.9c0-.2.1-1.5-2.3-2.4-2.8-1.1-5.5 1.2-5.5 1.3C1.5 6.9 1 8 1.1 9.6c-.2.7-.1 2 .8 3.2 1.2 1.8 2.9 2.4 3.6 2.1.2-.1.5-.6.3-1 .4.1 1.2-.5 1.4-.6 1-.4 1.9-2.5 3-2.9.4-.1 1 .1 1-.3.1-.2 0-.6-.4-1M6.1 5.8c2.9-.3 3.5 1 3.5 1.5 0 0-1.4 0-2.6 1.4-1-.4-1.6-1.1-3.5-.9-.5 0-.7.2-1 .3-.3-.1-.3-.5-.1-.9 0 0 .8-1.2 3.7-1.4m-2.8 7.8c-.5-.2-1.6-1.1-1.3-2.7.4 0 1.1.4 1.4.7.7.8.8 1.4.7 1.8 0 .5-.7.2-.8.2m1.2-1.4c-.4-.8-.6-2.2-1.5-2.7.5-.7 2.6-.2 3.5-.2-.5.5-.8.9-1.1 2-.1.4-.6 1.1-.9.9m4.9-2.3c-.8.3-1.5 1.1-1.7 1.4-.5.6-1 1.7-1.9 1.7v-.1-.7c.3-.4.7-1 .9-1.3 1-1.2 2.1-1.9 2.2-2 .2 0 1 0 1.2.3.6.5-.1.5-.7.7" id="colorImportance"/></svg>