<svg xmlns="http://www.w3.org/2000/svg" viewBox="0 0 16 16"><style>.st0{opacity:0;fill-rule:evenodd;clip-rule:evenodd}.st0,.st1{fill:#f6f6f6}.st2{fill:#424242}.st3{fill:#f0eff1}.st4{fill-rule:evenodd;clip-rule:evenodd;fill:#00bcf2}</style><g id="outline"><path class="st0" d="M0 0h16v16H0z"/><path class="st1" d="M15 13H6V1h9v12z"/><path class="st2" d="M7 2v10h7V2H7zm2 9H8v-1h1v1zm2 0h-1v-1h1v1zm2 0h-1v-1h1v1zm0-2H8V3h5v6z"/><path class="st3" d="M11 11h-1v-1h1v1zm2-1h-1v1h1v-1zm-4 0H8v1h1v-1zm4-7H8v6h5V3z"/><path class="st1" d="M5 0v5.812c-.901.17-1.74.575-2.426 1.184a5.116 5.116 0 0 0-1.569 2.636l.344.171C.104 11.777-.588 14.154.57 15.342c.432.431 1.021.658 1.7.658.589 0 1.249-.168 1.967-.502.246.085.502.145.763.191V16h11V0H5z"/></g><path class="st2" d="M6 1v4.697a7.996 7.996 0 0 1 1-.357V2h7v10h-3.088l-.023.061-.009.095-.026.003-.11.302c-.068.188-.156.363-.243.539H11v1h-1v-.172a4.798 4.798 0 0 1-1.166 1.104c-.038.026-.081.044-.12.068H15V1H6zm8 13h-1v-1h1v1z" id="icon_x5F_bg"/><path class="st4" d="M9.535 8.826c.443-1.014.475-1.869-.033-2.377-.559-.566-1.93-.397-3.352.275a4.115 4.115 0 0 0-2.911 1.018 4.127 4.127 0 0 0-1.262 2.125c.142-.173.936-1.109 1.835-1.613.019-.01.245-.128.264-.133-.016.014-.461.424-.54.505-1.992 2.011-3.155 5.089-2.261 6.007.59.588 1.668.441 2.916-.231a4.197 4.197 0 0 0 1.779.377c.844 0 1.643-.234 2.308-.678a3.986 3.986 0 0 0 1.526-1.983H7.607c-.283.539-.943.912-1.617.912-.955 0-1.763-.78-1.764-1.705l-.004-.037-.004-.043h5.746c.002-.028.004-.059.008-.09.014-.14.028-.301.028-.424 0-.686-.16-1.334-.465-1.905zm-7.633 5.637c-.443-.441-.32-1.32.234-2.377.26.717.674 1.328 1.219 1.787.174.148.361.277.56.391-.907.468-1.64.574-2.013.199zm2.125-.141l.025.014-.025-.014zm3.67-4.148H4.221l.003-.041c.046-.883.88-1.628 1.823-1.628.904 0 1.647.715 1.689 1.628l.002.041h-.041zm1.065-2.357a4.11 4.11 0 0 0-1.354-.834c.908-.413 1.653-.469 2.047-.074.33.329.289.936-.047 1.695v.001a3.875 3.875 0 0 0-.646-.788zm.715.904l-.006-.011.006.011z" id="color_x5F_decoration"/><g id="icon_x5F_fg"><path class="st3" d="M13 13h1v1h-1zM7 2v3h.004c.243 0 .479.045.708.008.019-.003.038.077.057.074.236-.035.467-.017.683-.017.935 0 1.474.369 1.762.66.419.42.998 1.37.409 3.055.25.605.377 1.207.377 1.891v.06l-.001.026c-.002.072-.006.15-.011.199l-.002.044h.246-.038.038l-.232.998V12h3V2H7zM10.5 13.002a5.084 5.084 0 0 1-.5.826V14h1v-1h-.499l-.001.002z"/></g></svg>