<svg xmlns="http://www.w3.org/2000/svg" viewBox="0 0 16 16"><title>Loading_16x</title><path d="M16,0V16H0V0Z" fill="#f6f6f6" opacity="0"/><path d="M9.513.579A2.161,2.161,0,0,0,8.416,0H7.707a2.146,2.146,0,0,0-.994.371,2.175,2.175,0,1,0,2.8.207Z" fill="#f6f6f6" opacity="0.1"/><circle cx="11.429" cy="12.763" r="2.174" transform="translate(-5.319 9.155) rotate(-36)" fill="#f6f6f6" opacity="0.5"/><path d="M12.3,8.071A2.175,2.175,0,0,1,15.653,10.5,2.175,2.175,0,1,1,12.3,8.071Z" fill="#f6f6f6" opacity="0.4"/><path d="M12.314,4.432a2.175,2.175,0,1,1-.786,2.442A2.18,2.18,0,0,1,12.314,4.432Z" fill="#f6f6f6" opacity="0.3"/><path d="M10.175,1.488a2.176,2.176,0,1,1-.491.5A2.172,2.172,0,0,1,10.175,1.488Z" fill="#f6f6f6" opacity="0.2"/><path d="M3.257,1.515a2.175,2.175,0,1,1-.464,3.059,2.174,2.174,0,0,1,.441-3.043Z" fill="#f6f6f6"/><path d="M1.141,4.475A2.175,2.175,0,0,1,4.5,6.874a2.16,2.16,0,0,1-.8,1.118,2.183,2.183,0,0,1-1.921.319,2.174,2.174,0,0,1-.637-3.836Z" fill="#f6f6f6" opacity="0.9"/><path d="M1.178,8.113a2.182,2.182,0,0,1,2.231-.2,2.175,2.175,0,0,1,.326,3.714,2.182,2.182,0,0,1-.57.3A2.175,2.175,0,0,1,1.178,8.113Z" fill="#f6f6f6" opacity="0.8"/><path d="M3.355,11.029a2.176,2.176,0,1,1-.506.518A2.176,2.176,0,0,1,3.355,11.029Z" fill="#f6f6f6" opacity="0.7"/><path d="M8.354,16a2.149,2.149,0,0,0,1.034-.38,2.175,2.175,0,1,0-1.66.38Z" fill="#f6f6f6" opacity="0.6"/><circle cx="11.429" cy="12.763" r="1.175" transform="translate(-5.319 9.155) rotate(-36)" fill="#9f9f9f"/><circle cx="13.583" cy="9.83" r="1.175" transform="translate(0.062 19.746) rotate(-72.148)" fill="#b1b1b1"/><circle cx="13.593" cy="6.192" r="1.175" transform="translate(-1.257 4.58) rotate(-18.295)" fill="#c6c6c6"/><circle cx="11.454" cy="3.248" r="1.175" transform="translate(2.151 10.678) rotate(-54.443)" fill="#d7d7d7"/><circle cx="7.991" cy="2.132" r="1.175" transform="translate(-0.022 0.082) rotate(-0.59)" fill="#ededed"/><circle cx="4.536" cy="3.274" r="1.175" transform="translate(-1.057 3.364) rotate(-36.738)" fill="#424242"/><circle cx="2.42" cy="6.234" r="1.175" transform="translate(-4.25 6.712) rotate(-72.885)" fill="#555"/><circle cx="2.457" cy="9.872" r="1.175" transform="translate(-3.085 1.341) rotate(-19.033)" fill="#666"/><circle cx="4.633" cy="12.789" r="1.175" transform="translate(-8.511 9.29) rotate(-55.181)" fill="#797979"/><circle cx="8.111" cy="13.86" r="1.175" transform="translate(-0.319 0.192) rotate(-1.328)" fill="#8c8c8c"/></svg>