<svg xmlns="http://www.w3.org/2000/svg" viewBox="0 0 16 16"><style>.st0,.st1{opacity:0;fill:#f6f6f6}.st1{fill:#f0eff1}.st2{fill:#f6f6f6}.st3{fill:#424242}.st4{fill:#f0eff1}</style><g id="outline"><path class="st0" d="M0 0h16v16H0z"/><path class="st1" d="M0 0h16v16H0z"/><path class="st2" d="M4 0v9h-.013v.044H3.21a3.394 3.394 0 0 0-.775-.08c-.339 0-.659.059-.951.175a2.274 2.274 0 0 0-1.292 1.32c-.11.289-.166.608-.166.947 0 .143.011.282.033.417v3.385l.43.299c.116.08.249.149.41.21.119.045.247.085.386.119.129.031.262.057.397.075.149.02.288.029.416.029.278 0 .539-.033.774-.1.108-.03.194-.087.292-.128v.144h.821V16H16V0H4z"/></g><g id="icon_x5F_bg"><path class="st3" d="M3.562 13.531c0 .103-.01.209-.029.319a1.356 1.356 0 0 1-.275.617 1.054 1.054 0 0 1-.272.245 1.415 1.415 0 0 1-.383.166 1.881 1.881 0 0 1-.505.062c-.087 0-.181-.007-.282-.02a2.407 2.407 0 0 1-.562-.137.964.964 0 0 1-.196-.097v-.963a2.263 2.263 0 0 0 .458.274c.088.039.178.071.27.096.092.025.181.037.268.037a.572.572 0 0 0 .25-.049.463.463 0 0 0 .258-.297.635.635 0 0 0-.015-.424.656.656 0 0 0-.128-.196 1.389 1.389 0 0 0-.203-.176 3.638 3.638 0 0 0-.27-.176c-.32-.186-.554-.393-.701-.623a1.405 1.405 0 0 1-.221-.78c0-.217.034-.414.101-.591s.162-.328.285-.455a1.28 1.28 0 0 1 .445-.294 1.55 1.55 0 0 1 .579-.104c.221 0 .41.019.565.057.155.038.279.078.371.121v.893a1.186 1.186 0 0 0-.174-.099 1.878 1.878 0 0 0-.436-.143c-.078-.014-.157-.022-.235-.022a.539.539 0 0 0-.383.154.493.493 0 0 0-.109.168.554.554 0 0 0-.039.208c0 .154.045.291.134.411.089.12.237.24.443.361.148.083.282.171.404.263.122.093.226.197.312.312.086.115.153.244.201.388a1.5 1.5 0 0 1 .074.494zM5.092 10.843v1.332h1.191v.792H5.092v1.889h-.926v-4.812h2.218v.799H5.092z"/><path class="st3" d="M5 1v8h1V8h2v7h1v-3h2v3h4V1H5zm4 1h2v2H9V2zm0 3h2v2H9V5zM6 2h2v2H6V2zm0 5V5h2v2H6zm3 3V8h2v2H9zm5 0h-2V8h2v2zm0-3h-2V5h2v2zm0-3h-2V2h2v2z"/></g><g id="icon_x5F_fg"><path class="st4" d="M9 12h2v3H9zM9 8h2v2H9zM6 8h2v1H6zM6 5h2v2H6zM6 2h2v2H6zM12 2h2v2h-2zM9 5h2v2H9zM12 5h2v2h-2zM9 2h2v2H9zM12 8h2v2h-2z"/></g></svg>