<svg xmlns="http://www.w3.org/2000/svg" viewBox="0 0 16 16"><style>.st0{opacity:0}.st0,.st1{fill:#f6f6f6}.st2{fill:#68217a}</style><g id="outline"><path class="st0" d="M0 0h16v16H0z"/><path class="st1" d="M13.717 7.186l-.119-.122L13 6.766V5.132L8.303 2h-.605L5.752 3.299l-1.518-.068a5.162 5.162 0 0 0-.393-.015h-.023C1.571 3.268.855 4.292.629 4.898.378 5.571.264 6.98 2.327 8.855c.206.188.442.366.673.546v1.468L7.697 14h.606l2.066-1.377c.569.094 1.125.16 1.637.16l.18-.002c2.242-.052 2.957-1.076 3.184-1.682.251-.672.364-2.081-1.653-3.913z"/></g><g id="icon_x5F_bg"><path class="st2" d="M8 7.794L4.352 5.397 8 3l3.756 2.397z"/><path class="st2" d="M13.025 7.886l-.002-.002v1.023c1.383 1 1.258 2.093-1.19 2.135-.273.005-.807-.113-1.106-.144l1.242-.929V6.375L8.024 8.85l-4-2.517V8.33c-.093-.077-.199-.151-.286-.23-1.551-1.41-.994-2.381-.34-3.112l.669-.748C4 4 3.874 4.065 3.715 4.066c-3.221.02-2.987 2.112-.691 4.2.303.276.641.542 1 .8v1.419l4 2.516 1.691-1.127c.715.141 2.187.071 2.803.058 2.759-.065 3.482-1.869.507-4.046z"/></g></svg>