<svg xmlns="http://www.w3.org/2000/svg" viewBox="0 0 16 16"><style>.st0{fill:#f6f6f6}.st1{fill:#424242}.st2{fill:#00539c}.st3{fill:#f0eff1}</style><path class="st0" d="M16 4v12H4V8H3L0 5V3l3-3h6L7 2h2v2h7z" id="outline"/><path class="st1" d="M15 5v10H5V8h1v6h8V6H9V5h6zm-4 2l-1 1.5L9 7H8l1 1H7.667L9 10l-2 3h2l1-1.5 1 1.5h2l-2-3 2-3h-2z" id="icon_x5F_bg"/><path class="st2" d="M6 7H4L1 4l3-3h2L4 3h4v2H4l2 2z" id="color_x5F_action"/><path class="st3" d="M14 6v8H6V8h1.667L9 10l-2 3h2l1-1.5 1 1.5h2l-2-3 2-3h-2l-1 1.5L9 7H8l-.82-.82A1.99 1.99 0 0 1 8 6h6z" id="icon_x5F_fg"/></svg>