<svg xmlns="http://www.w3.org/2000/svg" viewBox="0 0 16 16"><defs><style>.icon-canvas-transparent,.icon-vs-out{fill:#f6f6f6}.icon-canvas-transparent{opacity:0}.icon-git-orange{fill:#f05133}</style></defs><title>GitFork_16x</title><path class="icon-canvas-transparent" d="M16 0v16H0V0z"/><path class="icon-vs-out" d="M16 5.971v4.059l-4.742 4.742a2.47 2.47 0 0 1-2.808.491l-.5-.231a2.488 2.488 0 0 1-3.213-.26L0 10.03V5.97l4.742-4.741A2.494 2.494 0 0 1 6.5.514a2.527 2.527 0 0 1 1.452.457l.527-.233A2.592 2.592 0 0 1 9.516.521a2.439 2.439 0 0 1 1.742.708z"/><path class="icon-git-orange" d="M15.565 9.051l-5.014 5.014a1.47 1.47 0 0 1-1.678.292l5.985-6.013a.487.487 0 0 0 0-.687l-5.975-6a1.516 1.516 0 0 1 1.668.282l5.014 5.014a1.487 1.487 0 0 1 0 2.098zm-3 0l-5.014 5.014a1.486 1.486 0 0 1-2.1 0L.435 9.051a1.487 1.487 0 0 1 0-2.1l5.014-5.015a1.52 1.52 0 0 1 2.1 0l5.014 5.014a1.487 1.487 0 0 1 .002 2.101zm-.707-1.395L6.844 2.643a.485.485 0 0 0-.687 0L5 3.8l1.11 1.106a1 1 0 0 1 1.311 1.311l1.166 1.166A.986.986 0 0 1 9 7.288a1.019 1.019 0 1 1-.928.641L6.89 6.748h-.015v2.828a1 1 0 1 1-.75 0V6.751a1 1 0 0 1-.546-1.315L4.471 4.328 1.142 7.656a.487.487 0 0 0 0 .688l5.014 5.014a.5.5 0 0 0 .687 0l5.015-5.014a.487.487 0 0 0 0-.688z"/></svg>