<svg xmlns="http://www.w3.org/2000/svg" viewBox="0 0 16 16"><style>.st0{fill:#f6f6f6}.st1{fill:#424242}.st2{fill:#f0eff1}</style><path class="st0" d="M0 0h16v16H0z" id="outline"/><path class="st1" d="M1 1v14h14V1H1zm3.472 12a1.475 1.475 0 0 1 0-2.948 1.474 1.474 0 0 1 0 2.948zM8 13c0-3.355-1.644-5-5-5V6c2.014 0 3.801.458 5.178 1.823C9.56 9.191 10 10.315 10 13H8zm3.878 0c0-5.273-3.603-8.8-8.877-8.8V2c3.165 0 5.973.718 8.138 2.863 2.17 2.151 2.862 3.918 2.862 8.137h-2.123z" id="icon_x5F_bg"/><g id="icon_x5F_fg"><path class="st2" d="M14.001 13h-2.123c0-5.273-3.603-8.8-8.877-8.8V2c3.165 0 5.973.718 8.138 2.863 2.17 2.152 2.862 3.919 2.862 8.137z"/><circle class="st2" cx="4.472" cy="11.527" r="1.473"/><path class="st2" d="M10 13H8c0-3.355-1.644-5-5-5V6c2.014 0 3.801.458 5.178 1.823C9.56 9.191 10 10.315 10 13z"/></g></svg>