<svg xmlns="http://www.w3.org/2000/svg" width="16" height="16"><style type="text/css">.icon-canvas-transparent{opacity:0;fill:#F6F6F6;} .icon-vs-out{fill:#F6F6F6;} .icon-vs-fg{fill:#F0EFF1;} .icon-white{fill:#FFFFFF;} .icon-vs-action-green{fill:#388A34;}</style><path class="icon-canvas-transparent" d="M16 16h-16v-16h16v16z" id="canvas"/><path class="icon-vs-out" d="M11.061 0h-6.061c-.97 0-2 .701-2 2v2.678l-3 .429v10.056l5.931.837h3.069v-2h4c1.299 0 2-1.03 2-2v-8.444l-3.939-3.556z" id="outline"/><path class="icon-vs-action-green" d="M1 5.975l7-1.002v10.027l-7-1.004v-8.021zm8-4.975h-1v1h1v-1zm-2 1v-1h-1v1h1zm2 10v1h1v-1h-1zm-4-9h-1v1h1v-1zm0-2h-.036s-.964 0-.964 1h1v-1zm8 10h1v-1h-1v1zm-2.359-10h-.641v4h4v-1l-3.359-3zm2.359 6h1v-1h-1v1zm-2 5v1h1v-1h-1zm2-3h1v-1h-1v1zm0 3.995c.962-.025 1-.995 1-.995h-1v.995z" id="iconBg"/><path class="icon-vs-fg" d="M13 5v7h-4v-8.18l-4 .572v-2.392h5v3h3z" id="iconFg"/><g id="notificationFg"><path class="icon-white" d="M6.39 7.226l-1.197.069-.88 2.067c-.007-.042-.761-1.971-.761-1.971l-1.154.066 1.23 2.514-1.341 2.508 1.123.064.871-2.01c.009.044.878 2.107.878 2.107l1.27.074-1.461-2.767 1.422-2.721"/></g></svg>