<svg xmlns="http://www.w3.org/2000/svg" viewBox="0 0 16 16"><style>.st0{opacity:0}.st0,.st1{fill-rule:evenodd;clip-rule:evenodd;fill:#f6f6f6}.st2{fill:#2b579a}.st3{fill:#fff}</style><g id="outline"><path class="st0" d="M0 0h16v16H0z"/><path class="st1" d="M2 14.35V1.715L13 .067V16z"/></g><path class="st2" d="M3 2.582v10.9l9 1.364V1.22z" id="color_x5F_decoration"/><path class="st3" d="M9.338 5.259L8.715 8.89l-.024.144c-.008.049-.014.1-.02.149-.003.049-.009-.144-.011-.092-.004.05-.008-.091-.01-.091h-.011c-.006 0-.01.119-.016.063-.006-.057-.012.013-.018-.036-.005-.047-.011-.03-.019-.07-.006-.04-.012-.046-.018-.077l-.713-3.545-1.005.07-.725 3.408a4.685 4.685 0 0 0-.054.305c-.007.051-.012-.104-.016-.055C6.05 9.11 6.047 9 6.046 9h-.017c-.003 0-.006.082-.009.027-.003-.056-.007-.006-.012-.053-.004-.049-.009-.043-.014-.085-.005-.041-.011-.053-.016-.086l-.543-3.317-.914.064.978 4.931 1.017.063.693-3.29c.009-.04.017-.084.023-.127.007-.044.015-.09.02-.139l.018-.153a7.31 7.31 0 0 0 .014-.165l.012-.002a6.416 6.416 0 0 0 .024.313l.02.142.023.13.704 3.389 1.104.067 1.23-5.514-1.063.064z" id="not_x5F_fg"/></svg>