<svg xmlns="http://www.w3.org/2000/svg" width="16" height="16"><style type="text/css">.icon-canvas-transparent{opacity:0;fill:#F6F6F6;} .icon-vs-out{fill:#F6F6F6;} .icon-vs-fg{fill:#F0EFF1;} .icon-vs-action-blue{fill:#00539C;}</style><path class="icon-canvas-transparent" d="M16 16h-16v-16h16v16z" id="canvas"/><path class="icon-vs-out" d="M10 15.705v.295h-10v-6.714c0-1.131.575-2.131 1.448-2.722.753-2.032 2.412-3.636 4.552-4.268v-2.296h1.308l4.4 3h2.923l-2.007 4h2.132l.141.834c.069.416.103.797.103 1.166 0 3.164-2.113 5.842-5 6.705z" id="outline"/><g id="iconBg"><path class="icon-vs-action-blue" d="M10 6.65l1.25-2.65h1.75l-3 6.037v-3.387zm-6.714-.65h.734c.721-.954 1.766-1.651 2.98-1.899v1.899l3.5-2.614-3.5-2.386v2.09c-1.811.304-3.34 1.422-4.214 2.961.164-.026.328-.051.5-.051zm10.624 2h-1.011c.066.323.101.658.101 1 0 2.045-1.237 3.802-3 4.576v1.075c2.329-.825 4-3.04 4-5.651 0-.341-.035-.674-.09-1z"/><path class="icon-vs-action-blue" d="M3.286 7c-1.263 0-2.286 1.023-2.286 2.286v5.714h8v-8h-5.714zm4.714 7h-6v-4.714c0-.946.34-1.286 1.286-1.286h4.714v6z"/></g><path class="icon-vs-fg" d="M8 14h-6v-4.714c0-.946.34-1.286 1.286-1.286h4.714v6z" id="iconFg"/><path class="icon-vs-action-blue" d="M3.664 12.938v-.938c.17.143.354.25.554.321.199.071.4.107.604.107.119 0 .223-.011.312-.032l.223-.089.133-.135.044-.168c0-.082-.023-.155-.07-.22-.047-.064-.111-.124-.192-.179l-.289-.158-.36-.155c-.328-.137-.573-.304-.734-.501-.161-.197-.242-.436-.242-.715 0-.219.044-.407.132-.564.088-.157.208-.287.359-.388.151-.102.327-.176.526-.224.199-.048.41-.072.633-.072.219 0 .413.013.582.04.169.026.325.067.467.122v.876l-.23-.129-.258-.093-.262-.055-.248-.017-.293.031-.222.086-.141.133-.05.174c0 .07.019.133.056.189l.158.158.249.146.331.148c.168.07.319.145.453.224s.249.168.344.268c.096.1.169.213.22.341.051.128.076.277.076.447 0 .234-.044.431-.133.59-.089.159-.209.288-.362.387-.152.098-.33.169-.532.212-.202.043-.416.065-.64.065-.23 0-.45-.02-.658-.059-.208-.037-.388-.096-.54-.174z" id="colorImportance"/></svg>