<svg xmlns="http://www.w3.org/2000/svg" viewBox="0 0 16 16"><style>.icon-canvas-transparent{opacity:0;fill:#f6f6f6}.icon-vs-out{fill:#f6f6f6}.icon-vs-bg{fill:#424242}.icon-vs-fg{fill:#f0eff1}</style><path class="icon-canvas-transparent" d="M16 16H0V0h16v16z" id="canvas"/><path class="icon-vs-out" d="M10 15.705V16H0V9.286c0-1.131.575-2.131 1.448-2.722A6.957 6.957 0 0 1 6 2.296V0h1.308l4.4 3h2.923l-2.007 4h2.132l.141.834C14.966 8.25 15 8.631 15 9c0 3.164-2.113 5.842-5 6.705z" id="outline"/><g id="iconBg"><path class="icon-vs-bg" d="M10 10.037L13 4h-1.75L10 6.65zM3.286 6h.734A4.999 4.999 0 0 1 7 4.101V6l3.5-2.614L7 1v2.09a5.997 5.997 0 0 0-4.214 2.961c.164-.026.328-.051.5-.051zM13.91 8h-1.011A5.003 5.003 0 0 1 10 13.576v1.075c2.329-.825 4-3.04 4-5.651 0-.341-.035-.674-.09-1z"/><g><path class="icon-vs-bg" d="M3.286 6h.734A4.999 4.999 0 0 1 7 4.101V6l3.5-2.614L7 1v2.09a5.997 5.997 0 0 0-4.214 2.961c.164-.026.328-.051.5-.051zM13.91 8h-1.011A5.003 5.003 0 0 1 10 13.576v1.075c2.329-.825 4-3.04 4-5.651 0-.341-.035-.674-.09-1z"/></g><path class="icon-vs-bg" d="M3.286 7A2.285 2.285 0 0 0 1 9.286V15h8V7H3.286zM8 14H2V9.286C2 8.34 2.34 8 3.286 8H8v6z"/></g><path class="icon-vs-fg" d="M8 14H2V9.286C2 8.34 2.34 8 3.286 8H8v6z" id="iconFg"/><path class="icon-vs-bg" d="M3.664 12.938V12a1.781 1.781 0 0 0 1.158.428c.119 0 .223-.011.312-.032s.163-.051.223-.089a.38.38 0 0 0 .133-.135.365.365 0 0 0-.026-.388.775.775 0 0 0-.192-.179 1.964 1.964 0 0 0-.289-.158 8.252 8.252 0 0 0-.36-.155c-.328-.137-.573-.304-.734-.501a1.095 1.095 0 0 1-.242-.715c0-.219.044-.407.132-.564.088-.157.208-.287.359-.388.151-.102.327-.176.526-.224.199-.048.41-.072.633-.072.219 0 .413.013.582.04.169.026.325.067.467.122v.876a1.38 1.38 0 0 0-.23-.129 1.91 1.91 0 0 0-.768-.165c-.107 0-.205.01-.293.031a.73.73 0 0 0-.222.086.43.43 0 0 0-.141.133.336.336 0 0 0 .006.363c.037.056.09.108.158.158s.151.099.249.146c.098.048.208.097.331.148.168.07.319.145.453.224s.249.168.344.268c.096.1.169.213.22.341.051.128.076.277.076.447 0 .234-.044.431-.133.59a1.083 1.083 0 0 1-.362.387c-.152.098-.33.169-.532.212a3.072 3.072 0 0 1-.64.065c-.23 0-.45-.02-.658-.059a1.914 1.914 0 0 1-.54-.174z" id="colorImportance"/></svg>