<svg xmlns="http://www.w3.org/2000/svg" viewBox="0 0 16 16"><style>.icon-canvas-transparent{opacity:0;fill:#f6f6f6}.icon-vs-out{fill:#f6f6f6}.icon-vs-fg{fill:#f0eff1}.icon-visualstudio{fill:#68217a}</style><path class="icon-canvas-transparent" d="M16 16H0V0h16v16z" id="canvas"/><path class="icon-vs-out" d="M11.352 5.083A2.978 2.978 0 0 0 13.5 6 2.997 2.997 0 0 0 16 4.652V1.348A2.997 2.997 0 0 0 13.5 0a3.01 3.01 0 0 0-2.883 2.175l-.86.215A4.955 4.955 0 0 0 5.5 0c-2.757 0-5 2.243-5 5 0 1.77.915 3.359 2.39 4.256l-.216.861A3.01 3.01 0 0 0 .5 13c0 1.654 1.346 3 3 3s3-1.346 3-3c0-.82-.338-1.592-.917-2.148l.215-.86a4.922 4.922 0 0 0 2.005-.567l1.802 1.802A2.928 2.928 0 0 0 9.5 12c0 1.654 1.346 3 3 3s3-1.346 3-3-1.346-3-3-3c-.261 0-.521.036-.773.105L9.925 7.303a4.905 4.905 0 0 0 .566-2.005l.861-.215z" id="outline"/><path class="icon-visualstudio" d="M13.5 5a2 2 0 1 0-1.998-2.016l-2.281.57a3.995 3.995 0 1 0-5.166 5.165l-.57 2.283A1.998 1.998 0 0 0 3.5 15c1.105 0 2-.894 2-2 0-.758-.426-1.41-1.047-1.748l.574-2.301c.157.02.311.049.473.049.924 0 1.764-.326 2.441-.852l2.842 2.842A1.97 1.97 0 0 0 10.5 12c0 1.106.895 2 2 2s2-.894 2-2-.895-2-2-2a1.97 1.97 0 0 0-1.01.283L8.648 7.441A3.962 3.962 0 0 0 9.5 5c0-.162-.029-.316-.047-.473l2.299-.576C12.09 4.574 12.742 5 13.5 5zm-8 2a2 2 0 1 1-.001-3.999A2 2 0 0 1 5.5 7z" id="iconBg"/><g id="iconFg"><path class="icon-vs-fg" d="M5.5 7a2 2 0 1 1-.001-3.999A2 2 0 0 1 5.5 7z"/></g></svg>