<svg xmlns="http://www.w3.org/2000/svg" viewBox="0 0 16 16"><style>.icon-canvas-transparent{opacity:0;fill:#f6f6f6}.icon-vs-out{fill:#f6f6f6}.icon-vs-bg{fill:#424242}.icon-vs-fg{fill:#f0eff1}</style><path class="icon-canvas-transparent" d="M16 16H0V0h16v16z" id="canvas"/><path class="icon-vs-out" d="M16 3.556V12c0 .97-.701 2-2 2h-4v2H0V9.286A3.29 3.29 0 0 1 3.286 6H4V2C4 .701 5.03 0 6 0h6.061L16 3.556z" id="outline"/><g id="iconBg"><path class="icon-vs-bg" d="M15 4v8s-.035 1-1.035 1H10v-1h4V5h-3V2H6v4H5V2c0-1 .964-1 .964-1h5.677L15 4z"/><path class="icon-vs-bg" d="M3.286 7A2.285 2.285 0 0 0 1 9.286V15h8V7H3.286zM8 14H2V9.286C2 8.34 2.34 8 3.286 8H8v6z"/></g><g id="iconFg"><path class="icon-vs-fg" d="M14 5v7h-4V6H6V2h5v3h3z"/><path class="icon-vs-fg" d="M8 14H2V9.286C2 8.34 2.34 8 3.286 8H8v6z"/></g><path class="icon-vs-bg" d="M5.87 13l-.823-1.711-.688 1.148.641.016V13H3.293l1.26-2-1.26-2h.977L5 10.203l.784-1.179L6.67 9h.177l-1.26 2 1.26 2H5.87z" id="colorImportance"/></svg>