<svg xmlns="http://www.w3.org/2000/svg" viewBox="0 0 16 16"><style>.icon-canvas-transparent{opacity:0;fill:#f6f6f6}.icon-vs-out{fill:#f6f6f6}.icon-vs-bg{fill:#424242}.icon-vs-fg{fill:#f0eff1}.icon-white{fill:#fff}.icon-office-word{fill:#2b579a}</style><path class="icon-canvas-transparent" d="M16 16H0V0h16v16z" id="canvas"/><path class="icon-vs-out" d="M16 3.556V12c0 .97-.701 2-2 2H8v2H6.931L0 15.019V6.482l4-.567V2C4 .701 5.03 0 6 0h6.061L16 3.556z" id="outline"/><path class="icon-vs-bg" d="M11.641 1H5.964S5 1 5 2v3.773l1-.142V2h5v3h3v7H8v1h5.965c1 0 1.035-1 1.035-1V4l-3.359-3z" id="iconBg"/><path class="icon-vs-fg" d="M11 5V2H6v3.632l2-.284V12h6V5z" id="iconFg"/><path class="icon-office-word" d="M1 7.35v6.8L7 15V6.5l-6 .85z" id="colorImportance"/><path class="icon-white" d="M6.5 9l-.922 4H4.541s-.521-2.671-.525-2.856h-.019C3.982 10.348 3.428 13 3.428 13H2.403L1.5 9h1.006l.506 2.5c.011-.182.607-2.5.607-2.5h.941s.586 2.651.609 2.5L5.584 9H6.5z" id="notificationFg"/></svg>