<svg xmlns="http://www.w3.org/2000/svg" viewBox="0 0 16 16"><style>.st0{opacity:0}.st0,.st1,.st2{fill-rule:evenodd;clip-rule:evenodd;fill:#f6f6f6}.st2{fill:#217346}.st3{fill:#fff}</style><g id="outline"><path class="st0" d="M0 0h16v16H0z"/><path class="st1" d="M13 16V.211L2 1.876v12.621L11.923 16z"/></g><path class="st2" d="M3 2.736v10.9L12 15V1.374L3 2.736zm5.181 9.144L7.112 9.494a.346.346 0 0 1-.029-.076.692.692 0 0 1-.027-.105.883.883 0 0 1-.034-.141C7.011 9.123 7.001 9 6.987 9h-.015c-.008 0-.012.066-.024.1-.008.033-.017.076-.029.115-.012.041-.022.088-.037.137a1.588 1.588 0 0 1-.053.155l-1.025 2.239-1.525-.088 1.822-3.409-1.672-3.416 1.566-.089s.999 2.733 1.01 2.691c.012-.045.099-.327.115-.378.02-.054.033-.056.055-.117.02-.062.041-.101.064-.169l.986-2.17 1.627-.088-1.931 3.703 1.986 3.763-1.726-.099z" id="color_x5F_decoration"/><path class="st3" d="M9.807 4.546l-1.627.095-.987 2.183c-.024.068-.045.134-.065.195-.021.062-.035.117-.055.17-.015.052-.029.1-.04.144-.012.042-.024.083-.032.117h-.017a1.49 1.49 0 0 0-.041-.166c-.014-.052-.026-.104-.043-.154-.012-.049-.029-.097-.045-.144-.018-.046-.033-.09-.053-.133l-.853-2.082-1.567.089 1.672 3.416-1.822 3.409 1.525.088 1.025-2.238c.021-.053.039-.107.053-.154.016-.049.025-.094.037-.135.012-.039.021-.078.029-.113.013-.033.016-.065.024-.092h.016c.014.061.023.117.035.166.008.049.02.094.033.133.008.041.018.074.027.105.008.03.018.055.03.076l1.069 2.385 1.727.102-1.987-3.762 1.932-3.7" id="not_x5F_fg"/></svg>