<svg xmlns="http://www.w3.org/2000/svg" viewBox="0 0 16 16"><style>.icon-vs-out{fill:#f6f6f6}.icon-vs-fg{fill:#f0eff1}.icon-f12-blue-hover{fill:#2279bf}.icon-f12-pressed-bg{fill:#b2d7f0}.icon-canvas-transparent{opacity:0;fill:#f6f6f6}.icon-asp-html-wpf-blue{fill:#0095d7}</style><path class="icon-canvas-transparent" d="M16 0v16H0V0h16z" id="canvas"/><path class="icon-vs-out" d="M2.401 4.803C1.077 4.803 0 3.726 0 2.401S1.077 0 2.401 0s2.401 1.077 2.401 2.401-1.076 2.402-2.401 2.402zM12 3H7a4 4 0 0 0-4 4v5a4 4 0 0 0 4 4h5a4 4 0 0 0 4-4V7a4 4 0 0 0-4-4z" id="outline"/><g id="iconBg"><path class="icon-f12-pressed-bg" d="M4.2 2.4c0 .993-.807 1.8-1.8 1.8S.6 3.393.6 2.4 1.407.6 2.4.6s1.8.807 1.8 1.8zm8.029 1.371H6.771a3 3 0 0 0-3 3v5.457a3 3 0 0 0 3 3h5.457a3 3 0 0 0 3-3V6.771a3 3 0 0 0-2.999-3z"/><path class="icon-f12-blue-hover" d="M3.794 2.4a1.395 1.395 0 0 1-2.788 0 1.395 1.395 0 0 1 2.788 0zm7.982 1.796H7.224a3.028 3.028 0 0 0-3.028 3.028v4.553a3.028 3.028 0 0 0 3.028 3.028h4.553a3.028 3.028 0 0 0 3.028-3.028V7.224a3.03 3.03 0 0 0-3.029-3.028z"/><path class="icon-asp-html-wpf-blue" d="M14.788 6.966c-2.708 2.806-10.592 4.858-10.592 4.81l-.024-4.557c0-1.672 1.344-2.99 3.016-2.99l4.479-.042c1.617.001 3.036 1.182 3.121 2.779zM2.4 1.006c-.769 0-1.394.625-1.394 1.394 0 .032.007.062.009.093.208.039.42.064.64.064.764 0 1.464-.256 2.037-.675A1.396 1.396 0 0 0 2.4 1.006z"/></g><g id="iconFg"><path class="icon-vs-fg" d="M14.042 11.623a2.424 2.424 0 1 1-4.847 0 2.424 2.424 0 0 1 4.847 0zM6.93 5.2a1.557 1.557 0 1 0 0 3.114 1.557 1.557 0 0 0 0-3.114z"/></g></svg>