<svg xmlns="http://www.w3.org/2000/svg" viewBox="0 0 16 16"><style>.st0{fill:#f6f6f6}.st1{fill:#424242}.st2{fill:#f0eff1}</style><path class="st0" d="M0 16V5c0-2.758 2.243-5 5-5h11v16H0z" id="outline"/><path class="st1" d="M5 1a4 4 0 0 0-4 4v10h14V1H5zm9 13H2V5c0-1.654 1.346-3 3-3h9v12zM9 3H4v2h1v8h2v-3h2c1.657 0 3-1.567 3-3.5C12 4.566 10.657 3 9 3zm-.2 5H7V5h1.8c.662 0 1.2.672 1.2 1.5S9.462 8 8.8 8z" id="icon_x5F_bg"/><path class="st2" d="M10 6.5C10 7.328 9.462 8 8.8 8H7V5h1.8c.662 0 1.2.672 1.2 1.5zM14 2v12H2V5c0-1.654 1.346-3 3-3h9zm-2 4.5C12 4.566 10.657 3 9 3H4v2h1v8h2v-3h2c1.657 0 3-1.567 3-3.5z" id="icon_x5F_fg"/></svg>