<svg xmlns="http://www.w3.org/2000/svg" viewBox="0 0 16 16"><style>.st0{fill:#f6f6f6}.st1{fill:#424242}.st2{fill:#f0eff1}</style><path class="st0" d="M14 0c-.707 0-1.648.473-2 1-.352-.527-1.294-1-2-1S8.353.473 8 1v3H4C1.795 4 0 5.794 0 8v8h14v-5h2V1c-.352-.527-1.295-1-2-1z" id="outline"/><path class="st1" d="M12 5h3v5h-3V5zm2-4c-.543 0-1 .516-1 1v2h2V2c0-.484-.456-1-1-1zm-4 0c-.543 0-1 .516-1 1v2h2V2c0-.484-.456-1-1-1zm2 14h1v-4h-1v4zm-7-5l-2 3h2l1-1.5L7 13h2l-2-3 2-3H7L6 8.5 5 7H3l2 3zM4 5h7v10H1V8a3 3 0 0 1 3-3zm6 1H4c-1.104 0-2 .897-2 2v6h8V6z" id="icon_x5F_bg"/><path class="st2" d="M4 6c-1.104 0-2 .897-2 2v6h8V6H4zm5 7H7l-1-1.5L5 13H3l2-3-2-3h2l1 1.5L7 7h2l-2 3 2 3z" id="icon_x5F_fg"/></svg>