<svg xmlns="http://www.w3.org/2000/svg" viewBox="0 0 16 16"><style>.icon-canvas-transparent{opacity:0;fill:#f6f6f6}.icon-vs-out{fill:#f6f6f6}.icon-vs-bg{fill:#424242}.icon-vs-fg{fill:#f0eff1}.icon-asp-html-wpf-blue{fill:#0095d7}</style><path class="icon-canvas-transparent" d="M16 16H0V0h16v16z" id="canvas"/><path class="icon-vs-out" d="M10.958 0H2v9.621l-2 1.965v.828l2 1.862V16h13V4.165z" id="outline"/><path class="icon-vs-bg" d="M10.543 1H3v8h1V2h5v4h4v8h-2.565l-.99 1H14V4.579L10.543 1zM10 5V2.207L12.793 5H10zm1 7l-2 2v-1l1-1-1-1v-1l2 2zm-8-2v1l-1 1 1 1v1l-2-2 2-2z" id="iconBg"/><g id="iconFg"><path class="icon-vs-fg" d="M10 2.042V5h2.939z"/><path class="icon-vs-fg" d="M9 6V2H4v7h5l3.414 3-1.979 2H13V6z"/><path class="icon-vs-fg" d="M10 2.042V5h2.939z"/><path class="icon-vs-fg" d="M9 6V2H4v7h5l3.414 3-1.979 2H13V6z"/></g><path class="icon-asp-html-wpf-blue" d="M8 14H4v-4h4v4z" id="colorImportance"/></svg>