<svg xmlns="http://www.w3.org/2000/svg" viewBox="0 0 16 16"><style>.icon-canvas-transparent{opacity:0;fill:#f6f6f6}.icon-white{fill:#fff}.icon-visualstudio{fill:#68217a}</style><path class="icon-canvas-transparent" d="M16 16H0V0h16v16z" id="canvas"/><path class="icon-white" d="M5.969 10.822L3.138 13.18 0 11.612V4.376l3.138-1.569 2.831 2.359L11.578.038 16 1.273v7.398c0 .781-1 1.406-1 1.406l-.438 3.719-2.805 2.197-5.788-5.171z" id="outline"/><path class="icon-visualstudio" d="M15.814 11.774a2.803 2.803 0 0 0-.685-1.043c.139-.184.257-.386.351-.604.144-.329.216-.694.216-1.084 0-.428-.086-.83-.255-1.193A2.446 2.446 0 0 0 15 7.211V2l-3-1-6 5.5L3 4 1 5v6l2 1 3-2.5 2 1.861V16h4.205c2.12 0 3.338-1.358 3.522-1.794.181-.422.273-.888.273-1.388 0-.362-.062-.712-.186-1.044zM3 10V6l2 2-2 2zm9-4.016h-1.313L12 5v.984z" id="iconBg"/><path class="icon-white" d="M15.146 12.733c0 .365-.064.696-.191.995a2.06 2.06 0 0 1-.553.761c-.241.209-.534.37-.879.485a3.699 3.699 0 0 1-1.172.172H9V7h3.197c.45 0 .84.108 1.171.2.331.092.606.221.824.386.218.165.381.365.489.598.108.233.162.49.162.772 0 .252-.044.48-.133.685a1.897 1.897 0 0 1-.823.916 2.301 2.301 0 0 1-.526.225v.023c.28.038.53.114.752.228.221.115.408.257.561.426.152.169.269.363.351.581.08.217.121.449.121.693zm-2.11-3.439c0-.297-.109-.52-.327-.668-.218-.148-.527-.223-.927-.223H11v1.917h.894c.354 0 .633-.091.837-.273.203-.182.305-.433.305-.753zm.303 3.416c0-.158-.029-.301-.088-.428a.922.922 0 0 0-.25-.327 1.13 1.13 0 0 0-.396-.208 1.75 1.75 0 0 0-.526-.073H11v2.131h1.069c.407 0 .721-.1.94-.299.22-.2.33-.465.33-.796z" id="iconFg"/></svg>