<?xml version="1.0" encoding="utf-8"?>
<!-- Generator: Adobe Illustrator 18.1.1, SVG Export Plug-In . SVG Version: 6.00 Build 0)  -->
<!DOCTYPE svg PUBLIC "-//W3C//DTD SVG 1.1//EN" "http://www.w3.org/Graphics/SVG/1.1/DTD/svg11.dtd">
<svg version="1.1" xmlns="http://www.w3.org/2000/svg" xmlns:xlink="http://www.w3.org/1999/xlink" x="0px" y="0px" width="16px"
	 height="16px" viewBox="0 0 16 16" style="enable-background:new 0 0 16 16;" xml:space="preserve">
<style type="text/css">
	.icon_x002D_canvas_x002D_transparent{opacity:0;fill:#F6F6F6;}
	.icon_x002D_vs_x002D_out{fill:#F6F6F6;}
	.icon_x002D_vs_x002D_bg{fill:#424242;}
	.icon_x002D_vs_x002D_fg{fill:#F0EFF1;}
	.icon_x002D_edge{fill:#0078D7;}
</style>
<g id="canvas">
	<path class="icon_x002D_canvas_x002D_transparent" d="M16,16H0V0h16V16z"/>
</g>
<g id="outline">
	<path class="icon_x002D_vs_x002D_out" d="M16,0v16H5v-0.109c-1.546-0.316-2.877-1.359-3.503-2.854
		c-0.192-0.458-0.311-0.945-0.353-1.44C1.116,11.28,1.285,9.934,1.285,9.934s-1.027-0.35-1.279-0.437
		C0.283,6.757,2.355,4.551,5,4.274V0H16z"/>
</g>
<g id="iconBg">
	<path class="icon_x002D_vs_x002D_bg" d="M6,1v3.264c0.133,0.011,0.266,0.018,0.4,0.039C6.609,4.335,6.802,4.396,7,4.448V2h7v10
		h-3.014H10c0,0.333,0,0.667,0,1h1v1h-1c0,0.409,0,0.905,0,0.905S9.921,14.945,9.806,15H15V1H6z M14,14h-1v-1h1V14z"/>
</g>
<g id="iconFg">
	<path class="icon_x002D_vs_x002D_fg" d="M13,13h1v1h-1V13z M10,13.551V14h1v-1h-1V13.551z M7,2v2.448
		c2.33,0.623,3.854,2.641,3.988,5.086c-0.132-2.408,0.008,0.134,0,0c0.048,0.818,0.004,1.647-0.002,2.466H14V2H7z"/>
</g>
<g id="colorImportance">
	<path class="icon_x002D_edge" d="M9.99,9.589c0.024,0.438,0.006,0.879,0.003,1.317H9.754H3.871c0.218,2.617,3.631,2.338,5.3,1.31
		c0,0.336,0,0.672,0,1.008v1.08v0.005c-1.757,0.929-4.351,1.074-5.86-0.361c-1.981-1.883-1.328-5.299,1.214-6.316
		C4.126,8.036,3.891,8.613,3.83,9.171c1.157,0,2.314,0,3.472,0c-0.015-0.03-0.013-0.044,0.005-0.042
		c0-1.701-1.172-2.216-2.689-1.962C3.13,7.416,1.795,8.317,1,9.598c0.262-2.577,2.406-4.629,5.07-4.331
		C8.351,5.522,9.867,7.349,9.99,9.589"/>
	<g>
	</g>
	<g>
	</g>
	<g>
	</g>
	<g>
	</g>
	<g>
	</g>
	<g>
	</g>
</g>
</svg>
