<svg xmlns="http://www.w3.org/2000/svg" viewBox="0 0 16 16"><style>.st0{opacity:0}.st0,.st1{fill:#f6f6f6}.st2{fill:#424242}.st3{fill:#2372c6}.st4{fill:#f0eff1}.st5{fill:#e51400}.st6{fill:#fff}</style><g id="outline"><path class="st0" d="M0 0h16v16H0z"/><path class="st1" d="M15.979 11.5c0-1.557-.795-2.93-2-3.738V0h-11v11l-.638.026C1.186 11.541.384 13.28.02 14.734l.052.652.259.614h1.25c.535 0 1.017-.189 1.398-.503V16h11v-.762a4.493 4.493 0 0 0 2-3.738z"/></g><g id="icon_x5F_bg"><path class="st2" d="M12 7.051c.347.039.682.112 1 .226V1H4v10h.955c.016 0 .029.004.045.005V2h7v5.051zM8.191 14.525a6.635 6.635 0 0 1-.318.475h.833a4.537 4.537 0 0 1-.515-.475z"/></g><g id="color_x5F_importance"><path class="st3" d="M1.012 14.976L1 14.966l.012.034H1.598c.629 0 1.026-.398 1.172-.876.158-.521.332-.89.483-1.155a2.912 2.912 0 0 0-.483-1.03c-.657.292-1.38 1.527-1.758 3.037zM5.839 14.067c-.002-.006-.005-.067-.007-.067h.002c-.02 0-.035-.075-.05-.143-.18-.755-.343-1.857-.829-1.857H3.383c.225 0 .422.947.559 1.781C4.335 15.232 5.113 15 5.113 15h1.171c-.199 0-.365-.638-.445-.933zM7.051 12h-.098c-.263 0-.416.352-.508.659-.049.163-.119.37-.161.509.06.728.257 1.179.45 1.557.009-.007.016-.015.023-.018.037-.027.073-.024.105-.055.215-.196.444-.574.698-1.02A4.476 4.476 0 0 1 7.051 12z"/></g><path class="st4" d="M11.5 7c.171 0 .334.032.5.051V2H5v9.005c.417.013.728.186.96.452.317-.36.688-.457.993-.457h.098c.252-2.244 2.138-4 4.449-4z" id="icon_x5F_fg"/><path class="st5" d="M11.5 8a3.5 3.5 0 1 0-.001 6.999A3.5 3.5 0 0 0 11.5 8zm1.854 4.646l-.707.707-1.147-1.146-1.146 1.147-.707-.707 1.147-1.146-1.147-1.146.707-.707 1.146 1.147 1.146-1.147.707.707-1.146 1.145 1.147 1.146z" id="not_x5F_bg"/><path class="st6" d="M13.354 10.354l-.708-.708-1.146 1.147-1.146-1.147-.708.708 1.147 1.146-1.147 1.146.708.708 1.146-1.147 1.146 1.147.708-.708-1.147-1.146z" id="not_x5F_fg"/></svg>