<svg xmlns="http://www.w3.org/2000/svg" width="16" height="16"><style type="text/css">.icon-canvas-transparent{opacity:0;fill:#F6F6F6;} .icon-white{fill:#FFFFFF;} .icon-visualstudio-online{fill:#007ACC;} .icon-vs-green{fill:#339933;}</style><path class="icon-canvas-transparent" d="M16 16h-16v-16h16v16z" id="canvas"/><path class="icon-white" d="M15.99 11.589l-1.113.372c-.266 2.23-2.146 3.971-4.447 3.971-2.481 0-4.5-2.019-4.5-4.5 0-.472.093-.918.228-1.346l-.405-.193v.716l-2.933.014c-1.666-.467-2.83-2-2.83-3.728 0-1.581.925-2.962 2.317-3.563.485-1.952 2.214-3.354 4.26-3.354 1.118 0 2.165.417 2.965 1.162.289-.074.586-.112.886-.112.796 0 1.559.285 2.182.783l.327-.3 3.064 1.023v9.055z" id="outline"/><path class="icon-visualstudio-online" d="M15 3.129v7.74l-.121.047c-.144-1.239-.783-2.32-1.725-3.043v-2.746l-2.445 1.833-.278-.028c-.857 0-1.651.254-2.334.672l.541-.541-1.29-1.29v2.397c-.331.313-.604.679-.828 1.079l-.531-.252v-3.87l1.359-.645 1.935 1.612 3.87-3.548 1.847.583zm-4.579-1.1c-.418 0-.816.1-1.17.284-.623-.82-1.598-1.334-2.685-1.334-1.761 0-3.214 1.367-3.383 3.112-1.26.294-2.203 1.44-2.203 2.805 0 1.314.893 2.426 2.103 2.765h1.901v-1.039h-1.901c-.66-.291-1.123-.957-1.123-1.738 0-1.047.833-1.895 1.859-1.895.144 0 .279.02.411.051-.05-.197-.084-.399-.084-.612 0-1.364 1.083-2.468 2.419-2.468 1.208 0 2.201.904 2.385 2.083.228-.604.796-1.036 1.47-1.036.217 0 .42.051.606.133l.752-.689c-.393-.259-.853-.422-1.357-.422z" id="colorImportance"/><path class="icon-vs-green" d="M10.5 8c-1.93 0-3.5 1.57-3.5 3.5s1.57 3.5 3.5 3.5 3.5-1.57 3.5-3.5-1.57-3.5-3.5-3.5zm0 6h-1.125l-1.125-2h1.125l.563.75 1.687-3.75h1.125l-2.25 5z" id="notificationBg"/><path class="icon-white" d="M10.5 14h-1.125l-1.125-2h1.125l.563.75 1.687-3.75h1.125l-2.25 5z" id="notificationFg"/></svg>