<svg xmlns="http://www.w3.org/2000/svg" width="16" height="16"><style type="text/css">.icon-canvas-transparent{opacity:0;fill:#F6F6F6;} .icon-vs-out{fill:#F6F6F6;} .icon-vs-bg{fill:#424242;} .icon-vs-fg{fill:#F0EFF1;} .icon-visualstudio-online{fill:#007ACC;}</style><path class="icon-canvas-transparent" d="M16 16h-16v-16h16v16z" id="canvas"/><path class="icon-vs-out" d="M16 3.556v8.444c0 .97-.701 2-2 2h-4v.618l-2.764 1.382h-.65l-2.586-2.586-2 2-2-2v-4.828l2-2 2 2v-6.586c0-1.299 1.03-2 2-2h6.061l3.939 3.556z" id="outline"/><path class="icon-vs-bg" d="M15 4v8s-.035 1-1.035 1h-3.965v-1h4v-7h-3v-3h-5v4.586l-1 1v-5.586c0-1 .964-1 .964-1h5.677l3.359 3z" id="iconBg"/><path class="icon-vs-fg" d="M14 5v7h-4v-4.618l-3.197-1.599-.803.803v-4.586h5v3h3z" id="iconFg"/><path class="icon-visualstudio-online" d="M7 7l-3 3-2-2-1 1v4l1 1 2-2 3 3 2-1v-6l-2-1zm-5 5v-2l1 1-1 1zm3-1l2-2v4l-2-2z" id="colorImportance"/></svg>