<svg xmlns="http://www.w3.org/2000/svg" viewBox="0 0 16 16"><style>.st0{fill:#f5f5f5}.st1{fill:#424242}.st2{fill:#efeef0}.st3{fill:#f6f6f6}.st4{fill:#f0eff1}</style><g id="icon_x5F_bg"><path class="st0" d="M6 14c-.97 0-2-.701-2-2V2C4 .701 5.03 0 6 0h6.061L16 3.556V12c0 .97-.701 2-2 2H6z"/><path class="st1" d="M11.641 1H5.964S5 1 5 2v10c0 1 .964 1 .964 1h8c1 0 1.036-1 1.036-1V4l-3.359-3zM14 12H6V2h5v3h3v7z"/><path class="st2" d="M6 2h5v3h3v7H6z"/><path class="st1" d="M7 4h3v1H7zM7 6h6v1H7zM7 8h6v1H7zM7 10h6v1H7z"/><circle class="st3" cx="4.5" cy="11.5" r="4.5"/><path class="st4" d="M6 12l-.146.146-2.001-2L4 10l1-1H2v3l1-1 .146-.146 2 2L5 13l-1 1h3v-3z"/><path class="st1" d="M5 9l-1 1-.147.146 2 2L6 12l1-1v2.944c.617-.631 1-1.492 1-2.444A3.5 3.5 0 0 0 4.5 8c-.952 0-1.813.383-2.444 1H5zM4 14l1-1 .146-.146-2-2L3 11l-1 1V9.056c-.617.631-1 1.492-1 2.444A3.5 3.5 0 0 0 4.5 15c.952 0 1.813-.383 2.444-1H4z"/></g></svg>