<svg xmlns="http://www.w3.org/2000/svg" width="16" height="16"><style type="text/css">.icon-canvas-transparent{opacity:0;fill:#F6F6F6;} .icon-white{fill:#FFFFFF;} .icon-visualstudio{fill:#68217A;}</style><path class="icon-canvas-transparent" d="M16 16h-16v-16h16v16z" id="canvas"/><path class="icon-visualstudio" d="M16 1.416v13.168l-4.246 1.416h-1.102l-4.428-4.059-2.234 1.862-3.99-1.995v-7.615l3.99-1.996 2.233 1.861 4.427-4.058h1.103l4.247 1.416z" id="outline"/><path class="icon-white" d="M11.429 2l-5.143 4.714-2.572-2.143-1.714.858v5.143l1.714.857 2.571-2.143 5.144 4.714 2.571-.857v-10.286l-2.571-.857zm-7.715 7.714v-3.428l1.715 1.714-1.715 1.714zm4.286-1.714l3.429-2.571v5.143l-3.429-2.572z" id="iconBg"/></svg>