<svg xmlns="http://www.w3.org/2000/svg" viewBox="0 0 16 16"><style>.st0{opacity:0}.st0,.st1{fill:#f6f6f6}.st2{fill:#424242}.st3{fill:#c69}.st4{fill:#f0eff1}</style><g id="outline"><path class="st0" d="M0 0h16v16H0z"/><path class="st1" d="M12.061 0H6c-.97 0-2 .702-2 2v6H0v8h14v-1.999c1.299 0 2-1.031 2-2V3.556L12.061 0z"/></g><g id="icon_x5F_bg"><path class="st2" d="M7 3h1v1H7zM7 5h1v1H7z"/><path class="st2" d="M11.639 1H5.964S5 1 5 2v6h1V2h5v3h3V12.995c.961-.025 1-.994 1-.994V4l-3.361-3z"/><path class="st2" d="M10.998 8l1.031-1-.001 1H13V6h-1.295L9.598 8zM7 7h1v1H7z"/></g><g id="color_x5F_importance"><path class="st3" d="M5.786 11.004a1.237 1.237 0 0 1-.014-.096l-.009-.081a.55.55 0 0 0-.005-.056H5.74a2.531 2.531 0 0 1-.05.315l-.334 1.268h.78l-.331-1.257a1.9 1.9 0 0 1-.019-.093z"/><path class="st3" d="M1 9v6h12V9H1zm3.034 4.127a1.072 1.072 0 0 1-.233.496.906.906 0 0 1-.229.194 1.248 1.248 0 0 1-.318.135 1.697 1.697 0 0 1-.884-.023 1.56 1.56 0 0 1-.207-.072.566.566 0 0 1-.141-.086v-.849c.047.053.104.105.17.153a1.473 1.473 0 0 0 .452.219c.081.02.157.031.229.031a.507.507 0 0 0 .201-.035.32.32 0 0 0 .127-.091.302.302 0 0 0 .067-.123.505.505 0 0 0-.018-.318.544.544 0 0 0-.106-.152 1.103 1.103 0 0 0-.175-.144 3.636 3.636 0 0 0-.245-.153 2.07 2.07 0 0 1-.341-.243 1.232 1.232 0 0 1-.223-.266 1.01 1.01 0 0 1-.123-.29A1.35 1.35 0 0 1 2 11.193c0-.171.027-.326.082-.464a1.007 1.007 0 0 1 .595-.587c.142-.055.299-.08.472-.08a2.943 2.943 0 0 1 .443.041 1.773 1.773 0 0 1 .315.094v.831a.852.852 0 0 0-.15-.113 1.349 1.349 0 0 0-.186-.094 1.012 1.012 0 0 0-.203-.061.9.9 0 0 0-.203-.022.545.545 0 0 0-.156.022.351.351 0 0 0-.261.358c0 .063.01.124.031.178.02.052.051.101.09.147.04.044.091.09.151.129.062.042.131.086.211.133.147.085.272.171.376.258.104.086.19.178.256.273a1.067 1.067 0 0 1 .193.635c.004.081-.005.166-.022.256zm2.495.806l-.222-.864H5.195l-.22.864h-.764l1.139-3.877h.835l1.112 3.877h-.768zm3.047-.806a1.063 1.063 0 0 1-.232.496.911.911 0 0 1-.23.194 1.197 1.197 0 0 1-.317.135 1.686 1.686 0 0 1-.884-.023 1.526 1.526 0 0 1-.208-.072.523.523 0 0 1-.14-.086v-.849c.046.053.103.105.169.153a1.438 1.438 0 0 0 .452.219c.082.02.158.031.229.031a.512.512 0 0 0 .202-.035.334.334 0 0 0 .194-.214.595.595 0 0 0 .018-.139.434.434 0 0 0-.037-.179.544.544 0 0 0-.106-.152 1.07 1.07 0 0 0-.176-.144 3.863 3.863 0 0 0-.244-.153 2.113 2.113 0 0 1-.341-.243 1.286 1.286 0 0 1-.222-.266 1.035 1.035 0 0 1-.122-.29 1.35 1.35 0 0 1-.037-.317c0-.171.027-.326.082-.464.054-.14.132-.259.232-.358a1.03 1.03 0 0 1 .364-.229 1.29 1.29 0 0 1 .471-.08 2.973 2.973 0 0 1 .444.041 1.795 1.795 0 0 1 .317.094v.831a.87.87 0 0 0-.152-.113 1.446 1.446 0 0 0-.184-.094 1.061 1.061 0 0 0-.204-.061.9.9 0 0 0-.203-.022.543.543 0 0 0-.155.022.386.386 0 0 0-.134.068.315.315 0 0 0-.092.118.493.493 0 0 0-.005.35c.021.052.05.101.091.147.041.044.09.09.15.129.062.042.133.086.213.133.146.085.271.171.374.258.105.086.189.178.258.273a1.092 1.092 0 0 1 .192.635 1.385 1.385 0 0 1-.027.256zm2.399 0c-.016.09-.043.176-.082.259a.94.94 0 0 1-.381.431c-.09.056-.197.101-.316.135a1.694 1.694 0 0 1-.883-.023 1.644 1.644 0 0 1-.209-.072.606.606 0 0 1-.141-.086v-.849a1.284 1.284 0 0 0 .387.281c.076.038.156.067.236.091.082.02.158.031.229.031.08 0 .148-.012.203-.035a.35.35 0 0 0 .127-.091.312.312 0 0 0 .066-.123.547.547 0 0 0 .018-.139.45.45 0 0 0-.035-.179.575.575 0 0 0-.108-.152 1.113 1.113 0 0 0-.176-.144 3.155 3.155 0 0 0-.244-.153 2.17 2.17 0 0 1-.342-.243 1.273 1.273 0 0 1-.225-.266.998.998 0 0 1-.119-.29 1.208 1.208 0 0 1-.037-.317c0-.171.025-.326.082-.464a.992.992 0 0 1 .596-.587 1.28 1.28 0 0 1 .469-.08 2.992 2.992 0 0 1 .445.041 1.795 1.795 0 0 1 .317.094v.831a.852.852 0 0 0-.15-.113 1.62 1.62 0 0 0-.186-.094 1.05 1.05 0 0 0-.205-.061.883.883 0 0 0-.201-.022.54.54 0 0 0-.156.022.348.348 0 0 0-.225.186.393.393 0 0 0-.037.172.54.54 0 0 0 .031.178.501.501 0 0 0 .092.147c.039.044.09.09.148.129.064.042.133.086.213.133.148.085.273.171.375.258.105.086.191.178.258.273.066.096.113.196.144.3.031.103.047.214.047.332 0 .084-.008.169-.025.259z"/></g><g id="icon_x5F_fg"><path class="st4" d="M11 5V2H6v6h1V7h1v1h1.598l2.107-2H13v2h1V5h-3zM8 6H7V5h1v1zm0-2H7V3h1v1z"/><path class="st4" d="M12.028 8l.001-1-1.031 1z"/><g><path class="st4" d="M3.867 12.233a1.33 1.33 0 0 0-.256-.273 2.665 2.665 0 0 0-.376-.258 3.504 3.504 0 0 1-.211-.133.755.755 0 0 1-.151-.129.49.49 0 0 1-.086-.497.351.351 0 0 1 .226-.186.516.516 0 0 1 .156-.022 1.08 1.08 0 0 1 .406.083c.065.027.127.058.186.094a.817.817 0 0 1 .15.113v-.831a1.773 1.773 0 0 0-.527-.123 2.191 2.191 0 0 0-.231-.012c-.173 0-.331.025-.472.08a1.046 1.046 0 0 0-.363.229c-.1.1-.178.219-.232.358a1.265 1.265 0 0 0-.082.464c0 .112.013.218.037.317a.956.956 0 0 0 .123.29c.056.093.13.181.223.266.093.082.207.165.341.243.093.055.174.105.245.153.07.048.127.096.175.144.047.049.083.1.106.152a.505.505 0 0 1 .018.318.33.33 0 0 1-.194.214.49.49 0 0 1-.201.035 1.012 1.012 0 0 1-.465-.122 1.254 1.254 0 0 1-.386-.281v.849c.032.03.079.057.141.086a1.792 1.792 0 0 0 .445.124c.078.015.154.022.224.022.157 0 .296-.017.418-.048.121-.034.227-.079.318-.135a.909.909 0 0 0 .229-.194 1.063 1.063 0 0 0 .233-.496c.017-.09.025-.175.025-.259a1.077 1.077 0 0 0-.192-.635zM5.35 10.056l-1.139 3.877h.763l.22-.864h1.112l.222.864h.768l-1.112-3.877H5.35zm.006 2.298l.334-1.268a1.49 1.49 0 0 0 .035-.184c.007-.059.013-.104.015-.131h.018l.005.056.009.081c.003.029.008.063.014.096.006.032.012.065.02.093l.331 1.257h-.781zM9.41 12.233a1.342 1.342 0 0 0-.258-.273 2.696 2.696 0 0 0-.374-.258 3.961 3.961 0 0 1-.213-.133.748.748 0 0 1-.15-.129.498.498 0 0 1-.091-.147.49.49 0 0 1 .005-.35.325.325 0 0 1 .092-.118.37.37 0 0 1 .134-.068.505.505 0 0 1 .155-.022 1.138 1.138 0 0 1 .591.177.834.834 0 0 1 .152.113v-.831a1.73 1.73 0 0 0-.53-.123 2.163 2.163 0 0 0-.231-.012 1.29 1.29 0 0 0-.471.08 1.05 1.05 0 0 0-.364.229c-.1.1-.178.219-.232.358a1.245 1.245 0 0 0-.082.464c0 .112.013.218.037.317.025.102.066.197.122.29.057.093.131.181.224.266.093.082.206.165.341.243.093.055.174.105.244.153.069.048.128.096.176.144a.447.447 0 0 1 .143.331.595.595 0 0 1-.018.139.29.29 0 0 1-.067.123.354.354 0 0 1-.127.091.495.495 0 0 1-.202.035 1.027 1.027 0 0 1-.465-.122 1.254 1.254 0 0 1-.385-.281v.849a.54.54 0 0 0 .14.086c.062.027.13.052.208.072.076.022.156.04.238.052.08.015.156.022.227.022.158 0 .296-.017.417-.048.121-.034.229-.079.317-.135a.897.897 0 0 0 .23-.194c.063-.074.111-.153.15-.237a1.304 1.304 0 0 0 .06-.853 1.017 1.017 0 0 0-.143-.3zM11.809 12.233a1.289 1.289 0 0 0-.258-.273 2.487 2.487 0 0 0-.375-.258 4.955 4.955 0 0 1-.213-.133.761.761 0 0 1-.148-.129.523.523 0 0 1-.092-.147.512.512 0 0 1-.031-.178c0-.067.014-.124.037-.172a.336.336 0 0 1 .092-.118.381.381 0 0 1 .133-.068.507.507 0 0 1 .156-.022 1.124 1.124 0 0 1 .592.177.817.817 0 0 1 .15.113v-.831a1.73 1.73 0 0 0-.528-.123 2.263 2.263 0 0 0-.234-.012 1.28 1.28 0 0 0-.469.08 1.064 1.064 0 0 0-.365.229c-.1.1-.178.219-.231.358a1.206 1.206 0 0 0-.082.464c0 .112.01.218.037.317a.998.998 0 0 0 .119.29c.059.093.131.181.225.266.094.082.207.165.342.243.094.055.176.105.244.153s.129.096.176.144c.047.049.082.1.108.152a.447.447 0 0 1 .035.179.547.547 0 0 1-.018.139.326.326 0 0 1-.193.214.51.51 0 0 1-.203.035 1.043 1.043 0 0 1-.465-.122 1.326 1.326 0 0 1-.387-.281v.849c.033.03.08.057.141.086.063.027.133.052.209.072.074.022.156.04.236.052.082.015.158.022.228.022.158 0 .297-.017.418-.048.119-.034.227-.079.316-.135a.943.943 0 0 0 .232-.194c.059-.074.109-.153.149-.237a1.307 1.307 0 0 0 .108-.518 1.073 1.073 0 0 0-.191-.635z"/></g></g></svg>