<svg xmlns="http://www.w3.org/2000/svg" viewBox="0 0 16 16"><style>.icon-canvas-transparent{opacity:0;fill:#f6f6f6}.icon-vs-out{fill:#f6f6f6}.icon-vs-action-blue{fill:#00539c}</style><path class="icon-canvas-transparent" d="M16 16H0V0h16v16z" id="canvas"/><path class="icon-vs-out" d="M6.811 13.982c-3.136-.54-5.413-3.176-5.413-6.269 0-1.357.443-2.65 1.229-3.714h-.619V1h5.988v1.334L8.25.848l.987.17c3.136.54 5.412 3.176 5.412 6.268 0 1.36-.447 2.657-1.239 3.724h.593v2.994l-5.998-.04V12.94l-.208 1.213-.986-.171zm-1.79-8.186a3.252 3.252 0 0 0-.623 1.918c0 1.628 1.228 3.021 2.92 3.312l.687.117V8h3v1.229c.415-.558.645-1.23.645-1.943 0-1.628-1.229-3.021-2.92-3.311l-.734-.126V7H5.021V5.796z" id="outline"/><path class="icon-vs-action-blue" d="M8.898 2.989l.169-.986c2.655.457 4.582 2.679 4.582 5.283 0 1.977-1.123 3.78-2.911 4.724h2.265v.987l-3.998-.027V9h1v2.247s.095-.029.177-.079c1.505-.729 2.467-2.224 2.467-3.882 0-2.116-1.577-3.924-3.751-4.297zm-5.5 4.725c0-1.658.962-3.153 2.467-3.882.082-.05.156-.079.156-.079V6h.975V2H3.008v1H5.29c-1.787.945-2.892 2.737-2.892 4.714 0 2.604 1.927 4.826 4.582 5.283l.169-.986c-2.173-.374-3.751-2.181-3.751-4.297z" id="iconBg"/></svg>