<svg xmlns="http://www.w3.org/2000/svg" width="16" height="16" viewBox="0 0 16 16"><style>.icon-canvas-transparent{opacity:0;fill:#f6f6f6}.icon-vs-out{fill:#f6f6f6}.icon-vs-bg{fill:#424242}</style><path class="icon-canvas-transparent" d="M16 16H0V0h16v16z" id="canvas"/><path class="icon-vs-out" d="M16 7.5c0 1.378-1.121 2.5-2.5 2.5S11 8.878 11 7.5 12.121 5 13.5 5 16 6.122 16 7.5zM3.5 5C2.122 5 1 6.122 1 7.5S2.122 10 3.5 10 6 8.878 6 7.5 4.878 5 3.5 5zm5 0C7.122 5 6 6.122 6 7.5S7.122 10 8.5 10C9.879 10 11 8.878 11 7.5S9.879 5 8.5 5z" id="outline"/><path class="icon-vs-bg" d="M5 7.5a1.5 1.5 0 1 1-3 0 1.5 1.5 0 0 1 3 0zM8.5 6a1.5 1.5 0 1 0-.001 2.999A1.5 1.5 0 0 0 8.5 6zm5 0a1.5 1.5 0 1 0 0 3 1.5 1.5 0 0 0 0-3z" id="iconBg"/></svg>