<svg xmlns="http://www.w3.org/2000/svg" width="16" height="16"><style type="text/css">.icon-canvas-transparent{opacity:0;fill:#F6F6F6;} .icon-vs-out{fill:#F6F6F6;} .icon-vs-fg{fill:#F0EFF1;} .icon-vs-action-green{fill:#388A34;}</style><path class="icon-canvas-transparent" d="M16 16h-16v-16h16v16z" id="canvas"/><path class="icon-vs-out" d="M16 14h-4v2h-12v-16h16v14z" id="outline"/><path class="icon-vs-action-green" d="M15 1v12h-3v-1h2v-8h-12v.557c-.378.22-.713.498-1 .826v-4.383h14zm-14 7v7h10v-10h-7c-1.656 0-3 1.344-3 3zm9 6h-8v-6c0-1.104.896-2 2-2h6v8z" id="iconBg"/><path class="icon-vs-fg" d="M14 4v8h-2v-8h2zm-12 4v6h8v-8h-6c-1.104 0-2 .896-2 2zm4.27-1c.558 0 1.043.099 1.442.292l.095.048-.344 1.262-.138-.072c-.181-.092-.561-.249-1.072-.249-.459 0-.664.204-.664.406 0 .262.23.397.928.673 1.012.382 1.484.95 1.484 1.786 0 .855-.605 1.854-2.313 1.854-.66 0-1.294-.188-1.604-.363l-.084-.048.313-1.286.143.077c.299.16.797.331 1.305.331.222 0 .737-.047.737-.482 0-.223-.139-.41-.827-.653-1.053-.384-1.586-.982-1.586-1.78 0-1.059.898-1.796 2.185-1.796zm-4.27-3v.557c.591-.345 1.269-.557 2-.557h-2z" id="iconFg"/><path class="icon-vs-action-green" d="M4.085 8.795c0-1.058.898-1.795 2.185-1.795.558 0 1.043.099 1.442.292l.095.048-.344 1.262-.138-.072c-.181-.092-.561-.249-1.072-.249-.459 0-.664.204-.664.406 0 .262.23.397.928.673 1.012.382 1.484.95 1.484 1.786 0 .855-.605 1.854-2.313 1.854-.66 0-1.294-.188-1.604-.363l-.084-.048.313-1.286.143.077c.299.16.797.331 1.305.331.222 0 .737-.047.737-.482 0-.223-.139-.41-.827-.653-1.053-.385-1.586-.983-1.586-1.781z" id="notificationBg"/></svg>