<svg xmlns="http://www.w3.org/2000/svg" width="16" height="16"><style type="text/css">.icon-canvas-transparent{opacity:0;fill:#F6F6F6;} .icon-vs-out{fill:#F6F6F6;} .icon-vs-bg{fill:#424242;} .icon-vs-fg{fill:#F0EFF1;}</style><path class="icon-canvas-transparent" d="M16 16h-16v-16h16v16z" id="canvas"/><path class="icon-vs-out" d="M16 2v9h-3v4h-11v-5c-.553 0-1-.447-1-1v-8c0-.553.447-1 1-1h11v2h3z" id="outline"/><path class="icon-vs-bg" d="M15 3v7h-2v-7h2zm-3-2v13h-9v-5h-.25c-.414 0-.75-.336-.75-.75v-6.5c0-.414.336-.75.75-.75h9.25zm-4.858 1c.084.192.126.395.126.609 0 .195-.032.378-.093.549-.062.172-.15.326-.26.465s-.246.26-.4.364c-.155.103-.515.185-.515.243v.02c0 .033.469.095.666.188.197.093.37.212.508.359.138.146.244.317.316.513.074.195.11.412.11.649 0 .326-.063.614-.19.867-.127.252-.301.465-.52.64-.22.174-.477.306-.771.397-.295.092-.608.137-.94.137h3.259c.31 0 .562-.252.562-.562v-4.875c0-.311-.252-.563-.562-.563h-1.296zm-3.091 0v1.898h.747c.394 0 .699-.093.915-.278.217-.185.325-.449.325-.791 0-.277-.105-.491-.313-.642-.134-.098-.325-.152-.542-.187h-1.132zm-.051 5h1.032c.225 0 .421-.005.589-.062.167-.057.307-.112.417-.211.11-.099.193-.208.249-.343.056-.135.083-.263.083-.419 0-.332-.121-.559-.364-.749-.242-.191-.601-.216-1.076-.216h-.93v2zm1 5h-1v1h1v-1zm3 0h-1v1h1v-1zm3 0h-1v1h1v-1zm0-10h-1v6.25c0 .414-.336.75-.75.75h-5.25v2h7v-9z" id="iconBg"/><path class="icon-vs-fg" d="M7 12h1v1h-1v-1zm-3 1h1v-1h-1v1zm6 0h1v-1h-1v1zm-5.949-9.102h.747c.394 0 .699-.093.915-.278.217-.185.325-.449.325-.791 0-.277-.105-.491-.313-.642-.134-.098-.325-.152-.542-.187h-1.132v1.898zm.981 3.102c.225 0 .421-.005.589-.062.167-.057.307-.112.417-.211.11-.099.193-.208.249-.343.056-.135.083-.263.083-.419 0-.332-.121-.559-.364-.749-.242-.191-.601-.216-1.076-.216h-.93v2h1.032zm2.236-4.391c0 .195-.032.378-.093.549-.062.172-.15.326-.26.465s-.246.26-.4.364c-.155.103-.515.185-.515.243v.02c0 .033.469.095.666.188.197.093.37.212.508.359.138.146.244.317.316.513.074.195.11.412.11.649 0 .326-.063.614-.19.867-.127.252-.301.465-.52.64-.22.174-.477.306-.771.397-.295.092-.608.137-.94.137h3.259c.31 0 .562-.252.562-.562v-4.875c0-.311-.252-.563-.562-.563h-1.296c.084.192.126.395.126.609zm2.732-.609v6.25c0 .414-.336.75-.75.75h-5.25v2h7v-9h-1z" id="iconFg"/></svg>