<svg xmlns="http://www.w3.org/2000/svg" width="16" height="16" viewBox="0 0 16 16"><style type="text/css">.icon-canvas-transparent{opacity:0;fill:#F6F6F6;} .icon-vs-out{fill:#F6F6F6;} .icon-vs-action-blue{fill:#00539C;}</style><path class="icon-canvas-transparent" d="M16 16h-16v-16h16v16z" id="canvas"/><path class="icon-vs-out" d="M16 2v9h-4v3.001h-12v-10.989l9-.012v-1h7z" id="outline"/><g id="colorImportance"><path class="icon-vs-action-blue" d="M10 3v4.289l-3 2.525-1.993-2.21-3.007.886v-3.49h7v-1l-8 .01v8.99h10v-9h3v1.604l-.916-1.041-1.084 1.509v1.444l1.064-1.537.936.792v2.229h-2v1h3v-7h-5zm0 9h-8v-2.164l3-.814 2 2.313 3-2.425v3.09z"/></g></svg>