<svg xmlns="http://www.w3.org/2000/svg" width="16" height="16" viewBox="0 0 16 16"><style type="text/css">.icon-canvas-transparent{opacity:0;fill:#F6F6F6;} .icon-vs-out{fill:#F6F6F6;} .icon-vs-bg{fill:#424242;} .icon-vs-fg{fill:#F0EFF1;} .icon-vs-action-blue{fill:#00539C;}</style><path class="icon-canvas-transparent" d="M16 16h-16v-16h16v16z" id="canvas"/><path class="icon-vs-out" d="M16 0v16h-11v-2.376c-1.123-.003-2.79-.793-3.993-2.554-.85-1.237-1.186-2.649-.916-3.812-.122-2.181.886-3.343 1.764-3.938.485-.39 1.657-1.205 3.145-1.541v-1.779h11z" id="outline"/><path class="icon-vs-bg" d="M6 1v.644l.277-.019c.659 0 1.299.122 1.902.362l.028.013h5.793v10h-6.616l-.097.052c-.252.135-.492.26-.722.357-.031.137-.081.271-.146.401-.108.216-.253.389-.419.52v1.67h9v-14h-9zm2 13h-1v-1h1v1zm3 0h-1v-1h1v1zm3 0h-1v-1h1v1z" id="iconBg"/><path class="icon-vs-fg" d="M14 2v10h-6.616l.069-.037c.671-.269 1.182-.93 1.725-1.627.396-.512.889-1.146 1.221-1.262l.229-.01c1.111-.004 1.334-.632 1.365-1.006v-.33c-.008-1.271-.141-1.921-.141-1.921-.033-.095-.293-.775-.936-1.182-.165-.721-.754-1.838-2.709-2.625h5.793zm-4 12h1v-1h-1v1zm-3 0h1v-1h-1v1zm6 0h1.001v-1h-1.001v1z" id="iconFg"/><g id="colorImportance"><path class="icon-vs-action-blue" d="M10.67 6.9c-.635-.522-1.271-.505-1.525-.516.342-.091.779-.04.951-.662.127-.161.947.371.947.371s-.26-.733-.926-.882c.014-.163.059-1.507-2.256-2.427-2.789-1.112-5.464 1.207-5.525 1.247-.997.673-1.501 1.756-1.38 3.308-.213.745-.131 1.952.759 3.247 1.196 1.75 2.854 2.359 3.642 2.139.241-.067.509-.564.349-.981.361.054 1.232-.497 1.428-.576.959-.385 1.886-2.522 2.994-2.906.4-.139.98.082 1.012-.277.024-.285-.064-.751-.47-1.085m-4.698-3.288c2.855-.328 3.493.941 3.481 1.483 0 .031-1.362.011-2.556 1.357-1.084-.421-1.687-1.105-3.563-.903-.496.054-.683.174-1.002.352-.236-.129-.271-.564-.057-.971 0 0 .752-1.164 3.697-1.318m-2.813 7.742c-.534-.202-1.64-1.144-1.274-2.674.353-.01 1.148.361 1.408.685.67.834.78 1.393.724 1.774-.079.532-.755.215-.858.215m1.216-1.411c-.385-.82-.625-2.177-1.484-2.72.514-.684 2.607-.184 3.537-.214-.537.558-.831.937-1.18 2.101-.102.338-.588 1.088-.873.833m4.9-2.313c-.848.313-1.479 1.101-1.691 1.371-.473.614-.965 1.673-1.855 1.727l-.006-.091c-.01-.219.01-.462.05-.693.279-.381.665-1.034.91-1.346.964-1.239 2.135-1.935 2.174-1.986.152.02.988.051 1.225.311.471.518-.271.508-.807.707"/></g></svg>