<svg xmlns="http://www.w3.org/2000/svg" viewBox="0 0 16 16"><style>.icon-canvas-transparent{opacity:0;fill:#f6f6f6}.icon-vs-out{fill:#f6f6f6}.icon-vs-fg{fill:#f0eff1}.icon-folder{fill:#dcb67a}.icon-vs-red{fill:#e51400}.icon-white{fill:#fff}</style><path class="icon-canvas-transparent" d="M16 16H0V0h16v16z" id="canvas"/><path class="icon-vs-out" d="M16 2.5v10c0 .827-.673 1.5-1.5 1.5H8.24a4.501 4.501 0 0 1-8.242-2.5C-.002 10.435 0 9.469 1 8.699V4.5C1 3.673 1.677 3 2.504 3H5.39l1-2h8.11c.827 0 1.5.673 1.5 1.5z" id="outline"/><path class="icon-folder" d="M14.5 2H7.008l-1 2H2.504A.503.503 0 0 0 2 4.5v3.258C3 7.28 3.574 7 4.498 7a4.501 4.501 0 0 1 4.501 4.5c0 .529-.107 1.029-.275 1.5H14.5a.5.5 0 0 0 .5-.5v-10a.5.5 0 0 0-.5-.5zM14 4H7.508l.5-1H14v1z" id="iconBg"/><path class="icon-vs-fg" d="M14 3v1H7.5L8 3h6z" id="iconFg"/><path class="icon-vs-red" d="M4.5 8a3.5 3.5 0 1 0 0 7 3.5 3.5 0 0 0 0-7zm1.853 4.646l-.707.707L4.5 12.207l-1.146 1.147-.707-.707L3.793 11.5l-1.146-1.146.707-.707L4.5 10.793l1.146-1.147.707.707L5.207 11.5l1.146 1.146z" id="notificationBg"/><path class="icon-white" d="M5.207 11.5l1.146 1.146-.707.707L4.5 12.207l-1.146 1.147-.707-.707L3.793 11.5l-1.146-1.146.707-.707L4.5 10.793l1.146-1.147.707.707L5.207 11.5z" id="notificationFg"/></svg>