<svg xmlns="http://www.w3.org/2000/svg" viewBox="0 0 16 16"><style>.icon-canvas-transparent{opacity:0;fill:#f6f6f6}.icon-vs-out{fill:#f6f6f6}.icon-vs-bg{fill:#424242}.icon-vs-fg{fill:#f0eff1}.icon-visualstudio{fill:#68217a}</style><path class="icon-canvas-transparent" d="M16 16H0V0h16v16z" id="canvas"/><path class="icon-vs-out" d="M11.621 0H3v7.586l-1-1-2 2v4.828l2 2 1-1V16h13V4.379z" id="outline"/><path class="icon-vs-bg" d="M5.586 15H4v-1.586L5.586 15zM15 4.793V15H9.236l.764-.382V14h4V6h-4V2H5v5.586l-1 1V1h7.207L15 4.793zM13.793 5L11 2.207V5h2.793zM10 7.382V7h-.764l.764.382zM6.803 5.783L7.236 6H9V5H6v1h.586l.217-.217zM11 7v1h1V7h-1zm0 5h1v-1h-1v1zm0-2h1V9h-1v1z" id="iconBg"/><path class="icon-vs-fg" d="M13.793 5H11V2.207L13.793 5zM14 6v8h-4V7h-.764l-2-1H9V5H6v1h.586L5 7.586V2h5v4h4zm-2 5h-1v1h1v-1zm0-2h-1v1h1V9zm0-2h-1v1h1V7z" id="iconFg"/><path class="icon-visualstudio" d="M7 7l-3 3-2-2-1 1v4l1 1 2-2 3 3 2-1V8L7 7zm-5 5v-2l1 1-1 1zm3-1l2-2v4l-2-2z" id="colorImportance"/></svg>