<svg xmlns="http://www.w3.org/2000/svg" viewBox="0 0 16 16"><style>.st0{opacity:0}.st0,.st1{fill-rule:evenodd;clip-rule:evenodd;fill:#f6f6f6}.st2{fill:#424242}.st3{fill-rule:evenodd;clip-rule:evenodd;fill:#217346}.st4{fill:#fff}</style><g id="outline"><path class="st0" d="M0 0h16v16H0z"/><path class="st1" d="M16 11.601L12.38 8H11V.002L0 1.654v12.664l8.042 1.197-.498.485h4.839L16 12.354z"/></g><path class="st2" d="M11.959 11.016l-2-2h2l3 2.965-3 3h-2l2-2H9v-1.965h2.959z" id="icon_x5F_bg"/><path class="st3" d="M9.545 14H8v-2.209l-1.703-.099-1.068-2.385a.823.823 0 0 1-.057-.182c-.013-.039-.025.002-.033-.047C5.127 9.029 5.117 9 5.104 9h-.017c-.006 0-.01-.028-.022.006-.008.033-.018.029-.029.068-.012.042-.023.065-.037.114-.015.047-.033.09-.054.143L3.92 11.564l-1.526-.091 1.822-3.41-1.672-3.417 1.567-.089.854 2.081c.019.043.035.087.053.133.015.047.033.095.045.144.017.05.029-.015.043.038.015.054.03.047.041.047h.018c.008 0 .019.043.031.001.011-.045.024-.034.041-.085.018-.054.033-.079.055-.141.02-.061.041-.112.063-.181l.987-2.176 1.627-.091L6.037 8.03 8 11.748V10h1.545L7.917 8H10V1.187L1 2.549v10.9l7.899 1.196.646-.645z" id="color_x5F_decoration"/><path class="st4" d="M7.969 4.332l-1.627.094-.987 2.183-.063.196c-.022.061-.037.116-.055.17-.017.051-.03.099-.041.144a1.298 1.298 0 0 0-.031.117h-.018c-.011-.058-.026-.111-.041-.166-.014-.052-.026-.105-.043-.154-.012-.049-.03-.097-.045-.144-.018-.047-.034-.091-.053-.134l-.853-2.081-1.568.089 1.672 3.416-1.822 3.409 1.526.088L4.945 9.32c.021-.053.039-.106.054-.154.015-.049.025-.093.037-.135.012-.039.021-.078.029-.112.012-.033.016-.064.022-.092h.017c.013.06.023.116.035.165.008.049.02.094.033.133a.823.823 0 0 0 .057.181l1.068 2.386 1.727.101-1.987-3.761 1.932-3.7" id="not_x5F_fg"/></svg>