<svg xmlns="http://www.w3.org/2000/svg" viewBox="0 0 16 16"><style>.icon-canvas-transparent{opacity:0;fill:#f6f6f6}.icon-vs-out{fill:#f6f6f6}.icon-vs-bg{fill:#424242}.icon-vs-fg{fill:#f0eff1}</style><path class="icon-canvas-transparent" d="M16 16H0V0h16v16z" id="canvas"/><path class="icon-vs-out" d="M16 3.556V12c0 .97-.701 2-2 2h-3v2H0V9.4C0 7.525 1.525 6 3.4 6H4V2C4 .701 5.03 0 6 0h6.061L16 3.556z" id="outline"/><g id="iconBg"><path class="icon-vs-bg" d="M11.641 1H5.964S5 1 5 2v4h1V2h5v3h3v7h-3v1h2.965c1 0 1.035-1 1.035-1V4l-3.359-3z"/><path class="icon-vs-bg" d="M3.4 7A2.4 2.4 0 0 0 1 9.4V15h9V7H3.4zM9 14H2V9.4C2 8.517 2.518 8 3.4 8H9v6z"/></g><g id="iconFg"><path class="icon-vs-fg" d="M11 5V2H6v4h5v6h3V5z"/><path class="icon-vs-fg" d="M9 14H2V9.4C2 8.517 2.518 8 3.4 8H9v6z"/></g><path class="icon-vs-bg" d="M6.169 13L5.6 11l-.519 2H3.919l-.683-4h.719l.535 3 .929-3h.411l.929 3 .535-3h.719l-.683 4H6.169z" id="colorImportance"/></svg>