<svg xmlns="http://www.w3.org/2000/svg" viewBox="0 0 16 16"><style>.icon-canvas-transparent{opacity:0;fill:#f6f6f6}.icon-vs-out{fill:#f6f6f6}.icon-vs-bg{fill:#424242}.icon-vs-fg{fill:#f0eff1}.icon-vs-action-blue{fill:#00539c}</style><path class="icon-canvas-transparent" d="M16 16H0V0h16v16z" id="canvas"/><path class="icon-vs-out" d="M8.604 4L7.132 2.527 6 3.655V0H3v3.672L1.851 2.527 0 4.378v.537l2 2.008V16h14V4H8.604zM13 13H5V8.899L6.899 7H13v6z" id="outline"/><path class="icon-vs-fg" d="M14 6v8H4V8.931l.483.485L4.899 9 7 6.899 7.899 6H14z" id="iconFg"/><path class="icon-vs-bg" d="M15 5v10H3V7.927l1 1.004V14h10V6H7.899l1-1H15zm-2 6.66l-1.972-2.761-2.604 3.367a.5.5 0 0 1-.403.234.485.485 0 0 1-.42-.2l-1.154-1.538L5 12.207V13h8v-1.34zM6.536 9.502c.145.01.277.082.363.198l1.063 1.417 2.614-3.382a.5.5 0 0 1 .831-.026L13 9.939V7H6.899L5 8.899v1.894l1.146-1.146a.492.492 0 0 1 .39-.145z" id="iconBg"/><path class="icon-vs-action-blue" d="M5 6.063V1H4v5.081l-2.148-2.14-.707.707L4.485 8l3.352-3.352-.707-.707L5 6.063z" id="colorAction"/></svg>