<svg xmlns="http://www.w3.org/2000/svg" viewBox="0 0 16 16"><style>.st0{fill:#f6f6f6}.st1{fill:#424242}.st2{fill-rule:evenodd;clip-rule:evenodd;fill:#217346}.st3{fill:#fff}.st4{fill:#f0eff1}</style><path class="st0" d="M16 0H4v4.384l-4 .571v9.756L9 16v-5h7z" id="outline"/><path class="st1" d="M5 1v3.242l1-.143V4h.692L9 3.668V4h2v1H9v1h2v1H9v1h2v1H9v1h6V1H5zm9 8h-2V8h2v1zm0-2h-2V6h2v1zm0-2h-2V4h2v1z" id="icon_x5F_bg"/><g id="color_x5F_decoration"><path class="st2" d="M8.019 4.82L1 5.822v8.022l7.019 1.004V4.82z"/><path class="st3" d="M6.428 7.069l-1.198.07-.728 1.609-.047.143-.039.125c-.013.039-.022.074-.031.106a.652.652 0 0 0-.022.087H4.35c-.009-.043-.02-.082-.03-.122-.011-.039-.021-.078-.033-.114-.01-.037-.022-.073-.033-.106-.014-.035-.025-.066-.039-.098l-.628-1.535-1.155.067 1.231 2.517-1.342 2.511 1.124.064.756-1.649c.015-.039.028-.078.038-.113.011-.035.019-.068.027-.1.01-.029.016-.057.022-.082.008-.025.012-.047.017-.068h.013l.024.121c.007.037.015.07.024.099.007.03.013.056.021.078a.3.3 0 0 0 .021.056l.787 1.758 1.272.074-1.463-2.772 1.424-2.726"/></g><path class="st4" d="M14 5h-2V4h2v1zm0 1h-2v1h2V6zm-3-2H9v1h2V4zm0 2H9v1h2V6zm3 2h-2v1h2V8zm-3 0H9v1h2V8z" id="icon_x5F_fg"/><path class="st3" d="M6.39 7.073l-1.197.07-.726 1.606-.047.144c-.016.045-.026.086-.04.125a.963.963 0 0 0-.03.105c-.01.031-.018.062-.024.087h-.013c-.008-.042-.02-.081-.03-.122a2.603 2.603 0 0 0-.031-.113c-.009-.037-.023-.073-.033-.107L4.18 8.77l-.628-1.532-1.154.067 1.23 2.514-1.341 2.508 1.123.064.754-1.647c.016-.039.028-.078.039-.113.011-.036.019-.068.027-.1a.843.843 0 0 0 .021-.083c.009-.024.012-.048.017-.067h.013l.025.121a.703.703 0 0 0 .024.098.507.507 0 0 0 .021.078.3.3 0 0 0 .021.056l.786 1.755 1.27.074-1.46-2.768L6.39 7.073" id="not_x5F_fg"/></svg>