<svg xmlns="http://www.w3.org/2000/svg" viewBox="0 0 16 16"><style>.icon-canvas-transparent{opacity:0;fill:#f6f6f6}.icon-vs-out{fill:#f6f6f6}.icon-vs-bg{fill:#424242}.icon-disabled-grey{fill:#848484}.icon-vs-blue{fill:#1ba1e2}.icon-white{fill:#fff}</style><path class="icon-canvas-transparent" d="M16 0v16H0V0h16z" id="canvas"/><path class="icon-vs-out" d="M15.681 7.679L15 8.858V12.5c0 1.379-1.121 2.5-2.5 2.5h-1.071a2.34 2.34 0 0 1-1.924 1.001c-.413 0-.823-.11-1.185-.32L7.141 15H3.5A2.503 2.503 0 0 1 1 12.5v-1.07a2.355 2.355 0 0 1-.68-3.111L1 7.14V3.5C1 2.122 2.122 1 3.5 1h1.071A2.35 2.35 0 0 1 7.68.318L8.861 1H12.5C13.879 1 15 2.122 15 3.5v1.071a2.37 2.37 0 0 1 .681 3.108z" id="outline"/><g id="iconFg"><path class="icon-white" d="M3.5 3a.5.5 0 0 0-.5.5v9c0 .275.225.5.5.5h9c.275 0 .5-.225.5-.5v-9a.5.5 0 0 0-.5-.5h-9z"/><path class="icon-disabled-grey" d="M12.5 2h-9C2.673 2 2 2.673 2 3.5v9c0 .827.673 1.5 1.5 1.5h9c.827 0 1.5-.673 1.5-1.5v-9c0-.827-.673-1.5-1.5-1.5zm.5 10.5c0 .275-.225.5-.5.5h-9a.501.501 0 0 1-.5-.5v-9a.5.5 0 0 1 .5-.5h9a.5.5 0 0 1 .5.5v9z"/><path class="icon-vs-bg" d="M1.185 8.821L2 7.409v3.469l-.314-.181a1.358 1.358 0 0 1-.639-.833 1.359 1.359 0 0 1 .138-1.043zm5.993-7.637a1.357 1.357 0 0 0-1.042-.137c-.354.095-.65.322-.832.64L5.123 2h3.47l-1.415-.816zm1.643 13.631a1.357 1.357 0 0 0 1.042.138c.355-.095.651-.322.833-.639l.181-.314H7.409l1.412.815zm5.493-9.512L14 5.122v3.47l.815-1.412a1.376 1.376 0 0 0-.501-1.877z"/></g><path class="icon-vs-blue" d="M9.818 4L6.182 7.636 8 8.727 6.182 12l3.636-3.636L8 7.273z" id="iconBg"/></svg>