<svg xmlns="http://www.w3.org/2000/svg" viewBox="0 0 16 16"><style>.st0{opacity:0}.st0,.st1{fill:#f6f6f6}.st2{fill:#424242}.st3{fill:#f0eff1}</style><g id="outline"><path class="st0" d="M0 0h16v16H0z"/><circle class="st1" cx="8" cy="8" r="8"/></g><path class="st2" d="M8 1a7 7 0 1 0 0 14A7 7 0 0 0 8 1zm4 11H8.464L7.05 10.586h2.121L5.417 6.831l-.002 2.118L4 7.536V4h3.536L8.95 5.414l-2.119.003 3.755 3.755V7.05L12 8.465V12z" id="icon_x5F_bg"/><path class="st3" d="M10.586 9.172L6.831 5.417l2.119-.003L7.536 4H4v3.536l1.415 1.413.002-2.118 3.754 3.755H7.05L8.464 12H12V8.465L10.586 7.05z" id="icon_x5F_fg"/></svg>