<svg xmlns="http://www.w3.org/2000/svg" width="16" height="16"><style type="text/css">.icon-canvas-transparent{opacity:0;fill:#F6F6F6;} .icon-vs-out{fill:#F6F6F6;} .icon-vs-fg{fill:#F0EFF1;} .icon-vs-action-green{fill:#388A34;}</style><path class="icon-canvas-transparent" d="M16 16h-16v-16h16v16z" id="canvas"/><path class="icon-vs-out" d="M16 15h-4v1h-12v-16h16v15z" id="outline"/><g id="iconBg"><path class="icon-vs-fg" d="M4 4h-2v.556c.591-.344 1.268-.556 2-.556z"/><path class="icon-vs-action-green" d="M5 2v-1h1v1h-1zm-1 0v-1h-1v1h1zm4 0v-1h-1v1h1zm-6-1h-1v1h1v-1zm10 1v-1h-1v1h1zm-2 1h-1v1h1v-1zm-8 1v-1h-1v2.382c.286-.328.622-.605 1-.826v-.556zm2-1h-1v1h1v-1zm6-1v-1h-1v1h1zm-2 1h-1v1h1v-1zm-2 0h-1v1h1v-1zm8 10h1v-1h-1v1zm-1-9h1v-1h-1v1zm-8 6l-2 3h2l1-1.5 1 1.5h2l-2-3 2-3h-2l-1 1.5-1-1.5h-2l2 3zm9-3h1v-1h-1v1zm0-4h1v-1h-1v1zm-1-2v1h1v-1h-1zm2 4v-1h-1v1h1zm-1 4h1v-1h-1v1zm-10-4h7v10h-10v-7c0-1.657 1.343-3 3-3zm6 1h-6c-1.103 0-2 .897-2 2v6h8v-8zm2-3h-1v1h1v-1zm2 8h1v-1h-1v1zm-1 3h1v-1h-1v1z"/></g><g id="iconFg"><path class="icon-vs-fg" d="M14 4v9h-2v-9h2zm-10 2h6v8h-8v-6c0-1.103.897-2 2-2zm1 1h-2l2 3-2 3h2l1-1.5 1 1.5h2l-2-3 2-3h-2l-1 1.5-1-1.5z"/></g></svg>