<svg xmlns="http://www.w3.org/2000/svg" viewBox="0 0 16 16"><defs><style>.icon-canvas-transparent{fill:#f6f6f6;opacity:0}.a{fill:#fff}.icon-vs-red{fill:#e51400}</style></defs><title>RemoteServerOffline_white_16x</title><path class="icon-canvas-transparent" d="M16 0v16H0V0z"/><path class="a" d="M13 1H2v4h11zm-1 3h-2V3h2zm3.917 5.507L13.5 7.088l-.5.5V6H2v4h5.579l1.014 1H2v4h6.582l.916.916.916-.916h2.168l.916.916 2.409-2.409-2-2.022zM11.414 14l.084-.084.084.084zM12 8.586L11.586 9h-.176l-1-1H12z"/><path class="icon-vs-red" d="M12.5 11.475l2 2.027-1 1-2-2-2 2-1-1 2-2.027-2-1.975 1-1 2 2 2-2 1 1z"/></svg>