<svg xmlns="http://www.w3.org/2000/svg" viewBox="0 0 16 16"><style>.icon-vs-fg{fill:#f0eff1}.icon-vs-bg{fill:#424242}.icon-vs-out,.st0{fill:#f6f6f6}.st0{opacity:0}.st1{fill:#f0eff1}</style><g id="outline"><path class="st0" d="M0 0h16v16H0z"/><path class="icon-vs-out" d="M16 5V3c0-1.654-1.346-3-3-3H6C3.794 0 2 1.794 2 4v4H0v8h14V8h-1V5h3z"/></g><g id="iconBg"><path class="icon-vs-bg" d="M13 1H6a3 3 0 0 0-3 3v4h2V4a1 1 0 0 1 1-1h5v5h1V4h3V3a2 2 0 0 0-2-2zM1 9v6h12V9H1z"/><path class="st1" d="M3.477 12.835a2.253 2.253 0 0 1-.065.379c-.031.12-.075.232-.132.336a.95.95 0 0 1-.541.449 1.37 1.37 0 0 1-.567.055 4.856 4.856 0 0 1-.128-.023 1.902 1.902 0 0 1-.231-.076v-.728c.054.032.115.06.186.084.07.023.145.036.223.036.1 0 .182-.021.247-.062a.432.432 0 0 0 .154-.177c.037-.076.064-.17.08-.281s.023-.238.023-.381v-2.435h.77v2.424a4.846 4.846 0 0 1-.019.4zM5.983 13.994l-.223-.978h-.993l-.228.978h-.803l1.105-3.981h.892l1.058 3.981h-.808zm-.63-2.843a6.046 6.046 0 0 1-.045-.286l-.017-.135a.59.59 0 0 0-.013-.079h-.017l-.011.076-.02.126-.025.144a1.463 1.463 0 0 1-.03.132l-.294 1.285h.749l-.277-1.263zM9.89 11.953c0 .298-.035.572-.104.822s-.171.465-.308.646a1.422 1.422 0 0 1-.516.422 1.624 1.624 0 0 1-.723.151H7.171v-3.981h1.058c.26 0 .491.035.696.106.204.071.378.185.521.339s.253.355.329.602.115.544.115.893zm-.797.012c0-.157-.014-.313-.041-.468a1.342 1.342 0 0 0-.139-.416.807.807 0 0 0-.263-.295.705.705 0 0 0-.41-.112h-.302v2.659h.308c.145 0 .27-.034.375-.103s.193-.163.264-.284.123-.266.157-.434c.033-.166.051-.35.051-.547zM10.422 13.994v-3.981h1.83v.661h-1.063v.993h.996v.661h-.996v1.005h1.133v.661h-1.9z"/></g><g id="iconFg"><path class="icon-vs-fg" d="M11 8V3H6a1 1 0 0 0-1 1v4h6z"/><path class="st1" d="M3.477 12.835a2.253 2.253 0 0 1-.065.379c-.031.12-.075.232-.132.336a.95.95 0 0 1-.541.449 1.37 1.37 0 0 1-.567.055 4.856 4.856 0 0 1-.128-.023 1.902 1.902 0 0 1-.231-.076v-.728c.054.032.115.06.186.084.07.023.145.036.223.036.1 0 .182-.021.247-.062a.432.432 0 0 0 .154-.177c.037-.076.064-.17.08-.281s.023-.238.023-.381v-2.435h.77v2.424a4.846 4.846 0 0 1-.019.4zM5.983 13.994l-.223-.978h-.993l-.228.978h-.803l1.105-3.981h.892l1.058 3.981h-.808zm-.63-2.843a6.046 6.046 0 0 1-.045-.286l-.017-.135a.59.59 0 0 0-.013-.079h-.017l-.011.076-.02.126-.025.144a1.463 1.463 0 0 1-.03.132l-.294 1.285h.749l-.277-1.263zM9.89 11.953c0 .298-.035.572-.104.822s-.171.465-.308.646a1.422 1.422 0 0 1-.516.422 1.624 1.624 0 0 1-.723.151H7.171v-3.981h1.058c.26 0 .491.035.696.106.204.071.378.185.521.339s.253.355.329.602.115.544.115.893zm-.797.012c0-.157-.014-.313-.041-.468a1.342 1.342 0 0 0-.139-.416.807.807 0 0 0-.263-.295.705.705 0 0 0-.41-.112h-.302v2.659h.308c.145 0 .27-.034.375-.103s.193-.163.264-.284.123-.266.157-.434c.033-.166.051-.35.051-.547zM10.422 13.994v-3.981h1.83v.661h-1.063v.993h.996v.661h-.996v1.005h1.133v.661h-1.9z"/></g></svg>