<svg xmlns="http://www.w3.org/2000/svg" viewBox="0 0 16 16"><style>.icon-canvas-transparent{opacity:0;fill:#f6f6f6}.icon-white{fill:#fff}.icon-visualstudio{fill:#68217a}</style><path class="icon-canvas-transparent" d="M16 16H0V0h16v16z" id="canvas"/><path class="icon-visualstudio" d="M16 1.852v12.297c0 .623-.422 1.164-1.026 1.316l-2.132.524-.209.011c-.312 0-.616-.108-.857-.306l-6.001-4.85-2.635 1.927a1.333 1.333 0 0 1-.814.271 1.35 1.35 0 0 1-.752-.228l-.053-.035-.983-.853A1.355 1.355 0 0 1 0 10.844V5.156c0-.429.2-.828.54-1.083l.984-.854.056-.036a1.356 1.356 0 0 1 1.601.079l2.595 1.894L11.78.303c.242-.197.545-.303.853-.303h.123l.207.041 2.005.493C15.578.687 16 1.229 16 1.852z" id="outline"/><path class="icon-white" d="M14.73 1.505l-2.009-.494a.358.358 0 0 0-.313.069L6.02 6.242a.358.358 0 0 1-.449.001l-3.02-2.206a.363.363 0 0 0-.422-.02l-.968.84A.358.358 0 0 0 1 5.156v5.688c0 .12.06.232.161.299l.968.84a.355.355 0 0 0 .421-.02l3.02-2.206a.356.356 0 0 1 .449.001l6.388 5.163a.358.358 0 0 0 .313.069l2.009-.494a.357.357 0 0 0 .27-.347V1.852a.355.355 0 0 0-.269-.347zM2.75 9.65v-3.3l2.246 1.651L2.75 9.65zm10.5 3.017c0 .321-.205.42-.456.22L7.117 8.363c-.251-.2-.251-.527 0-.727l5.677-4.523c.251-.2.456-.101.456.22v9.334z" id="iconBg"/></svg>