<svg xmlns="http://www.w3.org/2000/svg" viewBox="0 0 16 16"><style>.st0{fill:#f6f6f6}.st1{fill:#e04c06}.st2{fill:#f0eff1}</style><path class="st0" d="M16 5.382L12.315 0H3.76L0 5.507v.398L1.603 15h13.046L16 5.763z" id="outline"/><g id="icon_x5F_bg"><path class="st1" d="M11.788.981h-7.5L1 5.797l1.442 8.184h2.121v-2H6.34v2h4v-2h1.663v2h1.782L15 5.672 11.788.981zm.167 10H4.377l-.88-5.25 1.658-2.75H7.34v2h2v-2h1.846l1.545 2.75-.776 5.25z"/><ellipse class="st1" cx="6.173" cy="8.179" rx=".339" ry="1.074"/><ellipse class="st1" cx="10.394" cy="8.179" rx=".339" ry="1.074"/></g><path class="st2" d="M11.186 2.981H9.34v2h-2v-2H5.155l-1.658 2.75.931 5.25h7.527l.775-5.25-1.544-2.75zM6.173 9.253c-.188 0-.339-.481-.339-1.074 0-.594.152-1.075.339-1.075s.339.48.339 1.075c0 .592-.152 1.074-.339 1.074zm4.221 0c-.188 0-.339-.481-.339-1.074 0-.594.151-1.075.339-1.075s.339.48.339 1.075c-.001.592-.152 1.074-.339 1.074z" id="icon_x5F_fg"/></svg>