<svg xmlns="http://www.w3.org/2000/svg" viewBox="0 0 16 16"><style>.st0{opacity:0;fill:#f6f6f6}.st1,.st2{fill-rule:evenodd;clip-rule:evenodd;fill:#f6f6f6}.st2{fill:#a4373a}.st3{fill:#fff}</style><g id="outline"><path class="st0" d="M0 0h16v16H0z"/><path class="st1" d="M3 14.31V1.689L14 .024v15.952z"/></g><g id="color_x5F_decoration"><path class="st2" d="M4 2.549v10.9l9 1.363V1.187L4 2.549zm5.98 8.93l-.441-1.714-2.118-.073-.401 1.605-1.354-.082 2.041-7.239 1.592-.098 2.257 7.698-1.576-.097z"/><path class="st2" d="M8.55 5.637a4.326 4.326 0 0 1-.032-.183c-.01-.062-.018-.155-.025-.222C8.486 5.166 8.481 5 8.476 5h-.038c-.005 0-.01.157-.018.22a4.248 4.248 0 0 1-.024.201 3.933 3.933 0 0 1-.075.369L7.6 8.633l.1-.206 1.622.229-.734-2.846a6.453 6.453 0 0 1-.038-.173z"/></g><path class="st3" d="M7.6 8.635l.722-2.841c.015-.058.027-.117.04-.177.013-.06.025-.121.035-.182.009-.062.018-.124.025-.187.008-.063.013-.127.018-.192l.037-.001c.005.07.01.139.018.205a4.326 4.326 0 0 0 .093.55l.733 2.848-1.621-.23m1.599-4.551l-1.592.099-2.041 7.239 1.354.082.401-1.605 2.118.072.441 1.714 1.575.097-2.256-7.698" id="not_x5F_fg"/></svg>