<svg xmlns="http://www.w3.org/2000/svg" viewBox="0 0 16 16"><style>.icon-canvas-transparent{opacity:0;fill:#f6f6f6}.icon-vs-action-blue{fill:#00539c}.icon-vs-fg{fill:#f0eff1}.icon-vs-bg{fill:#424242}.icon-vs-out{fill:#f6f6f6}</style><path class="icon-canvas-transparent" d="M16 16H0V0h16v16z" id="canvas"/><path class="icon-vs-out" d="M15 4.379V16H2V8.649C.822 8.085 0 6.891 0 5.5s.822-2.585 2-3.149V0H10.621L15 4.379z" id="outline"/><path class="icon-vs-bg" d="M10.207 1H7.445l1.001 1H9v.553l.963.962L9 4.474V6h4v8H4V9h-.5c-.171 0-.335-.027-.5-.051V15h11V4.793L10.207 1zM10 5V2.207L12.793 5H10z" id="iconBg"/><path class="icon-vs-fg" d="M8.446 2H9v.553L8.446 2zM10 2.207V5h2.793L10 2.207zM9 6V4.474l-3.085 3.07-.705-.668L5 6.667V9H4v5h9V6H9z" id="iconFg"/><path class="icon-vs-action-blue" d="M1 5.5A2.5 2.5 0 0 1 3.5 3h3.125L5.243 1.611 5.931.9l.012.012.001-.001 2.603 2.603L5.898 6.15l-.009-.009-.691-.691L6.64 4H3.5C2.673 4 2 4.673 2 5.5S2.673 7 3.5 7H4v1h-.5A2.5 2.5 0 0 1 1 5.5z" id="colorAction"/></svg>