<svg xmlns="http://www.w3.org/2000/svg" viewBox="0 0 16 16"><style>.icon-canvas-transparent{opacity:0;fill:#f6f6f6}.icon-vs-out{fill:#f6f6f6}.icon-vs-bg{fill:#424242}.icon-vs-fg{fill:#f0eff1}.icon-office15{fill:#dc3c00}</style><path class="icon-canvas-transparent" d="M16 16H0V0h16v16z" id="canvas"/><path class="icon-vs-out" d="M16 14H9v1.231L6.292 16H4.513L.5 14H0V1h16v13z" id="outline"/><path class="icon-vs-bg" d="M15 2v11H9v-1h5V5H2v1.363l-1 .448V2h14z" id="iconBg"/><path class="icon-vs-fg" d="M2 6.363V5h3.042L2 6.363zM5.42 5L9 6.045V12h5V5H5.42z" id="iconFg"/><path class="icon-office15" d="M8 14.477l-2.711.771-4.24-1.929 4.297.772V7.542l-2.754.771v4.441l-1.542.565V7.906l4.24-1.909L8 6.794v7.683z" id="colorImportance"/></svg>