<svg xmlns="http://www.w3.org/2000/svg" viewBox="0 0 16 16"><style>.icon-canvas-transparent{opacity:0;fill:#f6f6f6}.icon-vs-out{fill:#f6f6f6}.icon-vs-bg{fill:#424242}.icon-vs-fg{fill:#f0eff1}</style><path class="icon-canvas-transparent" d="M16 16H0V0h16v16z" id="canvas"/><path class="icon-vs-out" d="M11.621 0H3v4.142c-1.72.447-3 2-3 3.858 0 1.339.662 2.563 1.737 3.299L.941 16H16V4.379L11.621 0z" id="outline"/><path class="icon-vs-bg" d="M11.207 1H4v3c.347 0 .678.058 1 .142V2h5v4h4v8H6.821l.199 1H15V4.793L11.207 1zM11 5V2.207L13.793 5H11zM7 8a3 3 0 1 0-4.158 2.767L2.125 15H2.5L4 13l1.625 2H6l-.842-4.233A3.002 3.002 0 0 0 7 8zM4 9.499a1.5 1.5 0 1 1 0-3 1.5 1.5 0 0 1 0 3z" id="iconBg"/><g id="iconFg"><path class="icon-vs-fg" d="M11 2.207V5h2.793z"/><path class="icon-vs-fg" d="M10 6V2H5v2.142c1.72.447 3 2 3 3.858a3.989 3.989 0 0 1-1.719 3.286L6.821 14H14V6h-4z"/><path class="icon-vs-fg" d="M11 2.207V5h2.793z"/><path class="icon-vs-fg" d="M10 6V2H5v2.142c1.72.447 3 2 3 3.858a3.989 3.989 0 0 1-1.719 3.286L6.821 14H14V6h-4z"/></g></svg>