<svg xmlns="http://www.w3.org/2000/svg" viewBox="0 0 16 16"><style>.icon-canvas-transparent{opacity:0;fill:#f6f6f6}.icon-vs-out{fill:#f6f6f6}.icon-vs-bg{fill:#424242}.icon-vs-fg{fill:#f0eff1}</style><path class="icon-canvas-transparent" d="M0 0h16v16H0V0z" id="canvas"/><path class="icon-vs-out" d="M16 7.5a7.5 7.5 0 1 1-15 0 7.5 7.5 0 0 1 15 0z" id="outline"/><path class="icon-vs-fg" d="M3 7.5C3 10.532 5.468 13 8.5 13c3.033 0 5.5-2.468 5.5-5.5C14 4.467 11.533 2 8.5 2A5.506 5.506 0 0 0 3 7.5zm1.702 0l3.535-3.536.707.707L6.616 7H12v1H6.616l2.328 2.328-.707.707L4.702 7.5z" id="iconFg"/><path class="icon-vs-bg" d="M8.944 4.671L6.616 7H12v1H6.616l2.328 2.328-.707.707L4.702 7.5l3.535-3.536.707.707zM8.5 1C12.084 1 15 3.916 15 7.5S12.084 14 8.5 14 2 11.084 2 7.5 4.916 1 8.5 1zm0 12c3.033 0 5.5-2.468 5.5-5.5C14 4.467 11.533 2 8.5 2A5.506 5.506 0 0 0 3 7.5C3 10.532 5.468 13 8.5 13z" id="iconBg"/></svg>