<svg xmlns="http://www.w3.org/2000/svg" viewBox="0 0 16 16"><style>.icon-canvas-transparent{opacity:0;fill:#f6f6f6}.icon-vs-action-red{fill:#a1260d}.icon-vs-out{fill:#f6f6f6}</style><path class="icon-canvas-transparent" d="M16 16H0V0h16v16z" id="canvas"/><path class="icon-vs-out" d="M8 10.121l-5.396 5.397-2.122-2.122L5.879 8 .482 2.604 2.604.482 8 5.879 13.396.482l2.122 2.122L10.121 8l5.397 5.396-2.122 2.122z" id="outline"/><g id="colorAction"><path class="icon-vs-out" d="M8 10.121l-5.396 5.396-2.121-2.121L5.879 8 .482 2.604 2.603.483 8 5.879 13.396.483l2.121 2.121L10.121 8l5.396 5.396-2.121 2.121L8 10.121z"/><path class="icon-vs-action-red" d="M8.707 8l5.396 5.396-.707.707L8 8.707l-5.396 5.396-.707-.707L7.293 8 1.896 2.604l.707-.707L8 7.293l5.396-5.396.707.707L8.707 8z"/></g></svg>