<svg xmlns="http://www.w3.org/2000/svg" viewBox="0 0 16 16"><style>.icon-canvas-transparent{opacity:0;fill:#f6f6f6}.icon-vs-out{fill:#f6f6f6}.icon-vs-action-orange{fill:#c27d1a}</style><path class="icon-canvas-transparent" d="M16 16H0V0h16v16z" id="canvas"/><path class="icon-vs-out" d="M15 9h-2.879l2.035 2.035-2.121 2.121L10 11.121V14H7v-2.879l-2.036 2.035-2.121-2.121L4.878 9H2V6h2.878L2.843 3.964l2.121-2.121L7 3.879V1h3v2.878l2.035-2.035 2.121 2.121L12.121 6H15v3z" id="outline"/><path class="icon-vs-action-orange" d="M7.266 8H3V7h4.283l-.017.017V8zm.751-1.734h.966L9 6.283V2H8v4.283l.017-.017zM8 8.734V13h1V8.734H8zM10.717 7l-.983.017V8H14V7h-3.283zm-2.748-.714h.024L4.964 3.257l-.707.707L7.273 6.98l.696-.694zm1.062 0l.683.683v.024l3.028-3.028-.707-.707-3.028 3.028h.024zM7.274 8.019l-3.016 3.016.707.707 3.016-3.016-.707-.707zm3.147.695l-.707-.683-.695.695 3.016 3.016.707-.707-2.321-2.321z" id="colorAction"/></svg>