<svg xmlns="http://www.w3.org/2000/svg" viewBox="0 0 16 16"><style>.icon-canvas-transparent{opacity:0;fill:#f6f6f6}.icon-vs-out{fill:#f6f6f6}.icon-vs-bg{fill:#424242}</style><path class="icon-canvas-transparent" d="M16 16H0V0h16v16z" id="canvas"/><path class="icon-vs-out" d="M16 7.129v.742l-3.521 3.521-2.121-2.121.271-.271H5.371l.271.271-2.121 2.121L0 7.871v-.742l3.521-3.521 2.121 2.121L5.371 6h5.258l-.271-.271 2.121-2.121L16 7.129z" id="outline"/><path class="icon-vs-bg" d="M14.957 7.5l-2.479 2.479-.707-.707L13.043 8H2.957l1.271 1.271-.707.708L1.043 7.5l2.479-2.479.707.707L2.957 7h10.086l-1.271-1.271.707-.707L14.957 7.5z" id="iconBg"/></svg>