<svg xmlns="http://www.w3.org/2000/svg" viewBox="0 0 16 16"><style>.icon-canvas-transparent{opacity:0;fill:#f6f6f6}.icon-vs-out{fill:#f6f6f6}.icon-vs-fg{fill:#f0eff1}.icon-vs-action-blue{fill:#00539c}</style><path class="icon-canvas-transparent" d="M16 16H0V0h16v16z" id="canvas"/><path class="icon-vs-out" d="M8.5 0a7.5 7.5 0 1 1 0 15 7.5 7.5 0 0 1 0-15z" id="outline"/><path class="icon-vs-fg" d="M8.5 2A5.506 5.506 0 0 0 3 7.5C3 10.532 5.467 13 8.5 13c3.032 0 5.5-2.468 5.5-5.5C14 4.467 11.532 2 8.5 2zm.263 9.035l-.707-.707L10.384 8H5V7h5.384L8.056 4.671l.707-.707L12.298 7.5l-3.535 3.535z" id="iconFg"/><path class="icon-vs-action-blue" d="M8.763 3.964L12.298 7.5l-3.535 3.535-.707-.707L10.384 8H5V7h5.384L8.056 4.671l.707-.707zM15 7.5c0 3.584-2.916 6.5-6.5 6.5S2 11.084 2 7.5 4.916 1 8.5 1 15 3.916 15 7.5zm-1 0C14 4.467 11.532 2 8.5 2A5.506 5.506 0 0 0 3 7.5C3 10.532 5.467 13 8.5 13c3.032 0 5.5-2.468 5.5-5.5z" id="colorAction"/></svg>