<svg xmlns="http://www.w3.org/2000/svg" viewBox="0 0 16 16"><style>.icon-canvas-transparent{opacity:0;fill:#f6f6f6}.icon-vs-out{fill:#f6f6f6}.icon-vs-bg{fill:#424242}.icon-vs-fg{fill:#f0eff1}</style><path class="icon-canvas-transparent" d="M16 16H0V0h16v16z" id="canvas"/><path class="icon-vs-out" d="M16 0v15H0V0h16z" id="outline"/><path class="icon-vs-fg" d="M14 13H2v-2.293L2.707 10 5 7.707 9.293 12l.707.707.707-.707L12 10.707 13.293 12l.707.707V13zM5 6.293l-3 3V2h12v9.293l-2-2-2 2-5-5zM10 4.5a1.5 1.5 0 1 0 3.001-.001A1.5 1.5 0 0 0 10 4.5z" id="iconFg"/><path class="icon-vs-bg" d="M1 1v13h14V1H1zm13 12H2v-2.293L2.707 10 5 7.707 9.293 12l.707.707.707-.707L12 10.707 13.293 12l.707.707V13zm0-1.707l-2-2-2 2-5-5-3 3V2h12v9.293zM10 4.5a1.5 1.5 0 1 1 3.001.001A1.5 1.5 0 0 1 10 4.5z" id="iconBg"/></svg>