<svg xmlns="http://www.w3.org/2000/svg" viewBox="0 0 16 16"><style>.icon-canvas-transparent{opacity:0;fill:#f6f6f6}.icon-vs-out{fill:#f6f6f6}.icon-vs-action-blue{fill:#00539c}</style><path class="icon-canvas-transparent" d="M16 16H0V0h16v16z" id="canvas"/><path class="icon-vs-out" d="M0 6.307V4.59A5.517 5.517 0 0 1 4.951 0h1.482v2.979h-1c-1.384 0-2.511 1.126-2.511 2.511S4.049 8 5.434 8h5.152L7.929 5.342l2.123-2.123L16 9.168v.668l-5.948 5.948-2.123-2.123 2.669-2.67H5.314A5.472 5.472 0 0 1 0 6.307z" id="outline"/><path class="icon-vs-action-blue" d="M14.92 9.502l-4.868 4.869-.709-.709L13 10.003h-.012L13 9.991H5.314C2.882 9.926.92 7.937.92 5.489A4.52 4.52 0 0 1 5.434.975v1.003a3.515 3.515 0 0 0-3.511 3.511A3.515 3.515 0 0 0 5.434 9H13L9.342 5.342l.709-.709 4.869 4.869z" id="colorAction"/></svg>