<svg xmlns="http://www.w3.org/2000/svg" viewBox="0 0 16 16"><style>.icon-canvas-transparent{opacity:0;fill:#f6f6f6}.icon-vs-out{fill:#f6f6f6}.icon-vs-fg{fill:#f0eff1}.icon-vs-red{fill:#e51400}</style><path class="icon-canvas-transparent" d="M16 16H0V0h16v16z" id="canvas"/><path class="icon-vs-out" d="M16 7.5c0 4.136-3.364 7.5-7.5 7.5S1 11.636 1 7.5 4.364 0 8.5 0 16 3.364 16 7.5z" id="outline"/><path class="icon-vs-red" d="M8.5 1C4.916 1 2 3.916 2 7.5S4.916 14 8.5 14 15 11.084 15 7.5 12.084 1 8.5 1zM3 7.5c0-1.337.48-2.563 1.276-3.517l7.741 7.741A5.472 5.472 0 0 1 8.5 13 5.506 5.506 0 0 1 3 7.5zm9.724 3.517L4.983 3.276A5.472 5.472 0 0 1 8.5 2C11.532 2 14 4.467 14 7.5c0 1.337-.48 2.563-1.276 3.517z" id="iconBg"/><path class="icon-vs-fg" d="M4.276 3.983l7.741 7.741A5.472 5.472 0 0 1 8.5 13 5.506 5.506 0 0 1 3 7.5c0-1.337.48-2.563 1.276-3.517zM8.5 2c-1.337 0-2.563.48-3.517 1.276l7.741 7.741A5.472 5.472 0 0 0 14 7.5C14 4.467 11.532 2 8.5 2z" id="iconFg"/></svg>