<svg xmlns="http://www.w3.org/2000/svg" viewBox="0 0 16 16"><style>.icon-canvas-transparent{opacity:0;fill:#f6f6f6}.icon-vs-out{fill:#f6f6f6}.icon-vs-bg{fill:#424242}.icon-vs-fg{fill:#f0eff1}</style><path class="icon-canvas-transparent" d="M16 16H0V0h16v16z" id="canvas"/><path class="icon-vs-out" d="M16 15H1V1h15v14z" id="outline"/><path class="icon-vs-bg" d="M2 2v12h13V2H2zm4 11H3v-2h3v2zm0-3H3V8h3v2zm0-3H3V5h3v2zm4 6H7v-2h3v2zm0-3H7V8h3v2zm0-3H7V5h3v2zm4 6h-3v-2h3v2zm0-3h-3V8h3v2zm0-3h-3V5h3v2z" id="iconBg"/><path class="icon-vs-fg" d="M14 7h-3V5h3v2zm0 1h-3v2h3V8zm-4-3H7v2h3V5zm0 3H7v2h3V8zM6 5H3v2h3V5zm0 3H3v2h3V8zm8 3h-3v2h3v-2zm-4 0H7v2h3v-2zm-4 0H3v2h3v-2z" id="iconFg"/></svg>