<svg xmlns="http://www.w3.org/2000/svg" viewBox="0 0 16 16"><style>.st0{fill:#f6f6f6}.st1{fill:#424242}</style><path class="st0" d="M7.94 7.959L8 7.875l.061.084L8 8.042l-.06-.083zM9.551 0L8 2.134 6.449 0h-.898L0 7.635v.648L5.612 16h.777L8 13.784 9.61 16h.778L16 8.284v-.65L10.449 0h-.898z" id="outline"/><path class="st1" d="M15 7.958l-5-6.875-2 2.75-2-2.75-5 6.875 5 6.875 2-2.75 2 2.75 5-6.875zm-9 4.585L2.708 7.958 6 3.375l1.159 1.614L5 7.958l2.16 2.969L6 12.543zm2-6.382l1.291 1.798L8 9.757 6.708 7.958 8 6.161zm3 1.797L8.841 4.989 10 3.375l3.291 4.583L10 12.543l-1.16-1.615L11 7.958z" id="icon_x5F_bg"/></svg>