<svg xmlns="http://www.w3.org/2000/svg" viewBox="0 0 16 16"><defs><style>.icon-canvas-transparent,.icon-vs-out{fill:#f6f6f6}.icon-canvas-transparent{opacity:0}.brand-azure-blue{fill:#0072c6}.icon-vs-yellow{fill:#fc0}</style></defs><title>AzureWarning_16x</title><path class="icon-canvas-transparent" d="M16 0v16H0V0z"/><path class="icon-vs-out" d="M10.049 2.467L9.022.786l-.45 1.064-.514-.385-.1.073-3.63 3.031a3.181 3.181 0 0 0-.8.881Q2.511 7.228 1.477 9L.7 10.339l-.7 1.21v1.268h3.262L3.43 14h3.552l-.013.025L8 16h7l.968-2H16v-1.27zm-1.684 8.782l-3.009.529q.724-1.554 1.452-3.109L8.6 10.786z"/><path class="brand-azure-blue" d="M11.53 7.016h-1.037l-1.407 2.8-1.552-1.837a.27.27 0 0 1-.082-.309c.566-1.524 1.122-3.051 1.681-4.578.01-.027.022-.053.051-.123zM4.3 13h3.185l.32-.637-3.51.617zm3.71-9.253l.715-1.529c-.088.064-.122.086-.154.112L5.05 5.269a2.6 2.6 0 0 0-.655.677c-.936 1.637-1.888 3.264-2.834 4.895-.183.316-.364.633-.561.977h.254c.9 0 1.806-.007 2.709.005a.349.349 0 0 0 .379-.238q1.826-3.922 3.666-7.838z"/><path class="icon-vs-yellow" d="M11.891 8.016h-.781l-3.016 6 .515.984h5.766l.484-1zM12 14h-1v-1h1zm0-2h-1v-2h1z"/><path d="M12 12h-1v-2h1zm0 1h-1v1h1z"/></svg>