<svg xmlns="http://www.w3.org/2000/svg" viewBox="0 0 16 16"><defs><style>.cls-1,.cls-3{fill:#fff;}.cls-1{stroke:#fff;stroke-miterlimit:10;stroke-width:0.8px;}.icon-vs-out{fill:#f6f6f6;}.cls-2{fill:#326de6;}</style></defs><title>BrandKubernetes_16x</title><g id="notificationFg"><path class="cls-1" d="M13.775,4.243a1.036,1.036,0,0,0-.512-.592L8.38,1.314a.9.9,0,0,0-.4-.08,1.689,1.689,0,0,0-.4.032L2.7,3.619a.859.859,0,0,0-.481.592l-1.2,5.267a1.011,1.011,0,0,0,.176.769L4.57,14.425a1.161,1.161,0,0,0,.736.337h5.379a.8.8,0,0,0,.737-.337L14.8,10.247a1.094,1.094,0,0,0,.192-.769Z"/><path class="icon-vs-out" d="M10.654,15.762H5.306a2.195,2.195,0,0,1-1.442-.628l-.072-.079L.414,10.876a2.037,2.037,0,0,1-.383-1.57l1.21-5.317A1.866,1.866,0,0,1,2.275,2.712L7.237.321,7.335.3A2.538,2.538,0,0,1,7.98.233a1.878,1.878,0,0,1,.847.186l4.867,2.33a2.04,2.04,0,0,1,1.035,1.195l1.25,5.362.006.055a2.1,2.1,0,0,1-.371,1.467L12.2,15.055a1.765,1.765,0,0,1-1.426.712Z"/><path class="cls-2" d="M14.992,9.478a1.094,1.094,0,0,1-.192.769l-3.378,4.178a.8.8,0,0,1-.737.337H5.306a1.161,1.161,0,0,1-.736-.337L1.192,10.247a1.011,1.011,0,0,1-.176-.769l1.2-5.267A.859.859,0,0,1,2.7,3.619L7.58,1.266a1.689,1.689,0,0,1,.4-.032.9.9,0,0,1,.4.08l4.883,2.337a1.036,1.036,0,0,1,.512.592Z"/><path class="cls-3" d="M13.023,9.27c-.016,0-.032,0-.032-.016s-.032-.016-.064-.016a.779.779,0,0,0-.192-.016.2.2,0,0,1-.1-.016h-.016a3.227,3.227,0,0,1-.545-.1A.193.193,0,0,1,11.966,9l-.128-.032a4.18,4.18,0,0,0-.064-1.409,4.335,4.335,0,0,0-.56-1.312l.1-.1V6.132a.223.223,0,0,1,.048-.144,2.865,2.865,0,0,1,.448-.32l.1-.048c.064-.032.112-.064.176-.1.016-.016.032-.016.048-.032s0-.016,0-.032a.313.313,0,0,0,.064-.448.306.306,0,0,0-.224-.112.382.382,0,0,0-.224.08L11.726,5c-.016.016-.032.032-.048.032a1.035,1.035,0,0,0-.128.144c-.016.032-.048.048-.064.064a2.1,2.1,0,0,1-.4.352.227.227,0,0,1-.1.032.1.1,0,0,1-.064-.016H10.91l-.129.08c-.128-.128-.272-.256-.4-.384A4.1,4.1,0,0,0,8.3,4.467l-.016-.128v.016a.22.22,0,0,1-.08-.128,3.2,3.2,0,0,1,.032-.544V3.667c0-.032.016-.064.016-.1.016-.064.016-.128.032-.192v-.1a.317.317,0,0,0-.272-.336.321.321,0,0,0-.272.112.316.316,0,0,0-.1.224v.08a.8.8,0,0,0,.032.192.2.2,0,0,1,.016.1v.016a3.015,3.015,0,0,1,.032.544.22.22,0,0,1-.08.128v.032L7.628,4.5c-.177.016-.353.048-.545.081A3.817,3.817,0,0,0,5.114,5.7l-.1-.064H5c-.016,0-.032.016-.064.016a.227.227,0,0,1-.1-.032,2.95,2.95,0,0,1-.4-.368c-.016-.032-.048-.048-.064-.064-.048-.048-.08-.1-.128-.144-.016-.016-.032-.016-.048-.032L4.185,5a.382.382,0,0,0-.224-.08.242.242,0,0,0-.224.112.344.344,0,0,0,.064.448.016.016,0,0,1,.016.016s.032.032.048.032a1.745,1.745,0,0,0,.176.1l.1.048a2.25,2.25,0,0,1,.449.32.161.161,0,0,1,.048.144V6.116l.1.1c-.016.033-.032.048-.048.081a3.8,3.8,0,0,0-.561,2.625l-.128.032a.016.016,0,0,1-.016.016.252.252,0,0,1-.112.112,2.972,2.972,0,0,1-.544.1.2.2,0,0,0-.1.016c-.064,0-.128.016-.192.016-.016,0-.032.016-.064.016-.016,0-.016,0-.032.016a.313.313,0,0,0-.256.369A.3.3,0,0,0,3,9.831a.144.144,0,0,0,.08-.016c.016,0,.016,0,.016-.016s.048,0,.064,0c.064-.016.128-.048.176-.064a.227.227,0,0,1,.1-.032h.016a2.934,2.934,0,0,1,.528-.145h.016a.182.182,0,0,1,.128.049.016.016,0,0,1,.016.016l.145-.016A3.869,3.869,0,0,0,5.594,11.48a2.545,2.545,0,0,0,.433.288l-.08.112a.016.016,0,0,0,.016.016.189.189,0,0,1,.016.16,2.63,2.63,0,0,1-.257.464v.016a.281.281,0,0,1-.064.08c-.032.032-.064.1-.112.16-.016.016-.016.032-.032.048a.016.016,0,0,1-.016.016.33.33,0,0,0,.128.433.3.3,0,0,0,.112.032.359.359,0,0,0,.3-.192.016.016,0,0,1,.016-.016c0-.016.016-.032.032-.048.016-.064.048-.112.064-.177l.032-.1a2.708,2.708,0,0,1,.208-.5.249.249,0,0,1,.128-.1c.016,0,.016,0,.016-.016L6.6,12.04A3.771,3.771,0,0,0,8,12.3a3.2,3.2,0,0,0,.864-.112,4.8,4.8,0,0,0,.513-.144l.064.112c.016,0,.016,0,.016.016a.249.249,0,0,1,.128.1,2.708,2.708,0,0,1,.208.5v.016l.032.1a.57.57,0,0,0,.064.177c.016.016.016.032.032.048a.016.016,0,0,0,.016.016.359.359,0,0,0,.3.192.377.377,0,0,0,.128-.032.268.268,0,0,0,.144-.176.412.412,0,0,0-.016-.24.016.016,0,0,0-.016-.017c0-.016-.016-.032-.032-.048a.575.575,0,0,0-.112-.16.281.281,0,0,0-.064-.08V12.52a1.89,1.89,0,0,1-.256-.464.189.189,0,0,1,.016-.16.016.016,0,0,1,.016-.016L10,11.752a3.962,3.962,0,0,0,1.729-2.177l.128.016a.016.016,0,0,0,.016-.016A.178.178,0,0,1,12,9.526h.016a2.692,2.692,0,0,1,.512.145h.017a.227.227,0,0,0,.1.032.858.858,0,0,0,.176.08c.016,0,.032.016.064.016.016,0,.016,0,.032.016a.144.144,0,0,0,.08.016.348.348,0,0,0,.32-.224A.377.377,0,0,0,13.023,9.27ZM10.141,6.2l-1.313.929a.272.272,0,0,1-.352-.064.145.145,0,0,1-.048-.112l-.1-1.617A3.014,3.014,0,0,1,10.141,6.2ZM7.724,7.926H8.2l.3.384L8.4,8.774l-.432.208-.433-.208L7.419,8.31ZM7.243,5.38l.321-.064-.081,1.6a.267.267,0,0,1-.272.256.377.377,0,0,1-.128-.032L5.754,6.2A3.185,3.185,0,0,1,7.243,5.38ZM5.29,6.789,6.475,7.845a.258.258,0,0,1,.032.369.18.18,0,0,1-.128.08l-1.553.448A3.371,3.371,0,0,1,5.29,6.789Zm1.569,2.8-.608,1.472A3.142,3.142,0,0,1,5.018,9.494L6.6,9.222a.262.262,0,0,1,.272.208A.192.192,0,0,1,6.859,9.591ZM8.652,11.48a3.238,3.238,0,0,1-.688.08,3.593,3.593,0,0,1-1.009-.16L7.74,9.975a.248.248,0,0,1,.32-.064.8.8,0,0,1,.128.112l.768,1.393A2.6,2.6,0,0,0,8.652,11.48Zm1.953-1.393a3.055,3.055,0,0,1-.96.96L9.02,9.542a.26.26,0,0,1,.144-.3.48.48,0,0,1,.145-.032l1.6.272A2.428,2.428,0,0,1,10.605,10.087Zm.465-1.345L9.549,8.31a.262.262,0,0,1-.192-.32.252.252,0,0,1,.064-.112l1.2-1.089a3.257,3.257,0,0,1,.385.944A3.071,3.071,0,0,1,11.07,8.742Z"/></g></svg>