<svg xmlns="http://www.w3.org/2000/svg" viewBox="0 0 16 16"><style>.icon-canvas-transparent{opacity:0;fill:#f6f6f6}.icon-vs-out{fill:#f6f6f6}.icon-vs-bg{fill:#424242}.icon-vs-fg{fill:#f0eff1}.st0{fill:#a4373a}.st1{fill:#fff}</style><path class="icon-canvas-transparent" d="M16 16H0V0h16v16z" id="canvas"/><path class="icon-vs-out" d="M16 10.097L13.91 8H16V0H7v3L0 4v10.734l9 1.286V14h2.5a2.505 2.505 0 0 0 2.39-1.766l.192.191L16 10.508v-.411zm-7 .018V8h2.115L9 10.115z" id="outline"/><path class="icon-vs-bg" d="M8 1v1.873l1-.139V3h1v1H9v1h1v1H9v1h6V1H8zm4 5h-1V5h1v1zm0-2h-1V3h1v1zm2 2h-1V5h1v1zm0-2h-1V3h1v1zm-1.001 5.935V10H13v1.5c0 .827-.673 1.5-1.5 1.5H9v-1h2.5c.275 0 .5-.225.5-.5V10l-.001-.048-1.013 1.008-.709-.709 2.237-2.237 2.277 2.286-.711.711-1.081-1.076z" id="iconBg"/><path class="icon-vs-fg" d="M9 3h1v1H9V3zm2 3h1V5h-1v1zm2-3v1h1V3h-1zm0 3h1V5h-1v1zm-2-2h1V3h-1v1zM9 6h1V5H9v1z" id="iconFg"/><g id="colorImportance"><path class="st0" d="M1 4.867v9l7 1v-11l-7 1zm4.594 7.055l-.346-1.341-1.654-.056-.314 1.255-1.058-.064L3.817 6.06l1.243-.077 1.764 6.014-1.23-.075z"/><path class="st1" d="M3.811 9.539l.499-1.965a2.404 2.404 0 0 0 .05-.247l.018-.129c.005-.044.008-.088.012-.133l.026-.001.013.141c.005.046.009.091.016.134a4.174 4.174 0 0 0 .048.246L5 9.553m.061-3.57l-1.244.077-1.595 5.656 1.058.064.314-1.255 1.654.056.346 1.341 1.23.075-1.763-6.014"/><path class="st1" d="M3.817 6.06l-1.595 5.656 1.058.064.314-1.255 1.654.056.346 1.341 1.23.075-1.763-6.014-1.244.077zm-.006 3.479l.499-1.965a2.404 2.404 0 0 0 .05-.247l.018-.129c.005-.044.008-.088.012-.133h.026l.013.14c.005.046.009.091.016.134a4.174 4.174 0 0 0 .048.246L5 9.553l-1.189-.014z"/><path class="st0" d="M4.494 7.585L5 9.553l-1.189-.014.499-1.965a2.404 2.404 0 0 0 .05-.247l.018-.129c.005-.044.008-.088.012-.133h.026l.013.14c.005.046.009.091.016.134l.022.127.027.119z"/></g></svg>