<svg xmlns="http://www.w3.org/2000/svg" viewBox="0 0 16 16"><style>.st0{fill:#f6f6f6}.st1{fill:#424242}.st2{fill:#00539c}.st3{fill:#f0eff1}</style><path class="st0" d="M12.061 0H6c-.97 0-2 .702-2 2v6H0v8h14v-1.999c1.299 0 2-1.031 2-2V3.556L12.061 0z" id="outline"/><g id="icon_x5F_bg"><path class="st1" d="M7 3h1v1H7zM7 5h1v1H7z"/><path class="st1" d="M11.639 1H5.964S5 1 5 2v6h1V2h5v3h3V12.995c.961-.025 1-.994 1-.994V4l-3.361-3z"/><path class="st1" d="M10.998 8l1.031-1-.001 1H13V6h-1.295L9.598 8zM7 7h1v1H7z"/></g><path class="st2" d="M1 9v6h12V9H1zm3.078 5H2v-4h.786v3.299h1.292V14zm2.538-.012H4.523V10h2.014v.686H5.304v.981h1.147v.654H5.304v.967h.007v.012h1.306v.688zm2.691-.881c-.02.09-.049.178-.094.262a1.03 1.03 0 0 1-.422.435 1.426 1.426 0 0 1-.355.135 1.999 1.999 0 0 1-.722.029 2.142 2.142 0 0 1-.265-.053 1.646 1.646 0 0 1-.23-.072.535.535 0 0 1-.157-.086V12.9a.967.967 0 0 0 .188.152 1.563 1.563 0 0 0 .506.221c.091.021.174.035.255.035a.666.666 0 0 0 .224-.035.41.41 0 0 0 .143-.092.267.267 0 0 0 .074-.127.438.438 0 0 0-.138-.473 1.314 1.314 0 0 0-.196-.146c-.076-.049-.169-.1-.271-.156a2.348 2.348 0 0 1-.383-.242 1.364 1.364 0 0 1-.248-.269 1.002 1.002 0 0 1-.137-.293 1.248 1.248 0 0 1 .05-.789 1.03 1.03 0 0 1 .26-.361c.11-.1.247-.178.405-.232.157-.053.334-.082.525-.082.088 0 .174.006.26.014.084.006.164.02.237.031a1.807 1.807 0 0 1 .351.092v.842A.835.835 0 0 0 9 10.871c-.068-.033-.136-.066-.208-.094a1.337 1.337 0 0 0-.453-.084.677.677 0 0 0-.175.021.445.445 0 0 0-.148.068.355.355 0 0 0-.141.293c0 .066.01.125.033.18a.447.447 0 0 0 .102.148c.044.045.102.09.17.131.066.043.146.086.234.133.164.086.305.172.42.26.115.09.21.182.285.277.072.096.127.197.164.305a1.249 1.249 0 0 1 .024.598zm2.675 0a1.01 1.01 0 0 1-.26.5.956.956 0 0 1-.256.197c-.1.057-.219.102-.355.135a1.97 1.97 0 0 1-.719.029 2.086 2.086 0 0 1-.266-.053 1.635 1.635 0 0 1-.232-.072.541.541 0 0 1-.156-.086V12.9a1.563 1.563 0 0 0 .693.373c.092.021.176.035.258.035.09 0 .164-.014.223-.035a.457.457 0 0 0 .144-.092.354.354 0 0 0 .074-.127.467.467 0 0 0-.02-.317.583.583 0 0 0-.119-.156 1.381 1.381 0 0 0-.197-.146 5.07 5.07 0 0 0-.271-.156 2.225 2.225 0 0 1-.383-.242 1.305 1.305 0 0 1-.248-.269.953.953 0 0 1-.137-.293 1.248 1.248 0 0 1 .049-.789 1.03 1.03 0 0 1 .26-.361c.111-.1.248-.178.404-.232a1.66 1.66 0 0 1 .527-.082c.09 0 .174.006.258.014.086.006.164.02.236.031a1.67 1.67 0 0 1 .353.092v.842a.804.804 0 0 0-.168-.117 2.193 2.193 0 0 0-.207-.094 1.241 1.241 0 0 0-.452-.084.674.674 0 0 0-.176.021.371.371 0 0 0-.252.189.361.361 0 0 0-.039.172.447.447 0 0 0 .137.328c.045.045.1.09.166.131.07.043.148.086.238.133.164.086.305.172.418.26.117.09.213.182.287.277a1 1 0 0 1 .162.305.99.99 0 0 1 .053.336c.003.083-.007.171-.027.26z" id="color_x5F_importance"/><g id="icon_x5F_fg"><path class="st3" d="M2.786 10H2v4h2.078v-.701H2.786zM9.119 12.205a1.538 1.538 0 0 0-.285-.277 3.01 3.01 0 0 0-.42-.26 3.052 3.052 0 0 1-.234-.133.862.862 0 0 1-.17-.131.474.474 0 0 1-.102-.148.455.455 0 0 1-.033-.18.34.34 0 0 1 .039-.172.344.344 0 0 1 .102-.121.443.443 0 0 1 .148-.068.636.636 0 0 1 .175-.021 1.25 1.25 0 0 1 .453.084c.072.027.14.06.208.093a.875.875 0 0 1 .166.117v-.842c-.039-.016-.09-.031-.148-.049a2.58 2.58 0 0 0-.44-.074 2.793 2.793 0 0 0-.26-.014c-.191 0-.368.029-.525.082a1.181 1.181 0 0 0-.405.232c-.112.1-.198.223-.26.361a1.242 1.242 0 0 0-.05.789.953.953 0 0 0 .137.293c.063.094.146.182.248.269.105.082.231.166.383.242.103.057.195.107.271.156.078.049.143.098.196.146a.514.514 0 0 1 .118.156.377.377 0 0 1 .041.178.468.468 0 0 1-.021.139.275.275 0 0 1-.074.127.416.416 0 0 1-.143.092.666.666 0 0 1-.224.035c-.081 0-.164-.014-.255-.035a1.563 1.563 0 0 1-.506-.221 1.013 1.013 0 0 1-.188-.152v.857a.535.535 0 0 0 .157.086 2.343 2.343 0 0 0 .75.145c.174 0 .331-.016.467-.049.135-.033.254-.078.355-.135a1.011 1.011 0 0 0 .422-.435c.045-.084.074-.172.094-.262.02-.09.025-.178.025-.262a1.1 1.1 0 0 0-.049-.336 1.098 1.098 0 0 0-.163-.302zM11.797 12.205a1.523 1.523 0 0 0-.287-.277 2.815 2.815 0 0 0-.418-.26 3.945 3.945 0 0 1-.238-.133c-.066-.041-.121-.086-.166-.131s-.08-.096-.102-.148a.493.493 0 0 1-.035-.18c0-.068.014-.125.039-.172a.36.36 0 0 1 .104-.121.41.41 0 0 1 .148-.068.634.634 0 0 1 .176-.021c.07 0 .146.006.225.021.08.014.154.035.227.063.072.027.143.061.207.094a.804.804 0 0 1 .168.117v-.842c-.037-.016-.088-.031-.148-.049a1.711 1.711 0 0 0-.205-.043 2.427 2.427 0 0 0-.236-.031 2.678 2.678 0 0 0-.258-.014 1.66 1.66 0 0 0-.527.082 1.205 1.205 0 0 0-.404.232c-.113.1-.197.223-.26.361a1.242 1.242 0 0 0-.049.789.91.91 0 0 0 .137.293c.063.094.145.182.248.269.103.082.231.166.383.242.104.057.193.107.271.156.078.049.143.098.197.146a.617.617 0 0 1 .119.156.402.402 0 0 1 .039.178.369.369 0 0 1-.093.266.502.502 0 0 1-.144.092.664.664 0 0 1-.223.035c-.082 0-.166-.014-.258-.035a1.563 1.563 0 0 1-.693-.373v.857a.541.541 0 0 0 .156.086c.068.027.146.053.232.072a2.276 2.276 0 0 0 .518.073c.178 0 .332-.016.467-.049a1.34 1.34 0 0 0 .355-.135.977.977 0 0 0 .256-.197 1.01 1.01 0 0 0 .26-.5c.02-.09.029-.178.029-.262a.99.99 0 0 0-.053-.336 1.067 1.067 0 0 0-.164-.303zM5.311 13.287h-.007v-.967h1.147v-.654H5.304v-.98h1.233V10H4.523v3.988h2.093v-.689H5.311z"/><g><path class="st3" d="M11 5V2H6v6h1V7h1v1h1.598l2.107-2H13v2h1V5h-3zM8 6H7V5h1v1zm0-2H7V3h1v1z"/><path class="st3" d="M12.028 8l.001-1-1.031 1z"/></g></g></svg>