<svg xmlns="http://www.w3.org/2000/svg" viewBox="0 0 16 16"><style>.icon-canvas-transparent{opacity:0;fill:#f6f6f6}.icon-white{fill:#fff}.icon-visualstudio{fill:#68217a}</style><path class="icon-canvas-transparent" d="M16 16H0V0h16v16z" id="canvas"/><path class="icon-visualstudio" d="M14.968.534L12.963.041 12.756 0h-.123c-.308 0-.61.106-.854.302L5.775 5.155 3.181 3.261a1.363 1.363 0 0 0-1.602-.079l-.056.037-.983.853C.2 4.328 0 4.727 0 5.156v5.688c0 .428.2.827.539 1.083l.983.853.053.035a1.357 1.357 0 0 0 1.566-.043l2.634-1.926L9 13.451V16h3.713c.455 0 .878-.063 1.262-.187a3.27 3.27 0 0 0 .552-.239l.447-.11A1.355 1.355 0 0 0 16 14.148V1.852c0-.623-.422-1.165-1.032-1.318z" id="outline"/><path class="icon-white" d="M14.877 12.521a1.439 1.439 0 0 0-.284-.463c-.123-.135-.275-.248-.454-.34s-.382-.152-.609-.182v-.018c.141-.039.283-.099.426-.18.143-.081.272-.182.387-.304.115-.122.208-.264.28-.427a1.34 1.34 0 0 0 .108-.546c0-.225-.044-.43-.131-.616a1.272 1.272 0 0 0-.396-.477 1.963 1.963 0 0 0-.667-.308c-.268-.073-.584-.16-.949-.16H10V15h2.713c.353 0 .669-.046.948-.137.28-.091.517-.22.712-.387s.344-.369.447-.607a1.98 1.98 0 0 0 .155-.794 1.528 1.528 0 0 0-.098-.554zM11.619 9.62h.633c.324 0 .574.059.751.178.176.118.265.296.265.533 0 .255-.082.455-.247.6-.165.146-.391.218-.678.218h-.724V9.62zm1.628 4.071c-.178.159-.432.238-.761.238h-.866v-1.7h.874c.158 0 .3.019.426.058a.909.909 0 0 1 .32.167.724.724 0 0 1 .202.261.808.808 0 0 1 .071.342.81.81 0 0 1-.266.634zM9 9.864l-1.883-1.5c-.251-.2-.251-.527 0-.727l5.677-4.523c.251-.2.456-.101.456.22v4.231c.209.039.395.088.549.13.393.108.729.267 1.004.473.074.055.131.125.197.187V1.852a.357.357 0 0 0-.27-.347l-2.009-.494a.358.358 0 0 0-.313.069L6.02 6.242a.358.358 0 0 1-.449.001l-3.02-2.206a.363.363 0 0 0-.422-.02l-.968.84A.358.358 0 0 0 1 5.156v5.688c0 .12.06.232.161.299l.968.84a.355.355 0 0 0 .421-.02l3.02-2.206a.354.354 0 0 1 .449.001L9 12.166V9.864zM2.75 9.65v-3.3l2.247 1.651L2.75 9.65z" id="iconBg"/></svg>