<svg xmlns="http://www.w3.org/2000/svg" viewBox="0 0 16 16"><style>.st0,.st1{fill:#f6f6f6}.st0{opacity:0}.st1{fill-rule:evenodd;clip-rule:evenodd}.st2{fill:#2372c6}.st3{fill:#fff}</style><g id="outline"><path class="st0" d="M0 0h16v16H0z"/><path class="st1" d="M13 16V.122L3 1.262v13.725L11.886 16z"/></g><path class="st2" d="M4 2.157v11.935l8 .885V1.272l-8 .885zm6.139 8.226a2.572 2.572 0 0 1-.105.438 2.057 2.057 0 0 1-.414.721 1.867 1.867 0 0 1-.842.541c-.168.055-.35.092-.543.113a3.927 3.927 0 0 1-1.086-.049 3.037 3.037 0 0 1-.42-.109 2.773 2.773 0 0 1-.387-.158c-.117-.064-.342-.132-.342-.21V9.936c0 .135.254.256.381.359a2.24 2.24 0 0 0 .821.43 1.998 1.998 0 0 0 .674.062.98.98 0 0 0 .197-.041.78.78 0 0 0 .307-.185.775.775 0 0 0 .209-.551.937.937 0 0 0-.173-.549 1.461 1.461 0 0 0-.135-.168 2.288 2.288 0 0 0-.146-.133 4.085 4.085 0 0 0-.442-.316 7.911 7.911 0 0 0-.291-.181 3.66 3.66 0 0 1-.625-.467 2.662 2.662 0 0 1-.437-.536 2.384 2.384 0 0 1-.346-1.284c0-.174.012-.34.037-.499.026-.157.063-.307.113-.449a2.178 2.178 0 0 1 .454-.76 2.127 2.127 0 0 1 .721-.523c.139-.062.287-.112.445-.148.158-.037.326-.062.504-.073.158-.01.309-.013.455-.009.146.003.285.014.42.032.134.017.324.042.447.074.121.031.41.07.41.117v1.719c0-.092-.295-.171-.416-.239a2.515 2.515 0 0 0-1.227-.273 1.26 1.26 0 0 0-.376.072.849.849 0 0 0-.287.179.76.76 0 0 0-.18.264.956.956 0 0 0-.061.327c0 .063.006.124.014.183.01.058.023.114.039.166.02.053.041.103.066.15a1.04 1.04 0 0 0 .217.257 3.436 3.436 0 0 0 .389.284c.08.052.17.106.266.162.144.086.279.171.404.255a4.793 4.793 0 0 1 .633.507c.084.084.16.168.225.252a2.155 2.155 0 0 1 .348.679c.041.123.07.254.09.389.02.137.029.277.029.424.001.171-.011.334-.034.488z" id="color_x5F_decoration"/><path class="st3" d="M6.34 7.66c.117.19.262.369.438.536.178.167.385.323.625.467a8.796 8.796 0 0 1 .537.348c.072.053.139.104.195.15.056.046.105.091.146.132.051.055.096.111.135.168a1.008 1.008 0 0 1 .174.549.822.822 0 0 1-.117.434.844.844 0 0 1-.092.117.743.743 0 0 1-.307.185c-.061.019-.127.033-.197.041s-.145.01-.225.006a2.066 2.066 0 0 1-.871-.234 2.416 2.416 0 0 1-.399-.264C6.254 10.191 6 10.07 6 9.936v1.734c0 .078.225.146.342.209.119.061.254.115.387.158a3 3 0 0 0 .42.109c.148.027.305.047.469.057a3.7 3.7 0 0 0 .617-.008c.193-.021.375-.059.543-.113a1.867 1.867 0 0 0 .842-.541 2.057 2.057 0 0 0 .414-.721 2.46 2.46 0 0 0 .105-.438 3.296 3.296 0 0 0 .006-.912 2.206 2.206 0 0 0-.09-.389 2.284 2.284 0 0 0-.146-.357 2.385 2.385 0 0 0-.204-.321 2.669 2.669 0 0 0-.224-.252 4.555 4.555 0 0 0-.633-.507 7.786 7.786 0 0 0-.405-.254 7.282 7.282 0 0 1-.484-.31 2.294 2.294 0 0 1-.17-.136 1.04 1.04 0 0 1-.217-.258 1.133 1.133 0 0 1-.066-.15 1.389 1.389 0 0 1-.039-.166 1.357 1.357 0 0 1-.014-.183.956.956 0 0 1 .061-.327.805.805 0 0 1 .466-.443.992.992 0 0 1 .176-.049c.063-.012.131-.02.201-.023.139-.006.283 0 .416.019a2.515 2.515 0 0 1 .81.254c.122.068.417.147.417.239V4.138c0-.046-.289-.086-.41-.117-.123-.032-.313-.057-.447-.075a3.999 3.999 0 0 0-.42-.032c-.147-.003-.297 0-.455.01a3.027 3.027 0 0 0-.504.073 2.225 2.225 0 0 0-.834.372 2.22 2.22 0 0 0-.786 1.059c-.05.142-.087.292-.113.449a3.208 3.208 0 0 0-.037.499c0 .239.029.465.086.679.059.214.145.416.26.605z" id="icon_x5F_fg"/></svg>