<svg xmlns="http://www.w3.org/2000/svg" viewBox="0 0 64 64"><style>.st0{fill:#2372c6}.st1{fill:#fff}</style><path class="st0" d="M53.413 23.586c-1.007-1.827-2.393-3.501-4.126-4.955a19.45 19.45 0 0 0-2.967-2.048c-.577-3.186-3.366-5.608-6.715-5.608a6.81 6.81 0 0 0-3.437.931V6.158l-29.97 5.275v40.453L36.169 57v-6.944a6.533 6.533 0 0 0 3.437.979c3.236 0 5.951-2.377 6.651-5.556a19.818 19.818 0 0 0 3.03-2.084c1.936-1.622 3.439-3.524 4.462-5.604 3.255-.542 5.751-3.51 5.751-7.078 0-3.691-2.67-6.738-6.087-7.127zm-28.027 14.53a6.31 6.31 0 0 1-.271 1.107 5.33 5.33 0 0 1-.45.976 4.998 4.998 0 0 1-.627.841 4.765 4.765 0 0 1-.989.819 5.278 5.278 0 0 1-1.205.551c-.435.14-.905.234-1.41.284a9.764 9.764 0 0 1-1.604.023 9.724 9.724 0 0 1-1.217-.145 8.32 8.32 0 0 1-1.096-.274 6.379 6.379 0 0 1-1.841-.931v-4.383c.312.341.633.646.964.906.333.264.675.485 1.028.667.354.182.718.322 1.093.422.377.1.763.16 1.161.175.207.008.402.004.584-.019.183-.019.353-.054.511-.104.158-.048.304-.111.436-.189a1.863 1.863 0 0 0 .598-.571 1.894 1.894 0 0 0 .274-.695 2.364 2.364 0 0 0-.017-.886 2.34 2.34 0 0 0-.151-.463 2.68 2.68 0 0 0-.249-.443 3.696 3.696 0 0 0-.35-.423 5.202 5.202 0 0 0-.381-.338 9.701 9.701 0 0 0-.51-.38 23.088 23.088 0 0 0-1.397-.875 9.484 9.484 0 0 1-1.621-1.183 6.685 6.685 0 0 1-1.139-1.353 5.737 5.737 0 0 1-.675-1.529 6.374 6.374 0 0 1-.225-1.716c0-.44.032-.86.097-1.259A6.21 6.21 0 0 1 15 25.591a5.567 5.567 0 0 1 2.043-2.676 5.73 5.73 0 0 1 1.008-.566 6.501 6.501 0 0 1 1.157-.375c.413-.094.85-.155 1.314-.184.409-.025.802-.033 1.18-.024.379.01.744.036 1.091.081.35.045.684.107.999.188.318.081.62.179.904.296v4.345a6.518 6.518 0 0 0-.916-.604 5.782 5.782 0 0 0-1.984-.644 6.346 6.346 0 0 0-1.064-.046c-.18.007-.35.026-.511.056-.16.03-.312.072-.454.125a2.314 2.314 0 0 0-.397.192 2.112 2.112 0 0 0-.614.572 1.8 1.8 0 0 0-.196.354 1.944 1.944 0 0 0-.117.393 2.343 2.343 0 0 0-.039.434c0 .162.012.315.034.463.023.147.058.288.103.421a2.095 2.095 0 0 0 .413.718c.085.099.192.202.319.312.127.11.275.224.443.344.168.121.358.246.568.376.21.13.441.267.695.409.375.214.725.429 1.049.643.327.215.626.429.899.642.275.214.522.426.743.64.222.213.416.424.583.635a5.515 5.515 0 0 1 .914 1.714c.102.315.178.646.229.988.051.342.078.698.078 1.069.004.432-.028.844-.088 1.234zm10.783-14.421c1.011.59 2.185.93 3.437.93a6.803 6.803 0 0 0 4.437-1.644c1.348.92 2.457 2.052 3.252 3.33a7.36 7.36 0 0 0-1.446 4.402c0 1.779.623 3.407 1.65 4.663-.736 1.296-1.792 2.451-3.086 3.404-1.233-1.287-2.934-2.085-4.807-2.085a6.543 6.543 0 0 0-3.437.98v-13.98zm16.505 12.521h-.04c-.911 2.204-2.403 4.216-4.415 5.903a18.322 18.322 0 0 1-3.477 2.283c-.255 2.788-2.455 4.967-5.137 4.967-1.32 0-2.523-.529-3.437-1.398v-8.21c.913-.869 2.116-1.399 3.437-1.399 1.868 0 3.506 1.06 4.411 2.646 2.509-1.457 4.451-3.53 5.485-5.953-1.209-1.008-1.989-2.576-1.989-4.34 0-1.667.696-3.159 1.792-4.169-1.111-2.321-3.064-4.295-5.55-5.673a5.156 5.156 0 0 1-4.149 2.09 5.147 5.147 0 0 1-3.437-1.312v-7.698a5.16 5.16 0 0 1 8.593 3.68c1.24.632 2.402 1.39 3.457 2.277 1.829 1.534 3.232 3.338 4.154 5.311.1-.007.2-.011.301-.011 2.851 0 5.161 2.463 5.161 5.504.001 3.041-2.31 5.502-5.16 5.502z" id="icon_x5F_bg"/><g id="icon_x5F_fg"><path class="st1" d="M20.524 21.79c-.464.029-.901.09-1.314.184-.41.093-.796.219-1.157.375a5.648 5.648 0 0 0-3.051 3.242 6.19 6.19 0 0 0-.293 1.137 7.821 7.821 0 0 0-.097 1.259c0 .605.075 1.177.225 1.716.149.541.374 1.051.675 1.529.302.481.682.931 1.139 1.353.46.424 1 .816 1.621 1.183.274.159.528.311.761.458.232.143.445.284.636.417s.361.261.51.38c.149.121.275.233.381.338.133.139.25.28.35.423.1.145.183.292.249.443a2.34 2.34 0 0 1 .168 1.349 1.894 1.894 0 0 1-.274.695 1.765 1.765 0 0 1-.237.291 1.763 1.763 0 0 1-.361.28 1.968 1.968 0 0 1-.436.189c-.158.05-.329.085-.511.104a3.826 3.826 0 0 1-.584.019 5.278 5.278 0 0 1-1.161-.175c-.375-.1-.739-.24-1.093-.422a6.339 6.339 0 0 1-1.028-.667 8.19 8.19 0 0 1-.964-.906v4.383a6.379 6.379 0 0 0 1.841.931 8.32 8.32 0 0 0 1.096.274c.385.071.791.119 1.217.145a9.986 9.986 0 0 0 1.604-.023c.504-.05.974-.145 1.41-.284a5.255 5.255 0 0 0 1.205-.551c.366-.229.695-.501.989-.819a5.052 5.052 0 0 0 1.077-1.817c.121-.348.211-.717.271-1.107.061-.391.092-.802.092-1.234 0-.371-.026-.728-.078-1.069a5.693 5.693 0 0 0-.611-1.889 5.463 5.463 0 0 0-.532-.813 6.447 6.447 0 0 0-.583-.635 9.093 9.093 0 0 0-.743-.64 13.937 13.937 0 0 0-.899-.642 19.55 19.55 0 0 0-1.049-.643 16.863 16.863 0 0 1-.695-.409c-.21-.13-.399-.255-.568-.376a6.29 6.29 0 0 1-.443-.344 2.98 2.98 0 0 1-.319-.312 2.158 2.158 0 0 1-.413-.718 2.421 2.421 0 0 1-.103-.421 3.131 3.131 0 0 1-.034-.463c0-.151.013-.296.039-.434.026-.138.065-.269.117-.393a1.945 1.945 0 0 1 .469-.667 2.242 2.242 0 0 1 .738-.451 2.82 2.82 0 0 1 .454-.125c.161-.03.331-.049.511-.056.363-.015.718 0 1.064.046a5.729 5.729 0 0 1 1.984.644c.314.17.619.371.916.604v-4.345a6.693 6.693 0 0 0-.904-.296 8.432 8.432 0 0 0-.999-.188 10.728 10.728 0 0 0-1.091-.081 13.98 13.98 0 0 0-1.184.024M52.674 36.216h-.04c-.911 2.204-2.403 4.216-4.415 5.903a18.322 18.322 0 0 1-3.477 2.283c-.255 2.788-2.455 4.967-5.137 4.967-1.32 0-2.523-.529-3.437-1.398v-8.21c.913-.869 2.116-1.399 3.437-1.399 1.868 0 3.506 1.06 4.411 2.646 2.509-1.457 4.451-3.53 5.485-5.953-1.209-1.008-1.989-2.576-1.989-4.34 0-1.667.696-3.159 1.792-4.169-1.111-2.321-3.064-4.295-5.55-5.673a5.156 5.156 0 0 1-4.149 2.09 5.147 5.147 0 0 1-3.437-1.312v-7.698a5.16 5.16 0 0 1 8.593 3.68c1.24.632 2.402 1.39 3.457 2.277 1.829 1.534 3.232 3.338 4.154 5.311.1-.007.2-.011.301-.011 2.851 0 5.161 2.463 5.161 5.504.001 3.041-2.31 5.502-5.16 5.502z"/></g></svg>