<svg xmlns="http://www.w3.org/2000/svg" viewBox="0 0 16 16"><style>.icon-canvas-transparent{opacity:0;fill:#f6f6f6}.icon-vs-out{fill:#f6f6f6}.icon-vs-fg{fill:#f0eff1}.icon-folder{fill:#dcb67a}.icon-vs-yellow{fill:#fc0}</style><path class="icon-canvas-transparent" d="M16 16H0V0h16v16z" id="canvas"/><path class="icon-vs-out" d="M16 2.5v10c0 .827-.673 1.5-1.5 1.5H9l-1 2H1l-1.002-2L1 11.992V4.5C1 3.673 1.677 3 2.504 3H5.39l1-2h8.11c.827 0 1.5.673 1.5 1.5z" id="outline"/><path class="icon-folder" d="M14.5 2H7.008l-1 2H2.504A.503.503 0 0 0 2 4.5v5.492L3.5 7h2l3 6h6a.5.5 0 0 0 .5-.5v-10a.5.5 0 0 0-.5-.5zM14 4H7.508l.5-1H14v1z" id="iconBg"/><path class="icon-vs-fg" d="M14 3v1H7.5L8 3h6z" id="iconFg"/><path class="icon-vs-yellow" d="M4.891 8.016h-.782l-3.016 6 .516.984h5.766l.484-1-2.968-5.984zM5 14H4v-1h1v1zm0-2H4v-2h1v2z" id="notificationBg"/><g id="notificationFg"><path class="icon-black" d="M5 12H4v-2h1v2zM5 13H4v1h1v-1z"/></g></svg>