<svg xmlns="http://www.w3.org/2000/svg" viewBox="0 0 16 16"><style>.icon-canvas-transparent{opacity:0;fill:#f6f6f6}.icon-vs-bg{fill:#424242}.icon-white{fill:#fff}.icon-vs-action-blue{fill:#00539c}.st0{fill:#f6f6f6}</style><path class="icon-canvas-transparent" d="M16 16H0V0h16v16z" id="canvas"/><path class="st0" d="M16 9.983l-4.467 4.483-3.303-3.304L6.449 13H8v3H1v-2.414L2.586 12H1V9H0V0h9v7.692l1.018 1.015v-5.68h3v5.695l1.148-1.145L16 9.412v.571z" id="outline"/><path class="icon-vs-bg" d="M2 11h3l-3 3v1h5v-1H4.013L7 11.051 6.952 11H7v-1H2v1zm2.5-7.75L5.2 5H3.8l.7-1.75zM8 1v7H1V1h7zM7 7L5 2H4L2 7h1l.399-1H5.6L6 7h1z" id="iconBg"/><path class="icon-white" d="M6 7h1L5 2H4L2 7h1l.399-1H5.6L6 7zM3.8 5l.7-1.75L5.2 5H3.8z" id="iconFg"/><path class="icon-vs-action-blue" d="M14.154 8.968l.707.707-3.34 3.352-3.352-3.352.707-.707 2.13 2.122V4.004h1v7.104l2.148-2.14z" id="colorAction"/></svg>