<svg xmlns="http://www.w3.org/2000/svg" viewBox="0 0 16 16"><style>.st0{opacity:0}.st0,.st1{fill:#f6f6f6}.st2{fill:#424242}</style><g id="outline"><path class="st0" d="M0 0h16v16H0z"/><path class="st1" d="M16 7V2h-5c-.366 0-.705.106-1 .278V2c0-1.103-.897-2-2-2H1v7c0 .872.564 1.607 1.344 1.88A1.99 1.99 0 0 0 2 10v6h6c.871 0 1.607-.564 1.881-1.344.319.217.705.344 1.119.344h5v-5c0-.6-.271-1.133-.691-1.5.42-.367.691-.9.691-1.5z"/></g><g id="icon_x5F_bg"><path class="st2" d="M8 1H2v6a1 1 0 0 0 1 1h4.939l-1.25-1.25H3.25v-4.5h4.5v3.439L9 6.939V2a1 1 0 0 0-1-1zM7.75 13.75h-3.5v-3.5h2.439L7.939 9H4a1 1 0 0 0-1 1v5h5a1 1 0 0 0 1-1v-3.939l-1.25 1.25v2.439zM14 9h-2.939l1.25 1.25h1.439v2.5h-2.5v-1.439L10 10.061V13a1 1 0 0 0 1 1h4v-4a1 1 0 0 0-1-1zM11 3a1 1 0 0 0-1 1v2.939l1.25-1.25V4.25h2.5v2.5h-1.439L11.061 8H14a1 1 0 0 0 1-1V3h-4z"/></g></svg>