<svg xmlns="http://www.w3.org/2000/svg" viewBox="0 0 16 16" enable-background="new 0 0 16 16"><path fill="#49494A" d="M11.8 4h-9.6c-.66 0-1.2-.623-1.2-1.385v-.23c0-.762.54-1.385 1.2-1.385h9.6c.66 0 1.2.623 1.2 1.385v.231c0 .761-.54 1.384-1.2 1.384zm1.2 8.615v-.231c0-.761-.54-1.384-1.2-1.384h-9.6c-.66 0-1.2.623-1.2 1.385v.231c0 .761.54 1.384 1.2 1.384h9.6c.66 0 1.2-.623 1.2-1.385z"/><path fill="#EE4423" d="M9.143 8.963h-5.658c-.644 0-1.171-.623-1.171-1.385v-.23c0-.762.527-1.385 1.171-1.385h5.659c.644 0 1.171.623 1.171 1.385v.231c-.001.761-.528 1.384-1.172 1.384zm3.671-2.985c-.828 0-1.5.672-1.5 1.5s.672 1.5 1.5 1.5 1.5-.672 1.5-1.5-.671-1.5-1.5-1.5z"/></svg>