<svg id="Layer_1" xmlns="http://www.w3.org/2000/svg" viewBox="0 0 16 16"><style>.st0{fill:#231f20}.st1{fill:#fff}</style><path class="st0" d="M0 0h16v16H0z"/><path class="st1" d="M2.794 4.778v2.4h2.4v.8h-2.4L2.797 11H2V4.001h3.194v.793l-2.4-.016zM9 3.801V11H8V5.001c-.213.203-.228.253-.502.401-.274.149-.573.28-.898.394v-.79a4.516 4.516 0 0 0 1.468-.817c.144-.12.29-.249.438-.388H9zM10 11l.019-.289c0-.215.018-.557.053-.729a1.923 1.923 0 0 1 .431-.879c.107-.127.232-.254.376-.38.143-.127.306-.257.486-.39l.596-.435c.208-.151.404-.3.585-.447a3.01 3.01 0 0 0 .475-.476c.135-.17.185-.418.226-.632.255-1.347-.771-1.75-1.228-1.75-.309 0-.605.067-.892.202-.285.135-.564.508-.837.748V4.525a3.33 3.33 0 0 1 .853-.476c.305-.115.623-.173.954-.173.276 0 .526.042.752.125.224.084.417.202.575.355.16.154.282.34.369.558.086.217.204.585.204.854 0 .317-.025 1.175-.75 1.941-.186.195-.433.335-.668.502a18.38 18.38 0 0 0-.79.589c-.215.172-.39.338-.525.502-.134.162-.231.33-.292.504-.059.174-.088.234-.088.463L11 10h3v1h-4z"/></svg>