<svg xmlns="http://www.w3.org/2000/svg" viewBox="0 0 16 16"><style>.st0{fill:#414141}.st1{fill:#545454}.st2{fill:#fff}</style><path class="st0" d="M0 0h16v16H0z" id="outline"/><path class="st1" d="M8.354 8l2.396-2.396v4.793L8.354 8zm-4.604.896L4.646 8l-.896-.896v1.792zM15 1v14H1V1h14zm-.75 2.346l-3.299-1.65L6.5 6.146l-3-3-1.75 1.75v6.207l1.75 1.75 3-3 4.451 4.45 3.299-1.65V3.346z" id="icon_x5F_bg"/><path class="st2" d="M11 2L6.5 6.5l-3-3L2 5v6l1.5 1.5 3-3L11 14l3-1.5v-9L11 2zM3.5 9.5v-3L5 8 3.5 9.5zM8 8l3-3v6L8 8z" id="icon_x5F_fg"/></svg>