<svg xmlns="http://www.w3.org/2000/svg" width="16" height="16"><style type="text/css">.icon-canvas-transparent{opacity:0;fill:#F6F6F6;} .icon-vs-out{fill:#F6F6F6;} .st0{fill:#00ACEE;} .st1{fill:#FFCC2F;} .st2{fill:#2BAF2B;} .st3{fill:#EF5734;} .st4{fill:#543729;} .st5{fill:#FFFFFF;} .st6{fill:#CECECE;}</style><path class="icon-canvas-transparent" d="M16 16h-16v-16h16v16z" id="canvas"/><path class="icon-vs-out" d="M7.349 15.154c-.184 0-.373-.026-.557-.073-.118.03-.243.044-.371.044-.634 0-1.272-.368-1.542-.884-.199.063-.409.096-.62.096-1.86 0-4.259-3.26-4.259-6.721 0-1.012.19-1.968.566-2.841.352-.817.856-1.54 1.497-2.149 1.191-1.131 2.781-1.78 4.364-1.78 1.775 0 2.877.983 3.466 1.934.788-.821 1.922-1.36 3.011-1.36.288 0 .566.038.826.114l1.567.456-1.118 1.188c-.488.519-.526.743-.584 1.083l-.049.275c-.113.683-.326 1.212-.605 1.619 1.886.407 2.292.797 2.482.979.536.516.728 1.493.444 2.273-.192.531-.573.923-1.084 1.136l-.144.224c-.394.516-1.121.837-1.896.837-.348.264-.826.421-1.362.421-.262 0-.519-.04-.762-.116l.043.159c.102.519-.023 1.084-.326 1.474l-.224.231c-.289.592-.932 1.007-1.696 1.043-.303.22-.671.338-1.067.338z" id="outline"/><g id="iconBg_1_"><path id="leaf" class="st0" d="M12.885 2.736c-1.854 0-3.237 1.96-2.598 3.368 2.624 0 1.556-2.422 2.598-3.368z"/><path id="body" class="st1" d="M13.484 8.027c0-.623-2.97-.933-4.625-1.03-1.654-.096-7.7 1.049-6.984 2.565.715 1.515 2.531 3.127 4.575 3.127 1.058 0 2.285-.746 2.353-2.116 1.224-.409 4.681-.43 4.681-2.546z"/><path id="wing_tip" class="st2" d="M11.965 8.441c.192.194-.416.719-.946.472.238.538-.811.986-1.321.602.054.434-.987.683-1.32.199.085.231.157.407.225.552l-.003-.002c.173.226.408.408 1.432.408 1.578 0 4.128-1.199 4.128-2.079 0-.728-.273-.797-.743-.743-.47.053-2.93.308-3.453.206.283.059 1.715.334 2.001.385z"/><path id="head" class="st3" d="M6.428 2.335c-3.018 0-6.048 3-4.606 7.138.98.588 2.286.355 2.578.042.442.141.837.201 1.19.201 1.833 0 3.4-1.948 3.4-4.382 0-2.496-1.648-2.999-2.562-2.999z"/><path id="eye_rim" class="st1" d="M5.192 5.007c0 .673.546 1.219 1.219 1.219s1.22-.546 1.22-1.219-.546-1.22-1.219-1.22-1.22.546-1.22 1.22z"/><path id="eye" class="st4" d="M5.682 5.007c0 .403.327.73.73.73.403 0 .73-.327.73-.73 0-.403-.327-.73-.73-.73-.403 0-.73.326-.73.73z"/><ellipse id="pupil_highlight" class="st5" cx="6.412" cy="4.683" rx=".425" ry=".264"/><path id="beak" class="st6" d="M8.914 4.382c-.555.323-.536 1.368-.29 1.878.477-.177 1.141-.527 1.245-.59.103-.063-.057-.3.343-.3.555 0 1.058.173 1.202.236-.091-.188-1.233-1.224-2.5-1.224z"/><path id="outline_1_" class="st4" d="M14.733 7.858c-.72-.692-4.321-1.124-5.457-1.249.055-.13.102-.264.14-.403.155-.068.322-.131.495-.183l.177.413c2.284.063 2.402-1.698 2.495-2.18.091-.471.086-.927.87-1.76-1.167-.34-2.846.527-3.409 1.818-.211-.08-.423-.139-.632-.175-.15-.606-.932-2.293-2.983-2.293-1.328 0-2.668.548-3.675 1.505-.544.516-.971 1.128-1.269 1.82-.322.747-.485 1.57-.485 2.445 0 3.049 2.081 5.721 3.257 5.721.513 0 .955-.384 1.059-.729.087.236.354.971.441 1.158.129.276.728.516.99.229.337.187.955.3 1.292-.199.649.137 1.223-.25 1.235-.711.318-.017.475-.464.405-.82-.051-.262-.599-1.203-.812-1.528.423.344 1.494.441 1.624 0 .682.535 1.744.254 1.828-.181.828.215 1.779-.257 1.623-.83 1.334-.094 1.164-1.51.791-1.868zm-3.466-2.347c-.35-.137-.795-.224-1.107-.224-.442 0-.711.25-1.127.25-.087 0-.295 0-.463-.059.11.115.247.178.512.178.158 0 .472-.081.726-.157l.017.159c-.477.114-.976.416-1.12.495-.321-.71-.045-1.381.21-1.691 1.145.002 2.07.788 2.352 1.049zm.495-.054l-.175-.163c-.18-.168-.367-.321-.559-.456.286-.569.647-1.19 1.102-1.574-.501.202-.995.805-1.287 1.45-.149-.094-.3-.179-.453-.253.408-.87 1.355-1.597 2.399-1.654-.701.634-.438 1.9-1.027 2.65zm-1.437.594c-.077-.167-.155-.445-.145-.608.13-.003.379.045.419.055l-.023.266.121-.247c.249.047.577.127.77.217-.227.146-.611.306-1.142.317zm-1.56-1.963c-.913.925-.552 2.095-.22 2.624-.473.787-1.402 1.324-2.482 1.569 1.212 0 1.925-.312 2.339-.617.264-.195.408-.387.481-.494 1.797.116 4.642.695 4.92.882.111.075.226.242.243.401-1.35-.189-3.784-.388-4.422-.422.452.064 3.752.689 4.325.835-.174.284-.57.484-1.168.345.323.44-.304.968-1.177.677.192.432-.585.821-1.469.37.011.432-1.096.482-1.534.004l.083.213c-.141 1.262-1.174 2.045-2.233 2.045-2.592 0-4.85-2.105-4.85-4.906 0-2.961 2.188-5.17 4.829-5.17 1.511.002 2.195 1.193 2.335 1.644z"/></g></svg>