<svg xmlns="http://www.w3.org/2000/svg" viewBox="0 0 16 16"><style>.st0{fill:#f6f6f6}.st1{fill:#424242}.st2{fill:#f0eff1}</style><path class="st0" d="M0 16V5c0-2.758 2.243-5 5-5h11v16H0z" id="outline"/><path class="st1" d="M5 1a4 4 0 0 0-4 4v10h14V1H5zm9 13H2V5c0-1.654 1.346-3 3-3h9v12zM13 3l-2 10H9.5L8 5.5 6.5 13H5L3 3h1.5l1.25 6.25L7 3h2l1.25 6.25L11.3 4H10V3h3z" id="icon_x5F_bg"/><path class="st2" d="M5 2C3.346 2 2 3.346 2 5v9h12V2H5zm6 11H9.5L8 5.5 6.5 13H5L3 3h1.5l1.25 6.25L7 3h2l1.25 6.25L11.3 4H10V3h3l-2 10z" id="icon_x5F_fg"/></svg>