<svg xmlns="http://www.w3.org/2000/svg" viewBox="0 0 16 16"><style>.icon-canvas-transparent{opacity:0;fill:#f6f6f6}.icon-vs-out{fill:#f6f6f6}.icon-vs-bg{fill:#424242}</style><path class="icon-canvas-transparent" d="M16 16H0V0h16v16z" id="canvas"/><path class="icon-vs-out" d="M8.527 13.087l1.084-1.084H3v-3h1.139l-3.566-3.5 4.788-4.7 2.115 2.115-1.085 1.084h6.611v3h-1.139l3.566 3.5-4.788 4.699-2.114-2.114zm1.085-4.084L8.527 7.918l.916-.916H6.391l1.084 1.085-.916.916h3.053z" id="outline"/><path class="icon-vs-bg" d="M5.354 2.211l.707.707-2.084 2.084h8.025v1H3.977l2.084 2.085-.707.707L2 5.503l3.354-3.292zm5.294 11.583l-.707-.707 2.084-2.084H4v-1h8.025L9.941 7.918l.707-.707 3.354 3.291-3.354 3.292z" id="iconBg"/></svg>