<svg xmlns="http://www.w3.org/2000/svg" viewBox="0 0 16 16"><defs><style>.icon-canvas-transparent{fill:#f6f6f6;opacity:0;}.brand-nuget{fill:#004880;}</style></defs><title>BrandGVFS_16x</title><g id="canvas"><path class="icon-canvas-transparent" d="M16,0V16H0V0Z"/></g><g id="iconBg"><path class="brand-nuget" d="M2.723,8.469a.967.967,0,0,1,.966.966.989.989,0,0,1-.009.123l0,.029c-.006.036-.014.071-.023.105l0,.011A.966.966,0,1,1,2.275,8.579h0A1.171,1.171,0,0,1,2.723,8.469ZM15.611,6.981,9.941,1.164a1.328,1.328,0,0,0-1.879,0L4.1,5.239H8.626a1.634,1.634,0,0,1,.358-.49A1.619,1.619,0,0,1,10.21,4.22a1.679,1.679,0,0,1,.188.01A1.8,1.8,0,1,1,8.588,6.8H2.557A2.634,2.634,0,0,0,0,9.435a2.565,2.565,0,0,0,2.622,2.554H5.588l2.474,2.639a1.328,1.328,0,0,0,1.879,0l4.34-4.374h-9.7a2.561,2.561,0,0,1-.307.41,2.137,2.137,0,0,1-1.549.709A1.938,1.938,0,1,1,4.416,8.5s.106.218.117.246H15.7s.107-.137.126-.171A1.327,1.327,0,0,0,15.611,6.981Z"/></g></svg>