<svg xmlns="http://www.w3.org/2000/svg" viewBox="0 0 16 16"><style>.icon-canvas-transparent{opacity:0;fill:#f6f6f6}.icon-vs-out{fill:#f6f6f6}.icon-vs-bg{fill:#424242}.icon-vs-fg{fill:#f0eff1}.icon-vs-blue{fill:#1ba1e2}.icon-vs-action-orange{fill:#c27d1a}</style><path class="icon-canvas-transparent" d="M16 16H0V0h16v16z" id="canvas"/><path class="icon-vs-out" d="M16 2v14H0V5h6V2c0-1.103.897-2 2-2h6c1.102 0 2 .897 2 2z" id="outline"/><path class="icon-vs-fg" d="M8 2v3h4v5h1v1h-1v1h1v1h-1v1h2V2H8zm5 2H9V3h4v1zM2 7v5l2-2 2.5 2 2-1 1.5 1V7H2zm5 3a1 1 0 1 1 0-2 1 1 0 0 1 0 2z" id="iconFg"/><g id="iconBg"><path class="icon-vs-bg" d="M13 13h-1v-1h1v1zm0-3h-1v1h1v-1zm0-7H9v1h4V3zm1-2H8c-.551 0-1 .449-1 1v3h1V2h6v12h-2v1h3V2c0-.551-.448-1-1-1z"/><path class="icon-vs-action-orange" d="M8 9a1 1 0 1 1-2 0 1 1 0 0 1 2 0z"/><path class="icon-vs-blue" d="M11 15H1v-2l3-3 2.5 2 2-1 2.5 1.667V15z"/><path class="icon-vs-bg" d="M2 12l-1 1V6h10v6.667L8.5 11l1.5 1V7H2v5z"/></g></svg>