<svg xmlns="http://www.w3.org/2000/svg" width="16" height="16"><style type="text/css">.icon-canvas-transparent{opacity:0;fill:#F6F6F6;} .icon-vs-out{fill:#F6F6F6;} .icon-vs-bg{fill:#424242;} .icon-vs-fg{fill:#F0EFF1;} .icon-visualstudio{fill:#68217A;}</style><path class="icon-canvas-transparent" d="M16 16h-16v-16h16v16z" id="canvas"/><path class="icon-vs-out" d="M16 3.586v5.414c-.031.805-.582 1.957-1.973 1.995l-.027.001v1.004l-.015.099c-.046.27-.234 1.039-.832 1.514l-.11.089c-.269.177-.607.298-1.043.298h-2v.618l-2.764 1.382h-.65l-2.586-2.586-2 2-2-2v-4.828l1.586-1.586-1.586-1.586v-4.828l2 2v-2.586h10.414l3.586 3.586z" id="outline"/><path class="icon-vs-bg" d="M7 3v2l-3 3-3-3v-2l2 2v-4h2v4l2-2zm4 5h-1v1h1v-1zm-1 3h1v-1h-1v1zm-1-4.118v-.882h-1.764l1.764.882zm1-2.882h-2v1h2v2h2v5h-2v1h2v-.005c.961-.026 1-.995 1-.995v-5l-3-3zm2-3h-4v1h4v2h2v5.995c.961-.026 1-.995 1-.995v-5l-3-3z" id="iconBg"/><path class="icon-vs-fg" d="M12 7v5h-2v-1h1v-1h-1v-1h1v-1h-1v-.618l-1-.5v-.882h-1.586l.586-.586v-.414h2v2h2zm0-3v-2h-4v1h2.414l3.586 3.586v-2.586h-2z" id="iconFg"/><path class="icon-visualstudio" d="M7 7l-3 3-2-2-1 1v4l1 1 2-2 3 3 2-1v-6l-2-1zm-5 5v-2l1 1-1 1zm3-1l2-2v4l-2-2z" id="colorImportance"/></svg>