<svg xmlns="http://www.w3.org/2000/svg" viewBox="0 0 16 16"><style>.icon-canvas-transparent{opacity:0;fill:#f6f6f6}.icon-vs-out{fill:#f6f6f6}.icon-vs-bg{fill:#424242}.icon-vs-fg{fill:#f0eff1}.icon-white{fill:#fff}.icon-office-outlook,.st0{fill:#0072c6}.st0{fill-rule:evenodd;clip-rule:evenodd}</style><path class="icon-canvas-transparent" d="M16 16H0V0h16v16z" id="canvas"/><path class="icon-vs-out" d="M16 14H8v2H6.93L0 15.076V1h16v13z" id="outline"/><g id="iconBg"><path class="icon-vs-bg" d="M15 2v11H8v-1h6V4l-1 1h-2l2-2H3l3.11 3.11-1.765.235L2 4v2.658l-1 .133V2h14z"/><path class="icon-vs-bg" d="M13 11h-1v-1h1v1zM13 9h-1V8h1v1zM13 7h-1V6h1v1zM11 7h-1V6h1v1zM9 7H8V6h1v1zM9 11H8v-1h1v1zM11 11h-1v-1h1v1z"/></g><path class="icon-vs-fg" d="M2 4l2.345 2.345L2 6.658V4zm12 0v8H8v-1h1v-1H8V7h1V6H8v-.142l-1.89.252L3 3h10l-2 2h2l1-1zm-3 6h-1v1h1v-1zm0-4h-1v1h1V6zm2 4h-1v1h1v-1zm0-2h-1v1h1V8zm0-2h-1v1h1V6z" id="iconFg"/><g id="colorImportance"><path class="st0" d="M4.832 10.028a1.728 1.728 0 0 0-.09-.266 1.167 1.167 0 0 0-.277-.391.797.797 0 0 0-.592-.202 1.005 1.005 0 0 0-.231.035.827.827 0 0 0-.381.225 1.2 1.2 0 0 0-.15.189 1.42 1.42 0 0 0-.115.219 1.714 1.714 0 0 0-.081.248c-.022.087-.037.18-.048.277-.011.098-.016.2-.016.307a2.627 2.627 0 0 0 .071.619c.024.091.055.176.091.256a1.24 1.24 0 0 0 .272.385.875.875 0 0 0 .356.197.953.953 0 0 0 .625-.046.957.957 0 0 0 .176-.11 1.01 1.01 0 0 0 .155-.158c.051-.065.096-.137.134-.216a1.58 1.58 0 0 0 .096-.259c.026-.094.045-.194.058-.302a3.112 3.112 0 0 0 .002-.697 2.144 2.144 0 0 0-.055-.31z"/><path class="icon-office-outlook" d="M1 7.8v6.4l6 .8V7l-6 .8zm4.905 3.713c-.196 1.272-1.359 2.259-2.66 1.748-1.201-.473-1.512-2.008-1.166-3.143.332-1.091 1.494-1.845 2.62-1.392 1.077.433 1.356 1.748 1.206 2.787-.027.172.025-.173 0 0z"/><path class="icon-office-outlook" d="M3.831 12.493c-1.304-.041-1.364-2.633-.21-2.953a.952.952 0 0 1 .65.049c.979.489.869 2.958-.44 2.904"/></g><path class="icon-white" d="M3.831 12.493c-1.393-.044-1.369-2.947.022-2.988 1.432-.042 1.433 3.048-.022 2.988m.047-3.886c-2.775.16-2.489 5.243.363 4.768 2.4-.4 2.209-4.914-.363-4.768" id="notificationFg"/></svg>