<svg xmlns="http://www.w3.org/2000/svg" viewBox="0 0 16 16"><style>.icon-canvas-transparent{opacity:0;fill:#f6f6f6}.icon-vs-out{fill:#f6f6f6}.icon-vs-bg{fill:#424242}.icon-vs-action-blue{fill:#00539c}</style><path class="icon-canvas-transparent" d="M0 0h16v16H0V0z" id="canvas"/><path class="icon-vs-out" d="M7.708 3h6.35v11h-10v-3h3v-1h-1V8h-.2l-2.1 1.808-1.312-1.312-.788-.787L3.608 6H.059V1h3v.349C3.558 1.088 3.987 1 4.561 1c.222.001.438.03.651.071a3.579 3.579 0 0 1 .726.221c.076.033.148.072.221.11a3.614 3.614 0 0 1 .6.391c.119.097.231.203.337.316.038.04.084.071.12.113.067.078.116.167.175.25.033.046.067.091.097.138.079.122.15.247.212.376L7.708 3z" id="outline"/><path class="icon-vs-bg" d="M8 10h5v1H8v-1zm-3 3h8v-1H5v1zm3-9v1h5V4H8zm-.248 3H13V6H8l-.248 1zM7 9h6V8H7v1z" id="iconBg"/><path class="icon-vs-action-blue" d="M4.502 2c-.592 0-.924.097-1.616.594L2 3.361V2H1v3h3V4H2.76l.773-.644c.319-.207.614-.356.969-.356a1.502 1.502 0 0 1 .969 2.645L3.062 7.757l.688.687 2.377-2.046A2.5 2.5 0 0 0 4.502 2z" id="colorAction"/></svg>