<svg xmlns="http://www.w3.org/2000/svg" viewBox="0 0 16 16"><style>.icon-canvas-transparent{opacity:0;fill:#f6f6f6}.icon-vs-out{fill:#f6f6f6}.icon-vs-fg{fill:#f0eff1}.icon-folder{fill:#dcb67a}.icon-vs-blue{fill:#1ba1e2}.icon-white{fill:#fff}</style><path class="icon-canvas-transparent" d="M16 16H0V0h16v16z" id="canvas"/><path class="icon-vs-out" d="M14.5 1H6.39l-1 2H2.504C1.677 3 1 3.673 1 4.5v4.199C0 9.469-.002 10.435-.002 11.5A4.501 4.501 0 0 0 8.24 14h6.26c.827 0 1.5-.673 1.5-1.5v-10c0-.827-.673-1.5-1.5-1.5z" id="outline"/><path class="icon-folder" d="M14.5 2H7.008l-1 2H2.504A.503.503 0 0 0 2 4.5v3.258C3 7.28 3.574 7 4.498 7a4.501 4.501 0 0 1 4.501 4.5c0 .529-.107 1.029-.275 1.5H14.5a.5.5 0 0 0 .5-.5v-10a.5.5 0 0 0-.5-.5zM14 4H7.508l.5-1H14v1z" id="iconBg"/><path class="icon-vs-fg" d="M14 3v1H7.5L8 3h6z" id="iconFg"/><path class="icon-vs-blue" d="M4.5 8a3.5 3.5 0 1 0 0 7 3.5 3.5 0 0 0 0-7zm.5 6H4v-3h1v3zm0-4H4V9h1v1z" id="notificationBg"/><g id="notificationFg"><path class="icon-white" d="M5 14H4v-3h1v3zM5 9H4v1h1V9z"/></g></svg>