<svg xmlns="http://www.w3.org/2000/svg" viewBox="0 0 16 16"><style>.icon-canvas-transparent{opacity:0;fill:#f6f6f6}.icon-white{fill:#fff}.icon-visualstudio{fill:#68217a}</style><path class="icon-canvas-transparent" d="M16 16H0V0h16v16z" id="canvas"/><path class="icon-white" d="M7.996 0L1 4.038v7.908L8.001 16 15 12V4.031L7.996 0z" id="outline"/><path class="icon-visualstudio" d="M7.997 1.154L14 4.609v6.81l-5.996 3.427L2 11.37V4.615l5.997-3.461M7.996 0L1 4.038v7.908L8.001 16 15 12V4.031L7.996 0zm1.813 4.276l-3.366 2.72a.188.188 0 0 1-.237 0L4.615 5.834a.188.188 0 0 0-.222-.01l-.51.442a.189.189 0 0 0-.085.158v3.174a.19.19 0 0 0 .088.16l.628.296a.188.188 0 0 0 .219-.014l1.471-1.161a.188.188 0 0 1 .239 0l3.419 2.812a.188.188 0 0 0 .181.033l1.002-.603a.188.188 0 0 0 .127-.178v-6.26a.19.19 0 0 0-.142-.183l-1.057-.26a.187.187 0 0 0-.164.036zm.407 1.154l-.018 5.122a.092.092 0 0 1-.146.074l-2.99-2.447c-.118-.098-.124-.324-.007-.418l3.003-2.412a.1.1 0 0 1 .158.081zM4.411 7.148a.07.07 0 0 1 .108-.058l1.02.67c.116.093.111.317-.007.413l-.998.607a.079.079 0 0 1-.119-.067l-.004-1.565z" id="iconBg"/></svg>