<svg xmlns="http://www.w3.org/2000/svg" width="16" height="16"><style type="text/css">.icon-canvas-transparent{opacity:0;fill:#F6F6F6;} .icon-vs-out{fill:#F6F6F6;} .icon-vs-fg{fill:#F0EFF1;} .icon-vs-red{fill:#E51400;} .icon-vs-action-green{fill:#388A34;}</style><path class="icon-canvas-transparent" d="M16 16h-16v-16h16v16z" id="canvas"/><path class="icon-vs-out" d="M16 8c0 4.411-3.589 8-8 8s-8-3.589-8-8c0-.692.097-1.359.263-2h-.263v-4h2v-2h4v.263c.641-.166 1.308-.263 2-.263 4.411 0 8 3.589 8 8z" id="outline"/><path class="icon-vs-red" d="M15 8c0 3.866-3.134 7-7 7s-7-3.134-7-7c0-.695.105-1.366.294-2h.706v2h3v3l-2-2.017v2l2.5 2.517 2.5-2.517v-2l-1.992 2-.008-2.983v-2h2v.983l2-1.983v6h1v-6l2 1.983v-2l-2.5-2.483-2.5 2.483v-2.983h-2v-.706c.634-.189 1.305-.294 2-.294 3.866 0 7 3.134 7 7z" id="iconBg"/><path class="icon-vs-fg" d="M5.517 13.5l-2.5-2.517v-2l1.983 2.017v-3h1l.017 2.983 2-2v2l-2.5 2.517zm2.5-6.517l1.983-1.983v6h1v-6l2.017 1.983v-2l-2.5-2.483-2.5 2.483v2z" id="iconFg"/><path class="icon-vs-action-green" d="M7 5h-2v2h-2v-2h-2v-2h2v-2h2v2h2v2z" id="colorAction"/></svg>