<svg xmlns="http://www.w3.org/2000/svg" viewBox="0 0 16 16"><style>.icon-canvas-transparent{opacity:0;fill:#f6f6f6}.icon-vs-out{fill:#f6f6f6}.icon-vs-fg{fill:#f0eff1}.icon-visualstudio{fill:#68217a}</style><path class="icon-canvas-transparent" d="M16 16H0V0h16v16z" id="canvas"/><path class="icon-vs-out" d="M13.542 5h-.003c0 1-.233 2.226-1.661 3.653-.362.331-.952 1.661-1.378 2.729v2.476L9.005 16H7.014L5.5 13.87v-2.5c-.425-1.068-1.015-2.387-1.342-2.684C2.699 7.229 2.462 6 2.461 5h-.003c-.007-2 .494-2.854 1.41-3.778C4.444.643 5.175.247 6.024 0h3.943c.853.248 1.588.647 2.165 1.228C13.049 2.152 13.55 3 13.542 5z" id="outline"/><path class="icon-visualstudio" d="M6.5 12h3v1h-3v-1zm.944 3h1.125l.932-1H6.499l.945 1zM8 .701C4.489.712 3.449 2.969 3.458 4.947c-.009.067.039 1.643 1.371 2.975C5.55 8.575 6.515 11 6.515 11h2.97s.965-2.425 1.686-3.078c1.332-1.332 1.381-2.908 1.371-2.975C12.552 2.969 11.511.712 8 .701z" id="iconBg"/><path class="icon-vs-fg" d="M10.5 5c0 1.458-1 1.3-1 1.3L9 9h-.49L8.5 6s1 .021 1-1h-3c0 1 1 1 1 1l.01 3H7l-.5-2.7s-1 .158-1-1.3c0-.354.375-1 1-1h3c.625 0 1 .646 1 1z" id="iconFg"/></svg>