<?xml version="1.0" encoding="utf-8"?>
<!-- Generator: Adobe Illustrator 18.1.1, SVG Export Plug-In . SVG Version: 6.00 Build 0)  -->
<!DOCTYPE svg PUBLIC "-//W3C//DTD SVG 1.1//EN" "http://www.w3.org/Graphics/SVG/1.1/DTD/svg11.dtd">
<svg version="1.1" xmlns="http://www.w3.org/2000/svg" xmlns:xlink="http://www.w3.org/1999/xlink" x="0px" y="0px" width="16px"
	 height="16px" viewBox="0 0 16 16" style="enable-background:new 0 0 16 16;" xml:space="preserve">
<style type="text/css">
	.icon-canvas-transparent{opacity:0;fill:#F6F6F6;}
	.icon-vs-out{fill:#F6F6F6;}
	.icon-edge{fill:#0078D7;}
</style>
<g id="canvas">
	<path class="icon-canvas-transparent" d="M16,16H0V0h16V16z"/>
</g>
<g id="outline">
	<path class="icon-vs-out" d="M15.451,7.669L15.435,10H14v4.605l-0.401,0.287c-0.499,0.265-0.996,0.485-1.606,0.656
		l-0.077,0.03l-1.302,0.271c-0.523,0.075-1.064,0.122-1.642,0.141C8.874,15.996,8.76,16,8.636,16H8.574
		C5.017,16,2.16,13.037,2.16,9.524c0-0.6,0.081-1.185,0.235-1.742L1,8L0.554,7.155c0.115-1.128,0.421-2.179,0.911-3.123
		C2.116,2.775,3.05,1.777,4.242,1.065C5.398,0.376,6.713,0.017,8.15,0c0.883,0.016,1.717,0.167,2.51,0.449
		c2.854,1.014,4.596,3.47,4.775,6.738C15.445,7.369,15.451,7.485,15.451,7.669z"/>
</g>
<g id="iconBg">
	<path class="icon-edge" d="M14.437,7.242c0.009,0.162,0.014,0.326,0.014,0.492l-0.01,1.396h-0.343H5.665
		c0.001,0.014,0.003,0.028,0.004,0.042C5.686,9.38,5.718,9.589,5.766,9.792c0.131,0.559,0.403,1.079,0.839,1.46
		c0.464,0.405,1.061,0.62,1.661,0.722c0.374,0.064,0.757,0.096,1.142,0.098c1.313-0.072,2.053-0.261,2.954-0.598
		c0.313-0.134,0.615-0.289,0.902-0.465v1.445v1.549v0.007c-0.465,0.246-0.983,0.444-1.551,0.598
		c-0.005,0.001-0.009,0.003-0.014,0.004c-0.083,0.022-0.167,0.044-0.252,0.064c-0.047,0.011-0.094,0.022-0.141,0.033
		c-0.043,0.01-0.086,0.019-0.13,0.028c-0.092,0.02-0.185,0.038-0.279,0.055c-0.027,0.005-0.054,0.011-0.082,0.015
		c-0.039,0.007-0.079,0.013-0.119,0.019c-0.07,0.012-0.141,0.023-0.212,0.034c-0.006,0.001-0.012,0.002-0.017,0.002
		c-0.477,0.069-0.983,0.111-1.518,0.128C8.845,14.997,8.741,15,8.636,15c-0.031,0-0.061-0.001-0.092-0.001
		c-2.982-0.049-5.385-2.481-5.385-5.475c0-2.306,1.425-4.279,3.443-5.086c-0.246,0.249-0.446,0.543-0.6,0.862
		c-0.21,0.4-0.343,0.848-0.397,1.344h4.977c0-0.021-0.001-0.04-0.001-0.061h0.008c0-1.168-0.293-1.967-0.866-2.427
		C9.492,3.968,9.213,3.836,8.889,3.759c-0.184-0.044-0.37-0.072-0.561-0.085C8.227,3.669,8.126,3.666,8.023,3.666
		c-0.009,0-0.017,0-0.026,0c-2.723,0-5.111,1.435-6.448,3.59C1.651,6.251,1.918,5.33,2.352,4.492C2.92,3.397,3.72,2.541,4.754,1.924
		C5.763,1.323,6.899,1.015,8.163,1c0.728,0.014,1.458,0.141,2.163,0.391C12.914,2.311,14.289,4.548,14.437,7.242"/>
</g>
</svg>
