<svg xmlns="http://www.w3.org/2000/svg" viewBox="0 0 16 16"><style>.icon-canvas-transparent{opacity:0;fill:#f6f6f6}.icon-vs-out{fill:#f6f6f6}.icon-vs-bg{fill:#424242}.icon-vs-fg{fill:#f0eff1}</style><path class="icon-canvas-transparent" d="M16 16H0V0h16v16z" id="canvas"/><path class="icon-vs-out" d="M16 15h-6v1H0V1h16v14z" id="outline"/><g id="iconBg"><path class="icon-vs-bg" d="M15 2v12h-5v-1h4V5H2v1.263c-.375.16-.712.39-1 .67V2h14z"/><path class="icon-vs-bg" d="M3.286 7A2.285 2.285 0 0 0 1 9.286V15h8V7H3.286zM8 14H2V9.286C2 8.34 2.34 8 3.286 8H8v6z"/><path class="icon-vs-bg" d="M5 8.5c-1.104 0-2 1.119-2 2.5s.896 2.5 2 2.5c1.105 0 2-1.119 2-2.5s-.895-2.5-2-2.5zm0 4.3c-.583 0-1.3-.824-1.3-1.8S4.479 9.2 5 9.2s1.3.824 1.3 1.8-.758 1.8-1.3 1.8z"/></g><path class="icon-vs-fg" d="M14 5v8h-4V6H3.286A3.26 3.26 0 0 0 2 6.263V5h12z" id="iconFg"/></svg>