<svg xmlns="http://www.w3.org/2000/svg" width="16" height="16"><style type="text/css">.icon-canvas-transparent{opacity:0;fill:#F6F6F6;} .icon-vs-out{fill:#F6F6F6;} .icon-vs-fg{fill:#F0EFF1;} .icon-vs-red{fill:#E51400;} .icon-vs-action-green{fill:#388A34;}</style><path class="icon-canvas-transparent" d="M16 16h-16v-16h16v16z" id="canvas"/><path class="icon-vs-out" d="M16 8c0 4.411-3.589 8-8 8s-8-3.589-8-8c0-.692.097-1.359.263-2h-.263v-4h2v-2h4v.263c.641-.166 1.308-.263 2-.263 4.411 0 8 3.589 8 8z" id="outline"/><path class="icon-vs-red" d="M15 8c0 3.866-3.134 7-7 7s-7-3.134-7-7c0-.695.105-1.366.294-2h.706v2h3l-.5 1h3l-2 4h.5l6-6h-4.5l4-4h-3.5v-1h-2v-.706c.634-.189 1.305-.294 2-.294 3.866 0 7 3.134 7 7z" id="iconBg"/><polygon class="icon-vs-fg" points="7.5,7 11.5,3 8,3 8,6 6,6 6,8 5,8 4.5,9 7.5,9 5.5,13 6,13 12,7" id="iconFg"/><path class="icon-vs-action-green" d="M7 5h-2v2h-1.982v-2h-2.018v-1.982h2.018v-2.018h1.982v2.018h2v1.982z" id="colorAction"/></svg>