<svg xmlns="http://www.w3.org/2000/svg" viewBox="0 0 16 16"><style>.st0{fill:#f6f6f6}.st1{fill:#424242}.st2{fill:#f0eff1}</style><path class="st0" d="M16 16H0V0h16v16z" id="outline"/><path class="st1" d="M1 1v14h14V1H1zm8 3l1 4-4-1 2-1 1-2zM6 4l.5-2L7 5l-3-.5L6 4zm1.495 8.89c-3.28-.469-5.732-2.298-5.477-4.088.116-.813.776-1.476 1.766-1.915-.191.233-.334.487-.374.771-.206 1.437 1.763 2.904 4.395 3.28 2.633.376 4.933-.482 5.139-1.919.038-.264-.021-.526-.119-.785.774.684 1.186 1.478 1.073 2.265-.256 1.789-3.123 2.859-6.403 2.391z" id="icon_x5F_bg"/><path class="st2" d="M10 8L6 7l2-1 1-2 1 4zM6.5 2L6 4l-2 .5L7 5l-.5-3zm6.324 6.234c.099.259.157.521.119.785-.206 1.437-2.506 2.295-5.139 1.919-2.632-.376-4.601-1.844-4.395-3.28.041-.284.184-.538.375-.771-.989.439-1.649 1.101-1.765 1.915-.256 1.79 2.196 3.619 5.477 4.088 3.28.469 6.146-.601 6.402-2.391.112-.787-.299-1.581-1.074-2.265z" id="icon_x5F_fg"/></svg>