<svg xmlns="http://www.w3.org/2000/svg" viewBox="0 0 16 16"><defs><style>.icon-canvas-transparent{fill:#f6f6f6;opacity:0;}.brand-azure-blue{fill:#0072c6;}</style></defs><title>Azure_NoHalo_16x</title><path class="icon-canvas-transparent" d="M16,0V16H0V0Z"/><path class="brand-azure-blue" d="M16,14H3.769l0-.023,7.425-1.3c-.243-.29-.456-.545-.67-.8Q8.994,10.067,7.467,8.261a.308.308,0,0,1-.094-.353c.647-1.741,1.283-3.487,1.921-5.232.011-.031.025-.06.058-.14ZM8.009,3.426l.817-1.748c-.1.073-.14.1-.176.128Q6.639,3.484,4.629,5.165a2.966,2.966,0,0,0-.748.773C2.811,7.809,1.722,9.669.641,11.533c-.209.361-.415.724-.641,1.116H.29c1.032,0,2.064-.008,3.1.006a.4.4,0,0,0,.434-.272Q5.906,7.9,8.009,3.426Z"/></svg>