<svg xmlns="http://www.w3.org/2000/svg" viewBox="0 0 16 16"><defs><style>.icon-canvas-transparent,.icon-vs-out{fill:#f6f6f6;}.icon-canvas-transparent{opacity:0;}.brand-azure-blue{fill:#0072c6;}</style></defs><title>Azure_16x</title><path class="icon-canvas-transparent" d="M16,0V16H0V0Z"/><path class="icon-vs-out" d="M10.049,2.467,9.022.786,8.572,1.85l-.514-.385-.1.073L4.328,4.569a3.181,3.181,0,0,0-.8.881Q2.511,7.228,1.477,9L.7,10.339,0,11.549v1.268H3.262L3.43,14H16V12.73Zm-4.693,9.31q.724-1.554,1.452-3.109l2.1,2.485Z"/><path class="brand-azure-blue" d="M15,13H4.3l0-.02,6.5-1.141c-.213-.254-.4-.477-.586-.7L7.534,7.979a.27.27,0,0,1-.082-.309c.566-1.524,1.122-3.051,1.681-4.578.01-.027.022-.053.051-.123ZM8.008,3.747l.715-1.529c-.088.064-.122.086-.154.112Q6.809,3.8,5.05,5.269a2.6,2.6,0,0,0-.655.677C3.459,7.583,2.507,9.21,1.561,10.841c-.183.316-.364.633-.561.977h.254c.9,0,1.806-.007,2.709.005a.349.349,0,0,0,.379-.238Q6.168,7.663,8.008,3.747Z"/></svg>