<svg xmlns="http://www.w3.org/2000/svg" viewBox="0 0 16 16"><style>.st0{fill:#f6f6f6}.st1{fill:#424242}.st2{fill-rule:evenodd;clip-rule:evenodd;fill:#217346}.st3{fill:#fff}</style><path class="st0" d="M10.935 0L0 1.655v12.621l10.999 1.666v-.506l.568.564H16v-.393L14.393 14H16v-4h-1.607L16 8.393V8h-4.436l-.565.566V0z" id="outline"/><path class="st1" d="M11.979 12.981l2 2h-2l-3-2.965 3-3h2l-2 2h2.959v1.965z" id="icon_x5F_bg"/><path class="st2" d="M7.56 12.021l.273-.274-1.536-.089-1.069-2.385a.882.882 0 0 1-.056-.181c-.014-.039-.026.018-.033-.03-.012-.049-.022-.061-.036-.061h-.015c-.008 0-.012-.045-.024-.012-.007.033-.017.022-.029.061-.012.041-.021.06-.037.108a1.405 1.405 0 0 1-.053.141L3.92 11.532l-1.526-.092 1.823-3.41-1.672-3.418 1.566-.09.854 2.082c.019.043.035.086.053.133.015.047.033.095.044.145.018.049.03.001.043.054.016.056.032.064.041.064h.018c.008 0 .02.026.031-.016.012-.045.026-.043.041-.094.02-.054.033-.083.055-.144.019-.06.041-.115.064-.183l.987-2.177 1.627-.092-1.932 3.703 1.917 3.629L10 9.571V1.152L1 2.516v10.9l9 1.363v-.335l-2.44-2.423z" id="color_x5F_decoration"/><path class="st3" d="M8.048 4.27l-1.626.093-.986 2.183-.065.197c-.021.061-.036.115-.054.17-.017.05-.031.099-.041.144a1.982 1.982 0 0 0-.032.116h-.016c-.012-.057-.028-.11-.041-.166-.015-.051-.028-.105-.044-.154-.012-.049-.031-.098-.045-.145-.019-.046-.034-.09-.053-.133l-.853-2.08-1.567.088L4.296 8l-1.822 3.409L4 11.496l1.025-2.238a2.872 2.872 0 0 0 .09-.289c.012-.039.022-.078.03-.111.011-.034.015-.067.022-.093h.017a8.434 8.434 0 0 0 .068.297c.008.042.019.077.027.106a.273.273 0 0 0 .03.076l1.068 2.387 1.726.1L6.116 7.97l1.932-3.7" id="not_x5F_fg"/></svg>