<svg xmlns="http://www.w3.org/2000/svg" viewBox="0 0 16 16"><style>.st0,.st1{fill:#f6f6f6}.st0{opacity:0}.st1{fill-rule:evenodd;clip-rule:evenodd}.st2{fill:#31752f}.st3{fill:#fff}</style><g id="outline"><path class="st0" d="M0 0h16v16H0z"/><path class="st1" d="M3 14.316V1.682L14.079.034v15.933z"/></g><g id="color_x5F_decoration"><path class="st2" d="M9.222 5.614a1.015 1.015 0 0 0-.417-.227 1.801 1.801 0 0 0-.576-.059l-.637.023v2.553l.638-.001c.218 0 .411-.028.575-.083.166-.055.305-.138.417-.249.111-.111.195-.249.252-.415.056-.166.086-.36.086-.581 0-.215-.029-.404-.086-.564a.981.981 0 0 0-.252-.397z"/><path class="st2" d="M4 2.549v10.9l9 1.363V1.187L4 2.549zm7.333 4.523a2.747 2.747 0 0 1-.152.546 2.59 2.59 0 0 1-.608.911 2.716 2.716 0 0 1-.453.357c-.164.1-.336.182-.521.246a3.09 3.09 0 0 1-.585.145c-.205.03-.422.043-.647.041l-.775-.013v2.822l-1.573-.088V4.022l2.495-.139a3.95 3.95 0 0 1 1.229.099c.357.093.66.247.904.461a2 2 0 0 1 .553.83c.123.338.186.737.186 1.194 0 .212-.018.413-.053.605z"/></g><path class="st3" d="M7.591 7.904V5.351l.638-.023c.219-.009.411.011.576.059.166.048.305.123.417.227a.985.985 0 0 1 .252.396c.056.161.086.349.086.565 0 .221-.029.415-.086.581a1.065 1.065 0 0 1-.252.415 1.051 1.051 0 0 1-.417.249 1.822 1.822 0 0 1-.576.083l-.638.001m.923-4.021l-2.495.139v8.017l1.573.088V9.305l.775.014a4.36 4.36 0 0 0 .647-.042 3.09 3.09 0 0 0 .585-.145 2.594 2.594 0 0 0 .974-.604 2.57 2.57 0 0 0 .608-.91c.068-.172.119-.354.152-.546.035-.192.053-.394.053-.605a3.49 3.49 0 0 0-.186-1.194 2.006 2.006 0 0 0-.553-.83 2.173 2.173 0 0 0-.904-.461 3.95 3.95 0 0 0-1.229-.099" id="not_x5F_fg"/></svg>