<svg xmlns="http://www.w3.org/2000/svg" viewBox="0 0 16 16"><style>.st0{fill:#f6f6f6}.st1{fill:#68217a}.st2{fill:#f0eff1}.st3{fill:#00539c}</style><path class="st0" d="M11.732 0H9.164c-.374 0-.568.152-.568.152A5.27 5.27 0 0 0 5.954 2H5V0H3.5C1.57 0 0 1.57 0 3.5S1.57 7 3.5 7h.209L2 9h4.924c.457.631.946 1.699 1.013 2.026l.019.074.044.114v3.222L9.514 16h1.98L13 14.433v-3.224l.038-.115.013-.066c.08-.382.8-1.894 1.27-2.323C15.419 7.791 15.844 6.79 16 6.04V4.249C15.557 2.076 13.214 0 11.732 0z" id="outline"/><g id="icon_x5F_bg"><path class="st1" d="M9 12h3v.965H9zM9.945 14.985h1.125l.932-.985H9zM15.074 5.05l-.002-.014.008-.077c0-2.178-1.856-3.979-4.139-4.016-.053-.091-1.344.021-1.344.021v.012a4.258 4.258 0 0 0-2.461 1.2L8.601 4.07c.16-.058.29-.07.29-.07H12s1 .125 1 1c0 0 .028 1.003-.961 1.003L11.563 9H11V6.056L11.017 6c1.082 0 .928-1 .928-1H9.32l.372.48-.284.372c.144.087.331.148.592.148v3h-.562l-.149-.711-.3-1.889-1.398 1.828c.63.779 1.234 2.149 1.327 2.599l.076.173h3.002l.074-.176c.107-.516.906-2.248 1.613-2.889 1.581-1.315 1.401-2.822 1.391-2.885z"/></g><g id="icon_x5F_fg"><path class="st2" d="M8.989 6.399l.3 1.889.149.712H10V6c-.261 0-.448-.061-.592-.148l-.419.547z"/><path class="st2" d="M12 4H8.891s-.129.012-.29.07L9.32 5h2.624s.154 1-.928 1L11 6.056V9h.563l.477-2.997C13.028 6.003 13 5 13 5c0-.875-1-1-1-1z"/></g><path class="st3" d="M6 8H4l1.988-2H3.5a2.5 2.5 0 1 1 0-5H4v1h-.5C2.673 2 2 2.673 2 3.5S2.673 5 3.5 5h2.513L4 3h2l2.5 2.484L6 8z" id="color_x5F_action"/></svg>