<svg xmlns="http://www.w3.org/2000/svg" width="16" height="16"><style type="text/css">.icon-canvas-transparent{opacity:0;fill:#F6F6F6;} .icon-vs-yellow{fill:#FFCC00;} .icon-white{fill:#FFFFFF;} .icon-visualstudio-online{fill:#007ACC;}</style><path class="icon-canvas-transparent" d="M16 16h-16v-16h16v16z" id="canvas"/><path class="icon-white" d="M16 11.589l-2.643.881.796 1.513-.976 2.017h-7.053l-.834-1.962 1.837-3.492-1.377-.653v.716l-2.937.015c-1.668-.467-2.833-2-2.833-3.728 0-1.581.926-2.962 2.32-3.563.485-1.952 2.216-3.354 4.265-3.354 1.12 0 2.168.417 2.969 1.162.289-.074.587-.112.887-.112.797 0 1.561.285 2.185.783l.327-.3 3.067 1.023v9.054z" id="outline"/><path class="icon-visualstudio-online" d="M13.153 2.547l-3.87 3.548-1.935-1.613-1.359.645v3.87l1.359.645.453-.377.954-1.815h1.96l1.924 3.656.514.471 1.847-.708v-7.74l-1.847-.582zm-5.805 5.805v-2.58l1.29 1.29-1.29 1.29zm5.805.645l-2.58-1.935 2.58-1.935v3.87zm-1.374-6.547l-.752.689c-.187-.082-.39-.133-.606-.133-.674 0-1.242.432-1.47 1.036-.184-1.179-1.178-2.083-2.385-2.083-1.336 0-2.419 1.104-2.419 2.468 0 .213.034.415.084.612-.133-.029-.269-.05-.412-.05-1.026 0-1.859.848-1.859 1.895 0 .78.463 1.447 1.123 1.737h1.901v1.039h-1.901c-1.21-.338-2.103-1.45-2.103-2.764 0-1.365.943-2.511 2.202-2.804.169-1.746 1.622-3.112 3.383-3.112 1.087 0 2.062.514 2.685 1.334.353-.184.751-.284 1.17-.284.505-.001.965.162 1.359.42z" id="colorImportance"/><path class="icon-vs-yellow" d="M10.109 8.383h-1.224l-2.671 5.632.515.985h5.821l.484-1-2.925-5.617z" id="notificationBg"/><path class="icon-black" d="M10 11.868h-.929v-1.831h.929v1.831zm0 1.088h-.982v.982h.982v-.982z" id="notificationFg"/></svg>