<?xml version="1.0" encoding="iso-8859-1"?>
<!-- Generator: Adobe Illustrator 21.0.0, SVG Export Plug-In . SVG Version: 6.00 Build 0)  -->
<svg version="1.1" xmlns="http://www.w3.org/2000/svg" xmlns:xlink="http://www.w3.org/1999/xlink" x="0px" y="0px"
	 viewBox="0 0 16 16" style="enable-background:new 0 0 16 16;" xml:space="preserve">
<style type="text/css">
	.icon_x002D_canvas_x002D_transparent{opacity:0;fill:#F6F6F6;}
	.icon_x002D_vs_x002D_out{fill:#F6F6F6;}
	.icon_x002D_vs_x002D_bg{fill:#424242;}
	.icon_x002D_vs_x002D_fg{fill:#F0EFF1;}
	.icon_x002D_vs_x002D_blue{fill:#1BA1E2;}
</style>
<g id="canvas">
	<path class="icon_x002D_canvas_x002D_transparent" d="M16,16H0V0h16V16z"/>
</g>
<g id="outline">
	<path class="icon_x002D_vs_x002D_out" d="M16,4v8c0,1.658-1.597,3.017-4,3.636V16H0V8c0-1.474,0.811-2.75,2-3.443V4
		c0-2.28,3.01-4,7-4C12.99,0,16,1.72,16,4z"/>
</g>
<g id="iconBg">
	<path class="icon_x002D_vs_x002D_bg" d="M4.085,8.795C4.085,7.737,4.983,7,6.27,7c0.558,0,1.043,0.099,1.442,0.292L7.807,7.34
		L7.463,8.602L7.325,8.53C7.144,8.438,6.764,8.281,6.253,8.281c-0.459,0-0.664,0.204-0.664,0.406c0,0.262,0.23,0.397,0.928,0.673
		c1.012,0.382,1.484,0.95,1.484,1.786C8.001,12.001,7.396,13,5.688,13c-0.66,0-1.294-0.188-1.604-0.363L4,12.589l0.313-1.286
		l0.143,0.077c0.299,0.16,0.797,0.331,1.305,0.331c0.222,0,0.737-0.047,0.737-0.482c0-0.223-0.139-0.41-0.827-0.653
		C4.618,10.191,4.085,9.593,4.085,8.795z M4,5h7v10H1V8C1,6.344,2.343,5,4,5z M10,6H4C2.897,6,2,6.896,2,8v6h8V6z"/>
</g>
<g id="iconFg">
	<path class="icon_x002D_vs_x002D_fg" d="M13.997,4c0,0.499-0.734,1.132-1.997,1.552V4H4C3.999,4,3.998,4,3.997,4v0
		c0-0.815,1.948-2,5-2C12.049,2,13.997,3.185,13.997,4z M2,8v6h8V6H4C2.897,6,2,6.896,2,8z M6.27,7c0.558,0,1.043,0.099,1.442,0.292
		L7.807,7.34L7.463,8.602L7.325,8.53C7.144,8.438,6.764,8.281,6.253,8.281c-0.459,0-0.664,0.204-0.664,0.406
		c0,0.262,0.23,0.397,0.928,0.673c1.012,0.382,1.484,0.95,1.484,1.786C8.001,12.001,7.396,13,5.688,13
		c-0.66,0-1.294-0.188-1.604-0.363L4,12.589l0.313-1.286l0.143,0.077c0.299,0.16,0.797,0.331,1.305,0.331
		c0.222,0,0.737-0.047,0.737-0.482c0-0.223-0.139-0.41-0.827-0.653c-1.053-0.384-1.586-0.982-1.586-1.78C4.085,7.737,4.983,7,6.27,7
		z"/>
</g>
<g id="colorImportance">
	<path class="icon_x002D_vs_x002D_blue" d="M15,4v8c0,1.11-1.208,2.076-3,2.596V5.552C13.263,5.132,13.997,4.499,13.997,4
		c0-0.815-1.948-2-5-2c-3.052,0-5,1.185-5,2v0C3.651,4,3.321,4.059,3,4.142V4c0-1.657,2.687-3,6-3C12.314,1,15,2.343,15,4z"/>
</g>
</svg>
