<svg xmlns="http://www.w3.org/2000/svg" viewBox="0 0 16 16" enable-background="new 0 0 16 16"><path fill="#F6F6F6" d="M8.001 16c-4.411 0-8.001-3.589-8.001-8s3.59-8 8.001-8c1.542 0 3.016.432 4.3 1.254.174-.048.353-.073.534-.073 1.093 0 1.982.889 1.982 1.982 0 .183-.024.361-.071.532.831 1.288 1.262 2.766 1.254 4.31 0 4.406-3.587 7.995-7.999 7.995z"/><path fill="#4E8EF7" d="M13.593 3.792c.137-.17.224-.386.224-.629 0-.539-.443-.982-.982-.982-.232 0-.451.079-.629.224-1.172-.883-2.627-1.405-4.205-1.405-3.861 0-7 3.139-7 7s3.139 7 7 7 7-3.139 7-7c.008-1.578-.522-3.041-1.408-4.208zm-5.584 10.926c-3.711 0-6.718-3.016-6.718-6.718 0-3.711 3.016-6.718 6.718-6.718 1.504 0 2.896.498 4.022 1.334-.104.153-.17.347-.17.547 0 .539.443.982.982.982.202 0 .394-.066.547-.17.837 1.121 1.338 2.521 1.338 4.025 0 3.71-3.019 6.718-6.719 6.718zm0-9.567c1.574 0 2.849 1.276 2.849 2.849s-1.276 2.849-2.849 2.849-2.849-1.275-2.849-2.849 1.276-2.849 2.849-2.849z"/></svg>