<svg xmlns="http://www.w3.org/2000/svg" width="16" height="16"><style type="text/css">.icon-canvas-transparent{opacity:0;fill:#F6F6F6;} .icon-vs-out{fill:#F6F6F6;} .icon-vs-bg{fill:#424242;} .icon-vs-fg{fill:#F0EFF1;} .icon-visualstudio{fill:#68217A;}</style><path class="icon-canvas-transparent" d="M16 16h-16v-16h16v16z" id="canvas"/><path class="icon-vs-out" d="M15.449 10.619c-1.228 2.209-4.213 2.381-5.099 2.381l-.147-.002-.202-.006v1.626l-2.769 1.382h-.651l-2.59-2.586-1.995 2-1.995-2v-4.828l1.995-2 1.019 1.02c-.016-.185-.033-.37-.033-.566 0-4.685 5.844-7.036 9.115-7.036 1.148 0 2 .259 2.531.771.696.67.836 1.375.831 1.848-.014 1.321-1.086 2.418-2.132 3.391.572.05 1.073.217 1.491.498.648.397 1.902 1.819.631 4.107z" id="outline"/><path class="icon-vs-bg" d="M14.281,7.355c-0.423-0.292-1.048-0.435-1.918-0.315c0,0-2.095,0.504-0.523-1.008
		c1.335-1.286,3.667-3.025,2.095-4.537C12.363-0.017,3.982,1.999,3.982,7.04c0,0.504,0.067,0.958,0.183,1.374L6.092,6.49
		C5.745,6.424,5.481,6.12,5.481,5.754c0-0.414,0.336-0.75,0.75-0.75s0.75,0.336,0.75,0.75c0,0.039-0.006,0.077-0.012,0.115L10,7.382
		v4.61c0,0.002,0.158,0.006,0.236,0.006c0.005,0,3.234,0.125,4.339-1.865S14.281,7.355,14.281,7.355z M8.231,4.504
		c-0.414,0-0.75-0.336-0.75-0.75s0.336-0.75,0.75-0.75s0.75,0.336,0.75,0.75S8.645,4.504,8.231,4.504z M9.981,2.754
		c0-0.414,0.336-0.75,0.75-0.75s0.75,0.336,0.75,0.75s-0.336,0.75-0.75,0.75S9.981,3.168,9.981,2.754z" id="iconBg"/><path class="icon-vs-fg" d="M8.981 3.754c0 .414-.336.75-.75.75s-.75-.336-.75-.75.336-.75.75-.75.75.336.75.75zm1.75-1.75c-.414 0-.75.336-.75.75s.336.75.75.75.75-.336.75-.75-.336-.75-.75-.75zm-4.639 4.486l.707-.706.171.084.012-.115c0-.414-.336-.75-.75-.75s-.75.336-.75.75c-.001.367.263.671.61.737z" id="iconFg"/><path class="icon-visualstudio" d="M6.995 7l-3.002 3-1.996-2-.997 1v4l.995 1 1.998-2 3.003 3 2.004-1v-6l-2.005-1zm-4.995 5v-2l1 1-1 1zm3-1l2-2v4l-2-2z" id="colorImportance"/></svg>