<svg xmlns="http://www.w3.org/2000/svg" viewBox="0 0 16 16"><style>.st0{fill:#f6f6f6}.st1{fill:#424242}.st2{fill:#f0eff1}.st3{fill:#f16421}</style><g id="icon_x5F_bg"><path class="st0" d="M16 0H0v7.827l-.017.022.017.102V14h1.011l.335 2h10.172l.177-2H16z"/><path class="st1" d="M1 1v5.515l.941-1.235L2 4h12l.061 8h-2.188l-.089 1H15V1z"/><path class="st2" d="M11.873 12h2.08l-.025-8H9.281l2.954 3.93zM2.918 4h-.99l-.063 1.38z"/><path class="st3" d="M9 5.029H3.469L1 8l1.187 7h1.805L4 12.993 5.001 13v2h3v-2h1v2h1.623l.358-6.998L9 5.029zm.012 6.948L3.059 12l-.924-4.034L3.724 6H5v2h2.001V6h1.548l1.394 1.966-.931 4.011z"/></g><g id="icon_x5F_fg"><path class="st2" d="M8.549 6H7v2H5V6H3.724L2.135 7.966 3.066 12l6.053-.023.823-4.012L8.549 6zm-4.294 5.488c-.219 0-.397-.563-.397-1.258 0-.697.178-1.26.397-1.26.22 0 .397.563.397 1.26 0 .696-.177 1.258-.397 1.258zm3.632 0c-.221 0-.399-.563-.399-1.258 0-.697.178-1.26.399-1.26.218 0 .395.563.395 1.26 0 .696-.176 1.258-.395 1.258z"/><path class="st3" d="M4 9h1v2H4zM7 9h1v2H7z"/></g></svg>