<svg xmlns="http://www.w3.org/2000/svg" viewBox="0 0 16 16"><style>.icon-canvas-transparent{opacity:0;fill:#f6f6f6}.icon-white{fill:#fff}.icon-visualstudio{fill:#68217a}</style><path class="icon-canvas-transparent" d="M16 15.981H0v-16h16v16z" id="canvas"/><path class="icon-white" d="M2 4.615v6.754l6.004 3.477L14 11.42V4.61L7.997 1.154 2 4.615zm7.817-.134a.22.22 0 0 1 .044.005l1.005.247a.18.18 0 0 1 .134.174v6.148a.18.18 0 0 1-.135.174l-1.005.246a.177.177 0 0 1-.156-.035L6.51 8.86a.18.18 0 0 0-.225-.001l-1.51 1.103a.18.18 0 0 1-.211.01l-.484-.42A.178.178 0 0 1 4 9.403V6.559c0-.06.03-.116.08-.149l.484-.42a.178.178 0 0 1 .211.009l1.51 1.103a.18.18 0 0 0 .224-.001L9.703 4.52a.19.19 0 0 1 .114-.039zM4.875 7.156l1.123.826-1.123.824v-1.65zm2.152 1.007c-.125-.1-.11-.264.016-.363l2.784-2.261c.125-.101.173-.052.173.109v4.667c0 .16-.04.21-.166.11L7.027 8.163z" id="outline"/><g id="iconBg"><path class="icon-visualstudio" d="M15 4.031L7.996 0 1 4.038v7.908L8.001 16 15 12V4.031zm-1 7.389l-5.996 3.427L2 11.37V4.615l5.997-3.461L14 4.609v6.811zM6.397 7.142a.18.18 0 0 1-.112-.039L4.775 6a.18.18 0 0 0-.211-.01l-.484.42a.178.178 0 0 0-.08.149v2.844c0 .06.03.116.08.149l.484.42a.177.177 0 0 0 .211-.01l1.51-1.103a.182.182 0 0 1 .112-.039c.04 0 .08.013.112.04l3.194 2.581a.179.179 0 0 0 .156.035l1.005-.247a.18.18 0 0 0 .136-.174V4.907a.179.179 0 0 0-.135-.173L9.86 4.486a.177.177 0 0 0-.155.035L6.51 7.102a.178.178 0 0 1-.113.04zM4.875 8.806v-1.65l1.123.826-1.123.824zm2.168-1.007l2.784-2.261c.125-.1.173-.051.173.11v4.667c0 .16-.04.21-.166.11L7.027 8.163c-.125-.1-.11-.264.016-.364z"/><path class="icon-white" d="M4.875 7.156l1.123.826-1.123.824v-1.65z"/></g></svg>