<svg xmlns="http://www.w3.org/2000/svg" viewBox="0 0 16 16"><defs><style>.icon-canvas-transparent,.icon-vs-out{fill:#f6f6f6;}.icon-canvas-transparent{opacity:0;}.icon-vs-blue{fill:#1ba1e2;}</style></defs><title>AzureServiceFabric_blue_16x</title><g id="canvas"><path class="icon-canvas-transparent" d="M16,16H0V0H16Z"/></g><g id="outline"><path class="icon-vs-out" d="M11,16a3,3,0,0,1-2.225-1H7.225A2.993,2.993,0,0,1,2.69,11.094L2.331,9.925A3,3,0,0,1,3,4a2.945,2.945,0,0,1,1.089.208l.946-.757A2.949,2.949,0,0,1,5,3a3,3,0,0,1,6,0,2.949,2.949,0,0,1-.035.451l.946.757A2.945,2.945,0,0,1,13,4a3,3,0,0,1,.669,5.925l-.36,1.169A2.993,2.993,0,0,1,11,16Z"/></g><g id="iconBg"><path class="icon-vs-blue" d="M13,5a1.984,1.984,0,0,0-1.194.4L9.822,3.817a2,2,0,1,0-3.644,0L4.194,5.4A2,2,0,1,0,3,9c.031,0,.059-.008.09-.009l.737,2.4A1.995,1.995,0,1,0,6.723,14H9.277a1.995,1.995,0,1,0,2.9-2.613l.738-2.4c.03,0,.058.009.089.009a2,2,0,0,0,0-4Zm-1.761,6.024A1.9,1.9,0,0,0,11,11a2,2,0,0,0-2,2H7a2,2,0,0,0-2-2,2.08,2.08,0,0,0-.239.024L4.045,8.7a1.981,1.981,0,0,0,.777-2.515L6.806,4.6a1.966,1.966,0,0,0,2.388,0l1.984,1.587A1.981,1.981,0,0,0,11.954,8.7Z"/></g></svg>