<svg xmlns="http://www.w3.org/2000/svg" viewBox="0 0 16 16"><style>.icon-canvas-transparent{opacity:0;fill:#f6f6f6}.icon-vs-out{fill:#f6f6f6}.icon-vs-bg{fill:#424242}.icon-vs-fg{fill:#f0eff1}</style><path class="icon-canvas-transparent" d="M16 16H0V0h16v16z" id="canvas"/><path class="icon-vs-out" d="M11 16a2.999 2.999 0 0 1-2.225-1h-1.55c-.563.628-1.372 1-2.225 1-1.654 0-3-1.346-3-3 0-.695.236-1.351.665-1.877l-.388-1.211A3.005 3.005 0 0 1 0 7c0-1.654 1.346-3 3-3 .416 0 .825.089 1.204.258l.847-.72A2.85 2.85 0 0 1 5 3c0-1.654 1.346-3 3-3s3 1.346 3 3c0 .181-.017.361-.051.538l.848.72A2.95 2.95 0 0 1 13 4c1.654 0 3 1.346 3 3a3.006 3.006 0 0 1-2.276 2.912l-.388 1.212c.428.526.664 1.182.664 1.876 0 1.654-1.346 3-3 3z" id="outline"/><path class="icon-vs-bg" d="M13 5c-.498 0-.948.189-1.298.49L9.794 3.869C9.922 3.605 10 3.313 10 3a2 2 0 1 0-4 0c0 .313.078.605.206.869L4.298 5.49C3.948 5.189 3.498 5 3 5a2 2 0 1 0 0 4c.012 0 .022-.003.034-.003l.771 2.408A1.99 1.99 0 0 0 3 13a1.994 1.994 0 1 0 3.723 1h2.555c.346.595.984 1 1.723 1a1.993 1.993 0 1 0 1.196-3.595l.771-2.409c.01.001.021.004.032.004a2 2 0 1 0 0-4zm-1.734 6.027C11.178 11.015 11.091 11 11 11a2 2 0 0 0-2 2H7a2 2 0 0 0-2-2c-.091 0-.179.015-.267.027l-.736-2.303A1.99 1.99 0 0 0 5 7c0-.242-.049-.47-.128-.685l1.979-1.682a1.988 1.988 0 0 0 2.298 0l1.979 1.682A1.974 1.974 0 0 0 11 7c0 .74.406 1.378 1.003 1.724l-.737 2.303z" id="iconBg"/><g id="iconFg"><path class="icon-vs-fg" d="M12 8.724l-.737 2.303c-.088-.012-.175-.027-.266-.027a2 2 0 0 0-2 2h-2a2 2 0 0 0-2-2c-.091 0-.179.015-.267.027l-.736-2.303A1.99 1.99 0 0 0 4.997 7c0-.242-.049-.47-.128-.685l1.979-1.682a1.983 1.983 0 0 0 2.298 0l1.979 1.682a1.998 1.998 0 0 0-.128.685c0 .74.406 1.378 1.003 1.724z"/></g></svg>