<svg xmlns="http://www.w3.org/2000/svg" viewBox="0 0 16 16"><style>.icon-vs-bg{fill:#424242}.icon-vs-out{fill:#f6f6f6}.icon-canvas-transparent{opacity:0;fill:#f6f6f6}.st0{fill:#f0eff1}.st1{fill:#424242}</style><g id="outline"><path class="icon-canvas-transparent" d="M16 16H0V0h16v16z"/><path class="icon-vs-out" d="M16 3.556v8.445c0 .969-.701 2-2 2V16H0V8.001h4V2C4 .701 5.03 0 6 0h6.06L16 3.556z"/><path class="st0" d="M11 5V2H6v6h1V7h1v1h1.598l2.107-2H13v2h1V5h-3zM8 6H7V5h1v1zm0-2H7V3h1v1z"/><path class="st0" d="M10.998 8L12 7l.028 1h-1.03z"/></g><g id="iconBg"><path class="st1" d="M8 4H7V3h1v1zM8 6H7V5h1v1z"/><path class="st1" d="M15 4v8.001s-.039.969-1 .994V5h-3V2H6v6H5V2c0-1 .964-1 .964-1h5.675L15 4z"/><path class="st1" d="M9.597 8l2.107-2H13v2h-1V7l-1.002 1H9.597zM8 8H7V7h1v1z"/><path class="icon-vs-bg" d="M1 9v6h12V9H1z"/></g><g id="iconFg"><path class="st0" d="M4.106 12.941c0 .086-.008.175-.024.266a1.172 1.172 0 0 1-.229.514.892.892 0 0 1-.226.205c-.09.058-.197.103-.319.138a1.569 1.569 0 0 1-.421.052c-.073 0-.151-.005-.235-.017a2.43 2.43 0 0 1-.246-.046 1.76 1.76 0 0 1-.222-.068.795.795 0 0 1-.163-.081v-.802a1.914 1.914 0 0 0 .382.227c.073.032.149.059.225.08a.845.845 0 0 0 .224.031.482.482 0 0 0 .208-.04.402.402 0 0 0 .216-.248.52.52 0 0 0-.118-.516 1.081 1.081 0 0 0-.169-.147 3.699 3.699 0 0 0-.225-.147c-.266-.155-.461-.327-.584-.518a1.172 1.172 0 0 1-.184-.65c0-.181.028-.344.084-.492.056-.147.135-.273.237-.379a1.07 1.07 0 0 1 .37-.244c.143-.059.303-.089.48-.089.184 0 .341.017.471.048.13.031.233.065.309.101v.743a1.52 1.52 0 0 0-.509-.199 1.072 1.072 0 0 0-.195-.018.437.437 0 0 0-.41.269.558.558 0 0 0 .079.515c.075.1.198.2.369.301.123.069.235.143.337.219.101.077.188.164.26.26.072.096.128.204.168.323.04.118.06.256.06.409zM5.942 10.703v3.343h-.771v-3.343h-.808v-.665h2.398v.665h-.819zM8.846 12.621v1.425h-.774v-1.409l-.967-2.599h.883l.422 1.437c.021.077.036.151.047.224.011.073.023.138.034.196h.011l.029-.212c.01-.075.023-.138.038-.188L9 10.038h.813l-.967 2.583zM10.174 14.046v-4.008h.771v3.343h1.129v.665h-1.9z"/></g></svg>