<svg xmlns="http://www.w3.org/2000/svg" viewBox="0 0 16 16"><style>.st0{opacity:0}.st0,.st1{fill:#f6f6f6}.st2{fill:#424242}.st3{fill:#f0eff1}</style><g id="outline"><path class="st0" d="M0 0h16v16H0z"/><path class="st1" d="M11.775 0H8.243C5.65.76 3.75 3.153 3.75 5.989c0 .184.01.354.026.528.014.16.037.295.064.468L3.845 7H1v8h9v-2.75c.205 0 .406-.012.61-.031A6.22 6.22 0 0 0 16 7.762V4.325A6.202 6.202 0 0 0 11.775 0z"/></g><g id="icon_x5F_bg"><path class="st2" d="M2 8v6h7V8H2zm2 5H3v-1h1v1zm0-2H3v-1h1v1zm2 2H5v-1h1v1zm0-2H5v-1h1v1zm2 2H7v-1h1v1zm0-2H7v-1h1v1z"/><path class="st2" d="M15.241 5.822a5.246 5.246 0 1 0-10.468.631c.011.135.031.267.052.399l.002.013c.008.047.025.089.034.135h4.161c-.13-.012-.269-.012-.396-.026a9.266 9.266 0 0 1-.093-1.345c.004-.29.023-.566.051-.836.452.051.923.085 1.412.09.101.002.201.002.302.002.366 0 .737-.012 1.116-.04.028.254.049.513.053.785.004.433-.052.902-.157 1.402-.438.031-.868.037-1.306.034H10v.817a16.187 16.187 0 0 0 1.088-.019c-.229.743-.568 1.558-1.014 2.444-.025.001-.049.004-.074.004v.938A5.25 5.25 0 0 0 15.25 6c0-.06-.008-.118-.009-.178zm-9.538.481A3.817 3.817 0 0 1 5.688 6c0-.614.131-1.197.361-1.727.515.151 1.087.295 1.726.404a9.494 9.494 0 0 0-.058.944 9.68 9.68 0 0 0 .073 1.227 14.72 14.72 0 0 1-2.087-.545zm2.186-2.438a14.507 14.507 0 0 1-1.427-.327 4.32 4.32 0 0 1 1.976-1.554 9.835 9.835 0 0 0-.549 1.881zm2.115.2A12.427 12.427 0 0 1 8.7 3.982a9.12 9.12 0 0 1 .751-2.256c.18-.023.363-.038.549-.038.124 0 .245.008.366.019.351.608.708 1.384.915 2.33-.427.028-.849.032-1.277.028zm1.406-2.136a4.307 4.307 0 0 1 2.151 1.641c-.515.177-1 .3-1.463.372a8.655 8.655 0 0 0-.688-2.013zm-.372 8.253c.409-.86.725-1.661.929-2.395a9.548 9.548 0 0 0 2.164-.551 4.318 4.318 0 0 1-3.093 2.946zm3.261-3.902a8.806 8.806 0 0 1-2.136.647 6.907 6.907 0 0 0 .063-2.174 9.373 9.373 0 0 0 1.737-.453 4.29 4.29 0 0 1 .35 1.7c0 .095-.008.187-.014.28z"/></g><g id="icon_x5F_fg"><path class="st3" d="M3 10h1v1H3v-1zm4 0v1h1v-1H7zm-4 3h1v-1H3v1zm4 0h1v-1H7v1zm-2-2h1v-1H5v1zm0 2h1v-1H5v1zM12.227 4.754a9.373 9.373 0 0 0 1.737-.453c.224.522.349 1.096.349 1.699 0 .095-.008.187-.014.28a8.806 8.806 0 0 1-2.136.647 6.907 6.907 0 0 0 .064-2.173zM13.561 3.57c-.515.177-1 .3-1.463.372a8.766 8.766 0 0 0-.688-2.013 4.302 4.302 0 0 1 2.151 1.641zM10.004 7.065c-.477-.005-.935-.04-1.378-.092a9.243 9.243 0 0 1-.093-1.344c.004-.29.023-.566.051-.836.452.051.923.085 1.412.09.101.002.201.002.302.002.366 0 .737-.012 1.116-.04.028.254.049.513.053.785.004.433-.052.902-.157 1.402a16.77 16.77 0 0 1-1.306.033zM10 1.688c.124 0 .245.008.366.019.351.608.708 1.384.915 2.33-.428.029-.85.033-1.277.029A12.699 12.699 0 0 1 8.7 3.982a9.12 9.12 0 0 1 .751-2.256c.18-.023.363-.038.549-.038zM8.438 1.984a9.835 9.835 0 0 0-.549 1.881 14.507 14.507 0 0 1-1.427-.327 4.32 4.32 0 0 1 1.976-1.554zM5.688 6c0-.614.131-1.197.361-1.727.515.151 1.087.295 1.726.404a9.494 9.494 0 0 0-.058.944 9.68 9.68 0 0 0 .073 1.227 14.72 14.72 0 0 1-2.087-.545A3.817 3.817 0 0 1 5.688 6zM11.038 10.182c.409-.86.725-1.661.929-2.395a9.548 9.548 0 0 0 2.164-.551 4.318 4.318 0 0 1-3.093 2.946zM10.298 7.885c-.1 0-.198 0-.298-.002v2.43c.025 0 .049-.003.074-.004.445-.887.785-1.701 1.014-2.444-.266.012-.529.02-.79.02z"/></g></svg>