<svg xmlns="http://www.w3.org/2000/svg" viewBox="0 0 16 16"><style>.st0{opacity:0}.st0,.st1{fill:#f6f6f6}.st2{fill:none}.st3{fill:#1ba1e2}.st4{fill:#f0eff1}</style><g id="outline"><path class="st0" d="M0 0h16v16H0z"/><path class="st1" d="M5 7c.22-1.69 1.664-3 3.5-3 1.851 0 3.294 1.305 3.5 3v6H5V7z"/></g><g id="icon_x5F_bg"><path class="st2" d="M8.023 9h1v2h-1z"/><path class="st3" d="M6 12h5V8H6v4zm2-3h1v2H8V9zM8.523 6c.82 0 1.353.471 1.5 1h1c-.14-1.146-1.127-2-2.5-2-1.372 0-2.351.854-2.5 2h1c.14-.527.656-1 1.5-1z"/></g><path class="st4" d="M9 11H8V9h1v2z" id="icon_x5F_fg"/></svg>