<svg xmlns="http://www.w3.org/2000/svg" width="16" height="16"><style type="text/css">.icon-canvas-transparent{opacity:0;fill:#F6F6F6;} .icon-vs-out{fill:#F6F6F6;} .icon-vs-fg{fill:#F0EFF1;} .icon-vs-action-green{fill:#388A34;} .icon-visualstudio{fill:#68217A;}</style><path class="icon-canvas-transparent" d="M16 16h-16v-16h16v16z" id="canvas"/><path class="icon-vs-out" d="M16 4.249v1.791c-.156.75-.581 1.751-1.679 2.664-.471.43-1.19 1.941-1.271 2.323l-.013.066-.037.115v3.224l-1.506 1.568h-1.98l-1.514-1.564v-3.222l-.044-.114-.019-.073c-.082-.398-.787-1.902-1.3-2.368-.258-.215-.469-.436-.657-.659h-3.962v-2h-2.018v-3.982h2.018v-2.018h3.982v1.935c.649-.825 1.553-1.464 2.596-1.782 0-.001.194-.153.568-.153h2.568c1.482 0 3.825 2.076 4.268 4.249z" id="outline"/><path class="icon-visualstudio" d="M8.994 14.035h3.002l-.932.985h-1.125l-.945-.985zm.016-1.035h3v-.965h-3v.965zm6.064-7.95l-.002-.014.008-.077c0-2.178-1.654-3.979-3.938-4.016-.052-.09-1.142.022-1.142.022v.012c-.849.108-1.666.493-2.334 1.041h.334v2.857c0-.798.891-.875.891-.875h3.109s1 .125 1 1c0 0 .028 1.003-.961 1.003l-.476 2.997h-.563v-2.944l.017-.056c1.082 0 .928-1 .928-1h-2.945v.072c.004.223.088.928 1 .928v3h-.562l-.149-.711-.363-2.286c-.651 0-.859-.431-.926-.729v.726h-1.819c.125.563.445 1.27 1.228 1.922.721.653 1.452 2.388 1.559 2.904l.026.174h3.002l.074-.176c.107-.516.906-2.248 1.613-2.889 1.581-1.315 1.401-2.822 1.391-2.885z" id="iconBg"/><path class="icon-vs-fg" d="M12.039 6.003l-.476 2.997h-.563v-2.944l.017-.056c1.082 0 .928-1 .928-1h-2.945v.072c.004.223.088.928 1 .928v3h-.562l-.149-.711-.363-2.286c-.651 0-.859-.431-.926-.729v-.4c0-.797.891-.874.891-.874h3.109s1 .125 1 1c0 0 .028 1.003-.961 1.003z" id="iconFg"/><path class="icon-vs-action-green" d="M7 5h-2v2h-1.982v-2h-2.018v-1.982h2.018v-2.018h1.982v2.018h2v1.982z" id="colorAction"/></svg>