<svg xmlns="http://www.w3.org/2000/svg" width="16" height="16"><style type="text/css">.icon-vs-fg_x0020_2{fill:#F0EFF1;} .icon-vs-bg_x0020_2{fill:#424242;} .icon-vs-out_x0020_2{fill:#F6F6F6;} .icon-canvas-transparent_x0020_2{opacity:0;fill:#F6F6F6;}</style><path class="icon-canvas-transparent_x0020_2" d="M16 16h-16v-16h16v16z" id="canvas"/><path class="icon-vs-out_x0020_2" d="M2.414 13.663c-.878 0-1.576-.749-1.769-.979l-.061-.073-.047-.083c-.032-.058-.318-.581-.446-1.135-.136-.588-.06-1.162-.043-1.272l.09-.727.446-1.787c.104-.436.673-2.721 1.416-3.679.148-.19.323-.373.533-.558.133-.156.335-.293.611-.451l.267-.145c.248-.127.446-.215.549-.252l.253-.081c.287-.087.507-.141.68-.168l.054-.008.183-.037c.18-.025.344-.037.489-.037.415 0 .728.093.962.223h3.065c.212-.091.452-.143.718-.153l.159-.007c.332 0 .729.07 1.178.208.98.266 1.815.797 2.384 1.528.729.938 1.537 4.348 1.767 5.371l.104.787c.013.084.089.657-.047 1.245-.127.554-.414 1.076-.447 1.134l-.047.084-.061.073c-.193.228-.892.974-1.769.974-.722-.041-1.26-.543-2.031-1.455-.562-.665-1.24-1.067-1.549-1.229l-3.836.041c-.311.124-1.144.503-1.722 1.188-.777.921-1.314 1.423-1.943 1.459l-.09.001z" id="outline"/><path class="icon-vs-bg_x0020_2" d="M9.413 4.615c.328.348.533.814.533 1.33 0 .451-.16.86-.417 1.19-.235-.909-.61-1.521-1.013-1.929.282-.219.581-.421.897-.591zm-2.786-.048c-.353.353-.572.84-.572 1.378 0 .444.155.849.405 1.176.279-.939.655-1.56 1.051-1.961-.269-.205-.559-.406-.884-.593zm1.418 1.031c-.698.626-1.23 1.276-1.496 1.631.356.403.871.662 1.451.662.581 0 1.096-.26 1.453-.663-.223-.347-.686-.978-1.408-1.63zm6.943 5.249c-.053.627-.53 1.892-1.395 1.817-.695-.061-1.397-1.314-1.908-1.724-1.115-.896-1.862-.925-3.198-.94l-.487-.016-.483.015c-1.336.014-2.079.044-3.194.94-.512.411-1.213 1.664-1.908 1.724-.865.075-1.342-1.189-1.395-1.817-.085-.995.292-2.044.534-2.995.34-1.336.676-3.054 1.852-3.919.75-.552 1.803-.849 2.701-.638.376.089.744.12 1.188.12l.704.015c0-.007.476-.015.707-.015.444 0 .814-.031 1.19-.12.898-.212 1.952.086 2.702.638 1.176.864 1.512 2.583 1.852 3.919.244.951.622 2 .538 2.996zm-1.011-.451c-.024-.43-.13-.839-.234-1.254-.293-1.176-.525-2.425-1.057-3.521-.381-.784-1.068-1.225-1.911-1.372-.698-.122-1.404-.145-2.149-.14.21.074.405.182.577.318-.274-.007-.732.038-1.221.346-.489-.305-.937-.377-1.127-.393.157-.115.332-.206.518-.271-.727-.004-1.451.019-2.145.14-.843.147-1.527.588-1.908 1.372-.532 1.096-.764 2.345-1.057 3.521-.104.415-.21.824-.234 1.254-.01.178-.017 1.115.309 1.159.131.018.613-.683.681-.754.727-.768 1.824-1.638 2.917-1.802.656-.099 1.375-.049 2.064-.021 1-.028 1.411-.078 2.068.021 1.094.164 2.193 1.034 2.919 1.802.067.071.55.772.681.754.326-.044.319-.981.309-1.159z" id="iconBg"/><path class="icon-vs-fg_x0020_2" d="M13.668 11.555c-.131.018-.614-.683-.681-.754-.727-.768-1.825-1.638-2.919-1.802-.657-.099-1.068-.049-2.068-.021-.689-.028-1.408-.078-2.064.021-1.094.164-2.191 1.034-2.917 1.802-.067.071-.55.772-.681.754-.325-.045-.319-.981-.309-1.159.024-.43.13-.839.234-1.254.293-1.176.525-2.425 1.057-3.521.381-.784 1.065-1.225 1.908-1.372.695-.121 1.421-.145 2.149-.14-.797.263-1.377 1.005-1.377 1.891 0 1.105.895 2 2 2s2-.895 2-2c0-.886-.58-1.628-1.378-1.891.746-.005 1.454.018 2.152.14.843.147 1.531.588 1.911 1.372.532 1.096.764 2.344 1.057 3.521.104.415.21.824.234 1.254.011.178.018 1.115-.308 1.159z" id="iconFg"/></svg>